<svg id="bigger-than-business" width="225" height="100" viewBox="0 0 225 100" version="1.1" xmlns="http://www.w3.org/2000/svg" xmlns:xlink="http://www.w3.org/1999/xlink" xmlns:figma="http://www.figma.com/figma/ns"><title>Than Business + Type something Copy</title><desc>Created using Figma</desc><g id="Canvas" transform="translate(-1133 -1234)" figma:type="canvas"><rect x="1133" y="1234" width="225" height="100" fill="#FFFFFF"/><mask id="mask0_alpha" mask-type="alpha"><path d="M 886 185L 2326 185L 2326 5734L 886 5734L 886 185Z" fill="#FFFFFF"/></mask><g id="Desktop HD" style="mix-blend-mode:normal;" mask="url(#mask0_alpha)" figma:type="frame"><g id="Than Business + Type something Copy + There is a monumenta" style="mix-blend-mode:normal;" figma:type="frame"><g id="Than Business + Type something Copy" style="mix-blend-mode:normal;" figma:type="frame"><g id="Than Business" style="mix-blend-mode:normal;" figma:type="vector"><use xlink:href="#path0_fill" transform="translate(1133 1309)" fill="#333D47" style="mix-blend-mode:normal;"/><use xlink:href="#path1_fill" transform="translate(1133 1309)" fill="#333D47" style="mix-blend-mode:normal;"/><use xlink:href="#path2_fill" transform="translate(1133 1309)" fill="#333D47" style="mix-blend-mode:normal;"/><use xlink:href="#path3_fill" transform="translate(1133 1309)" fill="#333D47" style="mix-blend-mode:normal;"/><use xlink:href="#path4_fill" transform="translate(1133 1309)" fill="#333D47" style="mix-blend-mode:normal;"/><use xlink:href="#path5_fill" transform="translate(1133 1309)" fill="#333D47" style="mix-blend-mode:normal;"/><use xlink:href="#path6_fill" transform="translate(1133 1309)" fill="#333D47" style="mix-blend-mode:normal;"/><use xlink:href="#path7_fill" transform="translate(1133 1309)" fill="#333D47" style="mix-blend-mode:normal;"/><use xlink:href="#path8_fill" transform="translate(1133 1309)" fill="#333D47" style="mix-blend-mode:normal;"/><use xlink:href="#path9_fill" transform="translate(1133 1309)" fill="#333D47" style="mix-blend-mode:normal;"/><use xlink:href="#path10_fill" transform="translate(1133 1309)" fill="#333D47" style="mix-blend-mode:normal;"/><use xlink:href="#path11_fill" transform="translate(1133 1309)" fill="#333D47" style="mix-blend-mode:normal;"/></g><g id="Type something" style="mix-blend-mode:normal;" figma:type="vector"><use xlink:href="#path12_fill" transform="translate(1135.47 1234)" fill="#6E6E6E" fill-opacity="0.71725" style="mix-blend-mode:normal;"/><use xlink:href="#path13_fill" transform="translate(1135.47 1234)" fill="#6E6E6E" fill-opacity="0.71725" style="mix-blend-mode:normal;"/><use xlink:href="#path14_fill" transform="translate(1135.47 1234)" fill="#6E6E6E" fill-opacity="0.71725" style="mix-blend-mode:normal;"/><use xlink:href="#path15_fill" transform="translate(1135.47 1234)" fill="#6E6E6E" fill-opacity="0.71725" style="mix-blend-mode:normal;"/><use xlink:href="#path16_fill" transform="translate(1135.47 1234)" fill="#6E6E6E" fill-opacity="0.71725" style="mix-blend-mode:normal;"/><use xlink:href="#path17_fill" transform="translate(1135.47 1234)" fill="#6E6E6E" fill-opacity="0.71725" style="mix-blend-mode:normal;"/></g></g></g></g></g><defs><path id="path0_fill" d="M 13.9727 22.7273L 13.9727 24.6479L 3.94523 24.6479L 3.94523 22.7273L 7.23292 22.0871L 7.23292 4.80154L 2.95892 4.80154L 2.137 8.00256L 0 8.00256L 0 2.24072L 17.9179 2.24072L 17.9179 8.00256L 15.7809 8.00256L 14.959 4.80154L 10.685 4.80154L 10.685 22.0871L 13.9727 22.7273Z"/><path id="path1_fill" d="M 25.165 0L 25.165 9.66709C 27.028 8.1306 28.891 7.36235 30.754 7.36235C 32.6171 7.36235 33.9869 7.87452 34.8636 8.89884C 35.7404 9.90183 36.1787 11.3103 36.1787 13.1242L 36.1787 22.0871L 38.6445 22.8873L 38.6445 24.6479L 30.754 24.6479L 30.754 22.8873L 32.891 22.1191L 32.891 13.4443C 32.891 12.2919 32.6718 11.449 32.2335 10.9155C 31.7951 10.3606 31.1047 10.0832 30.1622 10.0832C 29.702 10.0832 29.2526 10.1472 28.8143 10.2753C 28.3759 10.382 27.9595 10.5314 27.565 10.7234C 27.1704 10.9155 26.8198 11.1289 26.5129 11.3636C 26.2061 11.577 25.954 11.7904 25.7567 12.0038L 25.165 12.644L 25.165 22.0871L 27.302 22.8873L 27.302 24.6479L 19.0827 24.6479L 19.0827 22.8873L 21.8773 22.0871L 21.8773 2.56082L 19.0827 1.92061L 19.0827 0.160051L 25.165 0Z"/><path id="path2_fill" d="M 42.1094 8.64276C 44.4765 7.78916 46.6464 7.36235 48.619 7.36235C 50.5478 7.36235 52.0273 7.74648 53.0574 8.51472C 54.0875 9.26163 54.6026 10.5314 54.6026 12.3239L 54.6026 22.0871L 57.2328 22.7273L 57.2328 24.4878L 52.1368 24.6479L 51.4464 22.4072C 49.693 24.1144 47.9615 24.968 46.2519 24.968C 44.5423 24.968 43.2601 24.5519 42.4053 23.7196C 41.5505 22.8873 41.1231 21.7029 41.1231 20.1665C 41.1231 16.8587 43.6437 15.2049 48.6848 15.2049L 51.3149 15.2049L 51.3149 12.644C 51.3149 10.7234 50.2738 9.76312 48.1916 9.76312C 47.0081 9.76312 46.0327 9.88049 45.2656 10.1152L 44.8711 10.2433L 44.4108 12.644L 42.2738 12.644L 42.1094 8.64276ZM 51.3149 17.2855L 49.0135 17.2855C 47.3697 17.2855 46.1971 17.4989 45.4957 17.9257C 44.8163 18.3312 44.4765 18.9714 44.4765 19.8463C 44.4765 20.6786 44.6738 21.3188 45.0683 21.767C 45.4848 22.1938 46.0765 22.4072 46.8437 22.4072C 47.2163 22.4072 47.5889 22.3431 47.9615 22.2151C 48.356 22.0871 48.7286 21.927 49.0793 21.735C 49.4519 21.5429 49.7807 21.3402 50.0656 21.1268C 50.3505 20.892 50.5807 20.6786 50.756 20.4866L 51.3149 19.8463L 51.3149 17.2855Z"/><path id="path3_fill" d="M 64.973 7.68246L 65.2689 9.95518C 65.488 9.78446 65.7949 9.54972 66.1894 9.25096C 66.5839 8.9522 67.0442 8.66411 67.5702 8.38668C 68.1182 8.10926 68.71 7.87452 69.3456 7.68246C 70.0031 7.46906 70.6826 7.36235 71.384 7.36235C 73.1593 7.36235 74.4744 7.87452 75.3292 8.89884C 76.2059 9.90183 76.6443 11.3103 76.6443 13.1242L 76.6443 22.0871L 79.11 22.8873L 79.11 24.6479L 71.2196 24.6479L 71.2196 22.8873L 73.3566 22.0871L 73.3566 13.4443C 73.3566 12.2919 73.1264 11.449 72.6662 10.9155C 72.2059 10.3606 71.5045 10.0832 70.562 10.0832C 70.1018 10.0832 69.6415 10.1472 69.1812 10.2753C 68.7429 10.382 68.3264 10.5314 67.9319 10.7234C 67.5593 10.9155 67.2196 11.1289 66.9127 11.3636C 66.6278 11.577 66.3867 11.7904 66.1894 12.0038L 65.6305 12.644L 65.6305 22.0871L 67.7675 22.8873L 67.7675 24.6479L 59.5483 24.6479L 59.5483 22.8873L 62.3428 22.0871L 62.3428 10.2433L 59.5483 9.60307L 59.5483 7.84251L 64.973 7.68246Z"/><path id="path4_fill" d="M 88.9898 24.6479L 88.9898 22.7273L 91.7843 22.0871L 91.7843 4.80154L 88.9898 4.16133L 88.9898 2.40077L 95.072 2.24072L 98.8529 2.24072C 101.001 2.24072 102.71 2.7102 103.982 3.64917C 105.275 4.58813 105.921 5.98591 105.921 7.84251C 105.921 10.5954 104.497 12.3239 101.647 13.0282C 103.357 13.4123 104.628 14.0525 105.461 14.9488C 106.316 15.8451 106.743 16.9441 106.743 18.2458C 106.743 22.5139 103.949 24.6479 98.3597 24.6479L 88.9898 24.6479ZM 95.072 14.2446L 95.072 22.0871L 98.5241 22.0871C 101.702 22.0871 103.291 20.86 103.291 18.4059C 103.291 16.8694 102.809 15.7917 101.845 15.1729C 100.902 14.554 99.4666 14.2446 97.5378 14.2446L 95.072 14.2446ZM 95.072 4.80154L 95.072 11.8438L 97.5378 11.8438C 99.072 11.8438 100.278 11.545 101.154 10.9475C 102.031 10.3286 102.469 9.44302 102.469 8.29065C 102.469 7.11694 102.119 6.242 101.417 5.66581C 100.716 5.08963 99.8063 4.80154 98.6885 4.80154L 95.072 4.80154Z"/><path id="path5_fill" d="M 126.137 7.68246L 126.137 22.0871L 128.931 22.7273L 128.931 24.4878L 123.507 24.6479L 123.178 22.4072C 122.257 23.1968 121.216 23.8263 120.055 24.2958C 118.893 24.7439 117.907 24.968 117.096 24.968C 115.342 24.968 114.027 24.4665 113.15 23.4635C 112.274 22.4605 111.835 21.0521 111.835 19.2382L 111.835 10.2433L 109.041 9.60307L 109.041 7.84251L 115.123 7.68246L 115.123 18.9181C 115.123 20.0491 115.353 20.892 115.813 21.4469C 116.274 21.9804 116.975 22.2471 117.918 22.2471C 118.86 22.2471 119.726 22.0337 120.515 21.6069C 121.304 21.1801 121.885 20.764 122.257 20.3585L 122.849 19.7183L 122.849 10.2433L 120.055 9.60307L 120.055 7.84251L 126.137 7.68246Z"/><path id="path6_fill" d="M 131.278 19.5262L 133.58 19.5262L 133.941 22.2791C 134.161 22.3645 134.5 22.4392 134.961 22.5032C 135.443 22.5459 135.914 22.5672 136.374 22.5672C 137.799 22.5672 138.829 22.3645 139.465 21.959C 140.122 21.5322 140.451 20.892 140.451 20.0384C 140.451 19.4622 140.221 19.0034 139.761 18.662C 139.322 18.3205 138.763 18.0324 138.084 17.7977C 137.405 17.563 136.659 17.3282 135.848 17.0935C 135.059 16.8587 134.325 16.56 133.646 16.1972C 132.966 15.8131 132.396 15.3222 131.936 14.7247C 131.498 14.1272 131.278 13.3376 131.278 12.356C 131.278 10.7554 131.826 9.53905 132.922 8.70678C 134.018 7.85318 135.476 7.40504 137.295 7.36235C 138.062 7.3837 138.84 7.44772 139.629 7.55442C 140.44 7.63978 141.262 7.8105 142.095 8.06658L 142.917 8.32266L 142.818 12.644L 140.681 12.644L 140.155 10.1472C 139.98 10.0832 139.64 10.0085 139.136 9.92317C 138.632 9.81647 138.095 9.76312 137.525 9.76312C 137.131 9.76312 136.758 9.79513 136.407 9.85915C 136.057 9.92317 135.739 10.0299 135.454 10.1793C 135.191 10.3286 134.972 10.542 134.796 10.8195C 134.643 11.0969 134.566 11.4383 134.566 11.8438C 134.566 12.4627 134.785 12.9535 135.224 13.3163C 135.684 13.6577 136.254 13.9565 136.933 14.2125C 137.613 14.4686 138.347 14.714 139.136 14.9488C 139.947 15.1835 140.692 15.493 141.372 15.8771C 142.051 16.2399 142.61 16.7093 143.048 17.2855C 143.509 17.8617 143.739 18.6193 143.739 19.5583C 143.739 20.4545 143.542 21.2441 143.147 21.927C 142.753 22.6099 142.216 23.1861 141.536 23.6556C 140.879 24.1037 140.1 24.4345 139.202 24.6479C 138.325 24.8826 137.383 25 136.374 25C 136.002 25 135.607 24.9787 135.191 24.936C 134.796 24.9146 134.402 24.872 134.007 24.8079C 133.613 24.7653 133.24 24.7119 132.889 24.6479C 132.561 24.5839 132.287 24.5198 132.068 24.4558L 131.311 24.2638L 131.278 19.5262Z"/><path id="path7_fill" d="M 150.83 0.160051C 152.255 0.160051 152.967 0.960306 152.967 2.56082C 152.967 3.22236 152.726 3.73453 152.244 4.09731C 151.762 4.46009 151.247 4.64148 150.699 4.64148C 150.107 4.64148 149.625 4.44942 149.252 4.0653C 148.88 3.65984 148.693 3.10499 148.693 2.40077C 148.693 1.69654 148.891 1.15237 149.285 0.768245C 149.702 0.362781 150.217 0.160051 150.83 0.160051ZM 152.639 7.68246L 152.639 22.0871L 155.104 22.8873L 155.104 24.6479L 146.556 24.6479L 146.556 22.8873L 149.351 22.0871L 149.351 10.2433L 146.556 9.60307L 146.556 7.84251L 152.639 7.68246Z"/><path id="path8_fill" d="M 162.994 7.68246L 163.29 9.95518C 163.509 9.78446 163.816 9.54972 164.21 9.25096C 164.605 8.9522 165.065 8.66411 165.591 8.38668C 166.139 8.10926 166.731 7.87452 167.366 7.68246C 168.024 7.46906 168.703 7.36235 169.405 7.36235C 171.18 7.36235 172.495 7.87452 173.35 8.89884C 174.227 9.90183 174.665 11.3103 174.665 13.1242L 174.665 22.0871L 177.131 22.8873L 177.131 24.6479L 169.24 24.6479L 169.24 22.8873L 171.377 22.0871L 171.377 13.4443C 171.377 12.2919 171.147 11.449 170.687 10.9155C 170.227 10.3606 169.525 10.0832 168.583 10.0832C 168.122 10.0832 167.662 10.1472 167.202 10.2753C 166.764 10.382 166.347 10.5314 165.953 10.7234C 165.58 10.9155 165.24 11.1289 164.933 11.3636C 164.648 11.577 164.407 11.7904 164.21 12.0038L 163.651 12.644L 163.651 22.0871L 165.788 22.8873L 165.788 24.6479L 157.569 24.6479L 157.569 22.8873L 160.363 22.0871L 160.363 10.2433L 157.569 9.60307L 157.569 7.84251L 162.994 7.68246Z"/><path id="path9_fill" d="M 194.228 16.5813L 182.885 16.6453C 182.885 18.3952 183.313 19.793 184.168 20.8387C 185.044 21.8843 186.206 22.4072 187.653 22.4072C 188.135 22.4072 188.617 22.3645 189.099 22.2791C 189.581 22.1938 190.031 22.0871 190.447 21.959C 190.885 21.831 191.28 21.6923 191.631 21.5429C 191.981 21.3722 192.277 21.2121 192.518 21.0627L 193.176 20.6466L 194.327 22.3111C 193.581 22.8873 192.891 23.3461 192.255 23.6876C 191.642 24.0077 190.907 24.3064 190.053 24.5839C 189.22 24.8399 188.31 24.968 187.324 24.968C 184.738 24.968 182.776 24.2104 181.439 22.6953C 180.102 21.1588 179.433 19.0674 179.433 16.4213C 179.433 15.0982 179.631 13.8818 180.025 12.7721C 180.42 11.6624 180.968 10.7128 181.669 9.92317C 182.392 9.11225 183.247 8.48271 184.233 8.03457C 185.22 7.58643 186.305 7.36235 187.488 7.36235C 192.091 7.36235 194.392 9.86982 194.392 14.8848L 194.228 16.5813ZM 183.017 14.2446L 190.907 14.2446C 190.907 12.9428 190.622 11.8865 190.053 11.0755C 189.483 10.2646 188.562 9.85915 187.291 9.85915C 186.042 9.85915 185.044 10.2753 184.299 11.1076C 183.554 11.9185 183.127 12.9641 183.017 14.2446Z"/><path id="path10_fill" d="M 197.064 19.5262L 199.366 19.5262L 199.727 22.2791C 199.947 22.3645 200.286 22.4392 200.747 22.5032C 201.229 22.5459 201.7 22.5672 202.16 22.5672C 203.585 22.5672 204.615 22.3645 205.251 21.959C 205.908 21.5322 206.237 20.892 206.237 20.0384C 206.237 19.4622 206.007 19.0034 205.547 18.662C 205.108 18.3205 204.549 18.0324 203.87 17.7977C 203.19 17.563 202.445 17.3282 201.634 17.0935C 200.845 16.8587 200.111 16.56 199.432 16.1972C 198.752 15.8131 198.182 15.3222 197.722 14.7247C 197.284 14.1272 197.064 13.3376 197.064 12.356C 197.064 10.7554 197.612 9.53905 198.708 8.70678C 199.804 7.85318 201.262 7.40504 203.081 7.36235C 203.848 7.3837 204.626 7.44772 205.415 7.55442C 206.226 7.63978 207.048 7.8105 207.881 8.06658L 208.703 8.32266L 208.604 12.644L 206.467 12.644L 205.941 10.1472C 205.766 10.0832 205.426 10.0085 204.922 9.92317C 204.418 9.81647 203.881 9.76312 203.311 9.76312C 202.916 9.76312 202.544 9.79513 202.193 9.85915C 201.842 9.92317 201.525 10.0299 201.24 10.1793C 200.977 10.3286 200.758 10.542 200.582 10.8195C 200.429 11.0969 200.352 11.4383 200.352 11.8438C 200.352 12.4627 200.571 12.9535 201.01 13.3163C 201.47 13.6577 202.04 13.9565 202.719 14.2125C 203.399 14.4686 204.133 14.714 204.922 14.9488C 205.733 15.1835 206.478 15.493 207.158 15.8771C 207.837 16.2399 208.396 16.7093 208.834 17.2855C 209.295 17.8617 209.525 18.6193 209.525 19.5583C 209.525 20.4545 209.327 21.2441 208.933 21.927C 208.538 22.6099 208.001 23.1861 207.322 23.6556C 206.664 24.1037 205.886 24.4345 204.988 24.6479C 204.111 24.8826 203.169 25 202.16 25C 201.788 25 201.393 24.9787 200.977 24.936C 200.582 24.9146 200.188 24.872 199.793 24.8079C 199.399 24.7653 199.026 24.7119 198.675 24.6479C 198.347 24.5839 198.073 24.5198 197.853 24.4558L 197.097 24.2638L 197.064 19.5262Z"/><path id="path11_fill" d="M 212.54 19.5262L 214.841 19.5262L 215.203 22.2791C 215.422 22.3645 215.762 22.4392 216.222 22.5032C 216.704 22.5459 217.175 22.5672 217.636 22.5672C 219.06 22.5672 220.09 22.3645 220.726 21.959C 221.384 21.5322 221.712 20.892 221.712 20.0384C 221.712 19.4622 221.482 19.0034 221.022 18.662C 220.584 18.3205 220.025 18.0324 219.345 17.7977C 218.666 17.563 217.92 17.3282 217.11 17.0935C 216.32 16.8587 215.586 16.56 214.907 16.1972C 214.227 15.8131 213.657 15.3222 213.197 14.7247C 212.759 14.1272 212.54 13.3376 212.54 12.356C 212.54 10.7554 213.088 9.53905 214.184 8.70678C 215.279 7.85318 216.737 7.40504 218.556 7.36235C 219.323 7.3837 220.101 7.44772 220.89 7.55442C 221.701 7.63978 222.523 7.8105 223.356 8.06658L 224.178 8.32266L 224.079 12.644L 221.942 12.644L 221.416 10.1472C 221.241 10.0832 220.901 10.0085 220.397 9.92317C 219.893 9.81647 219.356 9.76312 218.786 9.76312C 218.392 9.76312 218.019 9.79513 217.668 9.85915C 217.318 9.92317 217 10.0299 216.715 10.1793C 216.452 10.3286 216.233 10.542 216.057 10.8195C 215.904 11.0969 215.827 11.4383 215.827 11.8438C 215.827 12.4627 216.047 12.9535 216.485 13.3163C 216.945 13.6577 217.515 13.9565 218.194 14.2125C 218.874 14.4686 219.608 14.714 220.397 14.9488C 221.208 15.1835 221.953 15.493 222.633 15.8771C 223.312 16.2399 223.871 16.7093 224.31 17.2855C 224.77 17.8617 225 18.6193 225 19.5583C 225 20.4545 224.803 21.2441 224.408 21.927C 224.014 22.6099 223.477 23.1861 222.797 23.6556C 222.14 24.1037 221.362 24.4345 220.463 24.6479C 219.586 24.8826 218.644 25 217.636 25C 217.263 25 216.868 24.9787 216.452 24.936C 216.057 24.9146 215.663 24.872 215.268 24.8079C 214.874 24.7653 214.501 24.7119 214.151 24.6479C 213.822 24.5839 213.548 24.5198 213.329 24.4558L 212.573 24.2638L 212.54 19.5262Z"/><path id="path12_fill" d="M 15.5777 6.18379L 22.7832 6.18379C 27.4039 6.18379 31.0638 7.19152 33.763 9.20698C 36.508 11.1766 37.8805 14.1311 37.8805 18.0704C 37.8805 23.8878 35.1355 27.6667 29.6456 29.4074C 36.1877 31.2854 39.4588 34.9499 39.4588 40.4008C 39.4588 49.8826 33.5114 54.6235 21.6166 54.6235L 0 54.6235L 0 48.6458C 1.14373 48.2336 2.85933 47.661 5.1468 46.9281L 5.1468 14.2914L 0 12.2302L 0 6.52734L 15.5777 6.18379ZM 19.5578 33.1863L 15.5777 33.1863L 15.5777 46.5846L 21.2735 46.5846C 23.6524 46.5846 25.4595 46.0349 26.6948 44.9355C 27.9757 43.8362 28.6162 42.3246 28.6162 40.4008C 28.6162 37.9272 27.8842 36.1179 26.4203 34.9728C 24.9563 33.7818 22.6688 33.1863 19.5578 33.1863ZM 15.5777 14.2914L 15.5777 25.9719L 19.5578 25.9719C 24.6818 25.9719 27.2437 23.8419 27.2437 19.582C 27.2437 17.8414 26.6948 16.5359 25.5968 15.6656C 24.5445 14.7495 23.1492 14.2914 21.4107 14.2914L 15.5777 14.2914Z"/><path id="path13_fill" d="M 44.7584 18.0704L 60.3361 17.5207L 60.3361 47.4091L 65.1398 49.1268L 65.1398 54.6235L 44.7584 54.6235L 44.7584 49.1268L 50.2484 47.4091L 50.2484 24.9413L 44.7584 23.5671L 44.7584 18.0704ZM 48.9445 6.18379C 48.9445 4.30575 49.5164 2.81706 50.6601 1.71772C 51.8496 0.572572 53.2449 0 54.8462 0C 58.6891 0 60.6106 2.06127 60.6106 6.18379C 60.6106 8.10764 60.0158 9.64214 58.8264 10.7873C 57.6826 11.8866 56.3559 12.4363 54.8462 12.4363C 52.9704 12.4363 51.5065 11.9095 50.4542 10.856C 49.4477 9.75665 48.9445 8.19925 48.9445 6.18379Z"/><path id="path14_fill" d="M 69.8335 62.1815C 69.8335 60.4408 70.4283 58.8834 71.6178 57.5093C 72.8073 56.1351 73.9967 55.1961 75.1862 54.6922L 77.0391 53.9364C 76.7188 53.8906 76.3299 53.799 75.8725 53.6616C 75.415 53.5241 74.7973 53.0661 74.0196 52.2874C 73.2876 51.5087 72.9216 50.5468 72.9216 49.4016C 72.9216 47.9816 74.1111 45.3936 76.4901 41.6375C 72.9674 39.3014 71.206 35.7286 71.206 30.919C 71.206 26.3842 72.7158 22.9029 75.7352 20.4752C 78.8004 18.0475 82.7806 16.8337 87.6758 16.8337C 90.741 16.8337 93.4402 17.3833 95.7734 18.4827L 107.577 18.2078L 107.577 23.7045L 101.95 24.6665C 101.95 24.7123 102.064 25.0329 102.293 25.6284C 102.521 26.178 102.704 26.8422 102.842 27.6209C 103.025 28.3996 103.116 29.2241 103.116 30.0945C 103.116 34.8583 101.629 38.4082 98.6556 40.7443C 95.6819 43.0346 91.6789 44.1798 86.6464 44.1798C 86.0974 44.1798 85.5485 44.1568 84.9995 44.111C 84.4962 44.0652 84.0616 44.0194 83.6956 43.9736C 83.3754 43.882 83.1924 43.8362 83.1466 43.8362L 82.8721 48.4397L 93.0285 48.4397C 97.4204 48.4397 100.806 49.3558 103.185 51.188C 105.564 53.0203 106.753 55.6541 106.753 59.0896C 106.753 63.0289 105.129 66.1895 101.881 68.5714C 98.6785 70.9533 93.8977 72.1442 87.5386 72.1442C 81.7741 72.1442 77.3822 71.3884 74.3627 69.8768C 71.3433 68.3652 69.8335 65.8001 69.8335 62.1815ZM 87.3327 23.9107C 83.444 23.9107 81.4996 26.0864 81.4996 30.438C 81.4996 35.0186 83.3296 37.3089 86.9896 37.3089C 89.094 37.3089 90.5809 36.7592 91.4501 35.6599C 92.3651 34.5605 92.8226 32.8199 92.8226 30.438C 92.8226 26.0864 90.9926 23.9107 87.3327 23.9107ZM 90.2835 55.9977L 83.078 55.9977C 82.8492 56.0893 82.5519 56.2496 82.1859 56.4786C 81.8199 56.7077 81.3166 57.2115 80.6761 57.9902C 80.0814 58.7689 79.784 59.5934 79.784 60.4637C 79.784 62.1127 80.4474 63.2121 81.7741 63.7618C 83.1466 64.3114 85.3426 64.5863 88.362 64.5863C 91.473 64.5863 93.7147 64.2198 95.0872 63.4869C 96.4597 62.754 97.1459 61.5631 97.1459 59.9141C 97.1459 58.4483 96.5969 57.4176 95.4989 56.8222C 94.4467 56.2725 92.7082 55.9977 90.2835 55.9977Z"/><path id="path15_fill" d="M 112.053 62.1815C 112.053 60.4408 112.648 58.8834 113.838 57.5093C 115.027 56.1351 116.217 55.1961 117.406 54.6922L 119.259 53.9364C 118.939 53.8906 118.55 53.799 118.092 53.6616C 117.635 53.5241 117.017 53.0661 116.239 52.2874C 115.507 51.5087 115.141 50.5468 115.141 49.4016C 115.141 47.9816 116.331 45.3936 118.71 41.6375C 115.187 39.3014 113.426 35.7286 113.426 30.919C 113.426 26.3842 114.936 22.9029 117.955 20.4752C 121.02 18.0475 125 16.8337 129.896 16.8337C 132.961 16.8337 135.66 17.3833 137.993 18.4827L 149.797 18.2078L 149.797 23.7045L 144.169 24.6665C 144.169 24.7123 144.284 25.0329 144.513 25.6284C 144.741 26.178 144.924 26.8422 145.062 27.6209C 145.245 28.3996 145.336 29.2241 145.336 30.0945C 145.336 34.8583 143.849 38.4082 140.876 40.7443C 137.902 43.0346 133.899 44.1798 128.866 44.1798C 128.317 44.1798 127.768 44.1568 127.219 44.111C 126.716 44.0652 126.281 44.0194 125.915 43.9736C 125.595 43.882 125.412 43.8362 125.366 43.8362L 125.092 48.4397L 135.248 48.4397C 139.64 48.4397 143.026 49.3558 145.405 51.188C 147.784 53.0203 148.973 55.6541 148.973 59.0896C 148.973 63.0289 147.349 66.1895 144.101 68.5714C 140.898 70.9533 136.118 72.1442 129.758 72.1442C 123.994 72.1442 119.602 71.3884 116.583 69.8768C 113.563 68.3652 112.053 65.8001 112.053 62.1815ZM 129.553 23.9107C 125.664 23.9107 123.719 26.0864 123.719 30.438C 123.719 35.0186 125.549 37.3089 129.209 37.3089C 131.314 37.3089 132.801 36.7592 133.67 35.6599C 134.585 34.5605 135.042 32.8199 135.042 30.438C 135.042 26.0864 133.212 23.9107 129.553 23.9107ZM 132.503 55.9977L 125.298 55.9977C 125.069 56.0893 124.772 56.2496 124.406 56.4786C 124.04 56.7077 123.536 57.2115 122.896 57.9902C 122.301 58.7689 122.004 59.5934 122.004 60.4637C 122.004 62.1127 122.667 63.2121 123.994 63.7618C 125.366 64.3114 127.562 64.5863 130.582 64.5863C 133.693 64.5863 135.935 64.2198 137.307 63.4869C 138.68 62.754 139.366 61.5631 139.366 59.9141C 139.366 58.4483 138.817 57.4176 137.719 56.8222C 136.667 56.2725 134.928 55.9977 132.503 55.9977Z"/><path id="path16_fill" d="M 187.35 38.1334L 164.567 38.3395C 164.75 41.1795 165.573 43.3782 167.037 44.9355C 168.547 46.4929 170.469 47.2716 172.802 47.2716C 174.494 47.2716 176.302 47.0197 178.223 46.5159C 180.145 45.9662 181.631 45.4165 182.684 44.8668L 184.331 44.0423L 187.281 49.539C 186.778 49.9513 186.069 50.4781 185.154 51.1193C 184.239 51.7606 182.409 52.6309 179.664 53.7303C 176.919 54.7838 174.243 55.3106 171.635 55.3106C 165.825 55.3106 161.387 53.7074 158.322 50.501C 155.303 47.2487 153.793 42.6682 153.793 36.7592C 153.793 30.667 155.417 25.8345 158.665 22.2616C 161.913 18.643 166.397 16.8337 172.116 16.8337C 177.148 16.8337 181.014 18.2765 183.713 21.1623C 186.412 24.0481 187.762 27.9874 187.762 32.9802L 187.35 38.1334ZM 171.429 24.8726C 169.554 24.8726 168.021 25.5139 166.831 26.7964C 165.688 28.079 164.979 29.7967 164.704 31.9496L 177.056 31.9496C 177.056 27.2316 175.181 24.8726 171.429 24.8726Z"/><path id="path17_fill" d="M 191.992 18.0704L 206.197 17.5207L 206.815 22.2616C 207.181 21.8494 207.684 21.3455 208.324 20.7501C 208.965 20.1546 210.109 19.353 211.756 18.3452C 213.448 17.3375 214.981 16.8337 216.353 16.8337C 217.451 16.8337 218.504 16.9482 219.51 17.1772C 220.562 17.3604 221.34 17.5665 221.843 17.7956L 222.53 18.0704L 221.981 31.1251L 216.01 31.1251L 214.981 25.2848C 213.791 25.2848 212.579 25.6055 211.344 26.2468C 210.109 26.888 209.171 27.5293 208.53 28.1706L 207.57 29.1325L 207.57 47.4091L 214.089 49.1268L 214.089 54.6235L 191.992 54.6235L 191.992 49.1268L 197.482 47.4091L 197.482 24.9413L 191.992 23.5671L 191.992 18.0704Z"/></defs></svg>
