<svg  id="community" height="auto" width="100%" viewBox="0 0 100% 100%" preserveAspectRatio="xMidyMid slice" version="1.1" xmlns="http://www.w3.org/2000/svg" xmlns:xlink="http://www.w3.org/1999/xlink" xmlns:figma="http://www.figma.com/figma/ns"><title>Shape</title><desc>Created using Figma</desc><g id="Canvas" transform="translate(-1755 -1956)" figma:type="canvas"><rect x="1755" y="1956" width="123" height="123" fill="#FFFFFF"/><mask id="mask0_alpha" mask-type="alpha"><path d="M 886 185L 2326 185L 2326 5734L 886 5734L 886 185Z" fill="#FFFFFF"/></mask><g id="Desktop HD" style="mix-blend-mode:normal;" mask="url(#mask0_alpha)" figma:type="frame"><g id="Group Copy" style="mix-blend-mode:normal;" figma:type="frame"><g id="noun_258900_cc" style="mix-blend-mode:normal;" figma:type="frame"><g id="Shape" style="mix-blend-mode:normal;" figma:type="vector-operation"><use xlink:href="#path0_fill" transform="translate(1755 1956.86)" fill="#333D47" style="mix-blend-mode:normal;"/></g></g></g></g></g><defs><path id="path0_fill" fill-rule="evenodd" d="M 61.1229 0C 27.383 0 6.10352e-05 27.3473 6.10352e-05 61.0431C 6.10352e-05 94.7388 27.383 122.086 61.1229 122.086C 94.8626 122.086 122.246 94.7388 122.246 61.0431C 122.246 27.3473 94.8626 0 61.1229 0ZM 89.8505 39.678C 92.54 39.678 94.7404 41.8755 94.7404 44.5614C 94.7404 47.2473 92.54 49.4448 89.8505 49.4448C 87.1612 49.4448 84.9608 47.2473 84.9608 44.5614C 84.9608 41.7534 87.1612 39.678 89.8505 39.678ZM 67.8464 38.3351C 67.8464 34.6725 64.7902 31.6202 61.1229 31.6202C 57.4555 31.6202 54.3994 34.5504 54.3994 38.2129C 54.3994 41.8755 57.4555 44.9277 61.1229 44.9277C 64.7902 44.9277 67.8464 41.9976 67.8464 38.3351ZM 32.3951 39.678C 35.0845 39.678 37.285 41.8755 37.285 44.5614C 37.285 47.2473 35.0845 49.4448 32.3951 49.4448C 29.7057 49.4448 27.5053 47.2473 27.5053 44.5614C 27.5053 41.7534 29.7057 39.678 32.3951 39.678ZM 40.2188 70.8099C 41.808 70.8099 43.1528 69.4669 43.1528 67.8799C 43.1528 66.2927 43.1528 60.0664 43.0305 57.7467C 43.0305 53.4738 40.9523 51.3982 36.6738 51.3982L 27.9943 51.3982C 23.7156 51.3982 21.6375 53.4738 21.6375 57.7467L 21.6375 67.8799C 21.6375 69.4669 22.9822 70.8099 24.5714 70.8099L 25.5494 70.8099L 25.5494 76.67C 25.5494 80.4547 28.6055 82.5302 32.3951 82.5302C 36.1848 82.5302 39.2409 80.4547 39.2409 76.67L 39.2409 70.8099L 40.2188 70.8099ZM 75.9146 70.4436C 75.9146 72.6412 74.0809 74.4725 71.8804 74.4725L 70.5357 74.4725L 70.5357 82.5302C 70.5357 87.6578 66.3795 90.5879 61.1229 90.5879C 55.8663 90.5879 51.7099 87.7799 51.7099 82.5302L 51.7099 74.4725L 50.3652 74.4725C 48.1649 74.4725 46.3311 72.6412 46.3311 70.4436L 46.3311 56.4038C 46.3311 50.5436 49.1428 47.6135 55.1328 47.6135L 67.1129 47.6135C 72.9807 47.6135 75.9146 50.4215 75.9146 56.4038L 75.9146 70.4436ZM 97.6743 70.8099C 99.2635 70.8099 100.608 69.4669 100.608 67.8799C 100.608 66.2927 100.608 60.0664 100.486 57.7467C 100.486 53.4738 98.4078 51.3982 94.1292 51.3982L 85.4498 51.3982C 81.1711 51.3982 79.093 53.4738 79.093 57.7467L 79.093 67.8799C 79.093 69.4669 80.4377 70.8099 82.0268 70.8099L 83.0048 70.8099L 83.0048 76.67C 83.0048 80.4547 86.061 82.5302 89.8505 82.5302C 93.6402 82.5302 96.6964 80.4547 96.6964 76.67L 96.6964 70.8099L 97.6743 70.8099Z"/></defs></svg>
