<svg id="education" width="122" height="121" viewBox="0 0 122 121" version="1.1" xmlns="http://www.w3.org/2000/svg" xmlns:xlink="http://www.w3.org/1999/xlink" xmlns:figma="http://www.figma.com/figma/ns"><title>noun_159852_cc</title><desc>Created using Figma</desc><g id="Canvas" transform="translate(-1333 -1957)" figma:type="canvas"><rect x="1333" y="1957" width="122" height="121" fill="#FFFFFF"/><mask id="mask0_alpha" mask-type="alpha"><path d="M 886 185L 2326 185L 2326 5734L 886 5734L 886 185Z" fill="#FFFFFF"/></mask><g id="Desktop HD" style="mix-blend-mode:normal;" mask="url(#mask0_alpha)" figma:type="frame"><g id="Group Copy" style="mix-blend-mode:normal;" figma:type="frame"><g id="We are about educati + noun_159852_cc" style="mix-blend-mode:normal;" figma:type="frame"><g id="noun_159852_cc" style="mix-blend-mode:normal;" figma:type="frame"><g id="Shape" style="mix-blend-mode:normal;" figma:type="vector-operation"><use xlink:href="#path0_fill" transform="translate(1333.13 1957)" fill="#333D47" style="mix-blend-mode:normal;"/></g></g></g></g></g></g><defs><path id="path0_fill" fill-rule="evenodd" d="M 121.242 60.4456C 121.242 93.8279 94.1019 120.892 60.6217 120.892C 27.1415 120.89 7.62939e-06 93.8279 7.62939e-06 60.4456C 7.62939e-06 27.0632 27.1415 2.27374e-13 60.6202 2.27374e-13C 94.1019 2.27374e-13 121.242 27.0618 121.242 60.4456ZM 59.8799 38.0009L 59.9109 37.984C 59.1381 37.5768 42.6636 29.1075 27.9779 38.0009L 27.9992 38.0009L 27.9992 81.677C 42.6791 72.8048 59.1381 81.267 59.9109 81.6742L 59.9158 81.6716C 59.9176 81.6709 59.9192 81.6702 59.9208 81.6686L 59.9208 38.0009L 59.8799 38.0009ZM 61.4525 38.0023C 61.4525 38.0023 61.4441 37.9952 61.4229 37.9854C 62.1973 37.5782 78.6718 29.109 93.353 38.0009L 93.353 81.6953C 78.7311 72.8386 62.3428 81.1924 61.4299 81.6714L 61.4299 38.0023L 61.4525 38.0023Z"/></defs></svg>
