<svg id="logo" width="158" height="172" viewBox="0 0 158 172" version="1.1" xmlns="http://www.w3.org/2000/svg" xmlns:xlink="http://www.w3.org/1999/xlink" xmlns:figma="http://www.figma.com/figma/ns"><title>Middle</title><desc>Created using Figma</desc><g id="Canvas" transform="translate(-1520 164)" figma:type="canvas"><g id="Middle" style="mix-blend-mode:normal;" figma:type="frame"><g id="Group" style="mix-blend-mode:normal;" figma:type="frame"><g id="Group" style="mix-blend-mode:normal;" figma:type="frame"><g id="Ellipse" style="mix-blend-mode:normal;" opacity="0.8" figma:type="vector"><use xlink:href="#path0_fill" transform="translate(1596.14 -61.3733)" fill="#9CF162" style="mix-blend-mode:normal;"/></g><g id="Ellipse" style="mix-blend-mode:normal;" opacity="0.8" figma:type="vector"><use xlink:href="#path1_fill" transform="translate(1564.65 -139.92)" fill="#6DEF14" style="mix-blend-mode:normal;"/></g><g id="Ellipse" style="mix-blend-mode:normal;" opacity="0.8" figma:type="vector"><use xlink:href="#path2_fill" transform="translate(1576.1 -164)" fill="#9CF162" style="mix-blend-mode:normal;"/></g><g id="Ellipse" style="mix-blend-mode:normal;" opacity="0.8" figma:type="vector"><use xlink:href="#path3_fill" transform="translate(1554.92 -72.84)" fill="#B5EA91" style="mix-blend-mode:normal;"/></g><g id="Ellipse" style="mix-blend-mode:normal;" opacity="0.8" figma:type="vector"><use xlink:href="#path4_fill" transform="translate(1530.3 -133.9)" fill="#B5EA91" style="mix-blend-mode:normal;"/></g><g id="Ellipse" style="mix-blend-mode:normal;" opacity="0.8" figma:type="vector"><use xlink:href="#path5_fill" transform="translate(1520 -97.2067)" fill="#6DEF14" style="mix-blend-mode:normal;"/></g></g><g id="VBN" style="mix-blend-mode:normal;" figma:type="vector"><use xlink:href="#path6_fill" transform="translate(1549.63 -91.8751)" fill="#FFFFFF" style="mix-blend-mode:normal;"/><use xlink:href="#path7_fill" transform="translate(1549.63 -91.8751)" fill="#FFFFFF" style="mix-blend-mode:normal;"/><use xlink:href="#path8_fill" transform="translate(1549.63 -91.8751)" fill="#FFFFFF" style="mix-blend-mode:normal;"/></g></g><g id="Outside Lines" style="mix-blend-mode:normal;" figma:type="frame"><g id="Ellipse 2 (Stroke)" style="mix-blend-mode:normal;" figma:type="vector"><use xlink:href="#path9_fill" transform="translate(1527.59 -144.74)" style="mix-blend-mode:normal;"/></g><g id="Vector (Stroke)" style="mix-blend-mode:normal;" figma:type="vector"><use xlink:href="#path10_fill" transform="translate(1521 -149.608)" style="mix-blend-mode:normal;"/></g><g id="Vector 2 (Stroke)" style="mix-blend-mode:normal;" figma:type="vector"><use xlink:href="#path11_fill" transform="translate(1523.72 -142.675)" style="mix-blend-mode:normal;"/></g></g></g></g><defs><path id="path0_fill" d="M 69.2681 34.6867C 69.2681 53.8436 53.7619 69.3733 34.6341 69.3733C 15.5062 69.3733 0 53.8436 0 34.6867C 0 15.5298 15.5062 0 34.6341 0C 53.7619 0 69.2681 15.5298 69.2681 34.6867Z"/><path id="path1_fill" d="M 113.348 56.76C 113.348 88.1077 87.9741 113.52 56.6739 113.52C 25.3738 113.52 0 88.1077 0 56.76C 0 25.4123 25.3738 0 56.6739 0C 87.9741 0 113.348 25.4123 113.348 56.76Z"/><path id="path2_fill" d="M 62.971 31.5333C 62.971 48.9487 48.8745 63.0667 31.4855 63.0667C 14.0965 63.0667 0 48.9487 0 31.5333C 0 14.118 14.0965 0 31.4855 0C 48.8745 0 62.971 14.118 62.971 31.5333Z"/><path id="path3_fill" d="M 81.2899 40.42C 81.2899 62.7433 63.0925 80.84 40.6449 80.84C 18.1974 80.84 0 62.7433 0 40.42C 0 18.0966 18.1974 0 40.6449 0C 63.0925 0 81.2899 18.0966 81.2899 40.42Z"/><path id="path4_fill" d="M 65.8333 32.9667C 65.8333 51.1737 51.096 65.9333 32.9167 65.9333C 14.7373 65.9333 0 51.1737 0 32.9667C 0 14.7597 14.7373 0 32.9167 0C 51.096 0 65.8333 14.7597 65.8333 32.9667Z"/><path id="path5_fill" d="M 93.3116 46.7267C 93.3116 72.5331 72.4231 93.4533 46.6558 93.4533C 20.8885 93.4533 0 72.5331 0 46.7267C 0 20.9202 20.8885 0 46.6558 0C 72.4231 0 93.3116 20.9202 93.3116 46.7267Z"/><path id="path6_fill" d="M 12.96 33.84L 3.264 5.568L 0 4.224L 0 0.240002L 14.88 0L 14.88 4.224L 11.328 5.616L 15.744 19.488L 17.28 25.392L 18.816 19.728L 23.568 5.664L 19.92 4.224L 19.92 0.240002L 34.272 0L 34.272 4.224L 30.768 5.664L 20.64 33.84L 12.96 33.84Z"/><path id="path7_fill" d="M 47.4487 0L 52.4888 0C 55.7207 0 58.2808 0.704001 60.1688 2.112C 62.0888 3.488 63.0488 5.552 63.0488 8.304C 63.0488 12.368 61.1287 15.008 57.2887 16.224C 61.8647 17.536 64.1528 20.096 64.1528 23.904C 64.1528 30.528 59.9928 33.84 51.6728 33.84L 36.5527 33.84L 36.5527 29.664C 37.3527 29.376 38.5528 28.976 40.1528 28.464L 40.1528 5.664L 36.5527 4.224L 36.5527 0.240002L 47.4487 0ZM 50.2327 18.864L 47.4487 18.864L 47.4487 28.224L 51.4328 28.224C 53.0968 28.224 54.3608 27.84 55.2248 27.072C 56.1208 26.304 56.5688 25.248 56.5688 23.904C 56.5688 22.176 56.0568 20.912 55.0328 20.112C 54.0088 19.28 52.4088 18.864 50.2327 18.864ZM 47.4487 5.664L 47.4487 13.824L 50.2327 13.824C 53.8168 13.824 55.6088 12.336 55.6088 9.36C 55.6088 8.144 55.2247 7.232 54.4567 6.624C 53.7207 5.984 52.7448 5.664 51.5288 5.664L 47.4487 5.664Z"/><path id="path8_fill" d="M 81.7796 29.664L 81.7796 33.84L 67.8596 33.84L 67.8596 29.664L 71.4596 28.464L 71.4596 5.664L 67.8596 4.224L 67.8596 0.240002L 79.3796 0L 92.3396 22.176L 92.3396 5.664L 88.8356 4.224L 88.8356 0.240002L 102.516 0L 102.516 4.224L 98.9156 5.664L 98.9156 33.84L 90.8996 33.84L 78.0356 12.096L 78.0356 28.464L 81.7796 29.664Z"/><path id="path9_fill" fill-rule="evenodd" d="M 72.1301 138.66C 109.225 138.66 139.26 108.72 139.26 71.8302C 139.26 34.9405 109.225 5 72.1301 5C 35.0355 5 5 34.9405 5 71.8302C 5 108.72 35.0355 138.66 72.1301 138.66ZM 72.1301 143.66C 111.966 143.66 144.26 111.501 144.26 71.8302C 144.26 32.1595 111.966 0 72.1301 0C 32.2938 0 0 32.1595 0 71.8302C 0 111.501 32.2938 143.66 72.1301 143.66Z"/><path id="path10_fill" fill-rule="evenodd" d="M 99.5061 18.7466C 103.772 21.7326 107.976 24.1031 112.523 25.0446C 131.448 29.0121 144.624 36.0113 152.723 51.1345C 154.817 55.0449 155.867 61.5203 155.991 69.102C 156.114 76.7045 155.302 85.6343 153.564 94.4796C 151.824 103.323 149.13 112.208 145.517 119.705C 141.897 127.211 137.286 133.487 131.627 137.073C 120.545 144.063 108.188 145.223 96.0006 144.298C 89.0841 143.769 82.1681 142.588 75.4591 141.443C 70.3492 140.57 65.3595 139.718 60.5809 139.19C 49.2251 137.934 32.1894 130.325 19.1129 119.598C 6.09277 108.916 -3.45733 94.7414 1.19527 80.3268C 5.65686 66.5075 13.2404 48.8079 22.6645 33.6139C 32.0652 18.4628 43.4644 5.51452 55.6824 1.45878C 68.0254 -2.63843 77.7736 2.54238 86.5998 8.97974C 88.5616 10.411 90.4859 11.9097 92.3935 13.3955C 94.7766 15.2517 97.1338 17.0877 99.5061 18.7466ZM 85.4213 10.5956C 76.7089 4.2413 67.6836 -0.417657 56.3125 3.35694C 44.8165 7.17301 33.7368 19.5621 24.364 34.6683C 15.0144 49.7315 7.52974 67.2091 3.09858 80.9411C -1.14158 94.0779 7.46436 107.454 20.3814 118.051C 33.2421 128.602 49.9248 135.999 60.8009 137.203C 65.6521 137.74 70.6859 138.6 75.8128 139.476C 82.5005 140.618 89.3466 141.787 96.1526 142.304C 108.173 143.223 119.901 142.17 130.557 135.384C 135.767 132.082 140.172 126.182 143.716 118.836C 147.266 111.481 149.883 102.839 151.601 94.0937C 153.322 85.3504 154.115 76.6301 153.991 69.1347C 153.868 61.6186 152.818 55.5483 150.96 52.0788C 143.25 37.6827 130.736 30.9063 112.113 27.002C 107.274 25.9756 102.708 23.4262 98.3596 20.3853C 95.9385 18.6909 93.5504 16.831 91.1562 14.9663C 89.2548 13.4855 87.3496 12.0017 85.4213 10.5956Z"/><path id="path11_fill" fill-rule="evenodd" d="M 46.1233 8.73742C 37.1793 12.4184 29.4367 17.5575 24.4943 22.1278C 22.0837 24.3426 20.8871 25.9051 20.0663 27.52C 19.3236 28.9371 18.9718 30.3008 18.5072 32.1019C 18.4629 32.2738 18.4175 32.4497 18.3707 32.63C 17.2541 36.9273 15.6064 42.6633 8.42055 53.209C 1.92461 62.7421 3.4615 71.5061 7.44784 79.4953C 9.47151 83.5626 12.0892 87.3254 14.601 90.8528C 14.8116 91.1485 15.0215 91.4427 15.2304 91.7354C 17.5113 94.9318 19.6576 97.9395 20.98 100.617C 22.5267 103.776 23.6647 106.676 24.7266 109.382C 25.5758 111.547 26.3764 113.587 27.2985 115.537C 29.3641 119.93 31.9065 123.776 37.112 127.868C 42.168 131.873 54.3965 136.715 67.2289 138.906C 73.6159 139.999 79.9167 140.417 85.5632 139.768C 91.171 139.132 95.749 137.471 98.7661 134.628C 102.327 131.278 106.745 128.121 111.258 125.017C 112.017 124.496 112.779 123.975 113.542 123.453C 117.32 120.87 121.125 118.269 124.622 115.501C 133.061 108.827 139.213 101.576 139.213 91.9679C 139.215 86.9212 139.54 81.4035 139.874 75.7431C 140.247 69.4124 140.631 62.9031 140.584 56.6738C 140.498 44.778 138.841 34.4349 133.196 28.0229C 127.063 21.055 121.984 15.9035 116.491 12.4428C 111.05 8.97867 105.52 7.29862 98.0755 7.32024C 96.3608 7.31991 94.9557 7.3247 93.7855 7.32869C 89.7285 7.34253 88.4948 7.34674 86.967 7.09423C 86.4138 6.99681 85.837 6.86682 85.0572 6.6911C 83.2115 6.27517 80.2287 5.60301 73.7311 4.50008C 64.8522 2.98763 55.0517 5.05264 46.1233 8.73742ZM 44.5973 5.03993C 53.9081 1.19735 64.5082 -1.12858 74.4028 0.556884C 81.1584 1.71154 84.1989 2.39876 85.9593 2.79666C 86.6826 2.96014 87.1898 3.07479 87.6499 3.15294C 88.7419 3.35378 89.6491 3.34967 93.2249 3.33345C 94.475 3.32778 96.0512 3.32063 98.0755 3.32024C 106.106 3.34186 112.714 5.34152 118.629 9.06254C 124.492 12.7869 129.987 18.3259 136.198 25.3797C 142.897 32.9894 144.498 44.7018 144.584 56.645C 144.628 63.0345 144.238 69.6434 143.863 76.0033C 143.532 81.6274 143.212 87.0569 143.213 91.9679C 143.213 103.516 135.745 111.804 127.104 118.638C 123.478 121.504 119.558 124.185 115.748 126.79C 115.002 127.3 114.26 127.808 113.525 128.313C 109.04 131.397 104.866 134.369 101.51 137.539C 97.6101 141.214 92.055 143.058 86.014 143.743C 80.0117 144.416 73.1481 143.971 66.5559 142.849C 53.43 140.608 40.4412 135.608 34.6283 131.003C 28.9649 126.486 25.8818 121.898 23.6805 117.243C 22.6923 115.141 21.8552 113.008 20.9909 110.805C 19.9382 108.122 18.8451 105.337 17.3894 102.38C 16.2501 100.043 14.3333 97.3602 12.1328 94.2802C 11.8731 93.9167 11.6095 93.5477 11.3427 93.173C 8.81688 89.6259 6.02993 85.6011 3.86865 81.2812C -0.514902 72.4959 -2.46924 62.0869 5.115 50.9565C 12.0094 40.8387 13.4827 35.5362 14.4992 31.6241C 14.5203 31.5428 14.5414 31.4617 14.5623 31.3809C 15.0669 29.4361 15.5432 27.6001 16.5085 25.6919C 17.5065 23.767 19.1281 21.6474 21.7814 19.1884C 26.9669 14.411 35.302 8.8863 44.5973 5.03993Z"/></defs></svg>
