<svg id="logo" width="160" height="150" viewBox="0 0 160 150" version="1.1" xmlns="http://www.w3.org/2000/svg" xmlns:xlink="http://www.w3.org/1999/xlink" xmlns:figma="http://www.figma.com/figma/ns"><title>VeganBN-Logo-3</title><desc>Created using Figma</desc><g id="Canvas" transform="translate(-97 -286)" figma:type="canvas"><g id="VeganBN-Logo-3" style="mix-blend-mode:normal;" figma:type="frame"><g id="Logo" style="mix-blend-mode:normal;" figma:type="frame"><g id="Group" style="mix-blend-mode:normal;" figma:type="frame"><g id="Group" style="mix-blend-mode:normal;" opacity="0.9" figma:type="frame"><g id="Vector" style="mix-blend-mode:normal;" opacity="0.9" figma:type="vector"><use xlink:href="#path0_fill" transform="translate(113.501 305.55)" fill="#00FF7F" style="mix-blend-mode:normal;"/></g></g><g id="Group" style="mix-blend-mode:normal;" opacity="0.8" figma:type="frame"><g id="Vector" style="mix-blend-mode:normal;" opacity="0.8" figma:type="vector"><use xlink:href="#path1_fill" transform="translate(113.501 305.55)" fill="#00FF7F" style="mix-blend-mode:normal;"/></g></g><g id="Group" style="mix-blend-mode:normal;" opacity="0.6" figma:type="frame"><g id="Vector" style="mix-blend-mode:normal;" opacity="0.6" figma:type="vector"><use xlink:href="#path2_fill" transform="translate(170.882 321.198)" fill="#00FF7F" style="mix-blend-mode:normal;"/></g></g><g id="Group" style="mix-blend-mode:normal;" opacity="0.6" figma:type="frame"><g id="Vector" style="mix-blend-mode:normal;" opacity="0.6" figma:type="vector"><use xlink:href="#path3_fill" transform="translate(97 339.354)" fill="#00FF7F" style="mix-blend-mode:normal;"/></g></g><g id="Group" style="mix-blend-mode:normal;" opacity="0.4" figma:type="frame"><g id="Vector" style="mix-blend-mode:normal;" opacity="0.4" figma:type="vector"><use xlink:href="#path4_fill" transform="translate(185.235 374.857)" fill="#00FF7F" style="mix-blend-mode:normal;"/></g></g><g id="Group" style="mix-blend-mode:normal;" opacity="0.6" figma:type="frame"><g id="Vector" style="mix-blend-mode:normal;" opacity="0.6" figma:type="vector"><use xlink:href="#path5_fill" transform="translate(115.705 286)" fill="#00FF7F" style="mix-blend-mode:normal;"/></g></g><g id="Group" style="mix-blend-mode:normal;" opacity="0.8" figma:type="frame"><g id="Vector" style="mix-blend-mode:normal;" opacity="0.8" figma:type="vector"><use xlink:href="#path6_fill" transform="translate(199.641 306.898)" fill="#00FF7F" style="mix-blend-mode:normal;"/></g></g><g id="Group" style="mix-blend-mode:normal;" opacity="0.4" figma:type="frame"><g id="Vector" style="mix-blend-mode:normal;" opacity="0.4" figma:type="vector"><use xlink:href="#path7_fill" transform="translate(107.107 315.035)" fill="#00FF7F" style="mix-blend-mode:normal;"/></g></g><g id="Group" style="mix-blend-mode:normal;" opacity="0.4" figma:type="frame"><g id="Vector" style="mix-blend-mode:normal;" opacity="0.4" figma:type="vector"><use xlink:href="#path8_fill" transform="translate(171.588 406.473)" fill="#00FF7F" style="mix-blend-mode:normal;"/></g></g><g id="Dark-Circle-V" style="mix-blend-mode:normal;" figma:type="frame"><g id="Vector" style="mix-blend-mode:normal;" figma:type="vector"><use xlink:href="#path9_fill" transform="translate(145.774 338.754)" fill="#333D47" style="mix-blend-mode:normal;"/></g><g id="Outline" style="mix-blend-mode:normal;" figma:type="vector"><use xlink:href="#path10_stroke" transform="translate(113.501 305.55)" fill="#333D47" style="mix-blend-mode:normal;"/></g><g id="Vector" style="mix-blend-mode:normal;" figma:type="vector"><use xlink:href="#path11_stroke" transform="translate(115.706 306.543)" fill="#333D47" style="mix-blend-mode:normal;"/></g><g id="Vector" style="mix-blend-mode:normal;" figma:type="vector"><use xlink:href="#path12_stroke" transform="translate(107.107 309.225)" fill="#333D47" style="mix-blend-mode:normal;"/></g></g></g></g></g></g><defs><path id="path0_fill" d="M 57.412 114.824C 89.1198 114.824 114.824 89.1198 114.824 57.412C 114.824 25.7042 89.1198 0 57.412 0C 25.7042 0 0 25.7042 0 57.412C 0 89.1198 25.7042 114.824 57.412 114.824Z"/><path id="path1_fill" fill-rule="evenodd" d="M 57.783 0.0010006L 58.154 0.00500031L 58.524 0.00999947L 58.893 0.0190002L 59.262 0.0290005L 59.63 0.0419991L 59.998 0.0570004L 60.365 0.075L 60.731 0.0939991L 61.097 0.116L 61.462 0.141L 61.827 0.166999L 62.191 0.196L 62.554 0.227L 62.917 0.261001L 63.279 0.296001L 63.64 0.334001L 64.001 0.374999L 64.361 0.416999L 64.72 0.461L 65.079 0.508001L 65.437 0.557L 65.794 0.608001L 66.151 0.662L 66.506 0.717L 66.861 0.775001L 67.216 0.835L 67.57 0.897L 67.922 0.961L 68.275 1.028L 68.626 1.096L 68.977 1.167L 69.326 1.24L 69.676 1.315L 70.024 1.392L 70.371 1.471L 70.718 1.552L 71.064 1.636L 71.409 1.721L 71.753 1.809L 72.097 1.898L 72.439 1.99L 72.781 2.084L 73.122 2.179L 73.462 2.277L 73.801 2.377L 74.139 2.479L 74.477 2.583L 74.813 2.689L 75.149 2.797L 75.484 2.907L 75.818 3.018L 76.151 3.132L 76.483 3.248L 76.814 3.366L 77.144 3.486L 77.473 3.608L 77.801 3.731L 78.129 3.857L 78.455 3.985L 78.78 4.114L 79.105 4.246L 79.428 4.379L 79.751 4.515L 80.072 4.652L 80.392 4.791L 80.712 4.932L 81.03 5.075L 81.347 5.219L 81.664 5.366L 81.979 5.515L 82.293 5.665L 82.607 5.817L 82.919 5.971L 83.23 6.127L 83.54 6.285L 83.849 6.444L 84.156 6.605L 84.463 6.769L 84.769 6.933L 85.073 7.1L 85.377 7.269L 85.679 7.439L 85.98 7.611L 86.28 7.785L 86.579 7.96L 86.876 8.137L 87.173 8.316L 87.468 8.497L 87.762 8.68L 88.055 8.864L 88.347 9.05L 88.638 9.237L 88.927 9.427L 89.215 9.618L 89.502 9.81L 89.788 10.005L 90.073 10.201L 90.356 10.399L 90.638 10.598L 90.919 10.799L 91.198 11.002L 91.476 11.206L 91.753 11.412L 92.029 11.619L 92.304 11.828L 92.577 12.039L 92.849 12.252L 93.119 12.465L 93.388 12.681L 93.656 12.898L 93.923 13.117L 94.188 13.337L 94.452 13.559L 94.714 13.782L 94.975 14.007L 95.235 14.233L 95.494 14.461L 95.751 14.691L 96.006 14.922L 96.26 15.154L 96.513 15.388L 96.765 15.624L 97.015 15.861L 97.263 16.099L 97.51 16.339L 97.756 16.58L 98.001 16.823L 98.243 17.068L 98.485 17.313L 98.725 17.561L 98.963 17.809L 99.2 18.059L 99.436 18.311L 99.67 18.563L 99.902 18.818L 100.133 19.073L 100.362 19.33L 100.59 19.589L 100.817 19.849L 101.042 20.11L 101.265 20.372L 101.487 20.636L 101.707 20.901L 101.926 21.168L 102.143 21.436L 102.358 21.705L 102.572 21.975L 102.785 22.247L 102.995 22.52L 103.205 22.795L 103.412 23.07L 103.618 23.347L 103.822 23.626L 104.025 23.905L 104.226 24.186L 104.425 24.468L 104.623 24.751L 104.819 25.036L 105.013 25.321L 105.206 25.608L 105.397 25.897L 105.586 26.186L 105.774 26.477L 105.96 26.768L 106.144 27.061L 106.327 27.356L 106.507 27.651L 106.686 27.947L 106.864 28.245L 107.039 28.544L 107.213 28.844L 107.385 29.145L 107.555 29.447L 107.724 29.751L 107.89 30.055L 108.055 30.361L 108.218 30.667L 108.38 30.975L 108.539 31.284L 108.697 31.594L 108.853 31.905L 109.007 32.217L 109.159 32.531L 109.309 32.845L 109.458 33.16L 109.604 33.476L 109.749 33.794L 109.892 34.112L 110.033 34.432L 110.172 34.752L 110.309 35.073L 110.445 35.396L 110.578 35.719L 110.709 36.044L 110.839 36.369L 110.967 36.695L 111.092 37.023L 111.216 37.351L 111.338 37.68L 111.458 38.01L 111.576 38.341L 111.691 38.673L 111.805 39.006L 111.917 39.34L 112.027 39.675L 112.135 40.01L 112.241 40.347L 112.345 40.684L 112.447 41.023L 112.547 41.362L 112.644 41.702L 112.74 42.043L 112.834 42.385L 112.926 42.727L 113.015 43.071L 113.103 43.415L 113.188 43.76L 113.272 44.106L 113.353 44.453L 113.432 44.8L 113.509 45.148L 113.584 45.497L 113.657 45.847L 113.727 46.198L 113.796 46.549L 113.862 46.901L 113.927 47.254L 113.989 47.608L 114.049 47.962L 114.106 48.317L 114.162 48.673L 114.215 49.03L 114.267 49.387L 114.316 49.745L 114.362 50.104L 114.407 50.463L 114.449 50.823L 114.489 51.184L 114.527 51.545L 114.563 51.907L 114.596 52.27L 114.628 52.633L 114.656 52.997L 114.683 53.362L 114.707 53.727L 114.729 54.093L 114.749 54.459L 114.767 54.826L 114.782 55.194L 114.795 55.562L 114.805 55.931L 114.813 56.3L 114.819 56.67L 114.823 57.041L 114.824 57.412L 114.823 57.783L 114.819 58.153L 114.813 58.523L 114.805 58.893L 114.795 59.261L 114.782 59.63L 114.767 59.997L 114.749 60.364L 114.729 60.731L 114.707 61.096L 114.683 61.462L 114.656 61.826L 114.628 62.19L 114.596 62.553L 114.563 62.916L 114.527 63.278L 114.489 63.64L 114.449 64L 114.407 64.36L 114.362 64.72L 114.316 65.078L 114.267 65.436L 114.215 65.793L 114.162 66.15L 114.106 66.506L 114.049 66.861L 113.989 67.215L 113.927 67.569L 113.862 67.922L 113.796 68.274L 113.727 68.625L 113.657 68.976L 113.584 69.326L 113.509 69.675L 113.432 70.023L 113.353 70.371L 113.272 70.717L 113.188 71.063L 113.103 71.408L 113.015 71.753L 112.926 72.096L 112.834 72.439L 112.74 72.78L 112.644 73.121L 112.547 73.461L 112.447 73.801L 112.345 74.139L 112.241 74.476L 112.135 74.813L 112.027 75.148L 111.917 75.483L 111.805 75.817L 111.691 76.15L 111.576 76.482L 111.458 76.813L 111.338 77.143L 111.216 77.472L 111.092 77.801L 110.967 78.128L 110.839 78.454L 110.709 78.78L 110.578 79.104L 110.445 79.428L 110.309 79.75L 110.172 80.071L 110.033 80.392L 109.892 80.711L 109.749 81.03L 109.604 81.347L 109.458 81.663L 109.309 81.979L 109.159 82.293L 109.007 82.606L 108.853 82.918L 108.697 83.229L 108.539 83.539L 108.38 83.848L 108.218 84.156L 108.055 84.463L 107.89 84.768L 107.724 85.073L 107.555 85.376L 107.385 85.678L 107.213 85.979L 107.039 86.279L 106.864 86.578L 106.686 86.876L 106.507 87.172L 106.327 87.468L 106.144 87.762L 105.96 88.055L 105.774 88.347L 105.586 88.637L 105.397 88.927L 105.206 89.215L 105.013 89.502L 104.819 89.788L 104.623 90.072L 104.425 90.355L 104.226 90.637L 104.025 90.918L 103.822 91.198L 103.618 91.476L 103.412 91.753L 103.205 92.029L 102.995 92.303L 102.785 92.576L 102.572 92.848L 102.358 93.118L 102.143 93.388L 101.926 93.656L 101.707 93.922L 101.487 94.187L 101.265 94.451L 101.042 94.714L 100.817 94.975L 100.59 95.235L 100.362 95.493L 100.133 95.75L 99.902 96.006L 99.67 96.26L 99.436 96.513L 99.2 96.764L 98.963 97.014L 98.725 97.263L 98.485 97.51L 98.243 97.756L 98.001 98L 97.756 98.243L 97.51 98.484L 97.263 98.724L 97.015 98.963L 96.765 99.2L 96.513 99.435L 96.26 99.669L 96.006 99.901L 95.751 100.132L 95.494 100.362L 95.235 100.59L 94.975 100.816L 94.714 101.041L 94.452 101.265L 94.188 101.486L 93.923 101.707L 93.656 101.925L 93.388 102.142L 93.119 102.358L 92.849 102.572L 92.577 102.784L 92.304 102.995L 92.029 103.204L 91.753 103.412L 91.476 103.617L 91.198 103.822L 90.919 104.024L 90.638 104.225L 90.356 104.425L 90.073 104.622L 89.788 104.818L 89.502 105.013L 89.215 105.206L 88.927 105.397L 88.638 105.586L 88.347 105.773L 88.055 105.959L 87.762 106.144L 87.468 106.326L 87.173 106.507L 86.876 106.686L 86.579 106.863L 86.28 107.039L 85.98 107.212L 85.679 107.384L 85.377 107.555L 85.073 107.723L 84.769 107.89L 84.463 108.055L 84.156 108.218L 83.849 108.379L 83.54 108.539L 83.23 108.696L 82.919 108.852L 82.607 109.006L 82.293 109.158L 81.979 109.309L 81.664 109.457L 81.347 109.604L 81.03 109.749L 80.712 109.891L 80.392 110.032L 80.072 110.172L 79.751 110.309L 79.428 110.444L 79.105 110.577L 78.78 110.709L 78.455 110.838L 78.129 110.966L 77.801 111.092L 77.473 111.216L 77.144 111.337L 76.814 111.457L 76.483 111.575L 76.151 111.691L 75.818 111.805L 75.484 111.917L 75.149 112.027L 74.813 112.135L 74.477 112.241L 74.139 112.344L 73.801 112.446L 73.462 112.546L 73.122 112.644L 72.781 112.74L 72.439 112.833L 72.097 112.925L 71.753 113.015L 71.409 113.102L 71.064 113.188L 70.718 113.271L 70.371 113.352L 70.024 113.431L 69.676 113.508L 69.326 113.583L 68.977 113.656L 68.626 113.727L 68.275 113.795L 67.922 113.862L 67.57 113.926L 67.216 113.988L 66.861 114.048L 66.506 114.106L 66.151 114.161L 65.794 114.215L 65.437 114.266L 65.079 114.315L 64.72 114.362L 64.361 114.406L 64.001 114.449L 63.64 114.489L 63.279 114.527L 62.917 114.562L 62.554 114.596L 62.191 114.627L 61.827 114.656L 61.462 114.683L 61.097 114.707L 60.731 114.729L 60.365 114.749L 59.998 114.766L 59.63 114.781L 59.262 114.794L 58.893 114.805L 58.524 114.813L 58.154 114.819L 57.783 114.822L 57.412 114.823L 57.041 114.822L 56.671 114.819L 56.301 114.813L 55.931 114.805L 55.563 114.794L 55.194 114.781L 54.827 114.766L 54.46 114.749L 54.093 114.729L 53.727 114.707L 53.362 114.683L 52.998 114.656L 52.634 114.627L 52.27 114.596L 51.908 114.562L 51.546 114.527L 51.184 114.489L 50.824 114.449L 50.464 114.406L 50.104 114.362L 49.746 114.315L 49.388 114.266L 49.03 114.215L 48.674 114.161L 48.318 114.106L 47.963 114.048L 47.609 113.988L 47.255 113.926L 46.902 113.862L 46.55 113.795L 46.198 113.727L 45.848 113.656L 45.498 113.583L 45.149 113.508L 44.801 113.431L 44.453 113.352L 44.106 113.271L 43.761 113.188L 43.415 113.102L 43.071 113.015L 42.728 112.925L 42.385 112.833L 42.043 112.74L 41.703 112.644L 41.362 112.546L 41.023 112.446L 40.685 112.344L 40.348 112.241L 40.011 112.135L 39.675 112.027L 39.341 111.917L 39.007 111.805L 38.674 111.691L 38.342 111.575L 38.011 111.457L 37.681 111.337L 37.351 111.216L 37.023 111.092L 36.696 110.966L 36.369 110.838L 36.044 110.709L 35.72 110.577L 35.396 110.444L 35.074 110.309L 34.752 110.172L 34.432 110.032L 34.113 109.891L 33.794 109.749L 33.477 109.604L 33.161 109.457L 32.845 109.309L 32.531 109.158L 32.218 109.006L 31.906 108.852L 31.595 108.696L 31.285 108.539L 30.976 108.379L 30.668 108.218L 30.361 108.055L 30.056 107.89L 29.751 107.723L 29.448 107.555L 29.146 107.384L 28.845 107.212L 28.545 107.039L 28.246 106.863L 27.948 106.686L 27.652 106.507L 27.356 106.326L 27.062 106.144L 26.769 105.959L 26.477 105.773L 26.187 105.586L 25.897 105.397L 25.609 105.206L 25.322 105.013L 25.036 104.818L 24.752 104.622L 24.469 104.425L 24.186 104.225L 23.906 104.024L 23.626 103.822L 23.348 103.617L 23.071 103.412L 22.795 103.204L 22.521 102.995L 22.248 102.784L 21.976 102.572L 21.705 102.358L 21.436 102.142L 21.168 101.925L 20.902 101.707L 20.637 101.486L 20.373 101.265L 20.11 101.041L 19.849 100.816L 19.589 100.59L 19.331 100.362L 19.074 100.132L 18.818 99.901L 18.564 99.669L 18.311 99.435L 18.06 99.2L 17.81 98.963L 17.561 98.724L 17.314 98.484L 17.068 98.243L 16.824 98L 16.581 97.756L 16.34 97.51L 16.1 97.263L 15.861 97.014L 15.624 96.764L 15.389 96.513L 15.155 96.26L 14.922 96.006L 14.691 95.75L 14.462 95.493L 14.234 95.235L 14.008 94.975L 13.783 94.714L 13.559 94.451L 13.338 94.187L 13.117 93.922L 12.899 93.656L 12.682 93.388L 12.466 93.118L 12.252 92.848L 12.04 92.576L 11.829 92.303L 11.62 92.029L 11.412 91.753L 11.206 91.476L 11.002 91.198L 10.8 90.918L 10.598 90.637L 10.399 90.355L 10.201 90.072L 10.005 89.788L 9.811 89.502L 9.618 89.215L 9.427 88.927L 9.238 88.637L 9.05 88.347L 8.864 88.055L 8.68 87.762L 8.498 87.468L 8.317 87.172L 8.138 86.876L 7.961 86.578L 7.785 86.279L 7.611 85.979L 7.439 85.678L 7.269 85.376L 7.101 85.073L 6.934 84.768L 6.769 84.463L 6.606 84.156L 6.445 83.848L 6.285 83.539L 6.127 83.229L 5.972 82.918L 5.818 82.606L 5.665 82.293L 5.515 81.979L 5.367 81.663L 5.22 81.347L 5.075 81.03L 4.932 80.711L 4.791 80.392L 4.652 80.071L 4.515 79.75L 4.38 79.428L 4.246 79.104L 4.115 78.78L 3.985 78.454L 3.858 78.128L 3.732 77.801L 3.608 77.472L 3.487 77.143L 3.367 76.813L 3.249 76.482L 3.133 76.15L 3.019 75.817L 2.907 75.483L 2.797 75.148L 2.689 74.813L 2.583 74.476L 2.479 74.139L 2.378 73.801L 2.278 73.461L 2.18 73.121L 2.084 72.78L 1.99 72.439L 1.899 72.096L 1.809 71.753L 1.722 71.408L 1.636 71.063L 1.553 70.717L 1.472 70.371L 1.392 70.023L 1.315 69.675L 1.24 69.326L 1.168 68.976L 1.097 68.625L 1.028 68.274L 0.961999 67.922L 0.898 67.569L 0.836 67.215L 0.776 66.861L 0.718 66.506L 0.662 66.15L 0.609001 65.793L 0.558 65.436L 0.509 65.078L 0.461999 64.72L 0.416999 64.36L 0.374999 64L 0.335 63.64L 0.297 63.278L 0.260999 62.916L 0.228 62.553L 0.197 62.19L 0.168001 61.826L 0.141 61.462L 0.117 61.096L 0.0950007 60.731L 0.0750002 60.364L 0.058 59.997L 0.0430006 59.63L 0.0300001 59.261L 0.0190005 58.893L 0.0109991 58.523L 0.00500052 58.153L 0.00200026 57.783L -5.49316e-07 57.412L 0.00200026 57.041L 0.00500052 56.67L 0.0109991 56.3L 0.0190005 55.931L 0.0300001 55.562L 0.0430006 55.194L 0.058 54.826L 0.0750002 54.459L 0.0950007 54.093L 0.117 53.727L 0.141 53.362L 0.168001 52.997L 0.197 52.633L 0.228 52.27L 0.260999 51.907L 0.297 51.545L 0.335 51.184L 0.374999 50.823L 0.416999 50.463L 0.461999 50.104L 0.509 49.745L 0.558 49.387L 0.609001 49.03L 0.662 48.673L 0.718 48.317L 0.776 47.962L 0.836 47.608L 0.898 47.254L 0.961999 46.901L 1.028 46.549L 1.097 46.198L 1.168 45.847L 1.24 45.497L 1.315 45.148L 1.392 44.8L 1.472 44.453L 1.553 44.106L 1.636 43.76L 1.722 43.415L 1.809 43.071L 1.899 42.727L 1.99 42.385L 2.084 42.043L 2.18 41.702L 2.278 41.362L 2.378 41.023L 2.479 40.684L 2.583 40.347L 2.689 40.01L 2.797 39.675L 2.907 39.34L 3.019 39.006L 3.133 38.673L 3.249 38.341L 3.367 38.01L 3.487 37.68L 3.608 37.351L 3.732 37.023L 3.858 36.695L 3.985 36.369L 4.115 36.044L 4.246 35.719L 4.38 35.396L 4.515 35.073L 4.652 34.752L 4.791 34.432L 4.932 34.112L 5.075 33.794L 5.22 33.476L 5.367 33.16L 5.515 32.845L 5.665 32.531L 5.818 32.217L 5.972 31.905L 6.127 31.594L 6.285 31.284L 6.445 30.975L 6.606 30.667L 6.769 30.361L 6.934 30.055L 7.101 29.751L 7.269 29.447L 7.439 29.145L 7.611 28.844L 7.785 28.544L 7.961 28.245L 8.138 27.947L 8.317 27.651L 8.498 27.356L 8.68 27.061L 8.864 26.768L 9.05 26.477L 9.238 26.186L 9.427 25.897L 9.618 25.608L 9.811 25.321L 10.005 25.036L 10.201 24.751L 10.399 24.468L 10.598 24.186L 10.8 23.905L 11.002 23.626L 11.206 23.347L 11.412 23.07L 11.62 22.795L 11.829 22.52L 12.04 22.247L 12.252 21.975L 12.466 21.705L 12.682 21.436L 12.899 21.168L 13.117 20.901L 13.338 20.636L 13.559 20.372L 13.783 20.11L 14.008 19.849L 14.234 19.589L 14.462 19.33L 14.691 19.073L 14.922 18.818L 15.155 18.563L 15.389 18.311L 15.624 18.059L 15.861 17.809L 16.1 17.561L 16.34 17.313L 16.581 17.068L 16.824 16.823L 17.068 16.58L 17.314 16.339L 17.561 16.099L 17.81 15.861L 18.06 15.624L 18.311 15.388L 18.564 15.154L 18.818 14.922L 19.074 14.691L 19.331 14.461L 19.589 14.233L 19.849 14.007L 20.11 13.782L 20.373 13.559L 20.637 13.337L 20.902 13.117L 21.168 12.898L 21.436 12.681L 21.705 12.465L 21.976 12.252L 22.248 12.039L 22.521 11.828L 22.795 11.619L 23.071 11.412L 23.348 11.206L 23.626 11.002L 23.906 10.799L 24.186 10.598L 24.469 10.399L 24.752 10.201L 25.036 10.005L 25.322 9.81L 25.609 9.618L 25.897 9.427L 26.187 9.237L 26.477 9.05L 26.769 8.864L 27.062 8.68L 27.356 8.497L 27.652 8.316L 27.948 8.137L 28.246 7.96L 28.545 7.785L 28.845 7.611L 29.146 7.439L 29.448 7.269L 29.751 7.1L 30.056 6.933L 30.361 6.769L 30.668 6.605L 30.976 6.444L 31.285 6.285L 31.595 6.127L 31.906 5.971L 32.218 5.817L 32.531 5.665L 32.845 5.515L 33.161 5.366L 33.477 5.219L 33.794 5.075L 34.113 4.932L 34.432 4.791L 34.752 4.652L 35.074 4.515L 35.396 4.379L 35.72 4.246L 36.044 4.114L 36.369 3.985L 36.696 3.857L 37.023 3.731L 37.351 3.608L 37.681 3.486L 38.011 3.366L 38.342 3.248L 38.674 3.132L 39.007 3.018L 39.341 2.907L 39.675 2.797L 40.011 2.689L 40.348 2.583L 40.685 2.479L 41.023 2.377L 41.362 2.277L 41.703 2.179L 42.043 2.084L 42.385 1.99L 42.728 1.898L 43.071 1.809L 43.415 1.721L 43.761 1.636L 44.106 1.552L 44.453 1.471L 44.801 1.392L 45.149 1.315L 45.498 1.24L 45.848 1.167L 46.198 1.096L 46.55 1.028L 46.902 0.961L 47.255 0.897L 47.609 0.835L 47.963 0.775001L 48.318 0.717L 48.674 0.662L 49.03 0.608001L 49.388 0.557L 49.746 0.508001L 50.104 0.461L 50.464 0.416999L 50.824 0.374999L 51.184 0.334001L 51.546 0.296001L 51.908 0.261001L 52.27 0.227L 52.634 0.196L 52.998 0.166999L 53.362 0.141L 53.727 0.116L 54.093 0.0939991L 54.46 0.075L 54.827 0.0570004L 55.194 0.0419991L 55.563 0.0290005L 55.931 0.0190002L 56.301 0.00999947L 56.671 0.00500031L 57.041 0.0010006L 57.412 -7.62939e-07L 57.783 0.0010006L 57.783 0.0010006ZM 57.048 1.001L 56.684 1.004L 56.32 1.01L 55.956 1.018L 55.594 1.029L 55.232 1.041L 54.871 1.056L 54.511 1.073L 54.15 1.093L 53.791 1.114L 53.432 1.138L 53.073 1.165L 52.716 1.193L 52.359 1.224L 52.003 1.256L 51.647 1.291L 51.292 1.329L 50.937 1.368L 50.583 1.41L 50.231 1.453L 49.878 1.499L 49.526 1.548L 49.175 1.598L 48.825 1.65L 48.476 1.705L 48.127 1.762L 47.778 1.821L 47.431 1.882L 47.084 1.945L 46.738 2.01L 46.393 2.077L 46.049 2.147L 45.705 2.218L 45.362 2.292L 45.019 2.368L 44.678 2.445L 44.338 2.525L 43.998 2.607L 43.659 2.691L 43.32 2.777L 42.984 2.865L 42.647 2.955L 42.31 3.047L 41.976 3.141L 41.642 3.237L 41.309 3.335L 40.976 3.436L 40.645 3.538L 40.314 3.642L 39.985 3.748L 39.655 3.856L 39.328 3.966L 39 4.078L 38.674 4.191L 38.349 4.307L 38.025 4.425L 37.701 4.545L 37.379 4.666L 37.057 4.79L 36.736 4.915L 36.417 5.042L 36.098 5.171L 35.781 5.302L 35.464 5.435L 35.148 5.57L 34.833 5.707L 34.519 5.845L 34.207 5.986L 33.894 6.128L 33.584 6.272L 33.274 6.418L 32.965 6.566L 32.658 6.715L 32.351 6.866L 32.046 7.02L 31.741 7.175L 31.437 7.331L 31.135 7.49L 30.834 7.65L 30.533 7.812L 30.234 7.976L 29.936 8.141L 29.639 8.309L 29.343 8.478L 29.048 8.648L 28.755 8.821L 28.462 8.995L 28.171 9.171L 27.881 9.349L 27.592 9.528L 27.304 9.709L 27.018 9.891L 26.732 10.076L 26.447 10.262L 26.164 10.45L 25.882 10.639L 25.601 10.83L 25.321 11.023L 25.044 11.217L 24.766 11.413L 24.49 11.61L 24.216 11.809L 23.942 12.01L 23.67 12.212L 23.399 12.416L 23.13 12.622L 22.86 12.829L 22.593 13.038L 22.328 13.248L 22.063 13.46L 21.801 13.673L 21.539 13.888L 21.277 14.105L 21.018 14.322L 20.761 14.542L 20.504 14.763L 20.249 14.985L 19.995 15.209L 19.742 15.435L 19.49 15.662L 19.241 15.89L 18.993 16.12L 18.745 16.352L 18.5 16.584L 18.256 16.819L 18.012 17.055L 17.771 17.292L 17.531 17.531L 17.293 17.77L 17.055 18.012L 16.819 18.255L 16.585 18.499L 16.352 18.745L 16.121 18.992L 15.891 19.24L 15.662 19.49L 15.435 19.742L 15.21 19.994L 14.986 20.248L 14.763 20.503L 14.542 20.76L 14.322 21.018L 14.105 21.277L 13.889 21.537L 13.674 21.8L 13.46 22.063L 13.249 22.327L 13.038 22.593L 12.829 22.861L 12.622 23.129L 12.417 23.398L 12.213 23.669L 12.011 23.942L 11.81 24.215L 11.611 24.489L 11.414 24.766L 11.217 25.043L 11.023 25.321L 10.83 25.601L 10.639 25.881L 10.451 26.163L 10.263 26.447L 10.076 26.732L 9.892 27.017L 9.71 27.303L 9.529 27.591L 9.349 27.88L 9.172 28.17L 8.995 28.462L 8.821 28.754L 8.649 29.048L 8.478 29.342L 8.309 29.639L 8.142 29.936L 7.977 30.233L 7.812 30.533L 7.651 30.833L 7.49 31.134L 7.332 31.437L 7.175 31.74L 7.02 32.045L 6.867 32.351L 6.716 32.657L 6.566 32.965L 6.418 33.274L 6.272 33.583L 6.129 33.894L 5.986 34.206L 5.846 34.518L 5.708 34.832L 5.571 35.147L 5.436 35.463L 5.303 35.78L 5.172 36.098L 5.043 36.416L 4.916 36.736L 4.79 37.057L 4.667 37.379L 4.545 37.701L 4.426 38.023L 4.308 38.349L 4.192 38.674L 4.078 39L 3.966 39.327L 3.856 39.655L 3.748 39.983L 3.642 40.314L 3.538 40.645L 3.436 40.976L 3.336 41.308L 3.238 41.641L 3.142 41.976L 3.047 42.31L 2.956 42.646L 2.865 42.983L 2.777 43.32L 2.691 43.658L 2.608 43.997L 2.526 44.337L 2.446 44.677L 2.368 45.019L 2.292 45.362L 2.219 45.704L 2.147 46.048L 2.078 46.392L 2.01 46.738L 1.945 47.084L 1.882 47.43L 1.821 47.778L 1.762 48.126L 1.706 48.475L 1.651 48.825L 1.599 49.174L 1.548 49.526L 1.5 49.878L 1.454 50.23L 1.41 50.583L 1.369 50.937L 1.329 51.291L 1.292 51.646L 1.257 52.002L 1.224 52.358L 1.194 52.716L 1.165 53.074L 1.139 53.431L 1.115 53.79L 1.094 54.149L 1.074 54.51L 1.057 54.87L 1.042 55.232L 1.029 55.594L 1.019 55.956L 1.011 56.32L 1.005 56.684L 1.001 57.046L 1.001 57.412L 1.001 57.777L 1.005 58.14L 1.011 58.504L 1.019 58.867L 1.029 59.229L 1.042 59.592L 1.057 59.953L 1.074 60.313L 1.094 60.674L 1.115 61.034L 1.139 61.392L 1.165 61.75L 1.194 62.108L 1.224 62.465L 1.257 62.822L 1.292 63.177L 1.329 63.532L 1.369 63.886L 1.41 64.24L 1.454 64.594L 1.5 64.945L 1.548 65.297L 1.599 65.649L 1.651 65.999L 1.706 66.348L 1.762 66.697L 1.821 67.046L 1.882 67.393L 1.945 67.74L 2.01 68.086L 2.078 68.431L 2.147 68.775L 2.219 69.119L 2.292 69.462L 2.368 69.804L 2.446 70.146L 2.526 70.487L 2.608 70.826L 2.691 71.165L 2.777 71.503L 2.865 71.84L 2.956 72.178L 3.047 72.513L 3.142 72.848L 3.238 73.182L 3.336 73.515L 3.436 73.847L 3.538 74.178L 3.642 74.51L 3.748 74.84L 3.856 75.168L 3.966 75.496L 4.078 75.824L 4.192 76.149L 4.308 76.474L 4.426 76.8L 4.545 77.123L 4.667 77.445L 4.79 77.767L 4.916 78.088L 5.043 78.408L 5.172 78.726L 5.303 79.043L 5.436 79.36L 5.571 79.676L 5.708 79.991L 5.846 80.305L 5.986 80.617L 6.129 80.929L 6.272 81.24L 6.418 81.549L 6.566 81.858L 6.716 82.167L 6.867 82.473L 7.02 82.778L 7.175 83.083L 7.332 83.386L 7.49 83.689L 7.651 83.99L 7.812 84.291L 7.977 84.59L 8.142 84.888L 8.309 85.185L 8.478 85.481L 8.649 85.775L 8.821 86.069L 8.995 86.361L 9.172 86.653L 9.349 86.943L 9.529 87.232L 9.71 87.521L 9.892 87.806L 10.076 88.092L 10.263 88.377L 10.451 88.66L 10.639 88.942L 10.83 89.223L 11.023 89.502L 11.217 89.78L 11.414 90.058L 11.611 90.334L 11.81 90.608L 12.011 90.881L 12.213 91.154L 12.417 91.425L 12.622 91.695L 12.829 91.963L 13.038 92.23L 13.249 92.496L 13.46 92.76L 13.674 93.024L 13.888 93.286L 14.105 93.546L 14.322 93.805L 14.542 94.063L 14.763 94.32L 14.986 94.575L 15.21 94.829L 15.435 95.082L 15.662 95.333L 15.891 95.583L 16.121 95.831L 16.352 96.079L 16.585 96.324L 16.819 96.568L 17.055 96.811L 17.293 97.053L 17.531 97.293L 17.771 97.531L 18.012 97.769L 18.256 98.004L 18.5 98.239L 18.745 98.472L 18.993 98.703L 19.241 98.933L 19.49 99.161L 19.742 99.388L 19.995 99.614L 20.249 99.838L 20.504 100.06L 20.761 100.282L 21.018 100.501L 21.277 100.719L 21.539 100.935L 21.8 101.15L 22.063 101.364L 22.328 101.575L 22.593 101.785L 22.86 101.994L 23.13 102.201L 23.399 102.407L 23.67 102.611L 23.942 102.813L 24.216 103.014L 24.49 103.213L 24.766 103.41L 25.044 103.607L 25.321 103.801L 25.601 103.993L 25.882 104.184L 26.164 104.373L 26.447 104.561L 26.732 104.747L 27.018 104.932L 27.304 105.114L 27.592 105.295L 27.881 105.475L 28.171 105.653L 28.462 105.828L 28.755 106.002L 29.048 106.175L 29.343 106.345L 29.639 106.515L 29.936 106.682L 30.234 106.847L 30.533 107.011L 30.834 107.173L 31.135 107.334L 31.437 107.492L 31.741 107.649L 32.046 107.804L 32.351 107.957L 32.658 108.108L 32.965 108.258L 33.274 108.405L 33.584 108.551L 33.894 108.695L 34.207 108.837L 34.519 108.978L 34.833 109.116L 35.148 109.253L 35.464 109.388L 35.781 109.521L 36.098 109.652L 36.417 109.781L 36.737 109.908L 37.057 110.034L 37.379 110.157L 37.701 110.279L 38.025 110.398L 38.349 110.516L 38.674 110.632L 39 110.746L 39.328 110.858L 39.655 110.968L 39.985 111.076L 40.314 111.182L 40.645 111.286L 40.976 111.388L 41.309 111.488L 41.642 111.586L 41.976 111.682L 42.31 111.776L 42.647 111.868L 42.983 111.958L 43.32 112.046L 43.659 112.132L 43.998 112.216L 44.338 112.298L 44.678 112.378L 45.019 112.456L 45.362 112.531L 45.705 112.605L 46.049 112.677L 46.393 112.746L 46.738 112.813L 47.084 112.879L 47.431 112.942L 47.778 113.003L 48.127 113.062L 48.476 113.118L 48.825 113.173L 49.175 113.225L 49.526 113.276L 49.878 113.324L 50.231 113.37L 50.583 113.414L 50.937 113.455L 51.292 113.495L 51.647 113.532L 52.003 113.567L 52.359 113.6L 52.716 113.63L 53.073 113.659L 53.432 113.685L 53.791 113.709L 54.15 113.731L 54.511 113.75L 54.871 113.767L 55.232 113.782L 55.594 113.795L 55.956 113.805L 56.32 113.813L 56.684 113.819L 57.048 113.822L 57.412 113.823L 57.777 113.822L 58.141 113.819L 58.505 113.813L 58.867 113.805L 59.23 113.795L 59.592 113.782L 59.954 113.767L 60.314 113.75L 60.674 113.731L 61.033 113.709L 61.392 113.685L 61.751 113.659L 62.108 113.63L 62.466 113.6L 62.822 113.567L 63.177 113.532L 63.533 113.495L 63.887 113.455L 64.241 113.414L 64.594 113.37L 64.946 113.324L 65.298 113.276L 65.649 113.225L 65.999 113.173L 66.349 113.118L 66.698 113.062L 67.046 113.003L 67.393 112.942L 67.74 112.879L 68.086 112.813L 68.432 112.746L 68.776 112.677L 69.12 112.605L 69.462 112.531L 69.805 112.456L 70.147 112.378L 70.487 112.298L 70.827 112.216L 71.166 112.132L 71.504 112.046L 71.841 111.958L 72.177 111.868L 72.513 111.776L 72.848 111.682L 73.182 111.586L 73.516 111.488L 73.848 111.388L 74.179 111.286L 74.51 111.182L 74.84 111.076L 75.169 110.968L 75.497 110.858L 75.824 110.746L 76.15 110.632L 76.476 110.516L 76.8 110.398L 77.123 110.279L 77.446 110.157L 77.767 110.034L 78.088 109.908L 78.407 109.781L 78.726 109.652L 79.044 109.521L 79.361 109.388L 79.677 109.253L 79.991 109.116L 80.305 108.978L 80.618 108.837L 80.93 108.695L 81.24 108.551L 81.55 108.405L 81.859 108.258L 82.167 108.108L 82.474 107.957L 82.779 107.804L 83.083 107.649L 83.387 107.492L 83.69 107.333L 83.991 107.173L 84.291 107.011L 84.59 106.847L 84.888 106.682L 85.186 106.515L 85.481 106.346L 85.776 106.175L 86.07 106.002L 86.362 105.828L 86.654 105.652L 86.943 105.475L 87.233 105.295L 87.52 105.114L 87.808 104.932L 88.093 104.747L 88.377 104.561L 88.661 104.373L 88.943 104.184L 89.223 103.994L 89.503 103.801L 89.781 103.606L 90.058 103.411L 90.334 103.213L 90.609 103.014L 90.882 102.813L 91.155 102.61L 91.426 102.407L 91.695 102.201L 91.964 101.994L 92.23 101.786L 92.496 101.575L 92.761 101.363L 93.025 101.15L 93.286 100.935L 93.547 100.719L 93.806 100.501L 94.064 100.281L 94.321 100.06L 94.576 99.838L 94.83 99.614L 95.082 99.389L 95.334 99.161L 95.584 98.933L 95.832 98.703L 96.079 98.472L 96.325 98.239L 96.568 98.005L 96.812 97.769L 97.054 97.531L 97.293 97.293L 97.532 97.053L 97.769 96.812L 98.005 96.568L 98.24 96.324L 98.472 96.079L 98.704 95.831L 98.934 95.583L 99.162 95.333L 99.389 95.082L 99.615 94.829L 99.838 94.575L 100.061 94.32L 100.282 94.064L 100.501 93.806L 100.719 93.546L 100.936 93.285L 101.151 93.024L 101.364 92.76L 101.576 92.495L 101.786 92.23L 101.995 91.963L 102.202 91.695L 102.408 91.425L 102.611 91.154L 102.814 90.881L 103.015 90.608L 103.213 90.334L 103.411 90.058L 103.607 89.781L 103.801 89.503L 103.994 89.223L 104.185 88.941L 104.374 88.66L 104.562 88.377L 104.748 88.092L 104.932 87.807L 105.115 87.52L 105.296 87.232L 105.475 86.943L 105.653 86.652L 105.829 86.361L 106.003 86.07L 106.175 85.776L 106.346 85.481L 106.515 85.185L 106.682 84.888L 106.848 84.59L 107.012 84.291L 107.174 83.99L 107.334 83.689L 107.493 83.386L 107.649 83.083L 107.804 82.778L 107.957 82.473L 108.109 82.166L 108.258 81.859L 108.405 81.55L 108.552 81.239L 108.696 80.929L 108.838 80.618L 108.978 80.304L 109.117 79.99L 109.254 79.676L 109.388 79.361L 109.521 79.044L 109.653 78.725L 109.782 78.407L 109.909 78.088L 110.034 77.767L 110.158 77.446L 110.279 77.123L 110.399 76.799L 110.517 76.475L 110.632 76.149L 110.747 75.823L 110.859 75.496L 110.968 75.168L 111.076 74.84L 111.182 74.51L 111.286 74.179L 111.388 73.848L 111.488 73.514L 111.587 73.181L 111.683 72.849L 111.776 72.513L 111.869 72.177L 111.959 71.841L 112.046 71.504L 112.133 71.165L 112.217 70.825L 112.299 70.486L 112.378 70.146L 112.456 69.805L 112.532 69.462L 112.606 69.119L 112.677 68.775L 112.747 68.431L 112.814 68.086L 112.879 67.74L 112.942 67.393L 113.003 67.046L 113.062 66.697L 113.119 66.348L 113.173 65.999L 113.226 65.648L 113.276 65.298L 113.324 64.945L 113.371 64.593L 113.414 64.24L 113.456 63.886L 113.495 63.533L 113.532 63.177L 113.567 62.821L 113.601 62.465L 113.631 62.109L 113.659 61.751L 113.685 61.392L 113.709 61.033L 113.731 60.673L 113.751 60.313L 113.768 59.953L 113.782 59.592L 113.795 59.229L 113.806 58.867L 113.814 58.505L 113.819 58.141L 113.823 57.776L 113.824 57.412L 113.823 57.047L 113.819 56.683L 113.814 56.319L 113.806 55.956L 113.795 55.594L 113.782 55.232L 113.768 54.87L 113.751 54.51L 113.731 54.15L 113.709 53.791L 113.685 53.431L 113.659 53.073L 113.631 52.715L 113.601 52.358L 113.567 52.003L 113.532 51.646L 113.495 51.29L 113.456 50.937L 113.414 50.583L 113.371 50.231L 113.324 49.878L 113.276 49.525L 113.226 49.175L 113.173 48.825L 113.119 48.475L 113.062 48.126L 113.003 47.778L 112.942 47.43L 112.879 47.084L 112.814 46.738L 112.747 46.392L 112.677 46.048L 112.606 45.704L 112.532 45.362L 112.456 45.019L 112.378 44.677L 112.299 44.338L 112.217 43.998L 112.133 43.658L 112.046 43.319L 111.959 42.982L 111.869 42.647L 111.777 42.31L 111.683 41.975L 111.587 41.642L 111.488 41.309L 111.388 40.975L 111.286 40.644L 111.182 40.314L 111.076 39.983L 110.968 39.655L 110.859 39.327L 110.747 39.001L 110.632 38.674L 110.517 38.348L 110.399 38.024L 110.279 37.701L 110.158 37.378L 110.034 37.057L 109.909 36.736L 109.782 36.417L 109.653 36.098L 109.521 35.78L 109.388 35.463L 109.254 35.147L 109.117 34.833L 108.978 34.519L 108.838 34.205L 108.696 33.894L 108.552 33.584L 108.405 33.273L 108.258 32.964L 108.109 32.657L 107.957 32.351L 107.804 32.045L 107.649 31.74L 107.492 31.437L 107.334 31.134L 107.174 30.833L 107.012 30.533L 106.848 30.233L 106.682 29.936L 106.515 29.639L 106.346 29.343L 106.175 29.047L 106.003 28.754L 105.829 28.462L 105.653 28.171L 105.475 27.88L 105.296 27.591L 105.115 27.303L 104.932 27.016L 104.748 26.731L 104.562 26.447L 104.375 26.164L 104.185 25.882L 103.994 25.601L 103.801 25.321L 103.607 25.043L 103.411 24.766L 103.213 24.489L 103.015 24.215L 102.814 23.942L 102.611 23.669L 102.408 23.399L 102.202 23.129L 101.995 22.86L 101.786 22.593L 101.576 22.328L 101.364 22.063L 101.151 21.8L 100.936 21.538L 100.719 21.277L 100.501 21.018L 100.282 20.76L 100.061 20.503L 99.838 20.248L 99.615 19.994L 99.389 19.742L 99.162 19.49L 98.934 19.24L 98.704 18.992L 98.472 18.745L 98.24 18.499L 98.005 18.255L 97.769 18.012L 97.532 17.771L 97.293 17.531L 97.054 17.292L 96.812 17.055L 96.569 16.818L 96.325 16.585L 96.079 16.352L 95.832 16.12L 95.584 15.89L 95.334 15.662L 95.082 15.435L 94.83 15.209L 94.576 14.985L 94.321 14.763L 94.064 14.542L 93.806 14.322L 93.547 14.104L 93.286 13.888L 93.025 13.673L 92.761 13.46L 92.496 13.248L 92.23 13.037L 91.964 12.829L 91.695 12.622L 91.426 12.417L 91.155 12.213L 90.882 12.01L 90.609 11.809L 90.334 11.61L 90.058 11.413L 89.781 11.217L 89.503 11.023L 89.223 10.83L 88.943 10.639L 88.661 10.45L 88.377 10.262L 88.093 10.076L 87.808 9.892L 87.52 9.709L 87.233 9.528L 86.943 9.349L 86.654 9.171L 86.362 8.995L 86.07 8.821L 85.776 8.649L 85.481 8.478L 85.186 8.309L 84.888 8.141L 84.59 7.976L 84.291 7.812L 83.991 7.65L 83.69 7.49L 83.387 7.331L 83.084 7.174L 82.779 7.02L 82.474 6.866L 82.167 6.715L 81.859 6.566L 81.55 6.418L 81.241 6.272L 80.93 6.128L 80.618 5.986L 80.305 5.845L 79.991 5.707L 79.677 5.57L 79.361 5.435L 79.044 5.302L 78.726 5.171L 78.407 5.042L 78.088 4.915L 77.767 4.79L 77.446 4.666L 77.123 4.545L 76.8 4.425L 76.476 4.307L 76.15 4.191L 75.824 4.077L 75.497 3.966L 75.169 3.856L 74.84 3.748L 74.51 3.642L 74.179 3.538L 73.848 3.435L 73.516 3.335L 73.183 3.237L 72.848 3.141L 72.513 3.047L 72.178 2.955L 71.841 2.865L 71.504 2.777L 71.166 2.691L 70.827 2.607L 70.487 2.525L 70.147 2.445L 69.805 2.368L 69.462 2.292L 69.12 2.218L 68.776 2.147L 68.432 2.077L 68.086 2.01L 67.74 1.945L 67.393 1.882L 67.046 1.821L 66.698 1.762L 66.349 1.705L 65.999 1.65L 65.649 1.598L 65.298 1.548L 64.946 1.499L 64.594 1.454L 64.241 1.41L 63.887 1.368L 63.533 1.329L 63.177 1.291L 62.822 1.256L 62.466 1.224L 62.108 1.193L 61.751 1.165L 61.392 1.138L 61.033 1.114L 60.674 1.093L 60.314 1.073L 59.954 1.056L 59.592 1.041L 59.23 1.029L 58.868 1.018L 58.505 1.01L 58.141 1.004L 57.777 1.001L 57.412 0.999999L 57.048 1.001L 57.048 1.001Z"/><path id="path2_fill" d="M 43.059 86.118C 66.8398 86.118 86.118 66.8398 86.118 43.059C 86.118 19.2782 66.8398 0 43.059 0C 19.2782 0 3.78418e-06 19.2782 3.78418e-06 43.059C 3.78418e-06 66.8398 19.2782 86.118 43.059 86.118Z"/><path id="path3_fill" d="M 43.059 86.118C 66.8398 86.118 86.118 66.8398 86.118 43.059C 86.118 19.2782 66.8398 0 43.059 0C 19.2782 0 0 19.2782 0 43.059C 0 66.8398 19.2782 86.118 43.059 86.118Z"/><path id="path4_fill" d="M 28.706 57.412C 44.5599 57.412 57.412 44.5599 57.412 28.706C 57.412 12.8521 44.5599 2.2583e-06 28.706 2.2583e-06C 12.8521 2.2583e-06 0 12.8521 0 28.706C 0 44.5599 12.8521 57.412 28.706 57.412Z"/><path id="path5_fill" d="M 28.706 57.412C 44.5599 57.412 57.412 44.5599 57.412 28.706C 57.412 12.8521 44.5599 0 28.706 0C 12.8521 0 0 12.8521 0 28.706C 0 44.5599 12.8521 57.412 28.706 57.412Z"/><path id="path6_fill" d="M 14.3 28.6C 22.1977 28.6 28.6 22.1977 28.6 14.3C 28.6 6.40233 22.1977 0 14.3 0C 6.40233 0 0 6.40233 0 14.3C 0 22.1977 6.40233 28.6 14.3 28.6Z"/><path id="path7_fill" d="M 14.3 28.6C 22.1977 28.6 28.6 22.1977 28.6 14.3C 28.6 6.40233 22.1977 0 14.3 0C 6.40233 0 0 6.40233 0 14.3C 0 22.1977 6.40233 28.6 14.3 28.6Z"/><path id="path8_fill" d="M 14.3 28.6C 22.1977 28.6 28.6 22.1977 28.6 14.3C 28.6 6.40232 22.1977 0 14.3 0C 6.40233 0 -2.56348e-06 6.40232 -2.56348e-06 14.3C -2.56348e-06 22.1977 6.40233 28.6 14.3 28.6Z"/><path id="path9_fill" d="M 21.132 51.006L 5.611 5.829L -1.7395e-06 4.372L -1.7395e-06 0.364L 20.403 1.61743e-06L 20.403 4.372L 13.772 5.756L 25.212 41.169L 37.381 5.829L 30.604 4.372L 30.604 0.364L 50.278 1.61743e-06L 50.278 4.372L 44.594 5.829L 28.418 51.006L 21.132 51.006L 21.132 51.006Z"/><path id="path10_stroke" d="M 112.974 57.412C 112.974 88.098 88.098 112.974 57.412 112.974L 57.412 116.674C 90.1415 116.674 116.674 90.1415 116.674 57.412L 112.974 57.412ZM 57.412 112.974C 26.726 112.974 1.85 88.098 1.85 57.412L -1.85 57.412C -1.85 90.1415 24.6825 116.674 57.412 116.674L 57.412 112.974ZM 1.85 57.412C 1.85 26.726 26.726 1.85 57.412 1.85L 57.412 -1.85C 24.6825 -1.85 -1.85 24.6825 -1.85 57.412L 1.85 57.412ZM 57.412 1.85C 88.098 1.85 112.974 26.726 112.974 57.412L 116.674 57.412C 116.674 24.6825 90.1415 -1.85 57.412 -1.85L 57.412 1.85Z"/><path id="path11_stroke" d="M 0.11327 40.232L 1.03615 40.1694L 1.03615 40.1694L 0.11327 40.232ZM 23.9963 111.059L 23.492 111.834L 23.492 111.835L 23.9963 111.059ZM 96.8863 95.886L 96.1382 95.3419L 96.1382 95.3419L 96.8863 95.886ZM 90.9823 6.42303L 90.3806 7.12561L 90.3806 7.12562L 90.9823 6.42303ZM 41.2518 4.54342C 38.4448 5.24432 34.3173 5.69037 29.6963 6.49029C 25.0809 7.29004 19.9433 8.45996 15.2613 10.5848C 10.5834 12.7184 6.20778 15.9279 3.22523 20.6663C 0.225933 25.4631 -1.38464 31.8227 -0.809607 40.2947L 1.03615 40.1694C 0.48168 32.0004 2.04236 26.0476 4.79384 21.6471C 7.56207 17.1882 11.5168 14.3157 16.0275 12.2687C 20.5341 10.2131 25.4435 9.10415 30.0121 8.31315C 34.5751 7.52232 38.7687 7.06574 41.6987 6.33864L 41.2518 4.54342ZM -0.809609 40.2946C 0.391467 57.9895 2.62923 73.365 6.44436 85.5087C 10.2679 97.6693 15.7289 106.786 23.492 111.834L 24.5005 110.284C 17.2596 105.575 11.9772 96.9378 8.20918 84.9538C 4.43281 72.9531 2.23107 57.7936 1.03615 40.1694L -0.809609 40.2946ZM 23.492 111.835C 37.6068 121.012 53.0413 121.449 66.468 117.461C 79.8706 113.481 91.3474 105.074 97.6343 96.4301L 96.1382 95.3419C 90.1071 103.634 78.9824 111.815 65.9413 115.688C 52.9243 119.554 38.0728 119.109 24.5005 110.284L 23.492 111.835ZM 97.6343 96.4301C 100.746 92.1514 103.069 85.3394 104.54 77.3817C 106.012 69.4185 106.654 60.1453 106.333 50.9395C 106.009 41.7341 104.714 32.4742 102.335 24.5551C 99.9506 16.6298 96.4367 9.87614 91.5839 5.72045L 90.3806 7.12562C 94.8458 10.9494 98.2242 17.3126 100.563 25.0881C 102.907 32.8698 104.166 41.8946 104.484 51.0043C 104.805 60.1137 104.176 69.186 102.721 77.0453C 101.267 84.9101 99.0071 91.3976 96.1382 95.3419L 97.6343 96.4301ZM 91.5839 5.72046C 84.7138 -0.162963 78.6727 -1.45475 71.0402 -0.750555C 63.5376 -0.0542383 54.4632 2.55578 41.3378 4.5263L 41.6127 6.35576C 54.8574 4.36329 63.88 1.7638 71.2101 1.09162C 78.4103 0.427317 83.9377 1.60803 90.3806 7.12561L 91.5839 5.72046Z"/><path id="path12_stroke" d="M 110.686 35.5699L 111.559 35.2642C 111.549 35.2366 111.538 35.2095 111.526 35.183L 110.686 35.5699ZM 68.7828 1.40388L 68.5491 0.508909L 68.5491 0.50891L 68.7828 1.40388ZM 3.65984 38.0979L 2.80381 37.7474L 2.8038 37.7474L 3.65984 38.0979ZM 32.1758 106.917L 31.7807 107.753L 31.7807 107.753L 32.1758 106.917ZM 118.966 84.4179L 119.768 84.8776L 119.768 84.8776L 118.966 84.4179ZM 111.526 35.183C 110.313 32.5544 109.105 28.5803 107.456 24.1873C 105.808 19.7996 103.7 14.9679 100.738 10.7622C 97.7686 6.56209 93.7985 2.85994 88.5865 0.812377C 83.3138 -1.24079 76.7651 -1.63725 68.5491 0.508909L 69.0166 2.29885C 76.9386 0.229507 83.0782 0.652795 87.9152 2.53629C 92.8127 4.42538 96.3733 7.77679 99.2265 11.8288C 102.088 15.8752 104.094 20.4942 105.724 24.8375C 107.353 29.1753 108.584 33.2123 109.846 35.9568L 111.526 35.183ZM 68.5491 0.50891C 51.3894 4.99203 36.7019 10.0609 25.4838 16.0772C 14.2508 22.1049 6.3138 29.1742 2.80381 37.7474L 4.51588 38.4484C 7.78988 30.4516 15.2889 23.6474 26.3586 17.7073C 37.4433 11.7559 51.9252 6.76273 69.0166 2.29885L 68.5491 0.50891ZM 2.8038 37.7474C -3.57723 53.3342 -1.12412 68.5874 5.30014 81.0416C 11.7129 93.4734 22.115 103.186 31.7807 107.753L 32.571 106.081C 23.2987 101.699 13.1843 92.2904 6.94429 80.1935C 0.715808 68.1189 -1.62009 53.4365 4.51588 38.4483L 2.8038 37.7474ZM 31.7807 107.753C 36.5654 110.014 43.6915 111.025 51.7844 110.987C 59.8826 110.947 69.113 109.848 78.0972 107.814C 87.0806 105.778 95.9361 102.777 103.272 98.9603C 110.613 95.1378 116.592 90.4233 119.768 84.8776L 118.163 83.9581C 115.24 89.061 109.62 93.5692 102.417 97.3195C 95.21 101.076 86.5788 103.997 77.6885 106.01C 68.7989 108.025 59.7686 109.101 51.7756 109.137C 43.7773 109.175 36.9818 108.164 32.571 106.081L 31.7807 107.753ZM 119.768 84.8776C 124.265 77.0267 124.406 70.8476 122.289 63.4765C 120.204 56.2316 115.946 47.7987 111.559 35.2642L 109.813 35.8756C 114.244 48.5231 118.482 56.9071 120.511 63.9872C 122.508 70.9412 122.38 76.5951 118.163 83.9581L 119.768 84.8776Z"/></defs></svg>
