<svg id="movement" width="238" height="175" viewBox="0 0 238 175" version="1.1" xmlns="http://www.w3.org/2000/svg" xmlns:xlink="http://www.w3.org/1999/xlink" xmlns:figma="http://www.figma.com/figma/ns"><title>Group + Path Copy + Path 133 + Triangle 1</title><desc>Created using Figma</desc><g id="Canvas" transform="translate(-1120 -1481)" figma:type="canvas"><rect x="1120" y="1481" width="238" height="175" fill="#FFFFFF"/><mask id="mask0_alpha" mask-type="alpha"><path d="M 886 185L 2326 185L 2326 5734L 886 5734L 886 185Z" fill="#FFFFFF"/></mask><g id="Desktop HD" style="mix-blend-mode:normal;" mask="url(#mask0_alpha)" figma:type="frame"><g id="Group + Path Copy + Path 133 + Triangle 1" style="mix-blend-mode:normal;" figma:type="frame"><g id="Group + Path Copy" style="mix-blend-mode:normal;" figma:type="frame"><g id="Group" style="mix-blend-mode:normal;" figma:type="frame"><g id="Oval" style="mix-blend-mode:normal;" figma:type="vector"><use xlink:href="#path0_fill" transform="translate(1131.13 1620.83)" fill="#333D47" style="mix-blend-mode:normal;"/></g><g id="Oval" style="mix-blend-mode:normal;" figma:type="vector"><use xlink:href="#path1_fill" transform="translate(1148.96 1620.83)" fill="#333D47" style="mix-blend-mode:normal;"/></g><g id="Oval" style="mix-blend-mode:normal;" figma:type="vector"><use xlink:href="#path2_fill" transform="translate(1166.8 1614.89)" fill="#333D47" style="mix-blend-mode:normal;"/></g><g id="Oval" style="mix-blend-mode:normal;" figma:type="vector"><use xlink:href="#path3_fill" transform="translate(1178.81 1626.76)" fill="#333D47" style="mix-blend-mode:normal;"/></g><g id="Oval" style="mix-blend-mode:normal;" figma:type="vector"><use xlink:href="#path4_fill" transform="translate(1188.72 1608.95)" fill="#333D47" style="mix-blend-mode:normal;"/></g><g id="Oval" style="mix-blend-mode:normal;" figma:type="vector"><use xlink:href="#path5_fill" transform="translate(1198.88 1627.69)" fill="#333D47" style="mix-blend-mode:normal;"/></g><g id="Oval" style="mix-blend-mode:normal;" figma:type="vector"><use xlink:href="#path6_fill" transform="translate(1207.69 1602.85)" fill="#333D47" style="mix-blend-mode:normal;"/></g><g id="Oval" style="mix-blend-mode:normal;" figma:type="vector"><use xlink:href="#path6_fill" transform="translate(1236.14 1595.09)" fill="#333D47" style="mix-blend-mode:normal;"/></g><g id="Oval" style="mix-blend-mode:normal;" figma:type="vector"><use xlink:href="#path7_fill" transform="translate(1231.19 1624.78)" fill="#333D47" style="mix-blend-mode:normal;"/></g><g id="Oval" style="mix-blend-mode:normal;" figma:type="vector"><use xlink:href="#path6_fill" transform="translate(1221.91 1598.8)" fill="#333D47" style="mix-blend-mode:normal;"/></g><g id="Oval" style="mix-blend-mode:normal;" figma:type="vector"><use xlink:href="#path8_fill" transform="translate(1265.86 1573.28)" fill="#333D47" style="mix-blend-mode:normal;"/></g><g id="Oval" style="mix-blend-mode:normal;" figma:type="vector"><use xlink:href="#path8_fill" transform="translate(1278.79 1557.01)" fill="#333D47" style="mix-blend-mode:normal;"/></g><g id="Oval" style="mix-blend-mode:normal;" figma:type="vector"><use xlink:href="#path9_fill" transform="translate(1290.63 1545.57)" fill="#333D47" style="mix-blend-mode:normal;"/></g><g id="Oval" style="mix-blend-mode:normal;" figma:type="vector"><use xlink:href="#path10_fill" transform="translate(1305.49 1531.71)" fill="#333D47" style="mix-blend-mode:normal;"/></g><g id="Oval" style="mix-blend-mode:normal;" figma:type="vector"><use xlink:href="#path11_fill" transform="translate(1295.58 1510.45)" fill="#333D47" style="mix-blend-mode:normal;"/></g><g id="Oval" style="mix-blend-mode:normal;" figma:type="vector"><use xlink:href="#path12_fill" transform="translate(1318.37 1544.8)" fill="#333D47" style="mix-blend-mode:normal;"/></g><g id="Oval" style="mix-blend-mode:normal;" figma:type="vector"><use xlink:href="#path13_fill" transform="translate(1302.52 1562.27)" fill="#333D47" style="mix-blend-mode:normal;"/></g><g id="Oval" style="mix-blend-mode:normal;" figma:type="vector"><use xlink:href="#path14_fill" transform="translate(1328.27 1567.38)" fill="#333D47" style="mix-blend-mode:normal;"/></g><g id="Oval" style="mix-blend-mode:normal;" figma:type="vector"><use xlink:href="#path8_fill" transform="translate(1313.41 1572.52)" fill="#333D47" style="mix-blend-mode:normal;"/></g><g id="Oval" style="mix-blend-mode:normal;" figma:type="vector"><use xlink:href="#path15_fill" transform="translate(1318.37 1626.76)" fill="#333D47" style="mix-blend-mode:normal;"/></g><g id="Oval" style="mix-blend-mode:normal;" figma:type="vector"><use xlink:href="#path16_fill" transform="translate(1333.23 1624.78)" fill="#333D47" style="mix-blend-mode:normal;"/></g><g id="Oval" style="mix-blend-mode:normal;" figma:type="vector"><use xlink:href="#path17_fill" transform="translate(1338.18 1593.11)" fill="#333D47" style="mix-blend-mode:normal;"/></g><g id="Oval" style="mix-blend-mode:normal;" figma:type="vector"><use xlink:href="#path18_fill" transform="translate(1333.23 1534.55)" fill="#333D47" style="mix-blend-mode:normal;"/></g><g id="Oval" style="mix-blend-mode:normal;" figma:type="vector"><use xlink:href="#path11_fill" transform="translate(1318.37 1510.45)" fill="#333D47" style="mix-blend-mode:normal;"/></g><g id="Oval" style="mix-blend-mode:normal;" figma:type="vector"><use xlink:href="#path19_fill" transform="translate(1333.23 1504)" fill="#333D47" style="mix-blend-mode:normal;"/></g><g id="Oval" style="mix-blend-mode:normal;" figma:type="vector"><use xlink:href="#path20_fill" transform="translate(1343.13 1562.27)" fill="#333D47" style="mix-blend-mode:normal;"/></g><g id="Oval" style="mix-blend-mode:normal;" figma:type="vector"><use xlink:href="#path16_fill" transform="translate(1348.09 1624.66)" fill="#333D47" style="mix-blend-mode:normal;"/></g><g id="Oval" style="mix-blend-mode:normal;" figma:type="vector"><use xlink:href="#path21_fill" transform="translate(1323.32 1596.94)" fill="#333D47" style="mix-blend-mode:normal;"/></g><g id="Oval" style="mix-blend-mode:normal;" figma:type="vector"><use xlink:href="#path17_fill" transform="translate(1305.49 1593.11)" fill="#333D47" style="mix-blend-mode:normal;"/></g><g id="Oval" style="mix-blend-mode:normal;" figma:type="vector"><use xlink:href="#path21_fill" transform="translate(1283.5 1589.98)" fill="#333D47" style="mix-blend-mode:normal;"/></g><g id="Oval" style="mix-blend-mode:normal;" figma:type="vector"><use xlink:href="#path8_fill" transform="translate(1294.34 1583.09)" fill="#333D47" style="mix-blend-mode:normal;"/></g><g id="Oval" style="mix-blend-mode:normal;" figma:type="vector"><use xlink:href="#path21_fill" transform="translate(1270.81 1601.06)" fill="#333D47" style="mix-blend-mode:normal;"/></g><g id="Oval" style="mix-blend-mode:normal;" figma:type="vector"><use xlink:href="#path22_fill" transform="translate(1260.91 1617.7)" fill="#333D47" style="mix-blend-mode:normal;"/></g><g id="Oval" style="mix-blend-mode:normal;" figma:type="vector"><use xlink:href="#path23_fill" transform="translate(1246.05 1622.81)" fill="#333D47" style="mix-blend-mode:normal;"/></g><g id="Oval" style="mix-blend-mode:normal;" figma:type="vector"><use xlink:href="#path24_fill" transform="translate(1294.34 1617.7)" fill="#333D47" style="mix-blend-mode:normal;"/></g><g id="Oval" style="mix-blend-mode:normal;" figma:type="vector"><use xlink:href="#path25_fill" transform="translate(1280.72 1620.83)" fill="#333D47" style="mix-blend-mode:normal;"/></g><g id="Oval" style="mix-blend-mode:normal;" figma:type="vector"><use xlink:href="#path25_fill" transform="translate(1305.49 1622.81)" fill="#333D47" style="mix-blend-mode:normal;"/></g><g id="Oval" style="mix-blend-mode:normal;" figma:type="vector"><use xlink:href="#path26_fill" transform="translate(1251 1587.14)" fill="#333D47" style="mix-blend-mode:normal;"/></g><g id="Oval" style="mix-blend-mode:normal;" figma:type="vector"><use xlink:href="#path27_fill" transform="translate(1216.03 1626.76)" fill="#333D47" style="mix-blend-mode:normal;"/></g></g></g><g id="Path 133 + Triangle 1" style="mix-blend-mode:normal;" figma:type="frame"><g id="Path 133 (Stroke)" style="mix-blend-mode:normal;" figma:type="vector"><use xlink:href="#path28_fill" transform="translate(1120.79 1500.32)" fill="#0D8EC1" style="mix-blend-mode:normal;"/></g><g id="Triangle 1" style="mix-blend-mode:normal;" figma:type="vector"><use xlink:href="#path29_fill" transform="translate(1275.27 1481.13)" fill="#0D8EC1" style="mix-blend-mode:normal;"/></g></g></g></g></g><defs><path id="path0_fill" fill-rule="evenodd" d="M 4.82914 5.61744C 6.42738 5.61744 7.72301 4.35993 7.72301 2.80872C 7.72301 1.25751 6.42738 0 4.82914 0C 3.2309 0 1.93527 1.25751 1.93527 2.80872C 1.93527 4.35993 3.2309 5.61744 4.82914 5.61744ZM 9.65828 14.6997C 9.65828 15.6951 8.82671 16.5028 7.8011 16.5028L 7.34652 16.5028C 7.34887 16.5353 7.35006 16.5681 7.35006 16.6012L 7.35006 26.0002C 7.35006 26.7677 6.70905 27.3904 5.91769 27.3904L 3.74059 27.3904C 2.94923 27.3904 2.30822 26.7677 2.30822 26.0002L 2.30822 16.6012C 2.30822 16.5681 2.30941 16.5353 2.31175 16.5028L 1.85718 16.5028C 0.831565 16.5028 0 15.6951 0 14.6997L 0 8.18579C 0 7.18978 0.831565 6.38268 1.85776 6.38268L 7.80168 6.38268C 8.8273 6.38268 9.65886 7.18978 9.65886 8.18579L 9.65886 14.6997L 9.65828 14.6997Z"/><path id="path1_fill" fill-rule="evenodd" d="M 4.82914 5.61745C 6.42738 5.61745 7.72301 4.35994 7.72301 2.80872C 7.72301 1.25751 6.42738 0 4.82914 0C 3.2309 0 1.93527 1.25751 1.93527 2.80872C 1.93527 4.35994 3.2309 5.61745 4.82914 5.61745ZM 9.65828 14.6997C 9.65828 15.6951 8.82671 16.5028 7.8011 16.5028L 7.34653 16.5028C 7.34887 16.5353 7.35006 16.5681 7.35006 16.6012L 7.35006 26.0002C 7.35006 26.7677 6.70905 27.3904 5.91769 27.3904L 3.74059 27.3904C 2.94923 27.3904 2.30822 26.7677 2.30822 26.0002L 2.30822 16.6012C 2.30822 16.5681 2.30941 16.5353 2.31175 16.5028L 1.85718 16.5028C 0.831566 16.5028 0 15.6951 0 14.6997L 0 8.18579C 0 7.18979 0.831566 6.38269 1.85777 6.38269L 7.80168 6.38269C 8.8273 6.38269 9.65886 7.18979 9.65886 8.18579L 9.65886 14.6997L 9.65828 14.6997Z"/><path id="path2_fill" fill-rule="evenodd" d="M 4.82914 5.61744C 6.42738 5.61744 7.72301 4.35993 7.72301 2.80872C 7.72301 1.25751 6.42738 0 4.82914 0C 3.2309 0 1.93527 1.25751 1.93527 2.80872C 1.93527 4.35993 3.2309 5.61744 4.82914 5.61744ZM 9.65828 14.6997C 9.65828 15.6951 8.82671 16.5028 7.8011 16.5028L 7.34653 16.5028C 7.34887 16.5353 7.35006 16.5681 7.35006 16.6012L 7.35006 26.0002C 7.35006 26.7677 6.70905 27.3904 5.91769 27.3904L 3.74059 27.3904C 2.94923 27.3904 2.30822 26.7677 2.30822 26.0002L 2.30822 16.6012C 2.30822 16.5681 2.30941 16.5353 2.31175 16.5028L 1.85718 16.5028C 0.831566 16.5028 0 15.6951 0 14.6997L 0 8.18579C 0 7.18978 0.831566 6.38268 1.85777 6.38268L 7.80168 6.38268C 8.8273 6.38268 9.65886 7.18978 9.65886 8.18579L 9.65886 14.6997L 9.65828 14.6997Z"/><path id="path3_fill" fill-rule="evenodd" d="M 4.82914 5.61745C 6.42738 5.61745 7.72301 4.35993 7.72301 2.80872C 7.72301 1.25751 6.42738 0 4.82914 0C 3.2309 0 1.93527 1.25751 1.93527 2.80872C 1.93527 4.35993 3.2309 5.61745 4.82914 5.61745ZM 9.65828 14.6997C 9.65828 15.6951 8.82671 16.5028 7.8011 16.5028L 7.34652 16.5028C 7.34887 16.5353 7.35006 16.5681 7.35006 16.6012L 7.35006 26.0002C 7.35006 26.7677 6.70905 27.3904 5.91769 27.3904L 3.74059 27.3904C 2.94923 27.3904 2.30822 26.7677 2.30822 26.0002L 2.30822 16.6012C 2.30822 16.5681 2.30941 16.5353 2.31175 16.5028L 1.85718 16.5028C 0.831566 16.5028 0 15.6951 0 14.6997L 0 8.18579C 0 7.18979 0.831566 6.38269 1.85777 6.38269L 7.80168 6.38269C 8.8273 6.38269 9.65886 7.18979 9.65886 8.18579L 9.65886 14.6997L 9.65828 14.6997Z"/><path id="path4_fill" fill-rule="evenodd" d="M 4.82914 5.61745C 6.42738 5.61745 7.72301 4.35994 7.72301 2.80872C 7.72301 1.25751 6.42738 0 4.82914 0C 3.2309 0 1.93527 1.25751 1.93527 2.80872C 1.93527 4.35994 3.2309 5.61745 4.82914 5.61745ZM 9.65828 14.6997C 9.65828 15.6951 8.82671 16.5028 7.80109 16.5028L 7.34653 16.5028C 7.34887 16.5353 7.35006 16.5681 7.35006 16.6012L 7.35006 26.0002C 7.35006 26.7677 6.70905 27.3904 5.91769 27.3904L 3.74059 27.3904C 2.94923 27.3904 2.30822 26.7677 2.30822 26.0002L 2.30822 16.6012C 2.30822 16.5681 2.30941 16.5353 2.31175 16.5028L 1.85718 16.5028C 0.831566 16.5028 0 15.6951 0 14.6997L 0 8.18579C 0 7.18979 0.831566 6.38269 1.85777 6.38269L 7.80168 6.38269C 8.82729 6.38269 9.65887 7.18979 9.65887 8.18579L 9.65887 14.6997L 9.65828 14.6997Z"/><path id="path5_fill" fill-rule="evenodd" d="M 4.82914 5.61744C 6.42738 5.61744 7.72301 4.35993 7.72301 2.80872C 7.72301 1.25751 6.42738 0 4.82914 0C 3.2309 0 1.93527 1.25751 1.93527 2.80872C 1.93527 4.35993 3.2309 5.61744 4.82914 5.61744ZM 9.65828 14.6997C 9.65828 15.6951 8.82671 16.5028 7.80109 16.5028L 7.34653 16.5028C 7.34887 16.5353 7.35006 16.5681 7.35006 16.6012L 7.35006 26.0002C 7.35006 26.7677 6.70905 27.3904 5.91769 27.3904L 3.74059 27.3904C 2.94923 27.3904 2.30822 26.7677 2.30822 26.0002L 2.30822 16.6012C 2.30822 16.5681 2.30941 16.5353 2.31175 16.5028L 1.85719 16.5028C 0.831566 16.5028 0 15.6951 0 14.6997L 0 8.18578C 0 7.18978 0.831566 6.38268 1.85777 6.38268L 7.80168 6.38268C 8.82729 6.38268 9.65886 7.18978 9.65886 8.18578L 9.65886 14.6997L 9.65828 14.6997Z"/><path id="path6_fill" fill-rule="evenodd" d="M 4.82914 5.61744C 6.42738 5.61744 7.72301 4.35993 7.72301 2.80872C 7.72301 1.25751 6.42738 0 4.82914 0C 3.2309 0 1.93527 1.25751 1.93527 2.80872C 1.93527 4.35993 3.2309 5.61744 4.82914 5.61744ZM 9.65828 14.6997C 9.65828 15.6951 8.82671 16.5028 7.80109 16.5028L 7.34653 16.5028C 7.34887 16.5353 7.35006 16.5681 7.35006 16.6012L 7.35006 26.0002C 7.35006 26.7677 6.70905 27.3904 5.91769 27.3904L 3.74059 27.3904C 2.94923 27.3904 2.30822 26.7677 2.30822 26.0002L 2.30822 16.6012C 2.30822 16.5681 2.30941 16.5353 2.31175 16.5028L 1.85719 16.5028C 0.831566 16.5028 0 15.6951 0 14.6997L 0 8.18579C 0 7.18978 0.831566 6.38268 1.85777 6.38268L 7.80168 6.38268C 8.82729 6.38268 9.65886 7.18978 9.65886 8.18579L 9.65886 14.6997L 9.65828 14.6997Z"/><path id="path7_fill" fill-rule="evenodd" d="M 4.82914 5.61745C 6.42738 5.61745 7.72301 4.35994 7.72301 2.80872C 7.72301 1.25751 6.42738 0 4.82914 0C 3.2309 0 1.93527 1.25751 1.93527 2.80872C 1.93527 4.35994 3.2309 5.61745 4.82914 5.61745ZM 9.65828 14.6997C 9.65828 15.6951 8.82671 16.5028 7.80109 16.5028L 7.34653 16.5028C 7.34887 16.5353 7.35006 16.5681 7.35006 16.6012L 7.35006 26.0002C 7.35006 26.7677 6.70905 27.3904 5.91769 27.3904L 3.74059 27.3904C 2.94923 27.3904 2.30822 26.7677 2.30822 26.0002L 2.30822 16.6012C 2.30822 16.5681 2.30941 16.5353 2.31175 16.5028L 1.85719 16.5028C 0.831566 16.5028 0 15.6951 0 14.6997L 0 8.18578C 0 7.18979 0.831566 6.38269 1.85777 6.38269L 7.80168 6.38269C 8.82729 6.38269 9.65887 7.18979 9.65887 8.18578L 9.65887 14.6997L 9.65828 14.6997Z"/><path id="path8_fill" fill-rule="evenodd" d="M 4.82915 5.61745C 6.42738 5.61745 7.72301 4.35994 7.72301 2.80872C 7.72301 1.25751 6.42738 0 4.82915 0C 3.2309 0 1.93527 1.25751 1.93527 2.80872C 1.93527 4.35994 3.2309 5.61745 4.82915 5.61745ZM 9.65828 14.6997C 9.65828 15.6951 8.82672 16.5028 7.8011 16.5028L 7.34653 16.5028C 7.34888 16.5353 7.35007 16.5681 7.35007 16.6012L 7.35007 26.0002C 7.35007 26.7677 6.70905 27.3904 5.91769 27.3904L 3.74059 27.3904C 2.94923 27.3904 2.30823 26.7677 2.30823 26.0002L 2.30823 16.6012C 2.30823 16.5681 2.30943 16.5353 2.31177 16.5028L 1.85718 16.5028C 0.831573 16.5028 0 15.6951 0 14.6997L 0 8.18579C 0 7.18979 0.831573 6.38269 1.85777 6.38269L 7.80168 6.38269C 8.8273 6.38269 9.65886 7.18979 9.65886 8.18579L 9.65886 14.6997L 9.65828 14.6997Z"/><path id="path9_fill" fill-rule="evenodd" d="M 4.82913 5.61744C 6.42738 5.61744 7.72301 4.35994 7.72301 2.80872C 7.72301 1.25751 6.42738 0 4.82913 0C 3.2309 0 1.93527 1.25751 1.93527 2.80872C 1.93527 4.35994 3.2309 5.61744 4.82913 5.61744ZM 9.65828 14.6997C 9.65828 15.6951 8.82672 16.5028 7.8011 16.5028L 7.34651 16.5028C 7.34886 16.5353 7.35005 16.5681 7.35005 16.6012L 7.35005 26.0002C 7.35005 26.7677 6.70905 27.3904 5.91769 27.3904L 3.74059 27.3904C 2.94923 27.3904 2.30823 26.7677 2.30823 26.0002L 2.30823 16.6012C 2.30823 16.5681 2.30943 16.5353 2.31177 16.5028L 1.85718 16.5028C 0.831558 16.5028 0 15.6951 0 14.6997L 0 8.18579C 0 7.18978 0.831558 6.38269 1.85776 6.38269L 7.80168 6.38269C 8.8273 6.38269 9.65886 7.18978 9.65886 8.18579L 9.65886 14.6997L 9.65828 14.6997Z"/><path id="path10_fill" fill-rule="evenodd" d="M 4.82915 5.61744C 6.42738 5.61744 7.72301 4.35993 7.72301 2.80872C 7.72301 1.25751 6.42738 0 4.82915 0C 3.2309 0 1.93527 1.25751 1.93527 2.80872C 1.93527 4.35993 3.2309 5.61744 4.82915 5.61744ZM 9.65828 14.6997C 9.65828 15.6951 8.82672 16.5028 7.8011 16.5028L 7.34653 16.5028C 7.34888 16.5353 7.35007 16.5681 7.35007 16.6012L 7.35007 26.0002C 7.35007 26.7677 6.70905 27.3904 5.91769 27.3904L 3.74059 27.3904C 2.94923 27.3904 2.30823 26.7677 2.30823 26.0002L 2.30823 16.6012C 2.30823 16.5681 2.30943 16.5353 2.31177 16.5028L 1.85718 16.5028C 0.831573 16.5028 0 15.6951 0 14.6997L 0 8.18579C 0 7.18978 0.831573 6.38268 1.85777 6.38268L 7.80168 6.38268C 8.8273 6.38268 9.65886 7.18978 9.65886 8.18579L 9.65886 14.6997L 9.65828 14.6997Z"/><path id="path11_fill" fill-rule="evenodd" d="M 4.82913 5.61744C 6.42738 5.61744 7.72301 4.35993 7.72301 2.80872C 7.72301 1.25751 6.42738 0 4.82913 0C 3.2309 0 1.93527 1.25751 1.93527 2.80872C 1.93527 4.35993 3.2309 5.61744 4.82913 5.61744ZM 9.65828 14.6997C 9.65828 15.6951 8.82671 16.5028 7.8011 16.5028L 7.34651 16.5028C 7.34886 16.5353 7.35005 16.5681 7.35005 16.6012L 7.35005 26.0002C 7.35005 26.7677 6.70905 27.3904 5.91769 27.3904L 3.74059 27.3904C 2.94923 27.3904 2.30823 26.7677 2.30823 26.0002L 2.30823 16.6012C 2.30823 16.5681 2.30943 16.5353 2.31177 16.5028L 1.85718 16.5028C 0.831558 16.5028 0 15.6951 0 14.6997L 0 8.18579C 0 7.18978 0.831558 6.38269 1.85776 6.38269L 7.80168 6.38269C 8.8273 6.38269 9.65886 7.18978 9.65886 8.18579L 9.65886 14.6997L 9.65828 14.6997Z"/><path id="path12_fill" fill-rule="evenodd" d="M 4.82913 5.61744C 6.42738 5.61744 7.72301 4.35994 7.72301 2.80872C 7.72301 1.25751 6.42738 0 4.82913 0C 3.2309 0 1.93527 1.25751 1.93527 2.80872C 1.93527 4.35994 3.2309 5.61744 4.82913 5.61744ZM 9.65828 14.6997C 9.65828 15.6951 8.82671 16.5028 7.8011 16.5028L 7.34651 16.5028C 7.34886 16.5353 7.35005 16.5681 7.35005 16.6012L 7.35005 26.0002C 7.35005 26.7677 6.70905 27.3904 5.91769 27.3904L 3.74059 27.3904C 2.94923 27.3904 2.30823 26.7677 2.30823 26.0002L 2.30823 16.6012C 2.30823 16.5681 2.30943 16.5353 2.31177 16.5028L 1.85718 16.5028C 0.831558 16.5028 0 15.6951 0 14.6997L 0 8.18579C 0 7.18978 0.831558 6.38269 1.85776 6.38269L 7.80168 6.38269C 8.8273 6.38269 9.65886 7.18978 9.65886 8.18579L 9.65886 14.6997L 9.65828 14.6997Z"/><path id="path13_fill" fill-rule="evenodd" d="M 4.82913 5.61744C 6.42738 5.61744 7.72301 4.35994 7.72301 2.80872C 7.72301 1.25751 6.42738 0 4.82913 0C 3.2309 0 1.93527 1.25751 1.93527 2.80872C 1.93527 4.35994 3.2309 5.61744 4.82913 5.61744ZM 9.65828 14.6997C 9.65828 15.6951 8.82671 16.5028 7.8011 16.5028L 7.34651 16.5028C 7.34886 16.5353 7.35005 16.5681 7.35005 16.6012L 7.35005 26.0002C 7.35005 26.7677 6.70905 27.3904 5.91769 27.3904L 3.74059 27.3904C 2.94923 27.3904 2.30823 26.7677 2.30823 26.0002L 2.30823 16.6012C 2.30823 16.5681 2.30943 16.5353 2.31177 16.5028L 1.85718 16.5028C 0.831558 16.5028 0 15.6951 0 14.6997L 0 8.18579C 0 7.18978 0.831558 6.38268 1.85776 6.38268L 7.80168 6.38268C 8.8273 6.38268 9.65886 7.18978 9.65886 8.18579L 9.65886 14.6997L 9.65828 14.6997Z"/><path id="path14_fill" fill-rule="evenodd" d="M 4.82915 5.61744C 6.42738 5.61744 7.72301 4.35994 7.72301 2.80872C 7.72301 1.2575 6.42738 0 4.82915 0C 3.2309 0 1.93527 1.2575 1.93527 2.80872C 1.93527 4.35994 3.2309 5.61744 4.82915 5.61744ZM 9.65828 14.6997C 9.65828 15.6951 8.82672 16.5028 7.8011 16.5028L 7.34653 16.5028C 7.34888 16.5353 7.35007 16.5681 7.35007 16.6012L 7.35007 26.0002C 7.35007 26.7677 6.70905 27.3904 5.91769 27.3904L 3.74059 27.3904C 2.94923 27.3904 2.30823 26.7677 2.30823 26.0002L 2.30823 16.6012C 2.30823 16.5681 2.30943 16.5353 2.31177 16.5028L 1.85718 16.5028C 0.831573 16.5028 0 15.6951 0 14.6997L 0 8.18579C 0 7.18979 0.831573 6.38269 1.85777 6.38269L 7.80168 6.38269C 8.8273 6.38269 9.65886 7.18979 9.65886 8.18579L 9.65886 14.6997L 9.65828 14.6997Z"/><path id="path15_fill" fill-rule="evenodd" d="M 4.82913 5.61745C 6.42738 5.61745 7.72301 4.35993 7.72301 2.80872C 7.72301 1.25751 6.42738 0 4.82913 0C 3.2309 0 1.93527 1.25751 1.93527 2.80872C 1.93527 4.35993 3.2309 5.61745 4.82913 5.61745ZM 9.65828 14.6997C 9.65828 15.6951 8.82671 16.5028 7.8011 16.5028L 7.34651 16.5028C 7.34886 16.5353 7.35005 16.5681 7.35005 16.6012L 7.35005 26.0002C 7.35005 26.7677 6.70905 27.3904 5.91769 27.3904L 3.74059 27.3904C 2.94923 27.3904 2.30823 26.7677 2.30823 26.0002L 2.30823 16.6012C 2.30823 16.5681 2.30943 16.5353 2.31177 16.5028L 1.85718 16.5028C 0.831558 16.5028 0 15.6951 0 14.6997L 0 8.18579C 0 7.18979 0.831558 6.38269 1.85776 6.38269L 7.80168 6.38269C 8.8273 6.38269 9.65886 7.18979 9.65886 8.18579L 9.65886 14.6997L 9.65828 14.6997Z"/><path id="path16_fill" fill-rule="evenodd" d="M 4.82915 5.61745C 6.42738 5.61745 7.72301 4.35994 7.72301 2.80872C 7.72301 1.25751 6.42738 0 4.82915 0C 3.2309 0 1.93527 1.25751 1.93527 2.80872C 1.93527 4.35994 3.2309 5.61745 4.82915 5.61745ZM 9.65828 14.6997C 9.65828 15.6951 8.82672 16.5028 7.8011 16.5028L 7.34653 16.5028C 7.34888 16.5353 7.35007 16.5681 7.35007 16.6012L 7.35007 26.0002C 7.35007 26.7677 6.70905 27.3904 5.91769 27.3904L 3.74059 27.3904C 2.94923 27.3904 2.30823 26.7677 2.30823 26.0002L 2.30823 16.6012C 2.30823 16.5681 2.30942 16.5353 2.31175 16.5028L 1.85718 16.5028C 0.831573 16.5028 0 15.6951 0 14.6997L 0 8.18578C 0 7.18979 0.831573 6.38269 1.85777 6.38269L 7.80168 6.38269C 8.8273 6.38269 9.65886 7.18979 9.65886 8.18578L 9.65886 14.6997L 9.65828 14.6997Z"/><path id="path17_fill" fill-rule="evenodd" d="M 4.82913 5.61744C 6.42738 5.61744 7.72301 4.35993 7.72301 2.80872C 7.72301 1.25751 6.42738 0 4.82913 0C 3.2309 0 1.93527 1.25751 1.93527 2.80872C 1.93527 4.35993 3.2309 5.61744 4.82913 5.61744ZM 9.65828 14.6997C 9.65828 15.6951 8.82671 16.5028 7.8011 16.5028L 7.34651 16.5028C 7.34886 16.5353 7.35005 16.5681 7.35005 16.6012L 7.35005 26.0002C 7.35005 26.7677 6.70905 27.3904 5.91769 27.3904L 3.74059 27.3904C 2.94923 27.3904 2.30823 26.7677 2.30823 26.0002L 2.30823 16.6012C 2.30823 16.5681 2.30943 16.5353 2.31177 16.5028L 1.85718 16.5028C 0.831558 16.5028 0 15.6951 0 14.6997L 0 8.18579C 0 7.18978 0.831558 6.38268 1.85776 6.38268L 7.80168 6.38268C 8.8273 6.38268 9.65886 7.18978 9.65886 8.18579L 9.65886 14.6997L 9.65828 14.6997Z"/><path id="path18_fill" fill-rule="evenodd" d="M 4.82915 5.61744C 6.42738 5.61744 7.72301 4.35994 7.72301 2.80872C 7.72301 1.25751 6.42738 0 4.82915 0C 3.2309 0 1.93527 1.25751 1.93527 2.80872C 1.93527 4.35994 3.2309 5.61744 4.82915 5.61744ZM 9.65828 14.6997C 9.65828 15.6951 8.82672 16.5028 7.8011 16.5028L 7.34653 16.5028C 7.34888 16.5353 7.35007 16.5681 7.35007 16.6012L 7.35007 26.0002C 7.35007 26.7677 6.70905 27.3904 5.91769 27.3904L 3.74059 27.3904C 2.94923 27.3904 2.30823 26.7677 2.30823 26.0002L 2.30823 16.6012C 2.30823 16.5681 2.30943 16.5353 2.31177 16.5028L 1.85718 16.5028C 0.831573 16.5028 0 15.6951 0 14.6997L 0 8.18579C 0 7.18979 0.831573 6.38269 1.85777 6.38269L 7.80168 6.38269C 8.8273 6.38269 9.65886 7.18979 9.65886 8.18579L 9.65886 14.6997L 9.65828 14.6997Z"/><path id="path19_fill" fill-rule="evenodd" d="M 4.82915 5.61744C 6.42738 5.61744 7.72301 4.35993 7.72301 2.80872C 7.72301 1.25751 6.42738 0 4.82915 0C 3.2309 0 1.93527 1.25751 1.93527 2.80872C 1.93527 4.35993 3.2309 5.61744 4.82915 5.61744ZM 9.65828 14.6997C 9.65828 15.6951 8.82672 16.5028 7.8011 16.5028L 7.34653 16.5028C 7.34888 16.5353 7.35007 16.5681 7.35007 16.6012L 7.35007 26.0002C 7.35007 26.7677 6.70905 27.3904 5.91769 27.3904L 3.74059 27.3904C 2.94923 27.3904 2.30823 26.7677 2.30823 26.0002L 2.30823 16.6012C 2.30823 16.5681 2.30943 16.5353 2.31177 16.5028L 1.85718 16.5028C 0.831573 16.5028 0 15.6951 0 14.6997L 0 8.18579C 0 7.18978 0.831573 6.38269 1.85777 6.38269L 7.80168 6.38269C 8.8273 6.38269 9.65886 7.18978 9.65886 8.18579L 9.65886 14.6997L 9.65828 14.6997Z"/><path id="path20_fill" fill-rule="evenodd" d="M 4.82913 5.61744C 6.42738 5.61744 7.72301 4.35994 7.72301 2.80872C 7.72301 1.25751 6.42738 0 4.82913 0C 3.2309 0 1.93527 1.25751 1.93527 2.80872C 1.93527 4.35994 3.2309 5.61744 4.82913 5.61744ZM 9.65828 14.6997C 9.65828 15.6951 8.82672 16.5028 7.8011 16.5028L 7.34651 16.5028C 7.34886 16.5353 7.35005 16.5681 7.35005 16.6012L 7.35005 26.0002C 7.35005 26.7677 6.70905 27.3904 5.91769 27.3904L 3.74059 27.3904C 2.94923 27.3904 2.30823 26.7677 2.30823 26.0002L 2.30823 16.6012C 2.30823 16.5681 2.30943 16.5353 2.31177 16.5028L 1.85718 16.5028C 0.831558 16.5028 0 15.6951 0 14.6997L 0 8.18579C 0 7.18978 0.831558 6.38268 1.85776 6.38268L 7.80168 6.38268C 8.8273 6.38268 9.65886 7.18978 9.65886 8.18579L 9.65886 14.6997L 9.65828 14.6997Z"/><path id="path21_fill" fill-rule="evenodd" d="M 4.82913 5.61744C 6.42738 5.61744 7.72301 4.35993 7.72301 2.80872C 7.72301 1.25751 6.42738 0 4.82913 0C 3.2309 0 1.93527 1.25751 1.93527 2.80872C 1.93527 4.35993 3.2309 5.61744 4.82913 5.61744ZM 9.65828 14.6997C 9.65828 15.6951 8.82672 16.5028 7.8011 16.5028L 7.34651 16.5028C 7.34886 16.5353 7.35005 16.5681 7.35005 16.6012L 7.35005 26.0002C 7.35005 26.7677 6.70905 27.3904 5.91769 27.3904L 3.74059 27.3904C 2.94923 27.3904 2.30823 26.7677 2.30823 26.0002L 2.30823 16.6012C 2.30823 16.5681 2.30943 16.5353 2.31177 16.5028L 1.85718 16.5028C 0.831558 16.5028 0 15.6951 0 14.6997L 0 8.18579C 0 7.18978 0.831558 6.38268 1.85776 6.38268L 7.80168 6.38268C 8.8273 6.38268 9.65886 7.18978 9.65886 8.18579L 9.65886 14.6997L 9.65828 14.6997Z"/><path id="path22_fill" fill-rule="evenodd" d="M 4.82913 5.61744C 6.42738 5.61744 7.72301 4.35993 7.72301 2.80872C 7.72301 1.25751 6.42738 0 4.82913 0C 3.2309 0 1.93527 1.25751 1.93527 2.80872C 1.93527 4.35993 3.2309 5.61744 4.82913 5.61744ZM 9.65828 14.6997C 9.65828 15.6951 8.82672 16.5028 7.8011 16.5028L 7.34651 16.5028C 7.34886 16.5353 7.35005 16.5681 7.35005 16.6012L 7.35005 26.0002C 7.35005 26.7677 6.70905 27.3904 5.91769 27.3904L 3.74059 27.3904C 2.94923 27.3904 2.30823 26.7677 2.30823 26.0002L 2.30823 16.6012C 2.30823 16.5681 2.30943 16.5353 2.31177 16.5028L 1.85718 16.5028C 0.831558 16.5028 0 15.6951 0 14.6997L 0 8.18579C 0 7.18978 0.831558 6.38268 1.85776 6.38268L 7.80168 6.38268C 8.8273 6.38268 9.65886 7.18978 9.65886 8.18579L 9.65886 14.6997L 9.65828 14.6997Z"/><path id="path23_fill" fill-rule="evenodd" d="M 4.82914 5.61745C 6.42738 5.61745 7.72301 4.35994 7.72301 2.80872C 7.72301 1.25751 6.42738 0 4.82914 0C 3.2309 0 1.93527 1.25751 1.93527 2.80872C 1.93527 4.35994 3.2309 5.61745 4.82914 5.61745ZM 9.65828 14.6997C 9.65828 15.6951 8.82671 16.5028 7.80109 16.5028L 7.34653 16.5028C 7.34887 16.5353 7.35006 16.5681 7.35006 16.6012L 7.35006 26.0002C 7.35006 26.7677 6.70905 27.3904 5.91769 27.3904L 3.74059 27.3904C 2.94923 27.3904 2.30822 26.7677 2.30822 26.0002L 2.30822 16.6012C 2.30822 16.5681 2.30941 16.5353 2.31175 16.5028L 1.85719 16.5028C 0.831566 16.5028 0 15.6951 0 14.6997L 0 8.18579C 0 7.18979 0.831566 6.38269 1.85777 6.38269L 7.80168 6.38269C 8.82729 6.38269 9.65887 7.18979 9.65887 8.18579L 9.65887 14.6997L 9.65828 14.6997Z"/><path id="path24_fill" fill-rule="evenodd" d="M 4.82915 5.61745C 6.42738 5.61745 7.72301 4.35994 7.72301 2.80872C 7.72301 1.25751 6.42738 0 4.82915 0C 3.2309 0 1.93527 1.25751 1.93527 2.80872C 1.93527 4.35994 3.2309 5.61745 4.82915 5.61745ZM 9.65828 14.6997C 9.65828 15.6951 8.82672 16.5028 7.8011 16.5028L 7.34653 16.5028C 7.34888 16.5353 7.35007 16.5681 7.35007 16.6012L 7.35007 26.0002C 7.35007 26.7677 6.70905 27.3904 5.91769 27.3904L 3.74059 27.3904C 2.94923 27.3904 2.30823 26.7677 2.30823 26.0002L 2.30823 16.6012C 2.30823 16.5681 2.30943 16.5353 2.31177 16.5028L 1.85718 16.5028C 0.831573 16.5028 0 15.6951 0 14.6997L 0 8.18579C 0 7.18979 0.831573 6.38269 1.85777 6.38269L 7.80168 6.38269C 8.8273 6.38269 9.65886 7.18979 9.65886 8.18579L 9.65886 14.6997L 9.65828 14.6997Z"/><path id="path25_fill" fill-rule="evenodd" d="M 4.82915 5.61745C 6.42738 5.61745 7.72301 4.35994 7.72301 2.80872C 7.72301 1.25751 6.42738 0 4.82915 0C 3.2309 0 1.93527 1.25751 1.93527 2.80872C 1.93527 4.35994 3.2309 5.61745 4.82915 5.61745ZM 9.65828 14.6997C 9.65828 15.6951 8.82672 16.5028 7.8011 16.5028L 7.34653 16.5028C 7.34888 16.5353 7.35007 16.5681 7.35007 16.6012L 7.35007 26.0002C 7.35007 26.7677 6.70905 27.3904 5.91769 27.3904L 3.74059 27.3904C 2.94923 27.3904 2.30823 26.7677 2.30823 26.0002L 2.30823 16.6012C 2.30823 16.5681 2.30942 16.5353 2.31175 16.5028L 1.85718 16.5028C 0.831573 16.5028 0 15.6951 0 14.6997L 0 8.18579C 0 7.18979 0.831573 6.38269 1.85777 6.38269L 7.80168 6.38269C 8.8273 6.38269 9.65886 7.18979 9.65886 8.18579L 9.65886 14.6997L 9.65828 14.6997Z"/><path id="path26_fill" fill-rule="evenodd" d="M 4.82914 5.61745C 6.42738 5.61745 7.72301 4.35994 7.72301 2.80872C 7.72301 1.25751 6.42738 0 4.82914 0C 3.2309 0 1.93527 1.25751 1.93527 2.80872C 1.93527 4.35994 3.2309 5.61745 4.82914 5.61745ZM 9.65829 14.6997C 9.65829 15.6951 8.82671 16.5028 7.80109 16.5028L 7.34653 16.5028C 7.34887 16.5353 7.35006 16.5681 7.35006 16.6012L 7.35006 26.0002C 7.35006 26.7677 6.70905 27.3904 5.91769 27.3904L 3.74059 27.3904C 2.94923 27.3904 2.30822 26.7677 2.30822 26.0002L 2.30822 16.6012C 2.30822 16.5681 2.30941 16.5353 2.31175 16.5028L 1.85719 16.5028C 0.831566 16.5028 0 15.6951 0 14.6997L 0 8.18579C 0 7.18979 0.831566 6.38269 1.85777 6.38269L 7.80168 6.38269C 8.82729 6.38269 9.65887 7.18979 9.65887 8.18579L 9.65887 14.6997L 9.65829 14.6997Z"/><path id="path27_fill" fill-rule="evenodd" d="M 4.82914 5.61745C 6.42738 5.61745 7.72301 4.35994 7.72301 2.80872C 7.72301 1.25751 6.42738 0 4.82914 0C 3.2309 0 1.93527 1.25751 1.93527 2.80872C 1.93527 4.35994 3.2309 5.61745 4.82914 5.61745ZM 9.65828 14.6997C 9.65828 15.6951 8.82671 16.5028 7.80109 16.5028L 7.34653 16.5028C 7.34887 16.5353 7.35006 16.5681 7.35006 16.6012L 7.35006 26.0002C 7.35006 26.7677 6.70905 27.3904 5.91769 27.3904L 3.74059 27.3904C 2.94923 27.3904 2.30822 26.7677 2.30822 26.0002L 2.30822 16.6012C 2.30822 16.5681 2.30941 16.5353 2.31175 16.5028L 1.85719 16.5028C 0.831566 16.5028 0 15.6951 0 14.6997L 0 8.18579C 0 7.18979 0.831566 6.38269 1.85777 6.38269L 7.80168 6.38269C 8.82729 6.38269 9.65887 7.18979 9.65887 8.18579L 9.65887 14.6997L 9.65828 14.6997Z"/><path id="path28_fill" fill-rule="evenodd" d="M 166.169 0.213749C 163.701 34.7726 148.497 58.8123 128.188 75.4667C 103.586 95.6011 71.4237 104.965 45.6283 109.218C 32.7101 111.345 21.2874 112.223 13.1428 112.565C 9.06085 112.736 5.77193 112.775 3.52055 112.77C 2.39034 112.768 1.50922 112.754 0.917901 112.742C 0.620074 112.736 0.390094 112.729 0.237927 112.725C 0.160782 112.722 0.100906 112.72 0.0619329 112.719L 0.0160164 112.718L 0.00371359 112.717L 0.000242913 112.717C -0.000744907 112.717 -0.00143415 112.717 0.0563006 111.218L 0.0945058 110.226C 0.114008 109.719 0.114008 109.719 0.114153 109.719L 0.11606 109.719L 0.125222 109.72L 0.164805 109.721C 0.201648 109.722 0.255084 109.724 0.327919 109.726C 0.475712 109.731 0.692369 109.736 0.981247 109.743C 1.56334 109.755 2.41591 109.768 3.52679 109.77C 5.75759 109.775 8.9805 109.737 13.0171 109.568C 21.1097 109.228 32.351 108.367 45.1405 106.258C 70.7606 102.039 102.188 92.9466 126.286 73.1469C 146.006 56.9755 160.771 33.6767 163.177 0L 166.169 0.213749Z"/><path id="path29_fill" fill-rule="evenodd" d="M 11.4977 0.308737C 11.7651 -0.122074 12.1435 -0.10091 12.3471 0.365259L 20.9343 20.0326C 21.136 20.4947 20.8861 20.8417 20.3547 20.8063L 0.578876 19.4902C 0.0570367 19.4555 -0.151679 19.082 0.11805 18.6473L 11.4977 0.308737Z"/></defs></svg>
