<svg id="native" width="394" height="369" viewBox="0 0 394 369" version="1.1" xmlns="http://www.w3.org/2000/svg" xmlns:xlink="http://www.w3.org/1999/xlink" xmlns:figma="http://www.figma.com/figma/ns"><title>noun_631491_cc</title><desc>Created using Figma</desc><g id="Canvas" transform="translate(-1047 -1139)" figma:type="canvas"><g id="noun_631491_cc" style="mix-blend-mode:normal;" figma:type="frame"><g id="Group" style="mix-blend-mode:normal;" figma:type="frame"><g id="Vector" style="mix-blend-mode:normal;" figma:type="vector"><use xlink:href="#path0_fill" transform="translate(1047.54 1139.5)" style="mix-blend-mode:normal;"/></g></g></g></g><defs><path id="path0_fill" d="M 246.702 -6.37989e-07L 246.702 68.843L 227.113 23.4959L 211.882 29.9556L 246.702 110.571L 246.702 115.586L 165.062 342.391L 157.572 342.401C 156.931 331.256 160.374 320.111 162.948 308.966C 156.708 315.796 151.117 323.013 146.801 330.987L 146.801 279.708L 175.37 287.005L 194.456 236.305C 169.174 225.175 161.275 211.362 148.18 195.404C 166.864 199.587 185.247 205.178 205.107 203.827L 212.707 183.621C 180.064 166.603 152.013 146.743 139.896 117.021C 159.293 120.225 175.914 128.93 199.721 123.401C 168.319 87.4301 132.426 54.2388 119.652 6.73876C 102.915 83.0689 67.2456 100.046 36.8135 133.429C 73.1392 137.492 89.463 123.385 112.293 115.197C 92.7083 155.213 64.0444 184.824 21.1701 198.135C 38.1412 207.457 64.954 207.044 104.008 194.497C 77.9055 244.619 42.037 274.669 2.33828e-06 292.02C 33.1578 290.076 65.7534 290.908 101.24 277.435L 101.24 323.221C 93.3955 315.475 82.7532 310.307 66.208 307.311C 89.0444 319.905 87.9142 328.421 94.3744 342.142L 90.2471 342.142C 83.3678 336.832 77.1516 332.117 72.4896 321.905C 71.3896 329.797 73.8523 336.067 76.9591 342.142L 73.9895 342.142C 68.1885 336.727 61.1201 333.954 50.8363 331.326C 55.304 336.068 57.8789 339.147 59.1312 342.142L 13.8114 342.142L 13.8114 368L 393 368L 393 342.142L 364.763 342.171L 265.476 112.296L 289.656 45.1178L 274.053 39.6052L 263.272 69.5508L 263.272 -6.37989e-07L 246.702 -6.37989e-07ZM 257.544 273.608C 275.661 273.594 293.966 296.483 294.518 342.251L 221.858 342.331C 221.527 296.563 239.416 273.621 257.544 273.608Z"/></defs></svg>
