<svg id="puzzle" width="444" height="443" viewBox="0 0 444 443" version="1.1" xmlns="http://www.w3.org/2000/svg" xmlns:xlink="http://www.w3.org/1999/xlink" xmlns:figma="http://www.figma.com/figma/ns"><title>Group</title><desc>Created using Figma</desc><g id="Canvas" transform="translate(-1031 -4291)" figma:type="canvas"><g id="Group" style="mix-blend-mode:normal;" figma:type="frame"><g id="Rectangle 26" style="mix-blend-mode:normal;" filter="url(#filter0_f)" figma:type="vector"><use xlink:href="#path0_fill" transform="translate(1039 4344)" fill="#00FF7F" style="mix-blend-mode:normal;"/></g><g id="noun_638462_cc" style="mix-blend-mode:normal;" figma:type="frame"><g id="Vector" style="mix-blend-mode:normal;" figma:type="vector"><use xlink:href="#path1_fill" transform="translate(1164.35 4446.81)" fill="#FFFFFF" style="mix-blend-mode:normal;"/></g><g id="Vector" style="mix-blend-mode:normal;" figma:type="vector"><use xlink:href="#path2_fill" transform="translate(1286.67 4575.67)" fill="#FFFFFF" style="mix-blend-mode:normal;"/></g><g id="Vector" style="mix-blend-mode:normal;" figma:type="vector"><use xlink:href="#path3_fill" transform="translate(1326.47 4291)" fill="#FFFFFF" style="mix-blend-mode:normal;"/></g><g id="Vector" style="mix-blend-mode:normal;" figma:type="vector"><use xlink:href="#path4_fill" transform="translate(1053 4582.52)" fill="#FFFFFF" style="mix-blend-mode:normal;"/></g><g id="Vector" style="mix-blend-mode:normal;" figma:type="vector"><use xlink:href="#path5_fill" transform="translate(1053.22 4464.24)" fill="#FFFFFF" style="mix-blend-mode:normal;"/></g><g id="Vector" style="mix-blend-mode:normal;" figma:type="vector"><use xlink:href="#path6_fill" transform="translate(1153.53 4593.01)" fill="#FFFFFF" style="mix-blend-mode:normal;"/></g><g id="Vector" style="mix-blend-mode:normal;" figma:type="vector"><use xlink:href="#path7_fill" transform="translate(1053.22 4351.54)" fill="#FFFFFF" style="mix-blend-mode:normal;"/></g><g id="Vector" style="mix-blend-mode:normal;" figma:type="vector"><use xlink:href="#path8_fill" transform="translate(1146.91 4351.63)" fill="#FFFFFF" style="mix-blend-mode:normal;"/></g><g id="Vector" style="mix-blend-mode:normal;" figma:type="vector"><use xlink:href="#path9_fill" transform="translate(1275.38 4460.01)" fill="#FFFFFF" style="mix-blend-mode:normal;"/></g></g><g id="Group" style="mix-blend-mode:normal;" figma:type="frame"><g id="Ellipse" style="mix-blend-mode:normal;" opacity="0.8" figma:type="vector"><use xlink:href="#path10_fill" transform="matrix(0.707107 -0.707107 0.707107 0.707107 1310.69 4365.79)" fill="#00FF7F" style="mix-blend-mode:normal;"/></g><g id="Ellipse" style="mix-blend-mode:normal;" opacity="0.8" figma:type="vector"><use xlink:href="#path11_fill" transform="matrix(0.707107 -0.707107 0.707107 0.707107 1344.37 4361.43)" fill="#00FF7F" style="mix-blend-mode:normal;"/></g><g id="Ellipse" style="mix-blend-mode:normal;" opacity="0.8" figma:type="vector"><use xlink:href="#path12_fill" transform="matrix(0.707107 -0.707107 0.707107 0.707107 1332.01 4379.21)" fill="#00FF7F" style="mix-blend-mode:normal;"/></g><g id="Ellipse" style="mix-blend-mode:normal;" opacity="0.8" figma:type="vector"><use xlink:href="#path13_fill" transform="matrix(0.707107 -0.707107 0.707107 0.707107 1365 4444.56)" fill="#00FF7F" style="mix-blend-mode:normal;"/></g><g id="Ellipse" style="mix-blend-mode:normal;" opacity="0.8" figma:type="vector"><use xlink:href="#path14_fill" transform="matrix(0.707107 -0.707107 0.707107 0.707107 1316.97 4436.32)" fill="#00FF7F" style="mix-blend-mode:normal;"/></g><g id="Ellipse" style="mix-blend-mode:normal;" opacity="0.8" figma:type="ellipse"><use xlink:href="#path15_fill" transform="matrix(3.20902e-17 1 -1 3.59955e-17 1408 4427.22)" fill="#00FF7F" style="mix-blend-mode:normal;"/></g><g id="Ellipse" style="mix-blend-mode:normal;" opacity="0.8" figma:type="ellipse"><use xlink:href="#path16_fill" transform="matrix(3.20902e-17 1 -1 3.59955e-17 1342 4407)" fill="#00FF7F" style="mix-blend-mode:normal;"/></g></g></g></g><defs><filter id="filter0_f" filterUnits="userSpaceOnUse" x="1031" y="4336" width="401" height="398" color-interpolation-filters="sRGB"><feFlood flood-opacity="0" result="BackgroundImageFix"/><feBlend mode="normal" in="SourceGraphic" in2="BackgroundImageFix" result="shape"/><desc>type="foregroundBlur" size="8"</desc><feGaussianBlur stdDeviation="4" result="effect1_foregroundBlur"/></filter><path id="path0_fill" fill-rule="evenodd" d="M 255.64 0L 2 0C 0.895431 0 0 0.895431 0 2L 0 380C 0 381.105 0.895431 382 2 382L 383 382C 384.105 382 385 381.105 385 380L 385 115.625C 385 115.625 357.296 110 347.527 110C 337.758 110 332.309 112.748 333.5 117C 333.784 118.014 340 122 340 122C 332 116.5 344.671 127.189 346.771 130.059C 350.392 135.009 348.721 137.673 346.771 140.838C 345.095 143.558 328.053 142.992 320.5 136C 314.17 130.14 322.65 121.124 322.65 121.124C 315.146 110.161 289.88 114.612 272.5 118.5C 266.101 119.931 262.728 123.538 262.313 123C 260.773 121 251.921 79.7905 255.515 77.7905C 257.451 76.7128 261.423 77.6675 264.138 79C 266.461 80.1403 270.33 79.9222 271.04 79C 272.58 77 280.213 42.6473 273.518 40.7505C 270.658 39.9403 268.5 38.5 268.5 38.5C 268.5 38.5 257.087 39.7913 251.5 37.5C 242.58 33.8417 251.921 16.6756 254.87 3.48153C 255.145 2.24918 255.406 1.08203 255.64 0Z"/><path id="path1_fill" d="M 123.809 135.473C 123.815 135.405 123.824 135.339 123.836 135.273C 125.672 125.351 126.959 115.335 127.689 105.272C 127.69 105.258 127.691 105.244 127.692 105.231C 127.92 100.813 127.082 99.5609 126.812 99.2556C 126.768 99.2058 126.72 99.1616 126.663 99.1266C 125.6 98.4675 121.965 99.4969 119.743 100.084C 119.733 100.087 119.724 100.089 119.715 100.092C 115.436 101.289 110.48 102.652 106.874 99.7891C 106.836 99.7592 106.799 99.7271 106.764 99.694C 105.458 98.4548 104.467 96.9205 103.875 95.2194C 103.294 93.5492 103.115 91.7666 103.35 90.0156C 103.365 89.9031 103.372 89.7896 103.371 89.6761C 103.32 85.272 104.96 81.0132 107.957 77.7792C 110.972 74.5257 115.126 72.5622 119.551 72.296C 119.612 72.2923 119.673 72.2863 119.733 72.2775L 121.104 72.0759C 121.105 72.0757 121.107 72.0755 121.108 72.0753C 128.567 70.961 128.595 70.9561 129.403 63.5525C 129.409 63.4988 129.413 63.4427 129.415 63.3888C 129.621 55.6293 128.433 47.8958 125.905 40.5563C 125.891 40.5134 125.877 40.4701 125.866 40.4264L 124.642 35.9138C 124.638 35.8965 124.633 35.8792 124.629 35.8618L 124.291 34.4702C 124.291 34.4686 124.291 34.4671 124.29 34.4656C 123.952 33.0828 123.627 31.6722 123.316 30.2339C 123.306 30.1881 123.301 30.1413 123.301 30.0945L 123.301 30.0461C 123.301 29.7077 123.027 29.4334 122.688 29.4334C 122.638 29.4334 122.588 29.4397 122.539 29.452L 117.041 30.8366C 116.996 30.8478 116.952 30.8575 116.906 30.8656L 111.641 31.8116C 111.524 31.8326 111.406 31.8431 111.287 31.8431L 111.157 31.8431C 111.047 31.8431 110.937 31.8523 110.828 31.8701C 109.105 32.1523 107.381 32.3575 105.618 32.5229C 105.557 32.5287 105.495 32.5316 105.433 32.5316L 104.88 32.5316C 99.4572 32.5316 104.837 32.7897 99.5433 32.7897L 97.047 32.7897L 95.4976 32.7897L 94.3355 32.7897L 92.7861 32.7897L 91.8927 32.7897C 91.7428 32.7897 91.5933 32.7729 91.4472 32.7395L 90.1713 32.4479C 90.1642 32.4463 90.1572 32.4447 90.1502 32.443L 89.16 32.2054C 89.1098 32.1933 89.0602 32.1794 89.0111 32.1635L 87.6422 31.7207C 87.6283 31.7162 87.6145 31.7116 87.6008 31.7068L 86.7078 31.3963C 86.657 31.3786 86.6068 31.3589 86.5576 31.3372L 85.1946 30.736C 85.177 30.7282 85.1595 30.7202 85.1421 30.7119L 84.5005 30.4065C 84.3437 30.3318 84.1974 30.2371 84.0651 30.1247L 82.6747 28.9432C 82.5869 28.8686 82.4928 28.8017 82.3935 28.7432L 81.8639 28.4318C 81.8287 28.4111 81.7941 28.3893 81.7603 28.3664C 81.0572 27.8896 80.3843 27.3695 79.7457 26.8091C 79.7454 26.8088 79.745 26.8085 79.7447 26.8082C 72.8335 20.7513 74.6767 16.428 77.728 12.6647C 77.7813 12.5989 77.8396 12.5369 77.9001 12.4777C 79.0426 11.3596 79.8047 9.91005 80.0775 8.33422C 80.0858 8.28679 80.0919 8.23823 80.0955 8.19023C 80.4083 3.93433 74.4493 0.997563 70.2564 0.263482C 70.241 0.260769 70.2258 0.257952 70.2104 0.254926C 66.9772 -0.378902 63.6241 0.178485 60.7704 1.82345C 60.738 1.84211 60.7062 1.86173 60.6753 1.88287C 60.311 2.13275 60.0041 2.45779 59.7755 2.83631C 59.5584 3.1958 59.4169 3.59528 59.3591 4.01036C 59.3479 4.09126 59.3454 4.17312 59.3481 4.25475C 59.429 6.64562 60.215 8.96009 61.6083 10.9066C 61.6199 10.9227 61.6313 10.939 61.6423 10.9555C 64.3313 14.9502 65.4749 19.7863 64.8605 24.5615C 64.856 24.5966 64.8504 24.6315 64.8439 24.6663L 64.5978 25.9915C 64.4218 26.939 63.5951 27.6262 62.6314 27.6262L 61.2383 27.6262L 56.9464 27.6262C 56.9384 27.6262 56.9304 27.6262 56.9224 27.6261C 47.6835 27.5142 38.4791 26.4774 29.447 24.5312C 29.4372 24.5291 29.4274 24.5271 29.4176 24.5252C 25.5489 23.7516 21.637 22.9782 17.5535 22.3336C 13.4677 21.6886 10.4993 21.0436 6.97341 20.3557C 6.96837 20.3547 6.96331 20.3537 6.95829 20.3527L 4.83685 19.9219C 4.51359 19.8562 4.2113 20.1033 4.2113 20.4332C 4.2113 20.4665 4.2081 20.4998 4.20175 20.5326C 3.83406 22.4269 3.46639 24.3072 3.09871 26.1737C 3.09443 26.1954 3.08979 26.217 3.0848 26.2386C 1.63818 32.4886 0.678325 38.8413 0.213846 45.2396C 0.210376 45.2874 0.208659 45.3353 0.208659 45.3832L 0.208659 46.1249C 0.208659 46.1562 0.20787 46.1886 0.206409 46.2199C -0.520176 61.7556 0.854909 65.1917 1.49983 65.9654C 2.13763 66.7306 3.48953 66.5299 6.84199 65.4877C 6.9235 65.4623 7.00466 65.431 7.08252 65.396C 8.9754 64.5451 11.0219 64.0874 13.0979 64.0511C 15.1892 64.0146 17.2655 64.4065 19.1991 65.2024C 19.2498 65.2233 19.3008 65.2472 19.3493 65.2727C 28.6834 70.1786 26.3972 82.3357 25.2323 88.0384C 25.2201 88.0982 25.2111 88.156 25.2042 88.2167C 24.672 92.8933 23.0369 97.3766 20.4337 101.298C 20.3789 101.38 20.3171 101.459 20.25 101.532C 18.0666 103.909 16.2433 105.368 13.9682 105.38C 13.9483 105.38 13.9282 105.38 13.9083 105.379C 13.0881 105.351 12.2834 105.146 11.5491 104.779C 10.8274 104.418 10.1903 103.909 9.67957 103.285C 9.64914 103.248 9.61789 103.211 9.58528 103.176C 9.15497 102.71 9.07653 102.636 8.84339 102.594C 8.79702 102.586 8.75045 102.578 8.70434 102.569C 8.07332 102.438 7.43083 102.382 6.78999 102.401C 5.89399 102.427 5.24564 103.202 5.21508 104.098C 5.15496 105.86 5.17821 107.624 5.28483 109.385C 5.28646 109.412 5.28757 109.439 5.28813 109.465C 5.50296 119.698 6.24454 129.912 7.50991 140.068C 7.52016 140.15 7.52514 140.233 7.52591 140.316C 7.53858 141.689 7.7574 143.086 7.95414 144.469C 8.06065 145.218 8.69856 145.785 9.45519 145.785C 9.51712 145.785 9.579 145.781 9.64046 145.773C 20.0437 144.474 30.5077 143.716 40.9898 143.505C 41.0032 143.505 41.0168 143.504 41.0302 143.504C 46.8887 143.504 51.1121 143.508 53.8247 146.411C 53.8895 146.48 53.9485 146.556 54.0004 146.636C 54.8865 147.994 55.4788 149.522 55.7386 151.124C 55.9981 152.724 55.9197 154.361 55.509 155.928C 55.4843 156.022 55.4655 156.118 55.4519 156.214C 55.2689 157.512 54.7919 158.749 54.0601 159.832C 53.8485 160.145 53.8783 160.57 54.156 160.827C 54.2004 160.868 54.2499 160.903 54.3032 160.931C 57.2087 162.484 60.3814 163.473 63.6543 163.848C 63.7078 163.854 63.7609 163.863 63.8138 163.873C 69.7716 165.027 76.2192 165.948 78.2791 162.013C 78.2809 162.009 78.2828 162.005 78.2847 162.002C 79.0408 160.567 78.5164 158.677 77.603 155.804C 77.5681 155.695 77.523 155.588 77.4712 155.485C 76.4368 153.434 76.0054 151.13 76.2291 148.842C 76.4556 146.524 77.344 144.322 78.7874 142.497C 78.8232 142.451 78.8608 142.408 78.9012 142.367C 82.6365 138.557 91.7982 138.13 104.615 138.769C 104.648 138.77 104.682 138.771 104.715 138.771L 105.483 138.771C 107.126 138.771 108.768 138.977 110.371 139.147C 110.44 139.155 110.51 139.159 110.58 139.159L 111.967 139.159C 112.063 139.159 112.158 139.165 112.253 139.179L 115.368 139.63C 115.377 139.631 115.386 139.633 115.396 139.634L 117.252 139.929C 117.268 139.932 117.283 139.934 117.298 139.937L 120.311 140.489C 120.324 140.491 120.338 140.494 120.352 140.497L 122.219 140.878C 122.223 140.879 122.227 140.88 122.231 140.881C 122.825 140.995 123.388 140.568 123.437 139.965L 123.809 135.473Z"/><path id="path2_fill" d="M 6.94439 21.378C 6.95592 21.3895 6.96098 21.406 6.95786 21.4221C 6.65825 22.9606 6.3162 24.5418 5.93173 26.2078C 5.93051 26.2131 5.9293 26.2184 5.92813 26.2237L 5.67693 27.3539C 5.67342 27.3697 5.66972 27.3854 5.66583 27.4011L 4.46684 32.2387C 4.46665 32.2395 4.46646 32.2402 4.46627 32.241C 1.41077 44.6323 -2.07481 58.6583 1.53913 67.4791C 1.53964 67.4804 1.54016 67.4817 1.54067 67.4829C 2.95307 70.9482 3.7275 70.9662 7.54815 70.7969C 7.58749 70.7952 7.62804 70.7922 7.66722 70.7882C 10.9193 70.4596 14.2035 70.8851 17.2646 72.0317C 17.283 72.0386 17.3017 72.046 17.3199 72.0535C 24.7433 75.1153 27.1445 82.5543 24.4806 94.1989C 24.4801 94.2011 24.4796 94.2032 24.4791 94.2054C 23.4041 98.976 20.1848 110.389 14.5216 114.193C 14.5035 114.205 14.4854 114.217 14.4669 114.228C 11.591 116.003 8.20221 116.76 4.84583 116.377C 4.76523 116.368 4.68188 116.362 4.60075 116.362C 1.59494 116.363 1.61602 116.402 0.902172 119.342C 0.897073 119.363 0.892084 119.385 0.887718 119.406C 0.762153 120.015 0.67928 120.631 0.639709 121.252C 0.637192 121.291 0.636064 121.331 0.636064 121.37C 0.636064 122.037 0.636064 121.354 0.636064 121.999C 0.636064 122.645 0.636064 121.956 0.636064 123.376C 0.636064 124.796 0.636064 123.376 0.636064 124.28C 0.636064 125.183 0.636064 124.237 0.636064 125.528C 0.636064 126.819 0.636064 125.528 0.636064 126.56C 0.636064 127.593 0.636064 126.603 0.636064 127.765L 0.636064 128.629C 0.636064 128.77 0.650953 128.91 0.680481 129.048L 0.891017 130.03C 0.893209 130.041 0.895482 130.051 0.897835 130.061L 1.14648 131.138C 1.15051 131.156 1.15478 131.173 1.15929 131.191L 1.45149 132.317C 1.45304 132.323 1.45463 132.329 1.45624 132.335L 1.75509 133.445C 1.75509 133.445 1.7551 133.445 1.7551 133.445L 2.04985 134.54C 2.0542 134.556 2.05874 134.572 2.06349 134.588L 2.38364 135.668C 2.39494 135.706 2.40067 135.746 2.40067 135.786C 2.40067 136.014 2.58574 136.199 2.81404 136.199L 125.258 136.199C 126.362 136.199 127.258 135.304 127.258 134.199L 127.258 29.5466C 127.258 28.496 126.322 27.692 125.283 27.85C 125.28 27.8506 125.276 27.8511 125.272 27.8517C 122.907 28.1959 119.985 28.8404 116.933 29.485C 116.93 29.4857 116.927 29.4863 116.924 29.4869L 111.527 30.6003C 111.513 30.6033 111.498 30.6061 111.483 30.6088L 106.026 31.6084C 105.92 31.6277 105.813 31.6375 105.706 31.6375C 105.613 31.6375 105.52 31.6448 105.427 31.6594C 103.61 31.9464 101.792 32.1929 99.9749 32.3607C 99.9147 32.3662 99.8543 32.3689 99.7939 32.3689L 99.4542 32.3689C 93.9022 32.3689 99.4542 32.6271 93.9022 32.6271L 91.3628 32.6271L 90.1147 32.6271L 88.6514 32.6271L 87.4032 32.6271L 86.2562 32.6271C 86.1032 32.6271 85.9508 32.6096 85.8018 32.5749L 84.7422 32.3277C 84.7373 32.3265 84.7323 32.3253 84.7274 32.3242L 83.5598 32.0424C 83.5111 32.0306 83.4628 32.017 83.4151 32.0016L 82.375 31.6662C 82.2271 31.6185 82.0853 31.5538 81.9525 31.4733L 80.8354 30.7964C 80.7666 30.7547 80.6954 30.7172 80.6221 30.6841L 79.4108 30.1372C 79.4022 30.1334 79.3936 30.1296 79.385 30.1258L 78.5197 29.7497C 78.4453 29.7174 78.373 29.6805 78.3031 29.6394L 77.0855 28.9233C 76.9918 28.8682 76.9027 28.8056 76.8192 28.736L 76.506 28.4751C 76.4542 28.4319 76.4001 28.3914 76.3444 28.3534C 75.6558 27.884 74.9962 27.3734 74.3693 26.8243C 74.3646 26.8202 74.3598 26.816 74.3551 26.812C 67.3269 20.7607 69.164 16.2291 72.0444 12.6735C 72.0974 12.608 72.1553 12.5466 72.2155 12.4876C 73.3582 11.3695 74.1205 9.91977 74.3934 8.34373C 74.4016 8.2963 74.4078 8.24774 74.4113 8.19973C 74.7241 3.94543 68.7696 1.00926 64.577 0.273809C 64.5583 0.270535 64.5401 0.267093 64.5215 0.263366C 61.2862 -0.385845 57.9252 0.174803 55.0761 1.83856C 55.0505 1.85352 55.0252 1.86909 55.0006 1.88562C 54.63 2.13425 54.3182 2.46113 54.0873 2.8434C 53.8684 3.2059 53.7275 3.60957 53.673 4.02867C 53.6632 4.10376 53.6611 4.17964 53.6634 4.25532C 53.7375 6.6511 54.5248 8.97111 55.9254 10.918C 55.9361 10.9329 55.9467 10.9479 55.957 10.963C 58.6935 14.9881 59.8544 19.8782 59.2191 24.7029C 59.2148 24.7361 59.2095 24.7692 59.2033 24.8021L 58.9567 26.1301C 58.7807 27.0776 57.954 27.7648 56.9903 27.7648L 55.6192 27.7648C 55.6045 27.7648 55.5899 27.765 55.5753 27.7653C 44.8769 27.9983 34.1928 26.8586 23.7844 24.3742C 23.7602 24.3684 23.736 24.3631 23.7116 24.3582C 19.8552 23.5872 15.9558 22.8165 11.8859 22.1736C 11.8749 22.1719 11.8638 22.17 11.8528 22.168L 6.98774 21.295C 6.94045 21.2865 6.91041 21.344 6.94439 21.378Z"/><path id="path3_fill" d="M 0.464406 36.6095C 0.470416 36.6725 0.473425 36.7358 0.473425 36.7992L 0.473425 37.8592C 0.473425 37.9496 0.479554 38.0399 0.491762 38.1295C 0.734937 39.9137 0.980817 41.7343 1.33714 43.5194C 1.36349 43.6515 1.37725 43.7857 1.37725 43.9204L 1.37725 44.3312C 1.37725 44.467 1.39108 44.6025 1.41853 44.7355L 1.90703 47.1022C 1.92681 47.198 1.93678 47.2956 1.93678 47.3935C 1.93678 47.4959 1.94767 47.598 1.96942 47.6981C 2.28008 49.1271 2.59073 50.4489 2.90139 51.6001C 2.94628 51.7664 2.96971 51.9378 2.96971 52.1101C 2.96971 52.2805 2.99243 52.4501 3.03728 52.6145L 3.28655 53.5284C 3.33334 53.6999 3.35705 53.8769 3.35705 54.0547L 3.35705 54.1575C 3.35705 54.3398 3.38198 54.5213 3.43115 54.6968L 3.58751 55.2551C 3.6345 55.4229 3.65832 55.5963 3.65832 55.7705C 3.65832 55.9672 3.68869 56.1628 3.74834 56.3502L 3.89732 56.8182C 3.93861 56.948 3.95963 57.0833 3.95963 57.2194C 3.95963 57.3683 3.98475 57.516 4.03392 57.6565L 4.18759 58.0955C 4.23612 58.2341 4.2609 58.3799 4.2609 58.5268C 4.2609 58.6929 4.2926 58.8574 4.3543 59.0117L 4.44589 59.2406C 4.49427 59.3615 4.51913 59.4906 4.51913 59.6208C 4.51913 59.7465 4.54226 59.8711 4.58737 59.9883L 4.68225 60.235C 4.71666 60.3244 4.7343 60.4194 4.7343 60.5153C 4.7343 60.6184 4.75473 60.7205 4.7944 60.8157L 4.92595 61.1313C 4.94165 61.169 4.95865 61.2061 4.97691 61.2426L 5.01074 61.3103C 5.112 61.5127 5.16472 61.736 5.16472 61.9624L 5.16472 62.2636C 5.16472 62.4289 5.2304 62.5874 5.34729 62.7043L 5.41279 62.7698C 5.47653 62.8335 5.54949 62.888 5.63239 62.9233C 5.89908 63.0372 6.18651 63.0961 6.47742 63.0961C 6.80158 63.0961 7.12138 63.0229 7.41302 62.8822C 7.43496 62.8716 7.45688 62.8609 7.47901 62.8507C 8.56194 62.3518 9.60453 61.7697 10.5974 61.1097C 10.6483 61.0759 10.6975 61.0394 10.7452 61.0011C 12.3746 59.6932 14.2546 58.7321 16.2699 58.1773C 18.2879 57.6218 20.398 57.4855 22.4701 57.7767C 22.5251 57.7844 22.5812 57.7951 22.6352 57.808C 32.8824 60.253 33.6082 72.4956 33.9533 78.4484C 33.9565 78.5034 33.9619 78.5561 33.9695 78.6107C 34.618 83.2864 34.1438 88.049 32.5863 92.5046C 32.5542 92.5964 32.5146 92.6862 32.4688 92.772C 30.9565 95.6045 29.5537 97.445 27.3335 98.0516C 27.3026 98.06 27.2713 98.0675 27.2399 98.0739C 26.451 98.2353 25.6367 98.2286 24.8503 98.0539C 24.0676 97.88 23.3305 97.5437 22.6864 97.0671C 22.6545 97.0434 22.6219 97.0202 22.5888 96.9982C 22.102 96.675 21.9792 96.6156 21.7922 96.6273C 21.6962 96.6332 21.6004 96.6436 21.5043 96.645C 20.891 96.6544 20.2823 96.7328 19.6893 96.8776C 18.8136 97.0914 18.3441 97.9935 18.5112 98.8793C 18.8416 100.63 19.2556 102.365 19.7518 104.077C 19.754 104.085 19.7561 104.092 19.7581 104.099C 22.5044 113.991 25.762 123.733 29.5177 133.287C 29.5225 133.299 29.5272 133.311 29.5318 133.324L 31.794 139.43C 32.1963 140.516 33.4339 141.035 34.49 140.559L 36.8191 139.512C 36.8341 139.505 36.849 139.498 36.8639 139.491L 41.1144 137.451C 41.1352 137.441 41.1558 137.431 41.1762 137.42L 44.8141 135.517C 44.836 135.505 44.8577 135.494 44.8791 135.481L 45.4286 135.167C 45.4425 135.159 45.4565 135.152 45.4706 135.144L 49.7278 132.846C 49.7449 132.836 49.7618 132.827 49.7786 132.817C 56.4666 128.953 63.4151 125.557 70.574 122.656C 70.6096 122.641 70.6457 122.628 70.6821 122.615L 73.0077 121.826C 73.0276 121.82 73.0477 121.813 73.0679 121.807L 74.0214 121.517C 74.0255 121.516 74.0296 121.515 74.0337 121.513L 75.3411 121.125C 75.526 121.07 75.718 121.042 75.9109 121.042L 76.0504 121.042L 76.4154 121.042C 76.5448 121.042 76.6738 121.029 76.8008 121.004L 78.8292 120.606C 78.9562 120.581 79.0852 120.568 79.2146 120.568L 79.7828 120.568C 79.8768 120.568 79.9706 120.562 80.0637 120.549C 81.0664 120.412 82.0761 120.333 83.088 120.311C 83.1019 120.31 83.1158 120.31 83.1297 120.31L 83.6852 120.31C 83.7313 120.31 83.7774 120.309 83.8234 120.306C 84.623 120.253 85.4252 120.253 86.2247 120.306C 86.2707 120.309 86.3168 120.31 86.3629 120.31L 86.9676 120.31C 87.0919 120.31 87.2161 120.321 87.338 120.346C 88.2607 120.534 89.1604 120.822 90.0208 121.206C 90.0324 121.211 90.0444 121.217 90.0559 121.222C 98.1696 125.051 96.106 130.467 95.2029 132.789C 94.3053 135.096 94.5537 134.773 94.8944 135.358C 94.8991 135.366 94.9039 135.374 94.9086 135.382C 97.3588 139.491 110.284 138.715 122.857 135.431C 123.812 135.182 124.446 134.252 124.17 133.305C 123.864 132.253 123.393 131.253 122.772 130.342C 121.851 128.989 120.626 127.873 119.195 127.081C 119.125 127.042 119.057 127 118.992 126.953C 116.075 124.879 113.547 122.307 111.525 119.355C 111.489 119.303 111.452 119.254 111.412 119.205C 110.335 117.876 109.649 116.273 109.432 114.575C 109.213 112.861 109.481 111.121 110.203 109.554C 110.217 109.524 110.231 109.495 110.246 109.467C 113.192 103.959 121.688 103.357 131.726 103.185C 131.737 103.185 131.749 103.185 131.76 103.185L 134.928 103.185L 135.144 103.185C 135.172 103.185 135.201 103.184 135.229 103.183L 142.202 102.885C 142.231 102.884 142.259 102.883 142.287 102.883L 143.764 102.883C 143.813 102.883 143.862 102.882 143.91 102.878L 146.148 102.714C 147.389 102.623 148.247 101.432 147.94 100.226L 122.94 1.93776C 122.667 0.867479 121.579 0.220417 120.509 0.492364L 0.199367 31.0596C 0.0820946 31.0894 -9.19418e-06 31.195 -9.19418e-06 31.316C -9.19418e-06 31.3223 0.000215408 31.3286 0.000664158 31.3348C 0.127449 33.1072 0.295567 34.8384 0.464406 36.6095Z"/><path id="path4_fill" d="M 112.136 18.6346C 112.123 18.6358 112.111 18.6364 112.099 18.6364L 110.226 18.6364C 110.138 18.6364 110.051 18.6421 109.965 18.6536C 104.738 19.3489 99.5783 20.4776 94.5389 22.0281C 94.5225 22.0332 94.5059 22.0381 94.4894 22.0427L 90.2289 23.2353C 90.2165 23.2388 90.2041 23.2422 90.1916 23.2454L 89.0716 23.5357C 89.056 23.5397 89.0404 23.5436 89.0247 23.5473L 84.4815 24.6085C 84.4559 24.6145 84.4301 24.62 84.4042 24.625L 83.327 24.8321C 83.325 24.8325 83.323 24.8328 83.3211 24.8332C 81.7653 25.1275 80.2095 25.4217 78.6538 25.5954C 78.5824 25.6034 78.5107 25.6072 78.4389 25.6072L 78.0302 25.6072C 76.5333 25.6072 75.0365 25.8621 73.5396 25.9076C 73.5206 25.9081 73.5015 25.9084 73.4825 25.9084L 72.5642 25.9084C 68.9489 25.9084 72.6349 25.9084 69.0122 25.9084C 68.9414 25.9084 68.8679 25.9044 68.7974 25.8967C 55.9884 24.5066 54.9143 20.0744 53.541 11.0641C 53.5409 11.0635 53.5408 11.063 53.5407 11.0624L 53.3463 9.7796C 53.3326 9.68882 53.3254 9.59719 53.3229 9.50541C 53.2893 8.25504 53.0158 7.0223 52.5168 5.87435C 51.9994 4.68424 51.2501 3.60909 50.3125 2.71175C 49.3748 1.81442 48.2678 1.11287 47.056 0.648067C 45.8537 0.186958 44.5723 -0.0319767 43.2854 0.00374721C 43.2648 0.00431913 43.2435 0.00464841 43.2229 0.00467323C 40.5268 0.00791979 39.7662 0.426648 39.689 0.50986C 39.6828 0.516496 39.6821 0.525547 39.682 0.534597C 39.6558 2.5866 39.9968 4.62657 40.6888 6.55824C 40.7063 6.60689 40.722 6.65588 40.7358 6.70567C 42.0112 11.2977 43.3874 16.4668 40.2741 20.435C 40.2247 20.4979 40.1701 20.5578 40.1123 20.6131C 38.5023 22.1548 36.5533 23.2988 34.4211 23.953C 32.3069 24.6017 30.0719 24.7507 27.8918 24.3894C 27.7756 24.3701 27.658 24.3595 27.5402 24.3588C 25.1882 24.3446 22.7963 24.0521 20.4044 23.8004C 20.4019 23.8001 20.3994 23.7998 20.3969 23.7996L 17.4495 23.5006C 17.4371 23.4994 17.4247 23.498 17.4123 23.4965L 12.8011 22.9416C 12.7888 22.9401 12.7765 22.9385 12.7643 22.9368L 9.39196 22.4673C 9.3857 22.4665 9.37943 22.4656 9.37317 22.4646L 5.3379 21.8638C 5.33721 21.8637 5.33653 21.8636 5.33584 21.8635L 1.10383 21.2288C 1.05664 21.2217 1.00898 21.2182 0.961264 21.2182C 0.430373 21.2182 -5.13068e-08 21.6485 -5.13068e-08 22.1794L -5.13068e-08 127.394C -5.13068e-08 128.499 0.89543 129.394 2 129.394L 111.995 129.394C 112.784 129.394 113.455 128.82 113.577 128.04C 113.579 128.025 113.582 128.01 113.585 127.995C 115.434 118.048 116.725 108.007 117.453 97.9163C 117.454 97.9032 117.455 97.8895 117.455 97.8764C 117.683 93.4581 116.845 92.2063 116.576 91.901C 116.532 91.8512 116.483 91.807 116.426 91.7719C 115.364 91.1128 111.728 92.1423 109.506 92.7294C 109.496 92.7319 109.487 92.7344 109.478 92.7371C 105.2 93.9346 100.244 95.2973 96.637 92.4344C 96.5993 92.4045 96.5625 92.3724 96.5275 92.3393C 95.2212 91.1001 94.2304 89.5658 93.6386 87.8647C 93.0575 86.1946 92.8779 84.412 93.113 82.6609C 93.1281 82.5485 93.1355 82.4349 93.1341 82.3215C 93.0831 77.9174 94.723 73.6586 97.7199 70.4245C 100.735 67.171 104.889 65.2076 109.315 64.9413C 109.375 64.9377 109.436 64.9317 109.496 64.9228L 110.867 64.7213C 110.868 64.721 110.87 64.7208 110.872 64.7206C 118.33 63.6063 118.358 63.6014 119.167 56.1975C 119.173 56.1441 119.177 56.0881 119.178 56.0343C 119.386 48.2895 118.197 40.5704 115.669 33.2466C 115.654 33.2025 115.64 33.1578 115.628 33.1128L 114.618 29.3686C 114.615 29.3567 114.612 29.3448 114.609 29.3329L 114.314 28.1528C 114.313 28.1482 114.312 28.1436 114.311 28.139C 114.085 27.2067 113.858 26.2884 113.632 25.3839C 113.627 25.3606 113.621 25.3373 113.616 25.3138L 113.327 23.9488C 113.324 23.9356 113.321 23.9225 113.318 23.9094C 113.12 23.0583 112.95 22.1931 112.807 21.314C 112.806 21.3075 112.805 21.301 112.804 21.2945L 112.562 19.8832C 112.553 19.8266 112.548 19.7694 112.548 19.7121C 112.548 18.5327 112.548 20.2275 112.548 19.0073C 112.548 18.7857 112.356 18.6125 112.136 18.6346Z"/><path id="path5_fill" d="M 110.612 123.627C 110.611 123.62 110.611 123.614 110.61 123.607C 109.287 113.137 108.512 102.605 108.287 92.0546C 108.287 92.0405 108.287 92.0262 108.287 92.012C 108.287 86.1554 108.29 81.9333 111.194 79.2215C 111.263 79.1567 111.339 79.0978 111.419 79.0459C 112.777 78.16 114.306 77.5678 115.908 77.3081C 117.509 77.0486 119.146 77.127 120.713 77.5377C 120.807 77.5623 120.903 77.5811 120.999 77.5947C 122.298 77.7776 123.535 78.2546 124.618 78.9863C 124.931 79.1978 125.357 79.168 125.613 78.8903C 125.654 78.8459 125.689 78.7964 125.718 78.743C 127.276 75.8261 128.266 72.6399 128.635 69.3536C 128.641 69.2985 128.65 69.2437 128.66 69.1892C 129.814 63.2335 130.691 56.7888 126.756 54.7297C 126.753 54.7279 126.749 54.726 126.745 54.7241C 125.31 53.9682 123.419 54.4924 120.546 55.4057C 120.437 55.4406 120.33 55.4856 120.227 55.5374C 118.175 56.5716 115.871 57.0029 113.582 56.7792C 111.264 56.5528 109.061 55.6646 107.236 54.2215C 107.19 54.1857 107.147 54.1481 107.106 54.1077C 103.295 50.3733 102.868 41.2137 103.507 28.4002C 103.509 28.3669 103.509 28.3332 103.509 28.2999L 103.509 27.6007C 103.509 27.5551 103.511 27.5095 103.514 27.4641C 103.984 20.655 104.988 13.8934 106.518 7.24168C 106.521 7.22883 106.524 7.21593 106.526 7.20302C 106.907 5.38096 107.247 3.60036 107.586 1.77898C 107.594 1.73619 107.598 1.69274 107.598 1.64922L 107.598 1.42282C 107.598 1.15622 107.382 0.940107 107.115 0.940107C 107.093 0.940107 107.071 0.938536 107.048 0.935406L 104.466 0.57232C 104.373 0.55935 104.28 0.552842 104.187 0.552842L 103.036 0.552842C 101.717 0.552842 100.356 0.300492 98.7861 0.211606C 98.7502 0.209571 98.7141 0.208615 98.6781 0.208615L 97.9182 0.208615C 97.8869 0.208615 97.8545 0.207827 97.8233 0.206366C 82.284 -0.520056 78.8471 0.854716 78.0732 1.49949C 77.3079 2.13714 77.5087 3.48871 78.5511 6.84036C 78.5764 6.9219 78.6078 7.00309 78.6428 7.08096C 79.4939 8.97339 79.9517 11.0194 79.988 13.0949C 80.0246 15.1878 79.6317 17.2657 78.834 19.2005C 78.8147 19.2473 78.7934 19.2933 78.7701 19.3382C 78.463 19.9314 78.1102 20.4998 77.7149 21.0384C 77.6956 21.0648 77.6755 21.0905 77.6548 21.1158L 77.3329 21.5092C 77.31 21.5372 77.2863 21.5646 77.2619 21.5913L 76.4547 22.4752C 76.4147 22.519 76.3728 22.5609 76.3291 22.601L 75.9357 22.9616C 75.8974 22.9966 75.8577 23.0302 75.8168 23.0622L 74.9482 23.7419C 74.9083 23.7731 74.8672 23.8028 74.825 23.8309L 74.4632 24.0721C 74.4023 24.1127 74.3393 24.1498 74.2744 24.1835L 73.2557 24.7116C 73.2251 24.7274 73.1941 24.7425 73.1627 24.7568L 72.7955 24.9237C 72.7561 24.9416 72.7161 24.9582 72.6756 24.9735L 71.2687 25.5057C 71.1856 25.5372 71.1005 25.563 71.014 25.5832L 69.5167 25.9313C 69.3682 25.9658 69.2162 25.9832 69.0638 25.9832L 68.9489 25.9832L 67.4856 25.9832L 65.1184 25.9832L 62.7943 25.9832L 62.658 25.9832C 62.5768 25.9832 62.4956 25.9783 62.415 25.9684L 60.4996 25.7339C 60.4513 25.728 60.4027 25.7251 60.3541 25.7251C 60.2881 25.7251 60.2223 25.7196 60.1572 25.7088L 58.3437 25.4066C 58.2408 25.3894 58.1367 25.3808 58.0323 25.3808C 57.9076 25.3808 57.7832 25.3685 57.6609 25.3441L 56.2053 25.053C 56.1506 25.0421 56.0954 25.0335 56.04 25.027C 51.4429 24.4889 47.0351 22.8856 43.1673 20.3449C 43.0819 20.2888 43.0008 20.2254 42.9256 20.1563C 40.55 17.9748 39.0925 16.1524 39.0797 13.879C 39.0796 13.859 39.0799 13.839 39.0806 13.8191C 39.1094 12.999 39.3143 12.1946 39.6814 11.4604C 40.0423 10.7388 40.5515 10.102 41.1755 9.5913C 41.2127 9.56087 41.2494 9.52964 41.2846 9.49704C 41.756 9.06165 41.8268 8.98656 41.8677 8.74684C 41.8747 8.70607 41.8815 8.66514 41.8896 8.62459C 42.0149 7.99599 42.0692 7.3569 42.0526 6.71919C 42.0292 5.81587 41.2508 5.1587 40.3476 5.12875C 38.5909 5.07049 36.8322 5.0934 35.077 5.19746C 35.0483 5.19916 35.0196 5.20027 34.9908 5.20076C 24.7359 5.37482 14.4969 6.07789 4.3145 7.30719C 4.30745 7.30804 4.3004 7.30885 4.29334 7.30963L 1.78137 7.58588C 0.767524 7.69738 0 8.55394 0 9.5739L 0 129.768C 0 130.74 0.698266 131.571 1.65532 131.738L 1.70679 131.747C 1.71665 131.749 1.72651 131.75 1.73638 131.752L 5.75802 132.394C 5.76418 132.395 5.77035 132.396 5.77651 132.396L 10.0604 133.039C 10.0676 133.04 10.0748 133.041 10.082 133.042L 13.1543 133.469C 13.1648 133.47 13.1752 133.471 13.1857 133.473L 18.0743 134.073C 18.0758 134.073 18.0772 134.073 18.0786 134.073L 20.4692 134.372C 20.4809 134.374 20.4925 134.375 20.5042 134.376C 22.9078 134.633 25.3112 134.805 27.6719 134.934C 27.6735 134.934 27.6751 134.934 27.6767 134.934C 32.1104 135.165 33.3655 134.325 33.6713 134.055C 33.7211 134.011 33.7653 133.963 33.8004 133.906C 34.4596 132.844 33.4299 129.209 32.8427 126.987C 32.8401 126.978 32.8377 126.969 32.835 126.959C 31.6343 122.672 30.2676 117.703 33.1584 114.095C 33.1748 114.075 33.1919 114.055 33.2092 114.035C 34.4159 112.669 35.9395 111.619 37.6468 110.978C 39.3181 110.35 41.1149 110.133 42.8861 110.345C 42.9882 110.357 43.091 110.363 43.1937 110.361C 47.6046 110.306 51.8708 111.946 55.1096 114.946C 58.3638 117.96 60.3277 122.113 60.594 126.538C 60.5977 126.599 60.6037 126.659 60.6126 126.719L 60.8141 128.09C 60.8144 128.091 60.8146 128.093 60.8148 128.094C 61.9293 135.551 61.9343 135.579 69.3385 136.388C 69.3929 136.394 69.4497 136.398 69.5044 136.399C 77.2612 136.597 84.991 135.405 92.3282 132.88C 92.3509 132.872 92.3738 132.865 92.3968 132.858C 97.8633 131.193 103.46 129.992 109.129 129.267C 109.199 129.258 109.269 129.254 109.34 129.254C 110.339 129.254 111.118 128.385 111.014 127.391C 110.882 126.118 110.757 124.873 110.612 123.627Z"/><path id="path6_fill" d="M 131.039 2.20811C 131.026 2.20577 131.013 2.20327 130.999 2.20061L 129.529 1.90659C 129.518 1.90446 129.508 1.90242 129.497 1.90046L 126.465 1.34541C 126.46 1.34446 126.454 1.34354 126.449 1.34264L 124.768 1.04853C 124.746 1.0447 124.724 1.04124 124.702 1.03814L 121.818 0.632037C 121.726 0.619028 121.633 0.6125 121.54 0.6125L 120.13 0.6125C 118.599 0.6125 117.11 0.318452 115.581 0.228421C 115.544 0.226248 115.507 0.225251 115.47 0.225251L 114.929 0.225251C 114.896 0.225251 114.862 0.224367 114.829 0.22273C 99.2918 -0.54619 95.8553 0.871375 95.0814 1.51611C 94.316 2.15383 94.5169 3.50567 95.5596 6.85818C 95.5848 6.93894 95.6157 7.01937 95.6503 7.09654C 96.4993 8.98994 96.9559 11.0361 96.9922 13.1116C 97.0287 15.1996 96.639 17.2728 95.8473 19.2046C 95.8247 19.2597 95.7993 19.3138 95.7711 19.3664C 95.4639 19.9408 95.1136 20.4911 94.7233 21.0126C 94.7039 21.0386 94.6837 21.0639 94.663 21.0888L 94.2926 21.5331C 94.2733 21.5563 94.2535 21.579 94.2332 21.6013L 93.4467 22.4624C 93.3889 22.5258 93.327 22.5853 93.2616 22.6406L 92.8169 23.0168C 92.8059 23.0262 92.7947 23.0354 92.7835 23.0445L 91.9815 23.6936C 91.9249 23.7394 91.8658 23.7821 91.8046 23.8215L 91.357 24.1091C 91.315 24.1361 91.272 24.1615 91.2281 24.1853L 90.2898 24.6934C 90.2706 24.7038 90.2513 24.7139 90.2317 24.7236L 89.7589 24.96C 89.692 24.9934 89.6233 25.0231 89.553 25.0488L 88.5931 25.4007C 88.4437 25.4555 88.2859 25.4835 88.1268 25.4835C 88.0292 25.4835 87.9318 25.4941 87.8365 25.515L 86.4272 25.8243C 86.2864 25.8552 86.1426 25.8708 85.9984 25.8708L 85.6128 25.8708L 84.4077 25.8708L 81.9114 25.8708L 79.6734 25.8708L 79.4782 25.8708C 79.4075 25.8708 79.3369 25.867 79.2666 25.8596L 77.4547 25.6668C 77.3844 25.6594 77.3138 25.6556 77.2432 25.6556L 77.1345 25.6556C 77.0196 25.6556 76.905 25.6457 76.7919 25.6261L 75.1521 25.341C 75.039 25.3213 74.9243 25.3114 74.8095 25.3114L 74.7344 25.3114C 74.6128 25.3114 74.4916 25.3003 74.3721 25.2783L 73.004 25.0264C 72.9455 25.0156 72.8865 25.0075 72.8273 25.0018C 68.1086 24.5478 63.5672 22.9728 59.5815 20.4084C 59.4904 20.3498 59.4041 20.2829 59.3244 20.2097C 56.9529 18.031 55.4981 16.2099 55.4854 13.9386C 55.4853 13.9187 55.4856 13.8987 55.4863 13.8788C 55.5151 13.0587 55.7199 12.2542 56.0871 11.5201C 56.4479 10.7985 56.9572 10.1616 57.5812 9.65097C 57.6184 9.62055 57.655 9.58932 57.6903 9.55671C 58.1545 9.12789 58.2302 9.04857 58.2715 8.81723C 58.28 8.76936 58.2881 8.7213 58.2981 8.6737C 58.4299 8.04251 58.4863 7.39961 58.4671 6.75842C 58.4404 5.86417 57.6666 5.21819 56.7724 5.18763C 55.0084 5.12735 53.2422 5.15056 51.4797 5.25724C 51.453 5.25886 51.4262 5.25997 51.3994 5.26053C 41.179 5.47627 30.9766 6.21947 20.8329 7.48716C 20.7794 7.49384 20.7256 7.4972 20.6717 7.4972L 20.2518 7.4972C 19.7677 7.4972 19.3754 7.88959 19.3754 8.37362C 19.3754 8.42037 19.3791 8.46704 19.3865 8.5132L 19.5869 9.75488C 19.5893 9.77015 19.592 9.78539 19.5948 9.8006C 19.7369 10.5664 19.8931 11.3322 20.0632 12.098C 20.0637 12.1002 20.0642 12.1025 20.0647 12.1047L 20.362 13.4209C 20.3642 13.4305 20.3664 13.4401 20.3687 13.4496L 20.9678 15.931C 20.9678 15.931 20.9678 15.931 20.9678 15.931L 21.2626 17.1522C 21.2669 17.1699 21.2715 17.1876 21.2762 17.2053L 22.2416 20.7721C 22.2532 20.8149 22.2662 20.8574 22.2806 20.8994C 25.1086 29.1572 26.3721 37.8698 26.0061 46.5906C 26.0043 46.6329 26.001 46.6767 25.9965 46.7188C 24.6113 59.566 20.1782 60.6408 11.1557 62.0154C 11.1552 62.0155 11.1546 62.0156 11.154 62.0157L 9.87987 62.2086C 9.78313 62.2233 9.68542 62.2305 9.58759 62.2323C 8.32511 62.2558 7.07867 62.5239 5.91743 63.0221C 4.71115 63.5395 3.62154 64.2947 2.71366 65.2426C 1.80579 66.1904 1.09827 67.3114 0.633346 68.5387C 0.173111 69.7536 -0.040053 71.0479 0.00618893 72.3459C 0.00713061 72.3724 0.00767251 72.3996 0.00771466 72.4261C 0.0119808 75.1035 0.439165 75.886 0.515632 75.9523C 0.520882 75.9569 0.527634 75.9571 0.534583 75.9572C 2.58867 75.9773 4.63013 75.6362 6.56569 74.9494C 6.6124 74.9328 6.65941 74.9178 6.70716 74.9045C 11.302 73.629 16.4749 72.2514 20.4451 75.3673C 20.5064 75.4153 20.5649 75.4685 20.6189 75.5245C 22.1678 77.1308 23.3168 79.0798 23.9718 81.2138C 24.6276 83.3503 24.7697 85.6108 24.387 87.8116C 24.3746 87.8833 24.3653 87.9556 24.3602 88.0282C 23.6683 97.7482 22.4682 107.425 20.7649 117.019C 20.5719 118.106 20.4083 118.986 20.4083 118.986C 20.4083 118.986 21.3037 118.986 22.4083 118.986L 126.108 118.986C 127.121 118.986 127.911 118.107 127.801 117.099L 127.798 117.07C 127.794 117.028 127.791 116.986 127.791 116.944C 127.791 116.843 127.778 116.743 127.752 116.645C 127.556 115.898 127.381 115.151 127.228 114.404C 127.202 114.275 127.189 114.144 127.189 114.012L 127.189 113.651C 127.189 113.023 126.974 112.432 126.838 111.811C 126.812 111.69 126.801 111.566 126.801 111.443L 126.801 110.768C 126.801 110.28 126.739 109.783 126.615 109.274C 126.571 109.094 126.543 108.909 126.543 108.723C 126.543 107.766 126.543 108.961 126.543 108.057C 126.543 107.153 126.543 108.057 126.543 106.379C 126.543 104.701 126.543 106.336 126.543 105.432C 126.543 104.529 126.543 105.475 126.543 103.668C 126.543 101.861 126.543 103.522 126.543 102.943C 126.543 102.881 126.546 102.82 126.552 102.758C 126.63 101.952 126.756 101.15 126.93 100.358C 126.93 100.356 126.931 100.353 126.931 100.351C 129.032 90.9299 135.012 91.1444 138.59 91.3163C 138.622 91.3178 138.653 91.3186 138.685 91.3186L 140.119 91.3186C 140.164 91.3186 140.209 91.3202 140.254 91.3227C 141.492 91.3922 142.723 91.0804 143.779 90.4288C 143.794 90.4196 143.808 90.4107 143.823 90.4009C 145.972 88.952 148.8 82.3879 150.473 75.1398C 150.473 75.1396 150.473 75.1394 150.473 75.1392C 152.745 65.2802 150.49 62.8942 147.92 61.8978C 147.9 61.8902 147.881 61.883 147.861 61.8761C 145.851 61.1827 143.711 60.9479 141.599 61.1888C 141.547 61.1948 141.495 61.2032 141.444 61.2132C 138.595 61.7641 135.642 61.2459 133.151 59.7561C 130.663 58.2685 128.811 55.9177 127.948 53.1536C 127.929 53.0949 127.909 53.0371 127.886 52.9801C 123.378 41.8005 127.154 26.5262 130.502 13.0068C 130.503 13.0056 130.503 13.0044 130.503 13.0032L 131.65 8.33473C 131.688 8.17857 131.708 8.01837 131.708 7.85757L 131.708 7.42966C 131.708 7.27441 131.726 7.11964 131.762 6.96853C 131.985 6.01887 132.194 5.09784 132.389 4.19689C 132.589 3.27104 131.972 2.37134 131.039 2.20811Z"/><path id="path7_fill" d="M 109.043 106.086C 109.035 106.094 109.023 106.087 109.025 106.077L 109.234 104.906C 109.234 104.906 109.234 104.906 109.234 104.905C 109.663 102.474 110.12 100.1 110.607 97.7832C 110.609 97.7697 110.612 97.7561 110.616 97.7426C 112.411 89.9904 113.5 82.0933 113.87 74.1482C 113.933 72.8129 112.669 71.8203 111.432 72.3285C 110.416 72.7461 109.433 73.2439 108.493 73.8177C 108.47 73.8316 108.448 73.8459 108.426 73.8606C 105.119 76.063 101.204 77.1698 97.2339 77.0246C 97.1998 77.0234 97.1656 77.0212 97.1316 77.0179C 95.6356 76.8751 94.1854 76.423 92.8731 75.69C 91.5644 74.959 90.4216 73.9648 89.5167 72.7703C 89.4913 72.7367 89.467 72.702 89.444 72.6666C 86.4744 68.0958 85.3903 62.552 86.4205 57.1985C 86.4221 57.1902 86.4236 57.182 86.4251 57.1738C 87.9779 48.5731 94.0434 39.977 102.817 40.9636C 102.82 40.9639 102.822 40.9642 102.824 40.9644C 106.021 41.3364 109.015 42.7195 111.37 44.911C 111.409 44.9474 111.45 44.9824 111.491 45.0159C 111.554 45.0664 111.618 45.1184 111.684 45.1709C 112.299 45.6674 113.155 45.6833 113.747 45.1592C 114.159 44.7941 114.541 44.3951 114.888 43.966C 114.906 43.9441 114.924 43.9224 114.943 43.9011C 121.79 36.0172 118.357 19.8299 115.864 8.01361C 115.862 8.00678 115.861 8.00005 115.86 7.9932C 115.56 6.49833 115.219 5.04605 114.962 3.72056C 114.959 3.70717 114.957 3.69381 114.954 3.68037L 114.772 2.62137C 114.752 2.50911 114.744 2.39534 114.738 2.2816C 114.726 2.07244 114.695 1.86108 114.653 1.64964C 114.464 0.690512 113.553 -6.56577e-07 112.575 -6.56577e-07L 2 -6.56577e-07C 0.895431 -6.56577e-07 0 0.89543 0 2L 0 110.438C 0 111.623 1.02326 112.547 2.20146 112.428L 3.37549 112.309C 3.3919 112.308 3.40828 112.306 3.42465 112.304C 13.8922 110.983 24.4215 110.208 34.9697 109.984C 34.9839 109.983 34.9982 109.983 35.0123 109.983C 40.8703 109.983 45.0934 109.987 47.8057 112.89C 47.8706 112.959 47.9295 113.035 47.9814 113.114C 48.8675 114.472 49.4598 116.001 49.7196 117.603C 49.9792 119.203 49.9008 120.839 49.49 122.407C 49.4654 122.501 49.4465 122.596 49.433 122.693C 49.25 123.991 48.773 125.228 48.0412 126.311C 47.8295 126.624 47.8594 127.049 48.1371 127.305C 48.1815 127.346 48.2309 127.382 48.2841 127.41C 51.1892 128.963 54.3619 129.953 57.635 130.327C 57.6887 130.333 57.7421 130.341 57.7952 130.352C 63.7493 131.505 70.2346 132.425 72.2562 128.499C 72.2606 128.49 72.2652 128.482 72.2698 128.473C 73.02 127.039 72.4959 125.15 71.584 122.283C 71.5491 122.173 71.5041 122.066 71.4522 121.964C 70.4178 119.913 69.9865 117.609 70.2101 115.32C 70.4366 113.003 71.325 110.801 72.7684 108.975C 72.8042 108.93 72.8419 108.887 72.8823 108.846C 76.6175 105.035 85.7793 104.609 98.5957 105.247C 98.6289 105.249 98.6627 105.25 98.696 105.25L 99.4638 105.25C 100.97 105.25 102.398 105.25 103.823 105.577C 103.987 105.615 104.154 105.637 104.322 105.637L 105.224 105.637C 105.315 105.637 105.405 105.643 105.495 105.656L 108.487 106.065C 108.497 106.067 108.507 106.068 108.517 106.068L 109.035 106.068C 109.045 106.068 109.05 106.079 109.043 106.086Z"/><path id="path8_fill" d="M 36.196 109.983C 40.4877 110.627 44.3943 111.442 48.3425 112.214C 48.3649 112.219 48.3871 112.223 48.4093 112.228C 56.1589 114.019 64.0524 115.106 71.9939 115.479C 73.33 115.541 74.3231 114.276 73.8141 113.039C 73.3967 112.025 72.8996 111.043 72.327 110.104C 72.313 110.081 72.2984 110.058 72.2834 110.036C 70.0808 106.73 68.9739 102.816 69.119 98.8468C 69.1203 98.8127 69.1225 98.7785 69.1257 98.7445C 69.2686 97.2489 69.7209 95.799 70.454 94.487C 71.1852 93.1786 72.1796 92.036 73.3743 91.1314C 73.408 91.1059 73.4426 91.0817 73.478 91.0587C 78.0499 88.0898 83.5949 87.0059 88.9497 88.0358C 88.958 88.0374 88.9662 88.039 88.9744 88.0404C 97.5772 89.5929 106.175 95.7003 105.188 104.43C 105.188 104.431 105.188 104.433 105.188 104.435C 104.816 107.632 103.432 110.625 101.24 112.98C 101.204 113.019 101.169 113.059 101.135 113.101C 101.085 113.164 101.033 113.228 100.98 113.293C 100.484 113.908 100.468 114.764 100.992 115.356C 101.357 115.768 101.756 116.15 102.185 116.497C 102.207 116.515 102.229 116.533 102.25 116.551C 110.135 123.397 126.282 119.965 138.144 117.473C 138.152 117.471 138.16 117.469 138.168 117.468C 138.801 117.322 139.225 116.728 139.159 116.082C 138.883 113.394 138.607 110.694 138.33 107.984C 138.329 107.968 138.327 107.953 138.325 107.938C 137.019 97.4856 136.259 86.972 136.047 76.4403C 136.047 76.4269 136.047 76.4134 136.047 76.4001C 136.047 70.5428 136.05 66.3203 138.954 63.6084C 139.023 63.5435 139.099 63.4847 139.179 63.4327C 140.537 62.5468 142.066 61.9547 143.668 61.695C 145.269 61.4354 146.906 61.5138 148.474 61.9245C 148.568 61.9491 148.663 61.968 148.759 61.9815C 150.058 62.1645 151.295 62.6414 152.378 63.3731C 152.691 63.5847 153.117 63.5548 153.373 63.2772C 153.414 63.2327 153.449 63.1833 153.478 63.1299C 155.036 60.214 156.026 57.0289 156.395 53.7438C 156.402 53.6865 156.41 53.6285 156.422 53.5719C 157.911 46.009 158.069 40.9646 154.519 39.1179C 154.514 39.1152 154.508 39.1124 154.503 39.1096C 153.068 38.3556 151.178 38.8798 148.307 39.7925C 148.197 39.8274 148.09 39.8724 147.987 39.9243C 145.936 40.9584 143.631 41.3897 141.342 41.1661C 139.663 41.002 138.043 40.4903 136.584 39.6718C 135.621 39.1314 134.928 38.5544 134.928 38.5544C 134.928 38.5544 134.269 37.9309 133.692 36.989C 131.766 33.8443 131.091 28.6405 131.055 21.7351C 131.055 21.7317 131.054 21.7281 131.054 21.7246C 131.054 19.0344 131.055 16.0899 131.265 12.9333C 131.268 12.8884 131.27 12.8433 131.27 12.7983L 131.27 12.0482C 131.27 10.1942 131.517 8.34013 131.73 6.52649C 131.739 6.4498 131.743 6.37268 131.743 6.29547L 131.743 4.99386C 131.743 4.90626 131.749 4.81874 131.76 4.73192C 131.955 3.27768 132.176 1.9027 132.423 0.606955C 132.429 0.575274 132.432 0.54315 132.432 0.510898C 132.432 0.228738 132.203 1.31315e-06 131.921 1.31315e-06L 29.569 1.31315e-06C 28.8791 1.31315e-06 28.2374 0.582491 28.4634 1.2344C 28.5269 1.41768 28.578 1.60702 28.578 1.801L 28.578 2.41594C 28.578 2.5548 28.5925 2.69328 28.6211 2.82915L 29.3946 6.49225C 29.3954 6.49571 29.3961 6.49918 29.3969 6.50264L 29.9523 9.06549C 29.9543 9.07464 29.9563 9.08378 29.9584 9.0929C 31.4556 15.565 32.3616 22.1597 32.6652 28.7957C 32.6662 28.8184 32.6676 28.8411 32.6694 28.8637C 33.2279 35.9782 31.1586 43.0503 26.8539 48.742C 26.827 48.7776 26.7976 48.8135 26.7682 48.8471C 20.7334 55.7389 16.4211 53.8559 12.6662 50.8122C 12.6004 50.7588 12.5384 50.7006 12.4791 50.64C 11.3608 49.4978 9.9109 48.7359 8.33469 48.4631C 8.28729 48.4549 8.23875 48.4487 8.19076 48.4452C 3.93411 48.1324 0.996741 54.0894 0.26228 58.2813C 0.259482 58.2972 0.25657 58.3129 0.253439 58.3288C -0.384691 61.5714 0.191965 64.9352 1.87331 67.7801C 1.88682 67.803 1.90082 67.8256 1.91558 67.8476C 2.16458 68.2198 2.49248 68.5329 2.87617 68.7645C 3.23691 68.9823 3.63841 69.1229 4.05531 69.1779C 4.13467 69.1884 4.2149 69.1904 4.29488 69.1874C 6.68515 69.0971 8.99808 68.3124 10.9503 66.9283C 10.9667 66.9166 10.9833 66.9052 11.0001 66.894C 15.0316 64.2095 19.9075 63.0959 24.7048 63.7636C 24.7332 63.7676 24.7616 63.7722 24.7899 63.7775L 26.1254 64.0254C 27.0729 64.2014 27.7603 65.0281 27.7603 65.9918L 27.7603 67.3613C 27.7603 67.3765 27.7604 67.3917 27.7608 67.4069C 28.0028 78.1039 26.8626 88.7873 24.3682 99.1923C 24.3628 99.2147 24.3579 99.2372 24.3533 99.2597C 23.8904 101.534 23.4686 103.849 23.0474 106.206C 23.0331 106.285 23.0259 106.367 23.0259 106.448C 23.0259 107.103 23.4873 107.667 24.1293 107.797L 25.9735 108.172C 25.9883 108.174 26.003 108.177 26.0179 108.18C 29.3677 108.781 32.7604 109.468 36.196 109.983Z"/><path id="path9_fill" d="M 19.7757 15.1547C 19.7671 15.2147 19.7691 15.2758 19.7818 15.3351C 20.077 16.7181 20.4121 18.1019 20.7474 19.5264C 20.7509 19.541 20.7545 19.5557 20.7583 19.5703L 21.0527 20.7058C 21.0535 20.7087 21.0543 20.7117 21.055 20.7146L 22.2405 25.2014C 22.2528 25.248 22.2668 25.2941 22.2824 25.3397C 25.1062 33.5965 26.3689 42.3066 26.0061 51.0252C 26.0043 51.0677 26.001 51.1118 25.9964 51.1541C 24.6112 64.001 20.1782 65.0758 11.1557 66.4504C 11.1551 66.4504 11.1546 66.4505 11.154 66.4506L 9.87989 66.6436C 9.78314 66.6583 9.68543 66.6654 9.58759 66.6673C 8.32511 66.6908 7.07867 66.9589 5.91744 67.457C 4.71115 67.9745 3.62153 68.7297 2.71366 69.6775C 1.80578 70.6254 1.09827 71.7464 0.633344 72.9736C 0.173109 74.1885 -0.0400553 75.4829 0.00618663 76.7809C 0.00712831 76.8074 0.00767021 76.8346 0.00771236 76.861C 0.0117042 79.3662 0.385962 80.2125 0.496734 80.3653C 0.512196 80.3866 0.537338 80.3925 0.563665 80.3935C 1.72921 80.4363 2.89296 80.3335 4.02828 80.0895C 5.10818 79.8573 5.9471 79.5314 5.9471 79.5314C 5.9471 79.5314 6.25235 79.5314 6.6289 79.5314C 6.69056 79.5314 6.75166 79.5231 6.81107 79.5066C 11.4015 78.2325 16.5661 76.8625 20.5312 79.9744C 20.5925 80.0225 20.651 80.0756 20.705 80.1316C 22.2539 81.7379 23.4028 83.6869 24.0579 85.8209C 24.7137 87.9573 24.8557 90.2177 24.4732 92.4184C 24.4607 92.4903 24.4514 92.5628 24.4463 92.6356C 23.7094 103.027 22.3915 113.369 20.4987 123.613C 20.4958 123.629 20.4931 123.644 20.4906 123.66L 19.8513 127.64C 19.6815 128.698 20.3744 129.704 21.4251 129.912C 22.4765 130.12 23.528 130.316 24.5794 130.478C 24.5819 130.478 24.5844 130.478 24.5868 130.479C 28.8737 131.122 32.7763 131.936 36.7201 132.707C 36.7488 132.713 36.7775 132.719 36.806 132.726C 44.5483 134.594 52.4548 135.69 60.4092 135.998C 61.7371 136.05 62.717 134.791 62.2131 133.561C 61.7927 132.535 61.2905 131.542 60.7108 130.593C 60.699 130.574 60.6868 130.555 60.6743 130.536C 58.4146 127.104 57.3328 123.03 57.5926 118.929C 57.5937 118.912 57.595 118.895 57.5966 118.878C 57.7368 117.373 58.19 115.914 58.9272 114.595C 59.6585 113.286 60.6532 112.143 61.8482 111.239C 61.8814 111.214 61.9156 111.19 61.9505 111.167C 66.5206 108.194 72.0673 107.109 77.4222 108.143C 77.4309 108.145 77.4397 108.147 77.4485 108.148C 86.051 109.701 94.6487 115.808 93.6614 124.537C 93.6612 124.539 93.661 124.541 93.6608 124.543C 93.2888 127.739 91.9054 130.733 89.7133 133.088C 89.6769 133.127 89.6418 133.167 89.6084 133.209C 89.5583 133.271 89.5069 133.335 89.4548 133.399C 88.9575 134.015 88.9421 134.872 89.4674 135.465C 89.8325 135.877 90.2311 136.258 90.6595 136.606C 90.6808 136.623 90.7017 136.641 90.7224 136.658C 98.6089 143.506 114.804 140.072 126.624 137.579C 126.628 137.578 126.631 137.578 126.634 137.577C 129.806 136.891 132.85 136.249 135.425 135.861C 135.443 135.858 135.461 135.855 135.479 135.852L 136.945 135.591C 137.899 135.421 138.594 134.592 138.594 133.622L 138.594 5.19977C 138.594 5.06813 138.487 4.96142 138.356 4.96142C 138.343 4.96142 138.329 4.96032 138.316 4.95813L 132.96 4.05852C 132.957 4.05804 132.955 4.05756 132.952 4.05707L 131.722 3.84505C 131.713 3.84345 131.703 3.84178 131.694 3.84004L 125.755 2.72934C 125.735 2.7257 125.716 2.72178 125.696 2.71757L 122.384 1.99585C 122.374 1.99354 122.363 1.99111 122.352 1.98863C 115.166 0.300906 110.502 -0.305977 108.436 0.142908C 107.818 0.277142 107.52 0.905618 107.645 1.52555C 107.717 1.8879 107.819 2.24436 107.949 2.59139C 107.95 2.59366 107.951 2.59594 107.951 2.59821C 108.937 5.19185 110.385 7.58508 112.225 9.66171C 112.244 9.68368 112.264 9.70518 112.285 9.72629C 114.617 12.1383 116.23 15.1532 116.942 18.4321C 117.653 21.7056 117.437 25.1119 116.32 28.2691C 116.307 28.3073 116.294 28.3459 116.283 28.3848L 115.944 29.552C 115.696 30.4064 114.913 30.9942 114.023 30.9942L 112.728 30.9942L 110.619 30.9942L 106.831 30.9942C 101.15 30.9942 107.353 30.9942 100.645 30.9942C 100.609 30.9942 100.572 30.9932 100.536 30.9913C 97.538 30.8261 94.5515 30.4919 91.5911 29.9902C 91.4793 29.9712 91.3661 29.9615 91.2527 29.9615L 90.9867 29.9615C 90.8476 29.9615 90.7089 29.947 90.5729 29.9182L 88.7441 29.5315C 88.6081 29.5027 88.4694 29.4882 88.3303 29.4882L 88.1581 29.4882C 87.8706 29.4882 87.5864 29.4262 87.325 29.3064L 86.0425 28.7187C 85.7877 28.602 85.5107 28.5415 85.2304 28.5415C 84.9994 28.5415 84.7702 28.5005 84.5535 28.4202L 82.6889 27.7298C 82.6017 27.6975 82.5094 27.681 82.4164 27.681C 82.3104 27.681 82.2054 27.6596 82.1082 27.6174C 81.3864 27.3036 80.6797 26.956 79.9906 26.5758C 79.9226 26.5382 79.857 26.4964 79.794 26.4509L 79.1496 25.9856C 79.1258 25.9684 79.1016 25.9517 79.077 25.9356L 77.9244 25.1783C 77.715 25.0407 77.5333 24.865 77.3888 24.6604L 77.224 24.4269C 77.1356 24.3018 77.0332 24.1872 76.9187 24.0855L 75.9987 23.2679C 75.9522 23.2266 75.9077 23.1831 75.8653 23.1377L 75.3602 22.5966C 75.3377 22.5725 75.3157 22.5479 75.2945 22.5226C 74.9671 22.1317 74.6657 21.7198 74.3922 21.2895C 74.3838 21.2762 74.3755 21.2628 74.3674 21.2493L 74.0086 20.6515C 73.9977 20.6333 73.987 20.6148 73.9767 20.5962C 73.6075 19.9293 73.3117 19.2243 73.0945 18.4935C 73.0904 18.4796 73.0864 18.4656 73.0827 18.4516C 72.6647 16.8979 72.6336 15.2653 72.9922 13.6966C 73.3471 12.1443 74.0729 10.7015 75.1069 9.49145C 75.1383 9.45474 75.1677 9.41633 75.1945 9.37615C 75.4767 8.95284 75.4514 8.38817 75.0872 8.03284C 74.9143 7.86411 74.7342 7.70266 74.5476 7.54895C 74.437 7.45791 74.3146 7.38235 74.1849 7.32151C 70.1087 5.40842 65.5183 4.87573 61.11 5.80654C 61.0616 5.81676 61.0129 5.8254 60.9639 5.8322C 53.723 6.83765 46.5605 8.34295 39.5275 10.3373C 39.521 10.3392 39.5145 10.341 39.5079 10.3428C 33.6753 11.9331 27.7731 13.2554 21.8201 14.3055C 20.7323 14.4974 19.8488 14.643 19.8488 14.643C 19.8488 14.643 19.816 14.8721 19.7757 15.1547Z"/><path id="path10_fill" d="M 14.6019 7.74429C 14.6019 12.0213 11.3331 15.4886 7.30093 15.4886C 3.26874 15.4886 0 12.0213 0 7.74429C 0 3.46723 3.26874 0 7.30093 0C 11.3331 0 14.6019 3.46723 14.6019 7.74429Z"/><path id="path11_fill" d="M 3.75116 1.98947C 3.75116 3.08823 2.91143 3.97895 1.87558 3.97895C 0.839725 3.97895 0 3.08823 0 1.98947C 0 0.890718 0.839725 0 1.87558 0C 2.91143 0 3.75116 0.890718 3.75116 1.98947Z"/><path id="path12_fill" d="M 8.48511 4.50019C 8.48511 6.98557 6.58565 9.00037 4.24255 9.00037C 1.89946 9.00037 0 6.98557 0 4.50019C 0 2.0148 1.89946 0 4.24255 0C 6.58565 0 8.48511 2.0148 8.48511 4.50019Z"/><path id="path13_fill" d="M 5.48902 2.91117C 5.48902 4.51897 4.26026 5.82234 2.74451 5.82234C 1.22876 5.82234 0 4.51897 0 2.91117C 0 1.30338 1.22876 0 2.74451 0C 4.26026 0 5.48902 1.30338 5.48902 2.91117Z"/><path id="path14_fill" d="M 5.80731 3.07998C 5.80731 4.78101 4.5073 6.15997 2.90366 6.15997C 1.30001 6.15997 0 4.78101 0 3.07998C 0 1.37896 1.30001 0 2.90366 0C 4.5073 0 5.80731 1.37896 5.80731 3.07998Z"/><path id="path15_fill" d="M 15 7.5C 15 11.6421 11.6421 15 7.5 15C 3.35786 15 0 11.6421 0 7.5C 0 3.35786 3.35786 0 7.5 0C 11.6421 0 15 3.35786 15 7.5Z"/><path id="path16_fill" d="M 21 10.5C 21 16.299 16.299 21 10.5 21C 4.70101 21 0 16.299 0 10.5C 0 4.70101 4.70101 0 10.5 0C 16.299 0 21 4.70101 21 10.5Z"/></defs></svg>
