<svg id="services" width="222" height="122" viewBox="0 0 222 122" version="1.1" xmlns="http://www.w3.org/2000/svg" xmlns:xlink="http://www.w3.org/1999/xlink" xmlns:figma="http://www.figma.com/figma/ns"><title>Group</title><desc>Created using Figma</desc><g id="Canvas" transform="translate(-3417 -1025)" figma:type="canvas"><g id="Group" style="mix-blend-mode:normal;" figma:type="frame"><g id="Group" style="mix-blend-mode:normal;" figma:type="frame"><g id="noun_429932_cc" style="mix-blend-mode:normal;" figma:type="frame"><g id="Vector" style="mix-blend-mode:normal;" figma:type="vector"><use xlink:href="#path0_fill" transform="translate(3482.44 1078.34)" fill="#333D47" style="mix-blend-mode:normal;"/></g></g><g id="noun_647030_cc" style="mix-blend-mode:normal;" figma:type="frame"><g id="Vector" style="mix-blend-mode:normal;" figma:type="vector"><use xlink:href="#path1_fill" transform="matrix(0.934115 -0.356972 0.357635 0.933861 3422.66 1063.61)" fill="#333D47" style="mix-blend-mode:normal;"/></g></g><g id="noun_643079_cc" style="mix-blend-mode:normal;" figma:type="frame"><g id="Vector" style="mix-blend-mode:normal;" figma:type="vector"><use xlink:href="#path2_fill" transform="translate(3474.09 1033.91)" fill="#333D47" style="mix-blend-mode:normal;"/></g></g><g id="&#60;/&#62;" style="mix-blend-mode:normal;" figma:type="text"><use xlink:href="#path3_fill" transform="translate(3531.07 1025)" fill="#333D47" style="mix-blend-mode:normal;"/></g><g id="noun_47224_cc" style="mix-blend-mode:normal;" figma:type="frame"><g id="Group" style="mix-blend-mode:normal;" figma:type="frame"><g id="Vector" style="mix-blend-mode:normal;" figma:type="vector"><use xlink:href="#path4_fill" transform="translate(3592.5 1060.2)" fill="#333D47" style="mix-blend-mode:normal;"/></g></g></g></g><g id="Dust" style="mix-blend-mode:normal;" figma:type="frame"><g id="Ellipse 4" style="mix-blend-mode:normal;" figma:type="ellipse"><use xlink:href="#path5_fill" transform="translate(3531.84 1069.52)" fill="#333D47" fill-opacity="0.33" style="mix-blend-mode:normal;"/></g><g id="Ellipse 4" style="mix-blend-mode:normal;" figma:type="ellipse"><use xlink:href="#path5_fill" transform="translate(3497.68 1062.72)" fill="#333D47" fill-opacity="0.33" style="mix-blend-mode:normal;"/></g><g id="Ellipse 4" style="mix-blend-mode:normal;" figma:type="ellipse"><use xlink:href="#path5_fill" transform="translate(3591.22 1114.58)" fill="#333D47" fill-opacity="0.33" style="mix-blend-mode:normal;"/></g><g id="Ellipse 4" style="mix-blend-mode:normal;" figma:type="ellipse"><use xlink:href="#path6_fill" transform="translate(3595.11 1117.21)" fill="#333D47" fill-opacity="0.66" style="mix-blend-mode:normal;"/></g><g id="Ellipse 4" style="mix-blend-mode:normal;" figma:type="ellipse"><use xlink:href="#path5_fill" transform="translate(3633.17 1061.29)" fill="#333D47" fill-opacity="0.33" style="mix-blend-mode:normal;"/></g><g id="Ellipse 4" style="mix-blend-mode:normal;" figma:type="ellipse"><use xlink:href="#path5_fill" transform="translate(3417 1094.25)" fill="#333D47" fill-opacity="0.33" style="mix-blend-mode:normal;"/></g><g id="Ellipse 4" style="mix-blend-mode:normal;" figma:type="ellipse"><use xlink:href="#path5_fill" transform="translate(3589.86 1065.72)" fill="#333D47" fill-opacity="0.33" style="mix-blend-mode:normal;"/></g><g id="Ellipse 4" style="mix-blend-mode:normal;" figma:type="ellipse"><use xlink:href="#path5_fill" transform="translate(3531.01 1110.04)" fill="#333D47" fill-opacity="0.33" style="mix-blend-mode:normal;"/></g><g id="Ellipse 4" style="mix-blend-mode:normal;" figma:type="ellipse"><use xlink:href="#path5_fill" transform="translate(3534.62 1066.88)" fill="#333D47" fill-opacity="0.66" style="mix-blend-mode:normal;"/></g><g id="Ellipse 4" style="mix-blend-mode:normal;" figma:type="ellipse"><use xlink:href="#path7_fill" transform="matrix(0.583717 0.811957 -0.81275 0.582613 3446.08 1104)" fill="#333D47" fill-opacity="0.33" style="mix-blend-mode:normal;"/></g><g id="Ellipse 4" style="mix-blend-mode:normal;" figma:type="ellipse"><use xlink:href="#path7_fill" transform="matrix(0.583717 0.811957 -0.81275 0.582613 3449.85 1104.72)" fill="#333D47" fill-opacity="0.66" style="mix-blend-mode:normal;"/></g><g id="Ellipse 4" style="mix-blend-mode:normal;" figma:type="ellipse"><use xlink:href="#path5_fill" transform="translate(3593.47 1065.35)" fill="#333D47" fill-opacity="0.66" style="mix-blend-mode:normal;"/></g><g id="Ellipse 4" style="mix-blend-mode:normal;" figma:type="ellipse"><use xlink:href="#path8_fill" transform="translate(3524.93 1104.32)" fill="#333D47" fill-opacity="0.66" style="mix-blend-mode:normal;"/></g><g id="Ellipse 4" style="mix-blend-mode:normal;" figma:type="ellipse"><use xlink:href="#path9_fill" transform="translate(3541.56 1074.92)" fill="#333D47" fill-opacity="0.33" style="mix-blend-mode:normal;"/></g><g id="Ellipse 4" style="mix-blend-mode:normal;" figma:type="ellipse"><use xlink:href="#path9_fill" transform="translate(3523.06 1114.58)" fill="#333D47" fill-opacity="0.33" style="mix-blend-mode:normal;"/></g><g id="Ellipse 4" style="mix-blend-mode:normal;" figma:type="ellipse"><use xlink:href="#path5_fill" transform="translate(3456.18 1045.97)" fill="#333D47" fill-opacity="0.33" style="mix-blend-mode:normal;"/></g><g id="Ellipse 4" style="mix-blend-mode:normal;" figma:type="ellipse"><use xlink:href="#path10_fill" transform="translate(3591.53 1063.92)" fill="#333D47" fill-opacity="0.33" style="mix-blend-mode:normal;"/></g><g id="Group" style="mix-blend-mode:normal;" figma:type="frame"><g id="Ellipse 4" style="mix-blend-mode:normal;" figma:type="vector"><use xlink:href="#path11_fill" transform="translate(3523.54 1025)" fill="#333D47" fill-opacity="0.33" style="mix-blend-mode:normal;"/></g><g id="Ellipse 4" style="mix-blend-mode:normal;" figma:type="ellipse"><use xlink:href="#path5_fill" transform="translate(3522.58 1030.82)" fill="#333D47" fill-opacity="0.66" style="mix-blend-mode:normal;"/></g><g id="Ellipse 4" style="mix-blend-mode:normal;" figma:type="ellipse"><use xlink:href="#path10_fill" transform="translate(3520.64 1029.39)" fill="#333D47" fill-opacity="0.33" style="mix-blend-mode:normal;"/></g></g><g id="Ellipse 4" style="mix-blend-mode:normal;" figma:type="ellipse"><use xlink:href="#path5_fill" transform="translate(3457.41 1042.47)" fill="#333D47" fill-opacity="0.66" style="mix-blend-mode:normal;"/></g></g></g></g><defs><path id="path0_fill" d="M 18.8876 60.2089L 5.97833 44.7342C 4.10871 42.6887 2.77327 40.4653 2.41715 37.7084L 2.32812 36.9079L 0.0133544 15.1189C -0.075675 14.0517 0.280443 12.9845 1.08171 12.273C 2.06103 11.4726 3.66356 11.2058 4.90997 12.5398C 5.71124 13.5181 6.15638 16.4529 6.33444 17.2534C 6.77959 20.0993 7.31377 24.1903 7.4028 27.0362C 7.4028 27.2141 7.4028 27.4809 7.4028 27.6587C 7.49182 28.9038 7.75891 30.06 8.29309 31.2161C 11.2311 37.5305 17.018 45.5346 17.018 45.5346L 17.3741 45.9793C 17.6412 46.335 18.0863 46.424 18.4424 46.2461C 18.8876 45.9793 18.9766 45.4457 18.7986 45.09L 11.053 32.5501C 10.2517 31.1272 10.6969 29.1706 12.2104 28.2813C 13.7239 27.3919 15.6825 27.8366 16.5728 29.2596L 24.5855 39.576C 25.1196 40.2875 26.099 41.2658 26.8112 41.7104C 34.0226 46.8686 35.0019 52.2047 35.6251 54.8728C 35.6251 54.8728 35.7141 55.4953 35.7141 56.3847C 35.7141 57.0962 35.7141 57.9855 35.5361 58.8748L 35.0909 67.5015C 35.0909 68.1241 34.5568 68.6577 33.9336 68.6577L 20.4011 68.5687C 19.7779 68.5687 19.2437 68.0351 19.2437 67.4126L 18.8876 60.2089ZM 8.11503 14.0517C 8.38212 14.8521 8.47115 15.5636 8.64921 16.364C 9.09435 18.8542 9.62853 23.3009 9.71756 25.6132C 9.71756 25.88 9.71756 26.0579 9.71756 26.3247C 9.98465 26.0579 10.2517 25.88 10.6079 25.7022C 10.964 25.4354 11.4091 25.2575 11.8543 25.1686C 11.8543 25.1686 11.8543 25.0796 11.9433 25.0796C 11.6762 22.8562 10.8749 18.5874 10.2517 16.364C 9.89562 15.2079 9.27241 14.4074 8.11503 14.0517ZM 12.4775 17.1644C 12.8336 18.7652 13.7239 21.789 13.991 23.3899L 14.169 24.4571C 14.169 24.546 14.169 24.6349 14.169 24.7239C 14.7922 24.7239 15.5045 24.9017 16.1277 25.0796C 15.9496 23.6567 14.9703 20.7218 14.6142 19.3878C 14.169 18.3206 13.5458 17.5202 12.4775 17.1644ZM 81.6533 12.5398C 80.8521 13.5181 80.4069 16.4529 80.2289 17.2534C 79.7837 20.0993 79.2495 24.1903 79.1605 27.0362C 79.1605 27.2141 79.1605 27.4809 79.1605 27.6587C 79.0715 28.9038 78.8044 30.06 78.2702 31.2161C 75.3322 37.5305 69.5453 45.5346 69.5453 45.5346L 69.1892 45.9793C 68.9221 46.335 68.477 46.424 68.1209 46.2461C 67.6757 45.9793 67.5867 45.4457 67.7647 45.09L 75.5103 32.5501C 76.3116 31.1272 75.8664 29.1706 74.3529 28.2813C 72.8394 27.3919 70.8808 27.8366 69.9905 29.2596L 61.9778 39.576C 61.4436 40.2875 60.4643 41.2658 59.7521 41.7104C 52.6297 46.8686 51.6504 52.1158 51.0272 54.7838C 51.0272 54.7838 50.9382 55.4064 50.9382 56.2957C 50.9382 57.0072 50.9382 57.8966 51.1162 58.7859L 51.5614 67.4126C 51.5614 68.0351 52.0956 68.5687 52.7188 68.5687L 66.2512 68.4798C 66.8744 68.4798 67.4086 67.9462 67.4086 67.3237L 67.6757 60.2089L 80.585 44.7342C 82.4546 42.6887 83.79 40.4653 84.2352 37.7084L 84.3242 36.9079L 86.5499 15.1189C 86.639 14.0517 86.2829 12.9845 85.4816 12.273C 84.4132 11.4726 82.8107 11.2058 81.6533 12.5398ZM 76.8457 26.3247C 76.8457 26.0579 76.8457 25.88 76.8457 25.6132C 76.9348 23.212 77.4689 18.8542 77.9141 16.364C 78.0031 15.6525 78.1812 14.8521 78.4483 14.0517C 77.2909 14.4074 76.6677 15.2079 76.4006 16.364C 75.7774 18.5874 75.0651 22.8562 74.709 25.0796C 74.709 25.0796 74.709 25.1686 74.7981 25.1686C 75.2432 25.3464 75.5993 25.5243 76.0445 25.7022C 76.3116 25.88 76.5786 26.0579 76.8457 26.3247ZM 72.5723 23.3899C 72.7504 21.789 73.7297 18.8542 74.0858 17.1644C 73.0175 17.5202 72.3943 18.3206 72.0381 19.3878C 71.682 20.7218 70.7027 23.6567 70.5246 25.0796C 71.1479 24.8128 71.7711 24.7239 72.4833 24.7239C 72.4833 24.6349 72.4833 24.546 72.4833 24.4571L 72.5723 23.3899ZM 30.5504 5.24715C 32.242 5.24715 33.8445 5.8697 35.0909 7.11479L 39.6314 11.6505L 47.8221 19.8325C 48.8905 20.8997 50.2259 21.789 51.6504 22.4116C 53.0749 22.9452 54.4994 23.3009 56.0129 23.3009C 57.5264 23.3009 58.9508 23.0341 60.3753 22.4116C 61.7998 21.789 63.1352 20.9886 64.2036 19.8325C 65.2719 18.7652 66.1622 17.4312 66.7854 16.0083C 67.3196 14.5853 67.6757 13.1624 67.6757 11.6505C 67.6757 10.1386 67.4086 8.71561 66.7854 7.29266C 66.1622 5.8697 65.3609 4.53568 64.2036 3.46846C 63.1352 2.40124 61.7998 1.51189 60.3753 0.889348C 58.9508 0.355739 57.5264 -3.39259e-07 56.0129 -3.39259e-07C 54.4994 -3.39259e-07 53.0749 0.266804 51.6504 0.889348C 50.2259 1.51189 48.8905 2.31231 47.8221 3.46846L 46.8428 4.35781L 50.493 8.00413L 51.4724 7.02585C 52.7188 5.78076 54.2323 5.15822 56.0129 5.15822C 57.7044 5.15822 59.3069 5.78076 60.5534 7.02585C 61.7998 8.27094 62.423 9.78283 62.423 11.5615C 62.423 13.2513 61.7998 14.8521 60.5534 16.0972C 59.3069 17.3423 57.7934 17.9648 56.0129 17.9648C 54.3213 17.9648 52.7188 17.3423 51.4724 16.0972L 49.6027 14.2296L 38.7412 3.46846C 37.6728 2.40124 36.3374 1.51189 34.9129 0.889348C 33.4884 0.355739 32.0639 -3.39259e-07 30.5504 -3.39259e-07C 29.0369 -3.39259e-07 27.6125 0.266804 26.188 0.889348C 24.7635 1.51189 23.4281 2.31231 22.3597 3.46846C 21.2914 4.53568 20.4011 5.8697 19.7779 7.29266C 19.2437 8.71561 18.8876 10.1386 18.8876 11.6505C 18.8876 13.1624 19.1547 14.5853 19.7779 16.0083C 20.4011 17.4312 21.2024 18.7652 22.3597 19.8325C 23.4281 20.8997 24.7635 21.789 26.188 22.4116C 27.6125 22.9452 29.0369 23.3009 30.5504 23.3009C 32.0639 23.3009 33.4884 23.0341 34.9129 22.4116C 36.3374 21.789 37.6728 20.9886 38.7412 19.8325L 39.5424 19.0321L 35.8922 15.3857L 35.0909 16.1861C 33.8445 17.4312 32.331 18.0538 30.5504 18.0538C 28.8589 18.0538 27.2564 17.4312 26.0099 16.1861C 24.7635 14.9411 24.1403 13.4292 24.1403 11.6505C 24.1403 9.9607 24.7635 8.35987 26.0099 7.11479C 27.2564 5.8697 28.8589 5.24715 30.5504 5.24715Z"/><path id="path1_fill" d="M 28.1689 2.09252L 23.2027 0.0384342C 23.0787 -0.0128113 22.9424 -0.0128113 22.8185 0.0384342C 22.6941 0.0896797 22.5958 0.1879 22.5445 0.307473L 21.5743 2.65622L 6.04748 2.65195C 5.91072 2.65195 5.77823 2.71174 5.68421 2.80996L 0.141037 8.6007C 0.0512862 8.69465 1.30427e-07 8.81849 1.30427e-07 8.95088L 1.30427e-07 37.9516C 1.30427e-07 38.2253 0.226514 38.4512 0.504313 38.4512L 21.8778 38.4512C 22.1552 38.4512 22.3778 38.2253 22.3778 37.9516L 22.3778 17.3722L 28.4381 2.75017C 28.545 2.49395 28.4253 2.19929 28.1689 2.09252ZM 25.908 2.30178L 15.4115 27.617L 15.1978 26.9718C 15.1717 26.8911 15.108 26.8223 15.0268 26.7882C 14.946 26.754 14.8563 26.7583 14.7789 26.7971L 14.1208 27.1259L 24.6301 1.77224L 25.908 2.30178ZM 12.7232 32.3359L 12.7232 31.0249L 13.6506 31.4092L 12.7232 32.3359ZM 13.9584 31.1017L 12.7232 30.5897L 12.7189 26.994L 13.0908 26.8099L 13.4113 27.7665C 13.437 27.8519 13.5011 27.916 13.5823 27.9501C 13.6635 27.9843 13.7532 27.98 13.8301 27.9416L 14.7362 27.4885L 15.0567 28.4494C 15.0867 28.5305 15.1465 28.5993 15.2273 28.6334C 15.3085 28.6629 15.3982 28.6629 15.4751 28.6244L 16.3812 28.1718L 16.5094 28.5518L 13.9584 31.1017ZM 23.3095 1.22562L 24.2626 1.6185L 13.766 26.9338L 13.5523 26.2889C 13.5224 26.2078 13.4626 26.1395 13.3814 26.1096C 13.3002 26.0754 13.2104 26.0797 13.1335 26.1181L 12.9583 26.2035L 13.5652 24.7302C 13.5694 24.7302 13.5694 24.7302 13.5694 24.7259L 15.2491 20.669L 16.9325 16.6121L 16.9325 16.6078L 18.6164 12.5509L 23.3095 1.22562ZM 5.74831 4.19359L 5.74831 8.64768L 1.4873 8.64768L 5.74831 4.19359ZM 18.2835 24.4953C 18.2792 24.4953 18.2792 24.4953 18.2792 24.4953L 16.8988 27.822L 16.8432 27.6555C 16.8176 27.5701 16.7535 27.5017 16.6727 27.4714C 16.5915 27.4377 16.5017 27.442 16.4248 27.4804L 15.7709 27.8049L 26.2803 2.45551L 27.2509 2.85694L 18.2835 24.4953Z"/><path id="path2_fill" d="M 37.9342 7.54973L 30.0164 15.3688C 30.0164 15.3688 27.6646 15.3688 25.2344 13.0231C 22.8826 10.6774 22.8826 8.25345 22.8826 8.25345L 30.8004 0.356154C 26.3319 -0.738521 20.9227 0.747108 17.6301 4.03113C 12.6913 8.95717 17.0814 15.2125 15.8271 16.4635C 8.92839 23.6571 1.79451 29.1305 1.63773 29.365C -0.478917 31.4762 -0.557311 34.8384 1.48094 36.7932C 3.51919 38.8261 6.89014 38.6698 8.92839 36.6368C 9.16357 36.4022 15.0431 28.9741 21.8634 22.1715C 23.1177 20.9204 29.1541 25.5337 34.2497 20.5294C 37.4639 17.3236 39.0318 12.0066 37.9342 7.54973ZM 5.71423 34.9166C 4.45992 34.9166 3.44079 33.9001 3.44079 32.6491C 3.44079 31.3198 4.45992 30.3033 5.71423 30.3033C 6.96853 30.3033 7.98766 31.3198 7.98766 32.5709C 7.98766 33.8219 6.96853 34.9166 5.71423 34.9166Z"/><path id="path3_fill" d="M 19.944 20.736L 19.944 16.596L 1.656 23.868L 1.656 28.116L 19.944 35.352L 19.944 31.248L 6.732 25.992L 19.944 20.736ZM 31.2339 8.784L 21.2259 35.676L 25.2939 35.676L 35.3379 8.784L 31.2339 8.784ZM 36.6013 31.248L 36.6013 35.352L 54.8893 28.116L 54.8893 23.868L 36.6013 16.596L 36.6013 20.736L 49.8133 25.992L 36.6013 31.248Z"/><path id="path4_fill" d="M 45.3053 18.5776C 45.2471 18.6358 45.1889 18.6941 45.0142 18.5776C 44.4901 17.9952 43.7913 17.2964 43.2672 16.714C 43.1507 16.5975 43.0925 16.3646 43.0925 16.2481C 43.1507 15.9569 43.2672 15.5493 43.3254 15.2581L 31.5041 2.91185C 31.3876 3.49422 31.3294 3.66893 31.3294 3.72717C 31.3294 3.78541 31.2129 3.84364 31.0382 3.72717C 30.5141 3.20304 29.8153 2.44595 29.3495 1.92182C 29.233 1.80535 29.1748 1.5724 29.1748 1.45593C 29.233 1.22298 29.2912 0.990029 29.3495 0.698844L 28.7089 0C 28.4177 1.63064 27.6607 3.61069 26.3796 5.88194C 25.6226 7.16315 24.982 8.09494 23.7591 9.60911C 21.8374 11.8221 20.498 12.9869 18.1687 14.6757C 16.7129 15.6658 16.7129 15.6658 15.0241 16.714C 11.7048 18.8106 11.0643 19.2182 9.02613 20.6741C 7.5703 21.7806 7.16267 22.1301 5.70684 23.4113C 2.73695 26.4396 0.931729 28.8856 2.06885e-15 33.3698L 0.582331 34.0104L 0.873496 32.671C 0.931729 32.6127 1.0482 32.5545 1.10643 32.4963C 1.63053 33.0786 2.32932 33.8357 2.85342 34.4181C 3.02812 34.7675 3.02812 34.7675 2.67872 36.3981C 3.49399 37.2717 4.54218 38.4947 5.35744 39.3682C 5.76508 39.8341 6.28917 40.4165 6.6968 40.8824C 7.51207 41.7559 8.56026 42.9789 9.37553 43.8525C 10.1908 44.726 11.239 45.949 12.0542 46.8808C 12.6948 47.5796 13.5101 48.5114 14.0924 49.2103L 14.4418 47.8126C 14.5 47.7543 14.6165 47.6961 14.6747 47.6379C 15.1988 48.2202 15.9559 48.9773 16.48 49.6179C 16.6547 49.9674 16.6547 49.9674 16.247 51.598L 17.0041 52.4715C 17.8776 48.8608 19.1005 46.1819 22.8856 42.4548C 24.2832 41.2318 24.5161 40.9989 26.2049 39.6594C 28.3013 38.087 28.9418 37.6793 32.2029 35.5828C 34.1246 34.3598 34.2993 34.2434 35.4057 33.4863C 37.1527 32.2633 38.725 31.0986 41.0543 28.3614C 42.0443 27.1384 42.6848 26.3231 43.733 24.6343C 45.1889 22.1301 46.0041 20.0918 46.2953 18.4029L 45.5383 17.5876C 45.3636 18.3447 45.3053 18.5194 45.3053 18.5776ZM 28.1266 4.30954C 28.3013 3.84364 28.5924 3.20304 28.7671 2.73714C 28.7671 2.73714 28.7671 2.6789 28.8254 2.6789C 28.8254 2.6789 28.9418 2.50419 29.1165 2.6789C 31.0382 4.7172 31.0382 4.7172 30.9218 5.00838C 30.6888 5.53252 30.3977 6.46431 30.2812 6.63902C 30.223 6.69726 30.1065 6.81373 29.9318 6.63902C 29.4077 6.05665 28.7089 5.3578 28.243 4.77543C 28.1266 4.65896 28.0683 4.48425 28.1266 4.30954ZM 26.3796 7.51257C 26.5543 7.22139 26.7872 6.87197 26.9619 6.58078C 27.5442 5.53252 27.5442 5.53252 27.7772 5.76546C 28.3595 6.40607 29.0001 6.9302 29.5242 7.62905C 29.5824 7.74552 29.6406 7.92023 29.5824 8.15318L 29.1748 8.91026C 28.4177 10.1332 28.4177 10.1332 28.1848 9.95853C 27.6607 9.4344 26.9619 8.67731 26.4961 8.15318C 26.2631 7.862 26.2631 7.68728 26.3796 7.51257ZM 23.8756 10.8321L 24.3414 10.308C 25.4479 8.91026 25.4479 8.91026 25.6808 9.08497C 26.2631 9.72558 26.9037 10.2497 27.3695 10.9486C 27.4278 11.0068 27.486 11.2397 27.3695 11.4727C 27.0784 11.8221 26.729 12.288 26.4378 12.6374C 25.7973 13.3945 25.739 13.4527 25.5061 13.2198C 24.982 12.6957 24.2832 11.9386 23.8173 11.4145C 23.7591 11.1815 23.7591 11.0068 23.8756 10.8321ZM 20.6727 13.8604C 21.1968 13.3945 21.8956 12.8121 22.4197 12.288C 22.478 12.2298 22.478 12.2298 22.5362 12.1715C 22.5362 12.1715 22.7691 11.9968 22.9438 12.1715C 23.5262 12.8121 24.1667 13.3363 24.6326 14.0351C 24.6908 14.0934 24.7491 14.3263 24.5744 14.501C 22.5362 16.3646 22.5362 16.3646 22.245 16.1317C 21.7209 15.6075 21.0221 14.8504 20.5563 14.3263C 20.498 14.2098 20.498 14.0351 20.6727 13.8604ZM 17.994 15.8405L 18.7511 15.3163C 19.6245 14.6757 19.6245 14.6757 19.8575 14.9087C 20.4398 15.5493 21.0804 16.0734 21.5462 16.7723C 21.6045 16.8887 21.6627 17.0052 21.488 17.1217L 20.7892 17.5876C 19.7992 18.2864 19.7992 18.2864 19.5663 18.0535C 19.0422 17.5293 18.4017 16.7723 17.8776 16.2481C 17.8193 16.0734 17.8776 15.9569 17.994 15.8405ZM 14.9659 17.7623L 15.5482 17.4129C 16.8294 16.5975 16.8294 16.5975 17.0623 16.8305C 17.6446 17.4711 18.2852 17.9952 18.7511 18.6941C 18.8093 18.7523 18.8675 18.927 18.6928 19.0435L 17.7029 19.6841C 16.8876 20.2082 16.8294 20.2082 16.5964 20.0335C 16.0723 19.5094 15.4318 18.7523 14.9077 18.1699C 14.7912 17.9952 14.8494 17.8788 14.9659 17.7623ZM 4.48395 31.3897C 4.19278 31.9721 3.84338 32.671 3.61045 33.2533C 3.61045 33.2533 3.61045 33.3116 3.55222 33.3116C 3.49399 33.3698 3.43575 33.4863 3.26105 33.3698C 2.73696 32.7874 2.09639 32.0886 1.57229 31.5062C 1.45583 31.3315 1.39759 31.1568 1.51406 30.9238C 2.27109 29.235 2.27109 29.235 2.44579 29.002C 2.50402 28.9438 2.62049 28.8273 2.79519 28.9438C 3.37752 29.5844 3.95985 30.1085 4.48395 30.8074C 4.48395 30.9239 4.60041 31.0986 4.48395 31.3897ZM 6.6968 28.2449C 6.28917 28.7108 5.82331 29.3515 5.41568 29.8756L 5.35744 29.9338C 5.35744 29.9338 5.18274 30.1085 5.00805 29.9338C 4.48395 29.3515 3.84338 28.6526 3.31929 28.0702C 3.20282 27.9538 3.20282 27.7208 3.31929 27.5461C 4.77511 25.6243 4.77511 25.6243 5.00805 25.9155C 5.59038 26.5561 6.23094 27.0802 6.6968 27.7791C 6.75504 27.7791 6.8715 28.012 6.6968 28.2449ZM 9.43376 25.5078L 8.4438 26.4396C 7.745 27.1384 7.68677 27.1384 7.51207 26.9637C 6.98797 26.3814 6.34741 25.6825 5.82331 25.1001C 5.70684 24.9837 5.70684 24.7507 5.82331 24.6343L 6.34741 24.1684C 7.5703 23.0619 7.5703 23.0619 7.80323 23.2948C 8.38556 23.9354 9.02613 24.4595 9.49199 25.1584C 9.49199 25.1002 9.60846 25.2749 9.43376 25.5078ZM 12.4619 23.1201L 11.7048 23.6442C 10.5402 24.5178 10.5402 24.5178 10.3073 24.2848C 9.78316 23.7025 9.14259 23.0036 8.6185 22.4212C 8.50203 22.3048 8.50203 22.1301 8.67673 21.9554L 9.55023 21.2565C 10.5402 20.4994 10.5402 20.4994 10.7731 20.7324C 11.3555 21.373 11.996 21.8971 12.4619 22.596C 12.5783 22.7124 12.6948 22.9454 12.4619 23.1201ZM 13.8595 22.1301C 13.8595 22.1301 13.6265 22.2465 13.4518 22.0718C 12.9277 21.5477 12.2872 20.7906 11.7631 20.2082C 11.6466 20.0918 11.7048 19.9171 11.8213 19.8006C 13.743 18.5194 13.743 18.5194 13.9759 18.7523C 14.5583 19.3929 15.1988 19.9171 15.6647 20.6159C 15.6647 20.6159 15.8394 20.8488 15.6065 21.0236C 15.0241 21.373 14.5 21.8389 13.8595 22.1301ZM 18.0523 46.5314C 17.7611 47.1137 17.4117 47.8126 17.1205 48.395C 17.1205 48.395 17.1205 48.4532 17.0623 48.4532C 17.0041 48.5114 16.8876 48.6279 16.7711 48.4532C 16.247 47.8708 15.5482 47.1137 15.0824 46.5896C 14.9659 46.4149 14.9077 46.2402 15.0241 46.0072C 15.8394 44.3184 15.8394 44.3184 15.9559 44.0854C 16.0141 44.0272 16.1306 43.9107 16.3053 44.0272C 16.8876 44.6678 17.5282 45.2502 18.0523 45.949C 18.0523 46.0655 18.227 46.2402 18.0523 46.5314ZM 20.3233 43.3866C 19.9157 43.8525 19.3916 44.4931 19.0422 45.0172L 18.984 45.0754C 18.984 45.0754 18.8093 45.2502 18.6346 45.0754C 18.1105 44.4931 17.4117 43.736 16.9458 43.2119C 16.8294 43.0371 16.8294 42.8624 16.9458 42.6877C 18.4017 40.7659 18.4017 40.7659 18.6346 41.0571C 19.2169 41.6977 19.8575 42.2801 20.3816 42.9789C 20.3816 42.9207 20.498 43.1536 20.3233 43.3866ZM 23.0603 40.5912L 22.0703 41.523C 21.3715 42.2218 21.3133 42.2218 21.1386 42.0471C 20.6145 41.4647 19.9157 40.7659 19.4499 40.1835C 19.3334 40.0088 19.3334 39.8341 19.4499 39.7176L 19.9739 39.2517C 21.1968 38.087 21.1968 38.087 21.488 38.32C 22.0703 38.9606 22.7109 39.5429 23.235 40.2418C 23.235 40.3 23.235 40.4747 23.0603 40.5912ZM 26.1467 38.2035L 25.3896 38.7858C 24.225 39.6594 24.225 39.6594 23.992 39.4265C 23.4679 38.8441 22.7691 38.1452 22.3033 37.5629C 22.1868 37.3882 22.1868 37.2134 22.3615 37.097L 23.235 36.3981C 24.225 35.641 24.225 35.641 24.4579 35.874C 25.0402 36.5146 25.6808 37.097 26.2049 37.7958C 26.3214 37.8541 26.3214 38.0288 26.1467 38.2035ZM 29.3495 35.9905C 28.7671 36.3981 28.243 36.864 27.6025 37.1552C 27.6025 37.1552 27.3695 37.2717 27.1366 37.097C 26.6125 36.5146 25.9137 35.8158 25.4479 35.2334C 25.3314 35.1169 25.3314 34.9422 25.5061 34.8257C 27.4278 33.5445 27.4278 33.5445 27.7189 33.7775C 28.3013 34.4181 28.9418 35.0004 29.4659 35.6993C 29.4077 35.641 29.5824 35.8158 29.3495 35.9905ZM 32.4358 34.0104L 31.3876 34.651C 30.5141 35.1752 30.5141 35.2334 30.2812 35.0004C 29.7571 34.4181 29.0583 33.7192 28.5924 33.1369C 28.476 33.0204 28.476 32.8457 28.6507 32.7292L 29.233 32.3215C 30.5141 31.5062 30.5141 31.5062 30.7471 31.7392C 31.3294 32.3798 31.97 32.9621 32.4941 33.661C 32.4941 33.661 32.6688 33.8357 32.4358 34.0104ZM 35.2892 32.0886L 34.5905 32.5545C 33.6005 33.2533 33.6005 33.2533 33.3676 33.0204C 32.8435 32.438 32.1447 31.7392 31.6788 31.1568C 31.5623 31.0403 31.5623 30.8656 31.737 30.7491L 32.4941 30.225C 33.3676 29.5844 33.3676 29.5844 33.6005 29.8173C 34.1828 30.458 34.8234 31.0403 35.3475 31.6809C 35.3475 31.7392 35.4639 31.9139 35.2892 32.0886ZM 38.3756 29.5262C 36.3374 31.3897 36.3374 31.3897 36.0463 31.1568C 35.5222 30.5744 34.8234 29.8756 34.2993 29.2932C 34.1828 29.1185 34.1828 28.9438 34.3575 28.8273C 34.8816 28.3614 35.6386 27.7791 36.1045 27.2549C 36.1627 27.1967 36.1627 27.1967 36.221 27.1384C 36.221 27.1384 36.4539 26.9637 36.6868 27.1384C 37.2692 27.7791 37.9097 28.3032 38.4338 29.002C 38.4921 29.1185 38.5503 29.2932 38.3756 29.5262ZM 41.229 26.3231C 40.9379 26.6726 40.5885 27.1384 40.2973 27.4879C 39.6567 28.2449 39.5985 28.3032 39.3656 28.0702C 38.8415 27.4879 38.1427 26.789 37.6186 26.2067C 37.5021 26.0902 37.5021 25.8572 37.6768 25.6825L 38.1427 25.1001C 39.3073 23.7025 39.3073 23.7025 39.482 23.8772C 40.0644 24.5178 40.7049 25.0419 41.229 25.7408C 41.2873 25.9155 41.3455 26.0902 41.229 26.3231ZM 43.3836 23.0036L 42.9178 23.7607C 42.1607 24.9837 42.1608 24.9837 41.8696 24.809C 41.3455 24.2266 40.6467 23.5278 40.1226 22.9454C 40.0061 22.8289 40.0061 22.596 40.1226 22.4212C 40.2973 22.1301 40.5302 21.7806 40.7049 21.4312C 41.2873 20.383 41.2873 20.383 41.5202 20.6159C 42.1025 21.2565 42.7431 21.8389 43.2672 22.4795C 43.4419 22.596 43.5001 22.7707 43.3836 23.0036ZM 44.8395 19.8588C 44.6648 20.383 44.2571 21.3147 44.1407 21.4895C 44.0824 21.5477 43.966 21.6642 43.7913 21.4895C 43.2672 20.9071 42.5684 20.2082 42.0443 19.6259C 41.9278 19.5094 41.8696 19.2764 41.986 19.1017C 42.219 18.6358 42.4519 17.9952 42.6266 17.5293C 42.6266 17.5293 42.6266 17.4711 42.6848 17.4711C 42.6848 17.4711 42.8013 17.2964 42.976 17.4711C 44.9559 19.6259 44.9559 19.6259 44.8395 19.8588Z"/><path id="path5_fill" d="M 5.55454 2.63462C 5.55454 4.08968 4.31111 5.26924 2.77727 5.26924C 1.24343 5.26924 0 4.08968 0 2.63462C 0 1.17956 1.24343 0 2.77727 0C 4.31111 0 5.55454 1.17956 5.55454 2.63462Z"/><path id="path6_fill" d="M 3.33272 1.66397C 3.33272 2.58296 2.58667 3.32794 1.66636 3.32794C 0.746056 3.32794 0 2.58296 0 1.66397C 0 0.744986 0.746056 0 1.66636 0C 2.58667 0 3.33272 0.744986 3.33272 1.66397Z"/><path id="path7_fill" d="M 5.54928 2.63712C 5.54928 4.09356 4.30703 5.27424 2.77464 5.27424C 1.24225 5.27424 0 4.09356 0 2.63712C 0 1.18068 1.24225 0 2.77464 0C 4.30703 0 5.54928 1.18068 5.54928 2.63712Z"/><path id="path8_fill" d="M 9.72045 4.71459C 9.72045 7.31838 7.54445 9.42917 4.86022 9.42917C 2.176 9.42917 0 7.31838 0 4.71459C 0 2.11079 2.176 0 4.86022 0C 7.54445 0 9.72045 2.11079 9.72045 4.71459Z"/><path id="path9_fill" d="M 2.77727 1.24798C 2.77727 1.93722 2.15556 2.49596 1.38864 2.49596C 0.621713 2.49596 0 1.93722 0 1.24798C 0 0.558739 0.621713 0 1.38864 0C 2.15556 0 2.77727 0.558739 2.77727 1.24798Z"/><path id="path10_fill" d="M 3.88818 1.80264C 3.88818 2.7982 3.01778 3.60527 1.94409 3.60527C 0.870398 3.60527 0 2.7982 0 1.80264C 0 0.807068 0.870398 0 1.94409 0C 3.01778 0 3.88818 0.807068 3.88818 1.80264Z"/><path id="path11_fill" d="M 12.4977 5.8239C 12.4977 9.04035 9.70001 11.6478 6.24886 11.6478C 2.79771 11.6478 0 9.04035 0 5.8239C 0 2.60745 2.79771 0 6.24886 0C 9.70001 0 12.4977 2.60745 12.4977 5.8239Z"/></defs></svg>
