<svg id="harmonise" width="181" height="93" viewBox="0 0 181 93" version="1.1" xmlns="http://www.w3.org/2000/svg" xmlns:xlink="http://www.w3.org/1999/xlink" xmlns:figma="http://www.figma.com/figma/ns"><title>Group</title><desc>Created using Figma</desc><g id="Canvas" transform="translate(-3420 -2118)" figma:type="canvas"><g id="Group" style="mix-blend-mode:normal;" figma:type="frame"><g id="Ellipse" style="mix-blend-mode:normal;" opacity="0.8" figma:type="ellipse"><use xlink:href="#path0_fill" transform="translate(3450.5 2160.89)" fill="#6DEF14" style="mix-blend-mode:normal;"/></g><g id="Ellipse" style="mix-blend-mode:normal;" opacity="0.8" figma:type="ellipse"><use xlink:href="#path1_fill" transform="translate(3444.5 2118)" fill="#6DEF14" fill-opacity="0.33" style="mix-blend-mode:normal;"/></g><g id="Ellipse" style="mix-blend-mode:normal;" opacity="0.8" figma:type="ellipse"><use xlink:href="#path2_fill" transform="translate(3420.5 2136)" fill="#6DEF14" fill-opacity="0.66" style="mix-blend-mode:normal;"/></g><g id="Ellipse" style="mix-blend-mode:normal;" opacity="0.8" figma:type="ellipse"><use xlink:href="#path3_fill" transform="translate(3564.5 2150)" fill="#6DEF14" fill-opacity="0.33" style="mix-blend-mode:normal;"/></g><g id="Ellipse" style="mix-blend-mode:normal;" opacity="0.8" figma:type="ellipse"><use xlink:href="#path4_fill" transform="translate(3574.5 2186)" fill="#6DEF14" style="mix-blend-mode:normal;"/></g><g id="Ellipse" style="mix-blend-mode:normal;" opacity="0.8" figma:type="ellipse"><use xlink:href="#path3_fill" transform="translate(3574.5 2166)" fill="#6DEF14" fill-opacity="0.66" style="mix-blend-mode:normal;"/></g><g id="noun_36467_cc" style="mix-blend-mode:normal;" figma:type="frame"><g id="Group" style="mix-blend-mode:normal;" figma:type="frame"><g id="Ellipse 3" style="mix-blend-mode:normal;" figma:type="ellipse"><use xlink:href="#path5_fill" transform="translate(3471.5 2132)" fill="#88F040" style="mix-blend-mode:normal;"/></g><g id="Vector" style="mix-blend-mode:normal;" figma:type="vector"><use xlink:href="#path6_fill" transform="translate(3469.5 2129)" style="mix-blend-mode:normal;"/></g><g id="Vector" style="mix-blend-mode:normal;" figma:type="vector"><use xlink:href="#path7_fill" transform="translate(3518.91 2160.88)" style="mix-blend-mode:normal;"/></g></g></g></g></g><defs><path id="path0_fill" d="M 13 7C 13 10.866 10.0899 14 6.5 14C 2.91015 14 0 10.866 0 7C 0 3.13401 2.91015 0 6.5 0C 10.0899 0 13 3.13401 13 7Z"/><path id="path1_fill" d="M 19 10C 19 15.5228 14.7467 20 9.5 20C 4.25329 20 0 15.5228 0 10C 0 4.47715 4.25329 0 9.5 0C 14.7467 0 19 4.47715 19 10Z"/><path id="path2_fill" d="M 27 14C 27 21.732 20.9558 28 13.5 28C 6.04416 28 0 21.732 0 14C 0 6.26801 6.04416 0 13.5 0C 20.9558 0 27 6.26801 27 14Z"/><path id="path3_fill" d="M 26 13.5C 26 20.9558 20.1797 27 13 27C 5.8203 27 0 20.9558 0 13.5C 0 6.04416 5.8203 0 13 0C 20.1797 0 26 6.04416 26 13.5Z"/><path id="path4_fill" d="M 16 8.5C 16 13.1944 12.4183 17 8 17C 3.58172 17 0 13.1944 0 8.5C 0 3.80558 3.58172 0 8 0C 12.4183 0 16 3.80558 16 8.5Z"/><path id="path5_fill" d="M 77 38.5C 77 59.763 59.763 77 38.5 77C 17.237 77 0 59.763 0 38.5C 0 17.237 17.237 0 38.5 0C 59.763 0 77 17.237 77 38.5Z"/><path id="path6_fill" d="M 40.669 -2.21252e-07C 18.247 -2.21252e-07 1.60217e-07 18.242 1.60217e-07 40.664C 1.60217e-07 63.096 18.247 81.336 40.669 81.336C 63.091 81.336 81.337 63.094 81.337 40.664C 81.338 18.242 63.089 -2.21252e-07 40.669 -2.21252e-07ZM 23.181 47.885C 19.179 47.885 15.92 44.629 15.92 40.625C 15.92 36.624 19.179 33.374 23.181 33.374C 27.179 33.374 30.441 36.624 30.441 40.625C 30.441 44.629 27.179 47.885 23.181 47.885ZM 58.156 58.118C 48.513 58.118 40.668 50.275 40.668 40.625C 40.668 30.986 32.823 23.143 23.181 23.143C 13.539 23.143 5.693 30.986 5.693 40.625C 5.693 21.344 21.386 5.652 40.669 5.652C 59.953 5.652 75.644 21.344 75.643 40.625C 75.643 50.275 67.798 58.118 58.156 58.118Z"/><path id="path7_fill" d="M 8.746 -9.46045e-07C 3.925 -9.46045e-07 -1.49536e-06 3.921 -1.49536e-06 8.74C -1.49536e-06 13.568 3.925 17.491 8.746 17.491C 13.568 17.491 17.49 13.568 17.49 8.74C 17.49 3.92 13.568 -9.46045e-07 8.746 -9.46045e-07Z"/></defs></svg>
