<svg id="bird" width="223" height="108" viewBox="0 0 223 108" version="1.1" xmlns="http://www.w3.org/2000/svg" xmlns:xlink="http://www.w3.org/1999/xlink" xmlns:figma="http://www.figma.com/figma/ns"><title>Group</title><desc>Created using Figma</desc><g id="Canvas" transform="translate(-1376 -8464)" figma:type="canvas"><g id="Group" style="mix-blend-mode:normal;" figma:type="frame"><g id="Vector 15" style="mix-blend-mode:normal;" filter="url(#filter0_d)" figma:type="vector"><use xlink:href="#path0_fill" transform="translate(1465 8464.5)" fill="#636363" style="mix-blend-mode:normal;"/><use xlink:href="#path0_fill" transform="translate(1465 8464.5)" fill="url(#paint1_linear)" style="mix-blend-mode:normal;"/></g><g id="Vector 13" style="mix-blend-mode:normal;" figma:type="vector"><use xlink:href="#path1_fill" transform="translate(1583.68 8501.14)" style="mix-blend-mode:normal;"/><use xlink:href="#path2_stroke" transform="translate(1583.68 8501.14)" style="mix-blend-mode:normal;"/></g><g id="Vector 9" style="mix-blend-mode:normal;" figma:type="vector"><use xlink:href="#path3_stroke" transform="translate(1464.65 8465.02)" style="mix-blend-mode:normal;"/></g><g id="Vector 9" style="mix-blend-mode:normal;" figma:type="vector"><use xlink:href="#path4_fill" transform="translate(1383.81 8475.7)" style="mix-blend-mode:normal;"/><use xlink:href="#path5_stroke" transform="translate(1383.81 8475.7)" style="mix-blend-mode:normal;"/></g><g id="Vector 10" style="mix-blend-mode:normal;" figma:type="vector"><use xlink:href="#path6_fill" transform="translate(1399.08 8485.98)" style="mix-blend-mode:normal;"/><use xlink:href="#path7_stroke" transform="translate(1399.08 8485.98)" style="mix-blend-mode:normal;"/></g><g id="Vector 11" style="mix-blend-mode:normal;" figma:type="vector"><use xlink:href="#path8_fill" transform="translate(1407.99 8553.17)" style="mix-blend-mode:normal;"/><use xlink:href="#path9_stroke" transform="translate(1407.99 8553.17)" style="mix-blend-mode:normal;"/></g><g id="Vector 12" style="mix-blend-mode:normal;" figma:type="vector"><use xlink:href="#path10_fill" transform="translate(1377 8514)" style="mix-blend-mode:normal;"/><use xlink:href="#path11_stroke" transform="translate(1377 8514)" style="mix-blend-mode:normal;"/></g><g id="Vector 14" style="mix-blend-mode:normal;" figma:type="vector"><use xlink:href="#path12_fill" transform="translate(1485.44 8532.09)" style="mix-blend-mode:normal;"/><use xlink:href="#path13_stroke" transform="translate(1485.44 8532.09)" style="mix-blend-mode:normal;"/></g><g id="Vector 14" style="mix-blend-mode:normal;" figma:type="vector"><use xlink:href="#path14_fill" transform="translate(1386.18 8535.3)" style="mix-blend-mode:normal;"/><use xlink:href="#path15_stroke" transform="translate(1386.18 8535.3)" style="mix-blend-mode:normal;"/></g><g id="Vector 14" style="mix-blend-mode:normal;" figma:type="vector"><use xlink:href="#path16_fill" transform="translate(1402.53 8546.8)" style="mix-blend-mode:normal;"/><use xlink:href="#path17_stroke" transform="translate(1402.53 8546.8)" style="mix-blend-mode:normal;"/></g></g></g><defs><filter id="filter0_d" filterUnits="userSpaceOnUse" x="1461" y="8464" width="138" height="107" color-interpolation-filters="sRGB"><feFlood flood-opacity="0" result="BackgroundImageFix"/><desc>type="dropShadow" x="0" y="4" size="4" spread="0" color="0,0,0,0.25" blend="normal"</desc><feColorMatrix in="SourceAlpha" type="matrix" values="0 0 0 0 0 0 0 0 0 0 0 0 0 0 0 0 0 0 255 0"/><feOffset dx="0" dy="4"/><feGaussianBlur stdDeviation="2"/><feColorMatrix type="matrix" values="0 0 0 0 0 0 0 0 0 0 0 0 0 0 0 0 0 0 0.25 0"/><feBlend mode="normal" in2="BackgroundImageFix" result="effect1_dropShadow"/><feBlend mode="normal" in="SourceGraphic" in2="effect1_dropShadow" result="shape"/></filter><linearGradient id="paint1_linear" x1="0" y1="0" x2="1" y2="0" gradientUnits="userSpaceOnUse" gradientTransform="matrix(259 -54.5 72.5736 344.891 -73.2868 -106.946)"><stop offset="0" stop-color="#FFFFFF"/><stop offset="0.469708" stop-color="#FFFFFF" stop-opacity="0.4"/><stop offset="0.543554" stop-color="#FFFFFF" stop-opacity="0.1"/><stop offset="0.614476" stop-color="#FFFFFF" stop-opacity="0"/></linearGradient><path id="path0_fill" d="M 130 47L 117 35L 99 35L 60 5.5L 31 0L 28.5 4L 34 8.5L 33 11L 36 12.5L 36 15L 40.5 17L 39.5 19.5L 47 20.5L 47 24L 52 26.5L 53 30L 53 33L 53 36.5L 57.5 39.5L 5 39.5L 2 42L 3 44.5L 8 46L 0 50.5L 2 53L 7 54L 2 56.5L 2 58L 9 58L 7 61L 8 62.5L 14.5 62.5L 10 67.5L 16.5 67.5L 36 60L 56 54L 63 56.5L 70.5 58L 68.5 61L 64.5 73.5L 60 78L 57 83.5L 53.5 91.5L 49 96L 49 97.625L 86.5 88.5L 103.5 47L 115 50L 130 47Z"/><path id="path1_fill" d="M 0.510004 0.584108C 2.82551 2.80867 4.53459 7.42436 4.53459 7.42436L 4.31407 4.3656C 4.31407 4.3656 3.39167 2.88745 2.32933 1.86322C 0.79394 0.382912 -0.858577 -0.730724 0.510004 0.584108Z"/><path id="path2_stroke" d="M 0.510004 0.584108L 0.856406 0.223546L 0.856406 0.223546L 0.510004 0.584108ZM 4.53459 7.42436L 4.0657 7.59798C 4.15214 7.83143 4.39714 7.96573 4.64044 7.91303C 4.88373 7.86034 5.0512 7.6367 5.0333 7.38841L 4.53459 7.42436ZM 4.31407 4.3656L 4.81277 4.32965C 4.80692 4.24847 4.78134 4.16995 4.73825 4.1009L 4.31407 4.3656ZM 2.32933 1.86322L 2.67637 1.50327L 2.32933 1.86322ZM 0.163601 0.944671C 1.27542 2.00634 2.23462 3.64526 2.94349 5.06223C 3.29665 5.76754 3.57583 6.39891 3.7704 6.86207C 3.86704 7.09205 3.94064 7.27556 3.99122 7.40441C 4.01622 7.46808 4.03479 7.51637 4.04758 7.54995C 4.05384 7.56638 4.05836 7.57836 4.06152 7.5868C 4.06304 7.59084 4.06408 7.59363 4.06485 7.59568C 4.0652 7.59662 4.06541 7.59719 4.06559 7.59766C 4.06566 7.59786 4.06569 7.59793 4.06572 7.59803C 4.06573 7.59806 4.06573 7.59805 4.06573 7.59806C 4.06572 7.59803 4.0657 7.59798 4.53459 7.42436C 5.00348 7.25074 5.00345 7.25066 5.00341 7.25056C 5.00339 7.2505 5.00335 7.25039 5.00331 7.25027C 5.00324 7.25009 5.00311 7.24975 5.00297 7.24938C 5.00273 7.24873 5.00232 7.24763 5.00184 7.24634C 5.00095 7.24393 4.9995 7.24007 4.99771 7.23531C 4.99427 7.22614 4.98891 7.21194 4.98209 7.19401C 4.96871 7.1589 4.94831 7.10585 4.92205 7.03897C 4.87012 6.9067 4.7921 6.71223 4.69234 6.47473C 4.49409 6.00294 4.20128 5.34135 3.83774 4.61466C 3.11319 3.16765 2.06009 1.38644 0.856406 0.223546L 0.163601 0.944671ZM 5.0333 7.38841L 4.81277 4.32965L 3.81536 4.40156L 4.03589 7.46032L 5.0333 7.38841ZM 4.31407 4.3656C 4.73825 4.1009 4.73822 4.10085 4.73819 4.1008C 4.73817 4.10077 4.73814 4.10071 4.7381 4.10066C 4.73806 4.10059 4.73796 4.10044 4.73787 4.10029C 4.73772 4.10005 4.73745 4.09961 4.73715 4.09914C 4.73663 4.09831 4.73574 4.09689 4.7347 4.09524C 4.73278 4.09217 4.72967 4.08724 4.72586 4.08122C 4.71853 4.06965 4.70713 4.05175 4.69282 4.02951C 4.66483 3.98602 4.62242 3.92086 4.56934 3.84125C 4.46453 3.68407 4.30996 3.45852 4.12386 3.2036C 3.75452 2.69807 3.23071 2.03927 2.67637 1.50327L 1.98229 2.22318C 2.49029 2.71141 2.95885 3.30379 3.3163 3.79339C 3.49359 4.03605 3.63602 4.24404 3.73735 4.39603C 3.78734 4.47099 3.82529 4.52932 3.85189 4.57066C 3.86489 4.59084 3.87434 4.6057 3.88104 4.61628C 3.88425 4.62134 3.88645 4.62483 3.88808 4.62742C 3.88882 4.6286 3.88927 4.62932 3.88964 4.62992C 3.88979 4.63016 3.88985 4.63025 3.88993 4.63038C 3.88995 4.63041 3.88996 4.63042 3.88995 4.63041C 3.88994 4.6304 3.88993 4.63037 3.88993 4.63037C 3.88991 4.63034 3.88988 4.6303 4.31407 4.3656ZM 2.67637 1.50327C 1.89323 0.748846 1.06455 0.0745001 0.614414 -0.236209C 0.495399 -0.318038 0.375262 -0.391464 0.293922 -0.430929C 0.268359 -0.443072 0.15618 -0.498958 0.0200605 -0.499988C -0.0543522 -0.500551 -0.258376 -0.483679 -0.400008 -0.29167C -0.533335 -0.110921 -0.499463 0.0774117 -0.485634 0.135988C -0.456891 0.25774 -0.387874 0.351343 -0.366509 0.380776C -0.335673 0.422854 -0.288395 0.480422 -0.240276 0.534334C -0.149865 0.635145 -0.0128727 0.775049 0.163601 0.944671L 0.856406 0.223546C 0.690735 0.0644598 0.579991 -0.0484549 0.504816 -0.132627C 0.470144 -0.171206 0.455166 -0.18917 0.442753 -0.206672C 0.420868 -0.23682 0.465641 -0.186845 0.487612 -0.0937749C 0.498055 -0.0495399 0.53291 0.128188 0.404743 0.301943C 0.268269 0.486957 0.0735819 0.500446 0.0124903 0.499983C -0.0969871 0.499154 -0.166583 0.45741 -0.135155 0.472339C -0.102512 0.487019 -0.0510336 0.519465 0.0469422 0.587184C 0.464767 0.874662 1.23004 1.49729 1.98229 2.22318L 2.67637 1.50327Z"/><path id="path3_stroke" d="M 31.1662 0L 31.2769 -0.99386C 31.095 -1.01411 30.911 -0.984052 30.745 -0.90696L 31.1662 0ZM 103.609 45.6034L 104.165 44.7727C 103.914 44.6044 103.6 44.5587 103.312 44.6484C 103.023 44.7382 102.79 44.9537 102.679 45.2348L 103.609 45.6034ZM 49.58 97.3242L 48.7125 97.8216C 48.9357 98.2109 49.3909 98.4039 49.8259 98.2935L 49.58 97.3242ZM 63.0488 88.8262C 63.5769 88.6647 63.8742 88.1056 63.7127 87.5775C 63.5512 87.0493 62.9921 86.7521 62.464 86.9136L 63.0488 88.8262ZM 67.8228 84.4392C 68.3546 84.2901 68.6648 83.7381 68.5156 83.2064C 68.3665 82.6746 67.8145 82.3644 67.2827 82.5135L 67.8228 84.4392ZM 53.3337 91.8115L 53.857 92.6637L 53.857 92.6637L 53.3337 91.8115ZM 72.1217 80.0042C 72.6613 79.8862 73.003 79.3532 72.8851 78.8137C 72.7671 78.2742 72.2341 77.9324 71.6946 78.0504L 72.1217 80.0042ZM 73.4541 76.1758C 73.9986 76.0831 74.3649 75.5667 74.2723 75.0222C 74.1796 74.4778 73.6632 74.1115 73.1187 74.2041L 73.4541 76.1758ZM 57.048 84.9093L 57.735 85.636L 57.735 85.636L 57.048 84.9093ZM 75.4911 71.6159C 76.0358 71.5249 76.4036 71.0095 76.3126 70.4648C 76.2216 69.9201 75.7062 69.5522 75.1615 69.6433L 75.4911 71.6159ZM 75.5561 67.6851C 76.0492 67.4364 76.2473 66.835 75.9986 66.3419C 75.7499 65.8488 75.1485 65.6507 74.6554 65.8994L 75.5561 67.6851ZM 82.7081 62.3922C 83.2574 62.3345 83.6558 61.8424 83.5981 61.2932C 83.5404 60.7439 83.0483 60.3454 82.4991 60.4032L 82.7081 62.3922ZM 79.0548 57.8599C 79.5888 57.7189 79.9074 57.1717 79.7664 56.6377C 79.6255 56.1037 79.0783 55.7851 78.5443 55.9261L 79.0548 57.8599ZM 80.1702 54.2971C 80.7023 54.149 81.0136 53.5977 80.8656 53.0656C 80.7175 52.5335 80.1662 52.2222 79.6341 52.3703L 80.1702 54.2971ZM 69.1483 61.9431L 69.8745 62.6305L 69.8745 62.6305L 69.1483 61.9431ZM 71.639 56.893L 72.195 57.7242L 71.639 56.893ZM 62.7564 55.2246L 62.7564 54.2246C 62.736 54.2246 62.7157 54.2252 62.6954 54.2264L 62.7564 55.2246ZM 68.1034 54.1685C 68.5644 53.8644 68.6916 53.2441 68.3876 52.7831C 68.0835 52.3221 67.4632 52.1948 67.0022 52.4989L 68.1034 54.1685ZM 57.048 54.1123L 57.3481 53.1584C 57.1997 53.1117 57.0425 53.1003 56.889 53.125L 57.048 54.1123ZM 63.7076 39.6527L 63.6801 40.6523C 63.6893 40.6525 63.6984 40.6527 63.7076 40.6527L 63.7076 39.6527ZM 15.1782 38.3179L 15.1051 39.3153C 15.1203 39.3164 15.1355 39.3171 15.1507 39.3176L 15.1782 38.3179ZM 22.1692 46.9864C 22.718 47.0481 23.2129 46.6532 23.2746 46.1044C 23.3364 45.5556 22.9415 45.0606 22.3927 44.9989L 22.1692 46.9864ZM 30.2984 59.8671C 30.8353 59.7374 31.1653 59.1971 31.0357 58.6603C 30.906 58.1234 30.3656 57.7933 29.8288 57.923L 30.2984 59.8671ZM 16.1649 62.7811C 16.6277 62.4797 16.7586 61.8602 16.4572 61.3974C 16.1559 60.9346 15.5364 60.8037 15.0736 61.1051L 16.1649 62.7811ZM 30.0636 61.9431L 30.4119 62.8805C 30.4265 62.8751 30.4409 62.8693 30.4552 62.8632L 30.0636 61.9431ZM 27.9968 56.2149C 28.5438 56.1385 28.9252 55.6331 28.8487 55.0861C 28.7723 54.5392 28.2669 54.1577 27.7199 54.2342L 27.9968 56.2149ZM 23.2927 55.1113C 23.8444 55.1361 24.3118 54.7089 24.3366 54.1572C 24.3614 53.6055 23.9343 53.1381 23.3825 53.1133L 23.2927 55.1113ZM 50.7125 14.1244C 51.2646 14.1079 51.6987 13.647 51.6822 13.095C 51.6657 12.543 51.2048 12.1088 50.6528 12.1253L 50.7125 14.1244ZM 51.9389 16.7895C 52.4885 16.7351 52.89 16.2454 52.8355 15.6958C 52.7811 15.1462 52.2915 14.7448 51.7419 14.7992L 51.9389 16.7895ZM 55.7215 20.7956C 56.2721 20.753 56.684 20.2722 56.6415 19.7215C 56.599 19.1709 56.1181 18.759 55.5674 18.8015L 55.7215 20.7956ZM 47.9122 21.2295C 48.2725 20.8109 48.2252 20.1795 47.8066 19.8192C 47.388 19.4589 46.7566 19.5062 46.3963 19.9248L 47.9122 21.2295ZM 70.7224 26.3009C 71.2728 26.2555 71.6822 25.7725 71.6367 25.2221C 71.5913 24.6717 71.1083 24.2623 70.5579 24.3077L 70.7224 26.3009ZM 65.8586 31.7499C 66.4084 31.8026 66.8967 31.3996 66.9494 30.8499C 67.0021 30.3001 66.5991 29.8117 66.0494 29.759L 65.8586 31.7499ZM 55.181 29.1342L 55.4306 28.1659L 55.181 29.1342ZM 65.4699 35.0348C 66.0217 35.0585 66.4882 34.6305 66.512 34.0787C 66.5358 33.527 66.1078 33.0604 65.556 33.0366L 65.4699 35.0348ZM 66.6664 39.6527L 66.6664 40.6527C 67.2037 40.6527 67.645 40.2281 67.6656 39.6912C 67.6863 39.1543 67.279 38.697 66.7433 38.6556L 66.6664 39.6527ZM 86.8487 87.8699L 87.0946 88.8392C 87.4056 88.7603 87.66 88.5368 87.7783 88.2385L 86.8487 87.8699ZM 43.996 10.6046C 44.5391 10.7047 45.0605 10.3455 45.1606 9.80239C 45.2607 9.25925 44.9015 8.73782 44.3584 8.63775L 43.996 10.6046ZM 31.1662 0C 31.0556 0.99386 31.0557 0.993867 31.0558 0.993885C 31.056 0.993904 31.0562 0.993932 31.0566 0.993971C 31.0573 0.994052 31.0584 0.994169 31.0598 0.99433C 31.0627 0.994657 31.067 0.995138 31.0728 0.995788C 31.0845 0.997095 31.1019 0.999036 31.1249 1.00162C 31.1712 1.00682 31.2396 1.01453 31.3293 1.02471C 31.5091 1.0451 31.7726 1.07519 32.1099 1.11426C 32.7852 1.19247 33.7523 1.30618 34.9253 1.44889C 37.2728 1.73448 40.4335 2.13473 43.7068 2.59607C 46.9807 3.05742 50.3479 3.5768 53.122 4.10295C 54.5062 4.36534 55.7195 4.6244 56.7057 4.88004C 57.7114 5.14049 58.3699 5.37065 58.6898 5.54716L 59.6559 3.79596C 59.0938 3.48585 58.2155 3.20506 57.2071 2.94392C 56.1793 2.67796 54.9014 2.40478 53.4946 2.13796C 50.6867 1.60571 47.2727 1.07886 43.9859 0.615635C 40.6987 0.15239 37.5193 -0.250284 35.1669 -0.536474C 33.9899 -0.679659 33.0171 -0.794049 32.34 -0.872465C 32.0011 -0.911715 31.7352 -0.942072 31.5547 -0.962549C 31.4643 -0.972807 31.3948 -0.980636 31.3482 -0.985871C 31.3248 -0.988498 31.307 -0.990496 31.2951 -0.991823C 31.2892 -0.99249 31.2846 -0.993 31.2816 -0.993336C 31.2801 -0.993506 31.2789 -0.993637 31.2781 -0.993722C 31.2777 -0.993766 31.2774 -0.9938 31.2772 -0.993822C 31.277 -0.993846 31.2769 -0.99386 31.1662 0ZM 58.6898 5.54716C 59.0563 5.74936 59.9008 6.3449 61.1708 7.2993C 62.4173 8.23604 64.0087 9.46825 65.8354 10.8986C 69.49 13.7604 74.0648 17.3988 78.6219 20.9874C 83.1791 24.576 87.7247 28.1195 91.3089 30.7821C 93.1035 32.1151 94.6739 33.2392 95.8801 34.0346C 96.4882 34.4354 97.0308 34.7692 97.4568 35.0006C 97.8397 35.208 98.3064 35.4362 98.7156 35.4759L 98.9087 33.4853C 98.9595 33.4902 98.8306 33.4703 98.4098 33.2422C 98.0321 33.0379 97.5631 32.7488 96.9809 32.3648C 95.8066 31.5909 94.2819 30.4992 92.5016 29.1766C 88.9359 26.528 84.4125 23.0017 79.8593 19.4161C 75.3059 15.8305 70.729 12.1904 67.0684 9.32396C 65.2375 7.89022 63.6304 6.64588 62.3723 5.70044C 61.1377 4.77266 60.1715 4.08039 59.6559 3.79596L 58.6898 5.54716ZM 98.7156 35.4759C 100.258 35.6195 102.075 35.4034 103.991 35.1598C 105.907 34.9162 107.967 34.6443 110.169 34.6464L 110.169 32.6464C 107.837 32.6485 105.651 32.9327 103.739 33.1757C 101.827 33.4188 100.233 33.6197 98.9087 33.4853L 98.7156 35.4759ZM 110.169 34.6464C 112.368 34.644 114.699 34.9633 116.797 35.7574C 118.87 36.5357 120.528 37.7191 121.42 39.3533L 123.176 38.3949C 121.973 36.1917 119.834 34.7613 117.5 33.885C 115.191 33.0247 112.505 32.6488 110.169 32.6464L 110.169 34.6464ZM 121.42 39.3533C 122.592 41.499 125.037 43.4369 127.028 44.8422C 128.044 45.5596 128.987 46.1685 129.662 46.6244C 129.997 46.8505 130.244 47.0224 130.413 47.1577C 130.489 47.2181 130.534 47.2675 130.52 47.2494C 130.519 47.2483 130.488 47.2151 130.453 47.1539C 130.424 47.1036 130.34 46.9458 130.34 46.7156L 132.34 46.7156C 132.34 46.4507 132.242 46.2525 132.186 46.1563C 132.139 46.0781 132.055 45.9667 132.002 45.9068C 131.914 45.8114 131.779 45.6897 131.661 45.5951C 131.442 45.4205 131.129 45.2017 130.781 44.9664C 130.088 44.4994 129.163 43.9023 128.181 43.2084C 126.174 41.7913 124.099 40.0865 123.176 38.3949L 121.42 39.3533ZM 130.34 46.7156C 130.34 46.9124 130.388 47.0989 130.372 47.0191C 130.368 47.0012 130.361 46.9618 130.357 46.9111C 130.354 46.8696 130.347 46.7606 130.375 46.6251C 130.404 46.486 130.494 46.2183 130.768 46.0204C 131.044 45.8211 131.329 45.8207 131.475 45.8387C 131.615 45.856 131.718 45.8995 131.757 45.9167C 131.805 45.9378 131.84 45.9581 131.856 45.9676C 131.834 45.9542 131.91 46.0012 131.907 45.9994C 131.906 45.9987 131.851 45.9624 131.776 45.9203C 131.495 45.7708 131.101 45.6826 130.499 45.6824C 129.307 45.682 126.927 46.0316 122.002 47.5577L 122.594 49.4681C 127.483 47.9531 129.623 47.6821 130.498 47.6824C 130.93 47.6825 130.957 47.75 130.838 47.6865C 130.872 47.707 130.771 47.6454 130.785 47.6554C 130.791 47.6595 130.82 47.678 130.844 47.6926C 130.863 47.7033 130.914 47.7298 130.946 47.7451C 130.996 47.7657 131.138 47.8079 131.23 47.8237C 131.377 47.8418 131.663 47.8413 131.939 47.6418C 132.213 47.4436 132.303 47.1756 132.332 47.0358C 132.347 46.9449 132.353 46.8005 132.35 46.7477C 132.347 46.7123 132.339 46.657 132.335 46.6365C 132.316 46.5368 132.34 46.6579 132.34 46.7156L 130.34 46.7156ZM 122.002 47.5577C 117.318 49.0361 112.95 48.333 109.579 47.2465C 107.912 46.7126 106.573 46.0972 105.609 45.5977C 105.135 45.3524 104.776 45.147 104.523 44.9951C 104.4 44.9214 104.311 44.866 104.247 44.8255C 104.217 44.8063 104.197 44.7932 104.181 44.7831C 104.174 44.7787 104.17 44.7761 104.167 44.7738C 104.166 44.7729 104.165 44.7726 104.165 44.7722C 104.164 44.7721 104.165 44.7722 104.165 44.7722C 104.165 44.7723 104.165 44.7724 104.165 44.7724C 104.165 44.7726 104.165 44.7727 103.609 45.6034C 103.052 46.434 103.052 46.4342 103.052 46.4344C 103.053 46.4346 103.053 46.4348 103.053 46.4351C 103.054 46.4354 103.055 46.4361 103.056 46.4367C 103.057 46.4377 103.06 46.4396 103.063 46.4415C 103.068 46.4449 103.077 46.4508 103.087 46.4575C 103.106 46.4698 103.137 46.4897 103.174 46.5134C 103.245 46.5586 103.357 46.628 103.495 46.7111C 103.766 46.8728 104.177 47.1085 104.689 47.3736C 105.696 47.8948 107.189 48.577 108.967 49.1506C 112.488 50.2791 117.464 51.0308 122.594 49.4681L 122.002 47.5577ZM 50.4476 96.8269C 50.3726 96.696 50.2468 96.2997 50.644 95.5735C 51.0492 94.8326 51.9744 93.8197 53.857 92.6637L 52.8104 90.9594C 50.7648 92.2155 49.5236 93.4539 48.8893 94.6138C 48.2469 95.7883 48.2084 96.9423 48.7125 97.8216L 50.4476 96.8269ZM 53.857 92.6637C 55.8556 91.4339 58.7595 90.1358 63.0488 88.8262L 62.464 86.9136C 58.0576 88.263 54.9222 89.6651 52.8104 90.9594L 53.857 92.6637ZM 67.2827 82.5135C 64.0198 83.4291 58.971 85.1464 55.6963 87.0002L 56.6836 88.7395C 59.7896 86.9712 64.6113 85.3396 67.8228 84.4392L 67.2827 82.5135ZM 55.6963 87.0002C 54.5029 87.6777 53.4332 88.4337 52.7785 89.2547C 52.4458 89.672 52.171 90.167 52.0933 90.7286C 52.0112 91.3215 52.1628 91.8926 52.5199 92.3927L 54.1475 91.2304C 54.0679 91.119 54.0669 91.0569 54.0744 91.0028C 54.0862 90.9174 54.1431 90.7514 54.3423 90.5016C 54.7516 89.9883 55.5467 89.385 56.6836 88.7395L 55.6963 87.0002ZM 71.6946 78.0504C 69.4203 78.5478 66.3449 79.3711 63.5036 80.3999C 60.697 81.4171 57.9314 82.698 56.361 84.1826L 57.735 85.636C 58.9782 84.4607 61.3909 83.2929 64.1851 82.2802C 66.9446 81.2791 69.8924 80.4913 72.1217 80.0042L 71.6946 78.0504ZM 56.361 84.1826C 55.7928 84.7198 55.3144 85.3444 55.0865 86.0602C 54.8468 86.8132 54.9085 87.5969 55.3089 88.3428L 57.0711 87.397C 56.9264 87.1275 56.9169 86.9038 56.9923 86.6668C 57.0796 86.3927 57.3026 86.0447 57.735 85.636L 56.361 84.1826ZM 73.1187 74.2041C 69.1432 74.8804 62.7847 76.4925 59.0249 78.9535L 60.1203 80.6269C 63.5134 78.4058 69.5211 76.8448 73.4541 76.1758L 73.1187 74.2041ZM 59.0249 78.9535C 57.8653 79.7125 56.8602 80.6105 56.2804 81.6712C 55.6725 82.7833 55.5594 84.0328 56.1354 85.3182L 57.9606 84.5004C 57.6558 83.8203 57.7088 83.2279 58.0353 82.6305C 58.3899 81.9818 59.0874 81.3029 60.1203 80.6269L 59.0249 78.9535ZM 75.1615 69.6433C 71.9368 70.1829 66.8475 71.4771 63.2286 73.4427L 64.1866 75.1984C 67.5774 73.3391 72.3471 72.1404 75.4911 71.6159L 75.1615 69.6433ZM 63.2286 73.4427C 61.8451 74.2001 60.5703 75.138 59.7372 76.1436C 58.8607 77.2149 58.3498 78.5008 58.5856 79.9507L 60.5596 79.6296C 60.4391 78.8884 60.6686 78.1636 61.2851 77.41C 61.945 76.5907 62.916 75.8893 64.1866 75.1984L 63.2286 73.4427ZM 74.6554 65.8994C 74.4849 65.9854 74.0612 66.1365 73.3522 66.3802C 72.6821 66.6106 71.8348 66.8993 70.9226 67.2421C 69.1045 67.9259 66.9332 68.8736 65.327 70.0388L 66.5063 71.654C 67.9268 70.6093 69.8544 69.78 71.6263 69.1142C 72.5091 68.7822 73.3296 68.5029 74.0025 68.2716C 74.6365 68.0536 75.231 67.8491 75.5561 67.6851L 74.6554 65.8994ZM 65.327 70.0388C 63.9118 71.072 62.6198 72.5083 62.7087 74.3683L 64.7064 74.2728C 64.668 73.47 65.2224 72.5915 66.5063 71.654L 65.327 70.0388ZM 82.4991 60.4032C 80.2912 60.6358 77.2626 61.1667 74.3983 62.0363C 71.5522 62.9022 68.69 64.1518 66.8601 65.9094L 68.2455 67.3518C 69.7265 65.9293 72.2158 64.7909 74.9804 63.9497C 77.7268 63.1121 80.5681 62.6166 82.7081 62.3922L 82.4991 60.4032ZM 66.8601 65.9094C 65.4706 67.2439 64.605 68.9506 64.9289 71.0023L 66.9044 70.6904C 66.711 69.4653 67.1786 68.3766 68.2455 67.3518L 66.8601 65.9094ZM 78.5443 55.9261C 75.7286 56.6694 71.0445 58.4852 68.422 61.2557L 69.8745 62.6305C 72.1022 60.2771 76.3342 58.578 79.0548 57.8599L 78.5443 55.9261ZM 68.422 61.2557C 67.0102 62.7472 66.0827 64.6457 66.577 66.8495L 68.5285 66.4117C 68.2314 65.087 68.7307 63.8389 69.8745 62.6305L 68.422 61.2557ZM 79.6341 52.3703C 77.2253 53.0414 73.6145 54.3769 71.083 56.0618L 72.195 57.7242C 74.5222 56.159 77.8392 54.9448 80.1702 54.2971L 79.6341 52.3703ZM 71.083 56.0618C 69.9379 56.8278 68.9029 57.736 68.31 58.7858C 67.6818 59.8979 67.5585 61.1715 68.2792 62.4377L 70.0174 61.4485C 69.6917 60.8763 69.7196 60.3567 70.0514 59.7693C 70.4184 59.1196 71.1519 58.4219 72.195 57.7242L 71.083 56.0618ZM 71.3913 55.9241C 70.2068 56.2283 68.4473 56.5035 66.7991 56.366C 65.1016 56.2313 64.0406 55.7035 63.6789 54.8387L 61.8338 55.6104C 62.663 57.593 64.811 58.2146 66.6409 58.3598C 68.5202 58.5022 70.6065 58.1879 71.8868 57.8618L 71.3913 55.9241ZM 67.5528 53.3337C 67.0022 52.4989 67.0023 52.4988 67.0024 52.4988C 67.0024 52.4988 67.0025 52.4987 67.0026 52.4987C 67.0026 52.4987 67.0027 52.4986 67.0027 52.4986C 67.0025 52.4987 67.0025 52.4987 67.0022 52.4989C 67.0011 52.4996 67.0001 52.5003 66.9981 52.5016C 66.9933 52.5047 66.9873 52.5086 66.978 52.5146C 66.9581 52.5275 66.9311 52.5448 66.8932 52.5686C 66.8145 52.6181 66.7062 52.6851 66.5646 52.769C 66.2749 52.9409 65.8899 53.1586 65.4356 53.3824C 64.4872 53.8504 63.4701 54.2246 62.7564 54.2246L 62.7564 56.2246C 63.9722 56.2246 65.3533 55.6533 66.3207 55.1759C 66.8244 54.9269 67.2767 54.6719 67.5848 54.4893C 67.7421 54.3959 67.8728 54.3152 67.9585 54.2613C 68.0028 54.2334 68.0392 54.2101 68.0622 54.1952C 68.0744 54.1874 68.0848 54.1806 68.091 54.1766C 68.0944 54.1743 68.0975 54.1723 68.0993 54.1712C 68.1003 54.1705 68.1013 54.1698 68.1018 54.1695C 68.1022 54.1692 68.1026 54.169 68.1027 54.1689C 68.1029 54.1688 68.103 54.1687 68.1031 54.1686C 68.1032 54.1685 68.1034 54.1685 67.5528 53.3337ZM 62.6954 54.2264C 61.9576 54.2715 60.6707 54.034 59.4564 53.7385C 58.8711 53.5961 58.3479 53.452 57.9603 53.3406C 57.7684 53.2855 57.616 53.2401 57.5082 53.2075C 57.4551 53.1914 57.4152 53.1792 57.3872 53.1705C 57.3736 53.1663 57.3638 53.1633 57.3569 53.1611C 57.3536 53.1601 57.3514 53.1594 57.3497 53.1589C 57.349 53.1586 57.3486 53.1585 57.3482 53.1584C 57.3481 53.1584 57.348 53.1584 57.348 53.1583C 57.348 53.1583 57.348 53.1583 57.348 53.1583C 57.348 53.1584 57.3481 53.1584 57.048 54.1123C 56.7479 55.0662 56.748 55.0662 56.7481 55.0662C 56.7481 55.0663 56.7483 55.0663 56.7484 55.0663C 56.7485 55.0664 56.7489 55.0665 56.7492 55.0666C 56.7498 55.0668 56.7508 55.0671 56.7519 55.0675C 56.754 55.0681 56.7574 55.0692 56.7615 55.0705C 56.7694 55.0729 56.7817 55.0767 56.797 55.0815C 56.8269 55.0907 56.8723 55.1046 56.9291 55.1218C 57.0411 55.1557 57.2067 55.205 57.4078 55.2628C 57.8063 55.3773 58.3691 55.5321 58.9835 55.6818C 60.1685 55.9702 61.7359 56.2888 62.8174 56.2227L 62.6954 54.2264ZM 63.7351 38.6531L 15.2057 37.3183L 15.1507 39.3176L 63.6801 40.6523L 63.7351 38.6531ZM 15.2513 37.3206C 11.96 37.0816 9.01079 37.2565 6.76489 37.6994C 4.55255 38.138 2.7031 38.8868 1.78831 39.9969C 1.28745 40.6048 1.03235 41.3718 1.25043 42.2008C 1.45298 42.9708 2.0193 43.6156 2.74621 44.1515C 4.19831 45.2222 6.73612 46.1851 10.4505 46.971L 10.8644 45.0143C 7.21876 44.243 5.02908 43.3498 3.93308 42.5418C 3.38595 42.1384 3.22307 41.8381 3.18463 41.692C 3.16173 41.605 3.15386 41.4847 3.33181 41.2688C 3.77462 40.7314 5.00907 40.0864 7.15381 39.6612C 9.265 39.2403 11.946 39.0816 15.1051 39.3153L 15.2513 37.3206ZM 22.2809 45.9927C 22.3927 44.9989 22.3925 44.9989 22.3923 44.9989C 22.3922 44.9989 22.392 44.9988 22.3918 44.9988C 22.3916 44.9988 22.3911 44.9987 22.3906 44.9987C 22.3899 44.9986 22.3886 44.9985 22.3872 44.9983C 22.385 44.9981 22.3809 44.9976 22.3764 44.9971C 22.3683 44.9963 22.3548 44.9949 22.3385 44.9932C 22.3078 44.9901 22.2589 44.9853 22.1972 44.9797C 22.0774 44.9689 21.8918 44.9535 21.65 44.9368C 21.1736 44.9039 20.4441 44.864 19.4736 44.8377C 17.5466 44.7856 14.6012 44.7859 10.6053 44.994L 10.7096 46.9913C 14.6533 46.7852 17.5196 46.7854 19.4195 46.8369C 20.3623 46.8624 21.0501 46.9001 21.5125 46.932C 21.7401 46.9477 21.9043 46.9614 22.017 46.9716C 22.0715 46.9765 22.1096 46.9803 22.1367 46.983C 22.1494 46.9843 22.1575 46.9851 22.1638 46.9858C 22.1665 46.9861 22.1678 46.9862 22.1692 46.9864C 22.1696 46.9864 22.1701 46.9865 22.1698 46.9865C 22.1699 46.9865 22.1697 46.9865 22.1697 46.9865C 22.1696 46.9864 22.1695 46.9864 22.1695 46.9864C 22.1693 46.9864 22.1692 46.9864 22.2809 45.9927ZM 10.6053 44.994C 8.13741 45.1252 5.8097 45.5778 3.98052 46.1902C 2.15712 46.8031 0.614918 47.6345 -0.24571 48.6293C -0.685668 49.1379 -1.02093 49.7769 -0.998999 50.5081C -0.976404 51.2613 -0.582529 51.8926 -0.011077 52.3798C 1.06929 53.3009 3.04632 53.9434 5.89364 54.3248L 6.15922 52.3425C 3.36111 51.9677 1.8952 51.3769 1.28648 50.8579C 1.0134 50.6251 1.0012 50.4846 1.0001 50.4482C 0.998347 50.3897 1.02178 50.2211 1.26682 49.9379C 1.77621 49.3491 2.90924 48.6602 4.61768 48.086C 6.32034 47.5115 8.38106 47.1103 10.7096 46.9913L 10.6053 44.994ZM 5.60766 52.4256C 4.61591 52.8834 3.5206 53.4718 2.67665 54.0606C 2.24821 54.3615 1.82484 54.7119 1.52528 55.0333C 1.22554 55.3585 0.903272 55.8045 0.822609 56.3449C 0.725987 56.9923 1.00246 57.5574 1.49124 57.9426C 1.91989 58.2804 2.50668 58.4841 3.16256 58.618C 4.49464 58.8899 6.57475 58.9601 9.61362 58.7811L 9.49602 56.7845C 6.49252 56.9614 4.62799 56.8759 3.56256 56.6584C 3.01968 56.5476 2.79449 56.4232 2.72911 56.3717C 2.72387 56.3676 2.82427 56.4822 2.8007 56.6402C 2.81312 56.6916 2.80764 56.5858 2.99572 56.389C 3.19863 56.1654 3.45802 55.9541 3.82381 55.6989C 4.56833 55.1754 5.50736 54.6738 6.44519 54.2418L 5.60766 52.4256ZM 8.96026 56.9787C 7.93106 57.7398 6.87067 58.7161 6.44636 59.7239C 6.2182 60.2659 6.11907 60.9591 6.49487 61.6166C 6.84879 62.2357 7.49535 62.5885 8.19748 62.794C 9.59342 63.2026 11.9 63.2292 15.3763 62.8014C 18.8741 62.3705 23.7354 61.4521 30.2984 59.8671L 29.8288 57.923C 23.3148 59.4969 18.5662 60.3943 15.132 60.8164C 11.6764 61.2416 9.72894 61.1583 8.75929 60.8745C 8.27863 60.7338 8.21451 60.5948 8.2312 60.624C 8.29509 60.6539 8.1872 60.7049 8.28966 60.5C 8.4873 60.0306 9.14792 59.3274 10.1494 58.5868L 8.96026 56.9787ZM 15.0736 61.1051C 13.4526 62.161 11.8042 63.359 10.7097 64.376C 10.1682 64.8804 9.67291 65.4203 9.39599 65.9449C 9.25776 66.2067 9.12036 66.5632 9.14486 66.9652C 9.17307 67.4279 9.40794 67.8202 9.77659 68.0771C 10.3642 68.4865 11.2288 68.5059 12.0642 68.4336C 12.9588 68.3549 14.2092 68.1225 15.7989 67.7177C 18.9453 66.915 23.663 65.3882 30.4119 62.8805L 29.7153 61.0057C 23.0066 63.499 18.39 64.9936 15.3048 65.7797C 13.7787 66.1694 12.689 66.3732 11.8916 66.441C 11.035 66.5152 10.8557 66.3914 10.92 66.4361C 11.027 66.5107 11.1303 66.6653 11.1412 66.8435C 11.1483 66.9611 11.1078 66.9863 11.1646 66.8786C 11.2779 66.6641 11.5657 66.3119 12.0729 65.8395C 13.0755 64.903 14.5859 63.8089 16.1649 62.7811L 15.0736 61.1051ZM 30.4552 62.8632C 34.8205 61.0049 46.2488 56.8599 57.207 55.0996L 56.889 53.125C 45.7469 54.9239 34.0879 59.1438 29.672 61.023L 30.4552 62.8632ZM 9.69324 58.7732L 27.9968 56.2149L 27.7199 54.2342L 9.4164 56.7924L 9.69324 58.7732ZM 5.9815 54.3327L 23.2927 55.1113L 23.3825 53.1133L 6.07136 52.3347L 5.9815 54.3327ZM 36.1137 13.0143C 38.9011 13.8668 43.4918 14.3401 50.7125 14.1244L 50.6528 12.1253C 43.4905 12.3393 39.1656 11.8563 36.6987 11.1017L 36.1137 13.0143ZM 35.6716 11.3796C 35.2558 11.8298 34.8726 12.4214 34.7549 13.1089C 34.6281 13.849 34.8286 14.6045 35.4198 15.2371C 35.9732 15.8292 36.8209 16.2657 37.9258 16.578C 39.0054 16.8811 40.5044 17.1054 42.4012 17.189L 42.4878 15.1909C 40.6955 15.1146 39.4258 14.9258 38.4698 14.6535C 37.5391 14.3904 37.0843 14.089 36.881 13.8715C 36.7156 13.6945 36.7052 13.5687 36.7262 13.4465C 36.7561 13.2717 36.8792 13.0198 37.1409 12.7364L 35.6716 11.3796ZM 42.4012 17.189C 44.7721 17.2911 47.9119 17.1876 51.9389 16.7895L 51.7419 14.7992C 47.7803 15.1919 44.7824 15.2911 42.4878 15.1909L 42.4012 17.189ZM 42.0062 15.2911C 41.041 15.7618 40.0178 16.3832 39.4105 17.0861C 39.1101 17.4338 38.789 17.9419 38.806 18.5634C 38.8247 19.2533 39.2423 19.7588 39.745 20.0866C 40.6565 20.6809 42.3017 21.0057 44.7413 21.1294C 47.2268 21.2547 50.7985 21.1755 55.7215 20.7956L 55.5674 18.8015C 50.6992 19.1779 47.2552 19.2549 44.8425 19.1319C 42.3838 19.0073 41.248 18.679 40.8374 18.4113C 40.6791 18.308 40.8004 18.3302 40.8052 18.509C 40.8082 18.6193 40.7557 18.5884 40.9239 18.3936C 41.2539 18.0117 41.9683 17.5347 42.8828 17.0888L 42.0062 15.2911ZM 46.3963 19.9248C 45.9574 20.4347 45.5895 21.0921 45.5317 21.849C 45.4709 22.6449 45.7645 23.4121 46.3988 24.0612C 47.5791 25.2693 49.981 26.1215 53.9567 26.5312L 54.1618 24.5417C 50.2265 24.1362 48.4744 23.3238 47.8293 22.6635C 47.5508 22.3785 47.5137 22.1606 47.5259 22.0012C 47.541 21.8028 47.6496 21.5346 47.9122 21.2295L 46.3963 19.9248ZM 53.9567 26.5312C 57.7013 26.9158 63.1268 26.9267 70.7224 26.3009L 70.5579 24.3077C 63.0464 24.9283 57.8059 24.9186 54.1618 24.5417L 53.9567 26.5312ZM 53.767 24.5801C 53.1249 24.7774 52.4408 25.0561 51.9387 25.3588C 51.4745 25.6423 50.8206 26.1468 50.7011 26.9383C 50.5608 27.8669 51.2088 28.5266 51.8508 28.9322C 52.5295 29.361 53.5457 29.7454 54.9314 30.1026L 55.4306 28.1659C 54.1107 27.8256 53.3335 27.5033 52.9191 27.2414C 52.468 26.9565 52.7232 26.9416 52.6786 27.2369C 52.6547 27.3952 52.5848 27.3077 52.9811 27.0657C 53.3394 26.8429 53.7922 26.6628 54.3515 26.4928L 53.767 24.5801ZM 54.9314 30.1026C 57.19 30.6837 60.7033 31.2553 65.8586 31.7499L 66.0494 29.759C 60.9593 29.2718 57.6004 28.7263 55.4306 28.1659L 54.9314 30.1026ZM 54.8585 28.1877C 54.1895 28.4161 53.4859 28.7086 52.9191 29.0168C 52.3643 29.3202 51.7773 29.7222 51.4241 30.2423C 51.2365 30.5185 51.0814 30.8777 51.0874 31.2995C 51.0937 31.7337 51.269 32.1117 51.5255 32.4142C 51.9921 32.9644 52.7913 33.3444 53.7657 33.6436L 54.3528 31.7317C 53.4462 31.4533 53.1258 31.209 53.0508 31.1207C 53.0366 31.1039 53.0856 31.159 53.0872 31.2707C 53.0887 31.3701 53.0505 31.4074 53.0786 31.3659C 53.1567 31.251 53.3959 31.0356 53.8786 30.7716C 54.3495 30.5125 54.8951 30.2876 55.5035 30.0808L 54.8585 28.1877ZM 53.7657 33.6436C 55.8341 34.2788 59.496 34.7774 65.4699 35.0348L 65.556 33.0366C 59.5983 32.7799 56.158 32.2861 54.3528 31.7317L 53.7657 33.6436ZM 53.4782 31.8738C 52.7645 32.3833 52.0282 33.1268 51.7379 34.066C 51.4132 35.1166 51.7099 36.2005 52.6769 37.1081C 53.5805 37.9563 55.0783 38.6726 57.2718 39.2585C 59.457 39.8408 62.5117 40.3342 66.5895 40.6497L 66.7433 38.6556C 62.7482 38.3483 59.8749 37.8849 57.788 37.3262C 55.7094 36.771 54.5911 36.1619 54.0456 35.6499C 53.5634 35.1973 53.5778 34.8862 53.6488 34.6565C 53.7542 34.3154 54.0914 33.8934 54.6403 33.5016L 53.4782 31.8738ZM 66.6664 38.6527L 63.7076 38.6527L 63.7076 40.6527L 66.6664 40.6527L 66.6664 38.6527ZM 102.679 45.2348L 85.9191 87.5013L 87.7783 88.2385L 104.538 45.972L 102.679 45.2348ZM 86.6028 86.9006L 49.3341 96.3549L 49.8259 98.2935L 87.0946 88.8392L 86.6028 86.9006ZM 30.745 -0.90696C 29.9362 -0.52867 29.0722 0.0356826 28.4929 0.655305C 27.881 1.32264 27.4153 2.23052 27.5972 3.29946C 27.7736 4.33649 28.5164 5.25022 29.6706 6.05577C 30.7927 6.83461 32.5312 7.65562 34.9202 8.42885L 35.5345 6.52553C 33.2662 5.79556 31.7949 5.10384 30.8152 4.41574C 29.8677 3.75436 29.617 3.24697 29.5688 2.96402C 29.5261 2.71298 29.6048 2.40203 29.967 2.007C 30.3619 1.56426 30.9019 1.22273 31.5874 0.90696L 30.745 -0.90696ZM 34.9202 8.42885C 37.2079 9.16657 40.2029 9.90533 43.996 10.6046L 44.3584 8.63775C 40.6237 7.95011 37.7548 7.24281 35.5345 6.52553L 34.9202 8.42885ZM 34.8647 6.54527C 34.3497 6.74715 33.7226 7.07385 33.2454 7.44156C 32.7691 7.8141 32.2399 8.37703 32.0998 9.13854C 31.9435 9.98813 32.3206 10.7587 33.0002 11.3748C 33.6544 11.9677 34.667 12.5027 36.0723 13.0006L 36.7402 11.1154C 35.434 10.6526 34.7103 10.2255 34.3434 9.89292C 34.1597 9.73341 34.1209 9.68297 34.0795 9.56737C 34.0354 9.49328 34.0448 9.56837 34.0668 9.50046C 34.0765 9.44774 34.1526 9.27111 34.4777 9.01685C 34.8017 8.75776 35.1717 8.57042 35.59 8.40911L 34.8647 6.54527Z"/><path id="path4_fill" d="M 97.2244 0C 94.8905 0.778594 84.07 2.22455 60.3416 4.22665C 30.681 6.72928 8.79402 8.8426 2.06802 11.6233C -3.31278 13.8478 3.00524 15.2382 7.41569 14.1815C 1.90254 14.0036 1.55343 13.385 2.06802 13.0979C 3.56759 9.873 66.7552 3.98623 98.1616 1.44596L 97.2244 0Z"/><path id="path5_stroke" d="M 97.2244 0L 97.6439 -0.271955C 97.52 -0.463214 97.2823 -0.546431 97.0661 -0.474303L 97.2244 0ZM 60.3416 4.22665L 60.3836 4.72488L 60.3416 4.22665ZM 2.06802 11.6233L 2.25905 12.0854L 2.06802 11.6233ZM 7.41569 14.1815L 7.53218 14.6678C 7.77567 14.6094 7.93847 14.38 7.91312 14.1309C 7.88776 13.8818 7.68207 13.6899 7.43182 13.6818L 7.41569 14.1815ZM 98.1616 1.44596L 98.2019 1.94433C 98.3774 1.93014 98.5324 1.82474 98.6102 1.66681C 98.6879 1.50889 98.6769 1.32172 98.5812 1.17401L 98.1616 1.44596ZM 2.06802 13.0979L 2.3116 13.5346C 2.40357 13.4833 2.47699 13.4042 2.5214 13.3087L 2.06802 13.0979ZM 97.0661 -0.474303C 95.9584 -0.104761 92.728 0.446771 86.7469 1.15801C 80.7887 1.86655 72.16 2.72771 60.2996 3.72842L 60.3836 4.72488C 72.2517 3.7235 80.8974 2.86063 86.865 2.15101C 92.8097 1.4441 96.1564 0.883355 97.3826 0.474303L 97.0661 -0.474303ZM 60.2996 3.72842C 45.468 4.97984 32.5727 6.13464 22.5454 7.32418C 12.5442 8.51069 5.3163 9.73933 1.87699 11.1612L 2.25905 12.0854C 5.54573 10.7266 12.6244 9.50819 22.6633 8.31722C 32.6762 7.12927 45.5546 5.97608 60.3836 4.72488L 60.2996 3.72842ZM 1.87699 11.1612C 1.18064 11.4498 0.636446 11.745 0.273056 12.0145C -0.0947762 12.2889 -0.38784 12.6131 -0.474593 13.0009C -0.572182 13.4372 -0.381059 13.8019 -0.107412 14.0556C 0.152136 14.2962 0.516304 14.4733 0.909829 14.6065C 2.47654 15.1368 5.25737 15.2128 7.53218 14.6678L 7.29919 13.6953C 5.16356 14.207 2.58015 14.1161 1.23044 13.6593C 0.894858 13.5457 0.682908 13.4247 0.572477 13.3223C 0.513637 13.2709 0.511831 13.2716 0.50156 13.2337C 0.485135 13.2058 0.488323 13.2508 0.501286 13.2193C 0.50998 13.1804 0.571652 13.0393 0.870993 12.816C 1.17478 12.5878 1.6102 12.3529 2.25905 12.0854L 1.87699 11.1612ZM 96.8048 0.271955L 97.742 1.71791L 98.5812 1.17401L 97.6439 -0.271955L 96.8048 0.271955ZM 98.1213 0.947588C 82.4161 2.21789 58.7604 4.32532 38.845 6.5182C 28.8866 7.61476 19.8545 8.73382 13.2208 9.78012C 9.90139 10.3038 7.16673 10.8122 5.22019 11.29C 4.24204 11.5303 3.43778 11.7704 2.86376 11.9992C 2.57037 12.1168 2.30573 12.2465 2.11601 12.3674C 1.92706 12.489 1.72212 12.6559 1.61464 12.8871L 2.5214 13.3087C 2.52074 13.3302 2.53233 13.2858 2.65694 13.2085C 2.79621 13.1179 2.97533 13.0311 3.23479 12.9278C 3.76646 12.7149 4.50418 12.4953 5.45866 12.2611C 7.37741 11.7898 10.0707 11.2893 13.3767 10.7679C 19.9939 9.72405 29.0028 8.60798 38.9545 7.5122C 58.8595 5.3204 82.5008 3.2143 98.2019 1.94433L 98.1213 0.947588ZM 1.82444 12.6613C 1.7269 12.7157 1.59625 12.8056 1.5041 12.948C 1.39535 13.1162 1.35263 13.3454 1.45694 13.5722C 1.54318 13.7598 1.70055 13.8779 1.82978 13.9527C 1.95138 14.0218 2.13625 14.0987 2.3383 14.1597C 3.11858 14.3929 4.64219 14.5923 7.39956 14.6813L 7.43182 13.6818C 4.67603 13.5928 3.26852 13.394 2.6246 13.2016C 2.4706 13.1562 2.39361 13.1249 2.33073 13.0873C 2.27548 13.0553 2.32575 13.068 2.36549 13.1544C 2.42328 13.2801 2.39464 13.4125 2.34377 13.4911C 2.30948 13.5442 2.28048 13.5519 2.3116 13.5346L 1.82444 12.6613ZM 97.0661 -0.474303C 95.9584 -0.104761 92.728 0.446771 86.7469 1.15801C 80.7887 1.86655 72.16 2.72771 60.2996 3.72842L 60.3836 4.72488C 72.2517 3.7235 80.8974 2.86063 86.865 2.15101C 92.8097 1.4441 96.1564 0.883355 97.3826 0.474303L 97.0661 -0.474303ZM 60.2996 3.72842C 45.468 4.97984 32.5727 6.13464 22.5454 7.32418C 12.5442 8.51069 5.3163 9.73933 1.87699 11.1612L 2.25905 12.0854C 5.54573 10.7266 12.6244 9.50819 22.6633 8.31722C 32.6762 7.12927 45.5546 5.97608 60.3836 4.72488L 60.2996 3.72842ZM 7.43182 13.6818C 4.67603 13.5928 3.26852 13.394 2.6246 13.2016C 2.4706 13.1562 2.39361 13.1249 2.33073 13.0873C 2.27548 13.0553 2.32575 13.068 2.36549 13.1544C 2.42328 13.2801 2.39464 13.4125 2.34377 13.4911C 2.30948 13.5442 2.28048 13.5519 2.3116 13.5346L 1.82444 12.6613C 1.7269 12.7157 1.59625 12.8056 1.5041 12.948C 1.39535 13.1162 1.35263 13.3454 1.45694 13.5722C 1.54318 13.7598 1.70055 13.8779 1.82978 13.9527C 1.95138 14.0218 2.13625 14.0987 2.3383 14.1597C 3.11858 14.3929 4.64219 14.5923 7.39956 14.6813L 7.43182 13.6818ZM 2.5214 13.3087C 2.52074 13.3302 2.53233 13.2858 2.65694 13.2085C 2.79621 13.1179 2.97533 13.0311 3.23479 12.9278C 3.76646 12.7149 4.50418 12.4953 5.45866 12.2611C 7.37741 11.7898 10.0707 11.2893 13.3767 10.7679C 19.9939 9.72405 29.0028 8.60798 38.9545 7.5122C 58.8595 5.3204 82.5008 3.2143 98.2019 1.94433L 98.1213 0.947588C 82.4161 2.21789 58.7604 4.32532 38.845 6.5182C 28.8866 7.61476 19.8545 8.73382 13.2208 9.78012C 9.90139 10.3038 7.16673 10.8122 5.22019 11.29C 4.24204 11.5303 3.43778 11.7704 2.86376 11.9992C 2.57037 12.1168 2.30573 12.2465 2.11601 12.3674C 1.92706 12.489 1.72212 12.6559 1.61464 12.8871L 2.5214 13.3087Z"/><path id="path6_fill" d="M 92.4889 0.000262768C 91.7171 -0.0553511 0.860397 8.7316 0.0334564 12.3465C -0.0520298 12.5134 -0.164572 13.2586 2.34941 13.7925C 1.20303 13.4366 0.629504 12.555 1.13608 12.2909C 9.35057 8.00865 93.5445 2.07652 93.7569 1.55745C 93.9694 1.03838 93.2608 0.0558766 92.4889 0.000262768Z"/><path id="path7_stroke" d="M 0.0334564 12.3465L 0.478453 12.5745L 0.506936 12.5189L 0.520866 12.458L 0.0334564 12.3465ZM 2.34941 13.7925L 2.24554 14.2816L 2.49766 13.315L 2.34941 13.7925ZM 1.13608 12.2909L 1.36722 12.7343L 1.13608 12.2909ZM 92.5249 -0.498444C 92.4712 -0.502308 92.3965 -0.497413 92.3568 -0.494983C 92.2989 -0.491423 92.2182 -0.485636 92.1194 -0.477973C 91.9233 -0.46274 91.6437 -0.439217 91.2887 -0.408045C 90.5797 -0.345772 89.5621 -0.252316 88.2815 -0.13125C 85.7209 0.110828 82.1037 0.463782 77.7832 0.900085C 69.1429 1.77263 57.6841 2.97913 46.2246 4.30023C 34.7651 5.62134 23.297 7.0581 14.6439 8.39038C 10.3153 9.05687 6.67771 9.69968 4.10054 10.2884C 2.80751 10.584 1.75761 10.8726 1.02617 11.1426C 0.653332 11.2808 0.328536 11.4299 0.104206 11.5689C -0.102474 11.6981 -0.379493 11.9095 -0.453953 12.235L 0.520866 12.458C 0.49809 12.5576 0.448594 12.5329 0.634282 12.4169C 0.802322 12.3106 1.03474 12.2052 1.37297 12.0805C 2.06367 11.8246 3.05132 11.5538 4.3233 11.2633C 6.87615 10.6798 10.4784 10.0435 14.796 9.37873C 23.4352 8.04849 34.8846 6.61419 46.3391 5.29365C 57.7937 3.9731 69.2455 2.76736 77.8837 1.89502C 82.2025 1.45889 85.8165 1.10625 88.3756 0.864311C 89.6549 0.74337 90.6692 0.650217 91.3762 0.58812C 91.7294 0.557107 92.0039 0.534004 92.1968 0.519027C 92.2927 0.511586 92.3653 0.506371 92.4181 0.503141C 92.4892 0.49878 92.4825 0.501095 92.453 0.49897L 92.5249 -0.498444ZM -0.411541 12.1185C -0.555547 12.3996 -0.562363 12.8623 -0.135937 13.2864C 0.244646 13.6649 0.963325 14.0093 2.24554 14.2816L 2.45328 13.3034C 1.22151 13.0418 0.739472 12.7467 0.569202 12.5773C 0.444775 12.4536 0.536973 12.4603 0.478453 12.5745L -0.411541 12.1185ZM 1.36722 12.7343C 2.316 12.2397 4.45314 11.6889 7.55684 11.1131C 10.6365 10.5417 14.5863 9.95873 19.1076 9.37612C 28.1528 8.21047 39.4453 7.05218 50.4942 6.01078C 61.543 4.96938 72.3419 4.04555 80.3935 3.34948C 84.4194 3.00145 87.7597 2.71025 90.1 2.48984C 91.2708 2.37957 92.1954 2.28659 92.8295 2.21317C 93.1482 2.17624 93.402 2.14314 93.575 2.11545C 93.6648 2.10101 93.7484 2.08507 93.8052 2.07132C 93.8391 2.06286 93.889 2.0476 93.9216 2.03513C 93.945 2.02546 93.9934 2.00118 94.0225 1.98338C 94.049 1.96622 94.1593 1.89438 94.2197 1.74682L 93.2942 1.36808C 93.3529 1.22457 93.459 1.15696 93.4787 1.14418C 93.5139 1.12139 93.5427 1.10967 93.5517 1.10608C 93.5427 1.10912 93.5768 1.09785 93.5669 1.10012C 93.5363 1.10782 93.4928 1.11592 93.4167 1.12806C 93.2582 1.15353 93.0261 1.18373 92.7145 1.21981C 92.0879 1.29239 91.1739 1.38427 90.0062 1.49425C 87.6694 1.71433 84.3329 2.0052 80.3074 2.3532C 72.2562 3.04922 61.4534 3.97339 50.4004 5.01519C 39.3474 6.05698 28.0379 7.21709 18.9798 8.38432C 14.4494 8.96815 10.4723 9.55526 7.37442 10.1299C 4.30063 10.7002 2.00979 11.2716 0.904952 11.8475L 1.36722 12.7343ZM 94.2197 1.74682C 94.3301 1.47691 94.3046 1.19382 94.2368 0.962417C 94.1711 0.74767 94.0347 0.491221 93.8866 0.297964C 93.5869 -0.0871182 93.0996 -0.457029 92.5249 -0.498444L 92.453 0.49897C 92.65 0.513169 92.903 0.662317 93.0975 0.912157C 93.1964 1.03636 93.2456 1.12634 93.2771 1.24354C 93.3117 1.34689 93.2702 1.39807 93.2942 1.36808L 94.2197 1.74682ZM 0.904952 11.8475C 0.615691 11.9983 0.449631 12.2728 0.450747 12.5887C 0.451715 12.863 0.576964 13.1126 0.722845 13.3072C 1.02149 13.7055 1.54867 14.0674 2.20115 14.27L 2.49766 13.315C 2.00377 13.1616 1.671 12.9048 1.52293 12.7073C 1.44596 12.6113 1.45994 12.5557 1.45074 12.5851C 1.46741 12.5823 1.37749 12.7521 1.36722 12.7343L 0.904952 11.8475ZM -0.411541 12.1185C -0.555547 12.3996 -0.562363 12.8623 -0.135937 13.2864C 0.244646 13.6649 0.963325 14.0093 2.24554 14.2816L 2.45328 13.3034C 1.22151 13.0418 0.739472 12.7467 0.569202 12.5773C 0.444775 12.4536 0.536974 12.4603 0.478453 12.5745L -0.411541 12.1185ZM 2.49766 13.315C 2.00377 13.1616 1.671 12.9048 1.52293 12.7073C 1.44596 12.6113 1.45994 12.5557 1.45074 12.5851C 1.46741 12.5823 1.37749 12.7521 1.36722 12.7343L 0.904952 11.8475C 0.615691 11.9983 0.449631 12.2728 0.450747 12.5887C 0.451715 12.863 0.576964 13.1126 0.722845 13.3072C 1.02149 13.7055 1.54867 14.0674 2.20115 14.27L 2.49766 13.315Z"/><path id="path8_fill" d="M 98.1334 0L 0 17.852C 31.829 12.0682 96.0164 0.711857 98.1334 1.55719C 100.25 2.40252 99.0155 0.871284 98.1334 0Z"/><path id="path9_stroke" d="M 98.1334 0L 98.4848 -0.355727L 98.2998 -0.538469L 98.044 -0.491926L 98.1334 0ZM 0 17.852L -0.0894893 17.3601L 0.089394 18.344L 0 17.852ZM 98.1334 1.55719L 98.3189 1.09284L 98.1334 1.55719ZM 98.044 -0.491926L -0.0894893 17.3601L 0.0894893 18.344L 98.2229 0.491926L 98.044 -0.491926ZM 0.089394 18.344C 16.0032 15.4522 40.0045 11.1676 60.2927 7.71158C 70.4365 5.98359 79.6486 4.46327 86.4581 3.4276C 89.8618 2.9099 92.6592 2.51415 94.6737 2.27391C 95.6789 2.15399 96.4789 2.07381 97.0642 2.03631C 97.3538 2.01766 97.5758 2.01 97.7475 2.01307C 97.9401 2.01634 97.9785 2.03371 97.948 2.02154L 98.3189 1.09284C 98.1561 1.02783 97.9409 1.01621 97.7645 1.01321C 97.5672 1.01003 97.3047 1.01886 97.0001 1.03837C 96.397 1.07717 95.5699 1.15995 94.5552 1.28095C 92.5299 1.52254 89.7166 1.92051 86.3077 2.43897C 79.492 3.47561 70.2711 4.99736 60.1248 6.72578C 39.8327 10.1825 15.8259 14.468 -0.089394 17.3601L 0.089394 18.344ZM 97.948 2.02154C 98.2285 2.1332 98.4789 2.2138 98.6684 2.25669C 98.8598 2.29943 99.0688 2.32445 99.2616 2.28054C 99.4924 2.228 99.7133 2.06705 99.7822 1.78385C 99.8352 1.56593 99.7725 1.36209 99.7224 1.23668C 99.615 0.968177 99.4018 0.671864 99.1904 0.413278C 98.9728 0.14759 98.7122 -0.130982 98.4848 -0.355727L 97.7821 0.355727C 97.9957 0.566624 98.2203 0.806188 98.4162 1.04624C 98.6183 1.29339 98.7469 1.49042 98.7939 1.60796C 98.8209 1.67559 98.7885 1.63795 98.8105 1.54755C 98.8484 1.39187 98.977 1.31976 99.0396 1.30551C 99.056 1.29696 99.0118 1.31059 98.8864 1.28074C 98.7418 1.24898 98.5677 1.1925 98.3189 1.09284L 97.948 2.02154ZM 0.089394 18.344C 16.0032 15.4522 40.0045 11.1676 60.2927 7.71158C 70.4365 5.98359 79.6486 4.46327 86.4581 3.4276C 89.8618 2.9099 92.6592 2.51415 94.6737 2.27391C 95.6789 2.15399 96.4789 2.07381 97.0642 2.03631C 97.3538 2.01766 97.5758 2.01 97.7475 2.01307C 97.9401 2.01634 97.9785 2.03371 97.948 2.02154L 98.3189 1.09284C 98.1561 1.02783 97.9409 1.01621 97.7645 1.01321C 97.5672 1.01003 97.3047 1.01886 97.0001 1.03837C 96.397 1.07717 95.5699 1.15995 94.5552 1.28095C 92.5299 1.52254 89.7166 1.92051 86.3077 2.43897C 79.492 3.47561 70.2711 4.99736 60.1248 6.72578C 39.8327 10.1825 15.8259 14.468 -0.089394 17.3601L 0.089394 18.344ZM 97.948 2.02154C 98.2285 2.1332 98.4789 2.2138 98.6684 2.25669C 98.8598 2.29943 99.0688 2.32445 99.2616 2.28054C 99.4924 2.228 99.7133 2.06705 99.7822 1.78385C 99.8352 1.56593 99.7725 1.36209 99.7224 1.23668C 99.615 0.968177 99.4018 0.671864 99.1904 0.413278C 98.9728 0.14759 98.7122 -0.130982 98.4848 -0.355727L 97.7821 0.355727C 97.9957 0.566624 98.2203 0.806188 98.4162 1.04624C 98.6183 1.29339 98.7469 1.49042 98.7939 1.60796C 98.8209 1.67559 98.7885 1.63795 98.8105 1.54755C 98.8484 1.39187 98.977 1.31976 99.0396 1.30551C 99.056 1.29696 99.0118 1.31059 98.8864 1.28074C 98.7418 1.24898 98.5677 1.1925 98.3189 1.09284L 97.948 2.02154Z"/><path id="path10_fill" d="M 73.7702 0.00906891C 73.4944 0.120297 2.43055 19.4183 0.611155 20.5862C -1.20824 21.7541 1.60356 22.6439 1.71378 22.5327C 1.824 22.4215 -0.160742 21.6985 1.49326 20.9755C 3.14725 20.2525 74.0457 1.17696 74.2663 1.01012C 74.487 0.843279 74.046 -0.102159 73.7702 0.00906891Z"/><path id="path11_stroke" d="M 0.611155 20.5862L 0.341058 20.1654L 0.611155 20.5862ZM 73.5831 -0.454636C 73.6106 -0.465705 73.6273 -0.469378 73.5685 -0.452536C 73.5311 -0.441856 73.4775 -0.426778 73.4068 -0.407016C 73.2647 -0.367357 73.058 -0.31017 72.7903 -0.236371C 72.2545 -0.0887085 71.4764 0.124769 70.4899 0.395048C 68.5169 0.935627 65.7113 1.70314 62.3465 2.62469C 55.617 4.4678 46.6507 6.92713 37.6363 9.41946C 28.6219 11.9118 19.5577 14.4376 12.6338 16.4131C 9.17149 17.4011 6.24155 18.2522 4.12119 18.8926C 3.06013 19.2131 2.19701 19.4823 1.57235 19.6892C 1.2586 19.7932 0.997877 19.8838 0.804025 19.9568C 0.6255 20.0241 0.44999 20.0955 0.341058 20.1654L 0.881252 21.007C 0.858884 21.0232 0.9805 20.9588 1.1566 20.8926C 1.3384 20.8241 1.58003 20.7401 1.88678 20.6385C 2.50311 20.4343 3.35358 20.1691 4.41033 19.8499C 6.5256 19.211 9.44817 18.362 12.9082 17.3748C 19.8291 15.4 28.8893 12.8754 37.9028 10.3833C 46.9162 7.89124 55.8813 5.43223 62.6107 3.58917C 65.9753 2.66766 68.781 1.90013 70.7542 1.3595C 71.7408 1.08918 72.5196 0.875501 73.0559 0.727689C 73.3242 0.653749 73.5325 0.596117 73.6757 0.556154C 73.7475 0.536104 73.8041 0.520171 73.8434 0.508922C 73.8612 0.503836 73.9211 0.487319 73.9572 0.472774L 73.5831 -0.454636ZM 0.341058 20.1654C -0.162192 20.4885 -0.519145 20.9015 -0.499246 21.4179C -0.480512 21.9041 -0.129956 22.2444 0.14549 22.444C 0.432891 22.649 0.804486 22.8186 1.07684 22.9126C 1.21805 22.9608 1.36422 23.0002 1.46663 23.0201C 1.52389 23.0307 1.59899 23.0398 1.65004 23.0418C 1.68318 23.0423 1.74547 23.0383 1.78508 23.0322C 1.8229 23.0253 1.95508 22.9995 2.06894 22.8846L 1.35862 22.1807C 1.46559 22.0728 1.58561 22.052 1.60643 22.0482C 1.64474 22.0413 1.67154 22.042 1.67645 22.0422C 1.67782 22.0416 1.68026 22.043 1.65363 22.0377C 1.58829 22.0256 1.51092 22.0046 1.40144 21.9668C 1.17244 21.8888 0.934135 21.7837 0.732233 21.6342C 0.518376 21.4793 0.50023 21.3851 0.500012 21.3794C 0.497438 21.3612 0.493894 21.3858 0.502957 21.3649C 0.51068 21.3364 0.510353 21.3374 0.538569 21.3002C 0.602809 21.2055 0.688482 21.1286 0.881252 21.007L 0.341058 20.1654ZM 2.06894 22.8846C 2.17714 22.7754 2.23122 22.6239 2.21559 22.47C 2.20286 22.3446 2.14805 22.257 2.12139 22.2188C 2.06798 22.1422 2.00217 22.0901 1.97708 22.0704C 1.91835 22.0249 1.83844 21.9725 1.76703 21.9257C 1.62357 21.8319 1.48217 21.7416 1.38401 21.6359C 1.27804 21.5263 1.35415 21.5463 1.32668 21.6438C 1.30964 21.7043 1.3034 21.6042 1.69352 21.4336L 1.293 20.5173C 0.856112 20.7083 0.477719 20.9697 0.36418 21.3725C 0.240217 21.8124 0.495501 22.1556 0.665192 22.3311C 0.842685 22.5104 1.07343 22.6669 1.21942 22.7625C 1.29274 22.8105 1.33688 22.8384 1.35913 22.8566C 1.37453 22.8687 1.33845 22.8443 1.3012 22.7909C 1.28262 22.7642 1.23249 22.687 1.22071 22.571C 1.20602 22.4264 1.25731 22.283 1.35862 22.1807L 2.06894 22.8846ZM 1.69352 21.4336C 1.68116 21.4393 1.72895 21.4197 1.78203 21.4017C 1.83766 21.3827 1.90746 21.3601 1.99657 21.3322C 2.17649 21.2757 2.41822 21.2029 2.72176 21.1136C 3.33014 20.9347 4.17393 20.6934 5.22169 20.3981C 7.31797 19.8073 10.2225 19.0026 13.6634 18.0565C 20.5455 16.164 29.5691 13.7068 38.5484 11.2668C 47.5278 8.82673 56.4625 6.40404 63.1663 4.5809C 66.5182 3.66932 69.3128 2.90751 71.2763 2.36841C 72.2581 2.09881 73.0331 1.88464 73.5658 1.73534C 73.8326 1.66058 74.0405 1.60153 74.1828 1.56004C 74.2547 1.53907 74.3135 1.52151 74.3539 1.50888C 74.3755 1.50214 74.3979 1.49482 74.4132 1.48949C 74.4228 1.48611 74.4388 1.48015 74.4492 1.47598C 74.4566 1.47291 74.4726 1.46585 74.4824 1.46123C 74.4979 1.45341 74.5408 1.42812 74.5679 1.40894L 73.9648 0.611297C 73.9911 0.592769 74.0325 0.568278 74.0461 0.561398C 74.0539 0.557713 74.0675 0.551738 74.0719 0.549894C 74.0675 0.551614 74.0841 0.545241 74.0834 0.545461C 74.0782 0.547311 74.0715 0.54945 74.0556 0.554415C 74.0212 0.565174 73.9717 0.579959 73.9029 0.600001C 73.7639 0.640524 73.561 0.698149 73.2959 0.772444C 72.765 0.921253 71.9926 1.13472 71.0115 1.4041C 69.049 1.94295 66.2555 2.70444 62.9039 3.61595C 56.2004 5.43899 47.2658 7.86166 38.2862 10.3017C 29.3066 12.7418 20.2816 15.1995 13.3982 17.0923C 9.95639 18.0387 7.04884 18.8442 4.95042 19.4356C 3.90083 19.7314 3.05159 19.9743 2.43959 20.1543C 1.84846 20.3281 1.43335 20.456 1.293 20.5173L 1.69352 21.4336ZM 74.5679 1.40894C 74.724 1.29092 74.7859 1.13014 74.8095 1.01494C 74.8258 0.922423 74.8269 0.78891 74.8164 0.701973C 74.7934 0.545551 74.7266 0.339698 74.6549 0.188405C 74.5811 0.0375648 74.4585 -0.146217 74.3461 -0.260959C 74.2506 -0.355094 73.9565 -0.605201 73.5831 -0.454636L 73.9572 0.472774C 73.9045 0.494036 73.8503 0.501938 73.8003 0.499605C 73.7521 0.497356 73.7147 0.486015 73.6906 0.47617C 73.647 0.458351 73.6325 0.439764 73.644 0.451153C 73.6526 0.45964 73.6694 0.478792 73.6911 0.511179C 73.7122 0.54261 73.7338 0.580511 73.7539 0.622232C 73.774 0.66388 73.7908 0.70584 73.8033 0.744582C 73.8161 0.784134 73.8225 0.814365 73.825 0.833382C 73.828 0.85603 73.8234 0.846043 73.8299 0.814347C 73.8364 0.78235 73.8639 0.68761 73.9648 0.611297L 74.5679 1.40894Z"/><path id="path12_fill" d="M 33.7446 0.550549C 34.2408 0.161252 29.5547 -0.228045 26.3019 0.161252C 23.0492 0.550549 1.4929 5.66703 0.0594905 6.05632C -1.37392 6.44561 23.5454 1.44037 26.3019 0.99546C 29.0585 0.550551 33.2484 0.939846 33.7446 0.550549Z"/><path id="path13_stroke" d="M 34.0533 0.943923C 34.1544 0.864598 34.3576 0.641239 34.254 0.322941C 34.1817 0.100896 33.9961 -0.00251839 33.9389 -0.0335324C 33.7804 -0.119394 33.5602 -0.176267 33.3477 -0.219304C 32.9061 -0.308296 32.2315 -0.385442 31.4611 -0.435045C 29.929 -0.53314 27.8985 -0.53251 26.2425 -0.335205L 26.3613 0.657709C 27.958 0.465717 29.897 0.466347 31.3971 0.562901C 32.1428 0.610622 32.7501 0.679462 33.1492 0.760788C 33.2452 0.780153 33.3147 0.796853 33.378 0.815881C 33.4357 0.832702 33.4768 0.854664 33.4625 0.845699C 33.4621 0.8455 33.4421 0.834967 33.4152 0.810334C 33.39 0.787226 33.3348 0.729807 33.3031 0.632551C 33.2152 0.362535 33.3969 0.187838 33.436 0.157175L 34.0533 0.943923ZM 26.2425 -0.335205C 24.5817 -0.136438 18.3427 1.24934 12.3862 2.62155C 6.40927 3.99848 0.652433 5.37723 -0.0715553 5.5738L 0.190536 6.53884C 0.899958 6.34611 6.63797 4.97198 12.6107 3.59603C 18.6039 2.21535 24.7694 0.848239 26.3613 0.657709L 26.2425 -0.335205ZM -0.0715553 5.5738C -0.0999562 5.58155 -0.134896 5.59214 -0.157489 5.60005C -0.161209 5.60138 -0.21208 5.61847 -0.265392 5.65212C -0.282735 5.66356 -0.323404 5.69475 -0.346326 5.71553C -0.380548 5.75189 -0.452379 5.86337 -0.48141 5.94137C -0.499843 6.06282 -0.44804 6.29867 -0.381832 6.39953C -0.325051 6.45674 -0.217802 6.52702 -0.173519 6.54593C -0.100323 6.57316 -0.0376277 6.57619 -0.0270274 6.57685C -0.0115778 6.57761 0.0133705 6.57787 0.0246315 6.5776C 0.0400843 6.577 0.06347 6.57532 0.077186 6.57397C 0.0989987 6.5717 0.130564 6.56759 0.160559 6.56319C 0.271442 6.54681 0.475511 6.51134 0.752406 6.46073C 1.30388 6.3599 2.17302 6.1941 3.26251 5.98325C 5.44093 5.56166 8.50836 4.95845 11.706 4.32931C 18.1012 3.07104 25.0118 1.71008 26.3816 1.48907L 26.2222 0.501848C 24.8355 0.725746 17.9081 2.08987 11.5129 3.34812C 8.31536 3.97725 5.24945 4.58016 3.07251 5.00147C 1.98432 5.21207 1.12027 5.37691 0.572569 5.47703C 0.299875 5.52689 0.112857 5.55947 0.0148454 5.57386C -0.00738399 5.57715 -0.0166552 5.57841 -0.0239223 5.57909C -0.0247462 5.57922 0.000714354 5.57774 -0.00612337 5.57808C -0.0130768 5.57821 0.0474984 5.57935 0.0348578 5.57877C 0.0426491 5.57925 0.103288 5.58195 0.175185 5.6087C 0.218819 5.62737 0.325608 5.69737 0.382118 5.75426C 0.448056 5.8548 0.49978 6.09029 0.481458 6.21134C 0.452539 6.28895 0.381011 6.39999 0.347283 6.43588C 0.324855 6.45617 0.284871 6.48686 0.268406 6.49774C 0.237176 6.51745 0.211192 6.52875 0.20344 6.53209C 0.210304 6.52922 0.176662 6.54262 0.18032 6.54126C 0.183483 6.54032 0.174143 6.54325 0.190536 6.53884L -0.0715553 5.5738ZM 26.3816 1.48907C 27.7221 1.27124 29.42 1.25909 30.8733 1.25214C 31.5998 1.24867 32.2675 1.24676 32.7849 1.22112C 33.0467 1.20799 33.2899 1.18682 33.4764 1.15659C 33.6402 1.12971 33.8795 1.08024 34.0533 0.943923L 33.436 0.157175C 33.4857 0.11818 33.4856 0.141707 33.3144 0.16979C 33.1661 0.194518 32.979 0.210281 32.7351 0.222356C 32.2412 0.247108 31.5961 0.248678 30.8685 0.252156C 29.4136 0.259112 27.6382 0.274769 26.2222 0.501848L 26.3816 1.48907Z"/><path id="path14_fill" d="M 71.8104 0.072181C 71.8104 -0.591511 56.2634 3.51984 52.294 4.29863C 48.3245 5.07743 1.46303 16.2556 0.0296225 16.6449C -1.40379 17.0342 49.6478 5.63356 52.4044 5.18865C 55.1609 4.74374 71.8104 0.735873 71.8104 0.072181Z"/><path id="path15_stroke" d="M 72.3104 0.072181C 72.3104 -0.261409 72.0447 -0.403686 71.9492 -0.441365C 71.8435 -0.483131 71.7347 -0.493645 71.6615 -0.497566C 71.5178 -0.504434 71.3065 -0.491938 71.0767 -0.46535C 70.6296 -0.413055 69.9866 -0.3005 69.2209 -0.147217C 67.6944 0.158517 65.6182 0.636515 63.425 1.15804C 59.0392 2.20097 54.1697 3.42125 52.1977 3.80799L 52.3902 4.78928C 54.3876 4.39723 59.2764 3.17243 63.6564 2.13091C 65.8461 1.61021 67.9048 1.13614 69.4173 0.833318C 70.1712 0.682326 70.7738 0.576485 71.1924 0.527933C 71.3955 0.504098 71.5221 0.495557 71.608 0.501C 71.6497 0.503234 71.6287 0.507211 71.582 0.488768C 71.5457 0.474413 71.3104 0.36429 71.3104 0.072181L 72.3104 0.072181ZM 52.1977 3.80799C 48.2184 4.58883 1.33949 15.7711 -0.101423 16.1624L 0.160668 17.1274C 1.58658 16.7401 48.4307 5.56603 52.3902 4.78928L 52.1977 3.80799ZM -0.101423 16.1624C -0.116823 16.1666 -0.138365 16.1729 -0.152504 16.1775C -0.165917 16.1821 -0.206721 16.1987 -0.235057 16.2128C -0.274986 16.2366 -0.422015 16.3861 -0.486141 16.5374C -0.460338 16.8497 -0.1658 17.1262 -0.0712641 17.1494C -0.038736 17.1531 0.0096963 17.1546 0.0259757 17.154C 0.0357942 17.1535 0.0517015 17.1522 0.0587306 17.1515C 0.0682335 17.1504 0.082732 17.1484 0.0907592 17.1472C 0.103132 17.1453 0.12115 17.1421 0.137401 17.1391C 0.196307 17.1281 0.304844 17.106 0.454224 17.0746C 0.751326 17.0121 1.22934 16.909 1.8619 16.7712C 3.12655 16.4957 5.01459 16.0804 7.32854 15.5699C 11.9563 14.5488 18.2896 13.1463 24.7536 11.7178C 37.6817 8.86075 51.1197 5.90226 52.484 5.68226L 52.3247 4.69504C 50.9325 4.91995 37.4664 7.88422 24.5379 10.7414C 18.0736 12.17 11.7405 13.5724 7.11309 14.5934C 4.79945 15.1039 2.91273 15.5189 1.64908 15.7941C 1.0175 15.9317 0.542991 16.034 0.2484 16.096C 0.101935 16.1268 0.00483229 16.1466 -0.045542 16.156C -0.0566107 16.158 -0.0655038 16.1595 -0.0626972 16.159C -0.0631348 16.1591 -0.0438517 16.1567 -0.0488364 16.1573C -0.0440664 16.1568 -0.0300328 16.1557 -0.0217012 16.1552C -0.00690858 16.1547 0.0404238 16.1562 0.0722404 16.1598C 0.166065 16.1829 0.46028 16.4592 0.486149 16.7712C 0.42209 16.9222 0.275518 17.0714 0.236437 17.0947C 0.21922 17.1034 0.191804 17.1157 0.182478 17.1194C 0.176867 17.1216 0.166953 17.1251 0.163682 17.1262C 0.168142 17.1248 0.153671 17.1293 0.160668 17.1274L -0.101423 16.1624ZM 52.484 5.68226C 53.8784 5.45694 58.7514 4.33906 63.2637 3.19718C 65.5202 2.62614 67.6973 2.04638 69.3081 1.5684C 70.1155 1.32873 70.7939 1.11031 71.2662 0.932084C 71.5068 0.841087 71.7172 0.750433 71.8595 0.674518C 71.9376 0.632066 72.0293 0.572234 72.0878 0.523693C 72.1272 0.489977 72.3104 0.334736 72.3104 0.072181L 71.3104 0.072181C 71.3104 -0.0493173 71.3574 -0.134419 71.3827 -0.172322C 71.4088 -0.21128 71.4329 -0.232006 71.4372 -0.235716C 71.4419 -0.241298 71.4304 -0.229733 71.3859 -0.206264C 71.2829 -0.150338 71.133 -0.0863968 70.9129 -0.00341731C 70.464 0.166305 69.8201 0.373367 69.0236 0.609724C 67.4264 1.08378 65.2689 1.65824 63.0184 2.22774C 58.5169 3.36695 53.6868 4.47546 52.3247 4.69504L 52.484 5.68226Z"/><path id="path16_fill" d="M 93.9416 0.101967C 93.9416 -0.561725 63.0132 2.19895 55.9013 3.06112C 48.7893 3.9233 1.46117 12.0589 0.0277562 12.4482C -1.40565 12.8375 53.1447 4.47909 55.9013 4.03418C 58.6578 3.58927 93.9416 0.765659 93.9416 0.101967Z"/><path id="path17_stroke" d="M 94.4416 0.101967C 94.4416 -0.18328 94.2314 -0.323232 94.1717 -0.358155C 94.1152 -0.388692 94.0247 -0.422475 93.9703 -0.436356C 93.8842 -0.456377 93.7555 -0.473236 93.6275 -0.482418C 93.3847 -0.499254 93.0275 -0.503622 92.5908 -0.496734C 91.7237 -0.482905 90.4769 -0.425688 88.9682 -0.336023C 85.9535 -0.156812 81.8594 0.153422 77.5471 0.511055C 68.9229 1.22629 59.4034 2.13294 55.8411 2.56476L 55.9614 3.55749C 59.511 3.12713 69.0117 2.22235 77.6297 1.50763C 81.9385 1.15029 86.021 0.840911 89.0276 0.662216C 90.5295 0.572928 91.7546 0.516618 92.6067 0.50314C 93.0296 0.496375 93.3438 0.499908 93.5575 0.515126C 93.6578 0.521973 93.7036 0.527179 93.735 0.535587C 93.7477 0.53864 93.7143 0.532803 93.6665 0.504843C 93.6367 0.487357 93.4416 0.366473 93.4416 0.101967L 94.4416 0.101967ZM 55.8411 2.56476C 52.2744 2.99726 38.6527 5.24853 25.7514 7.43905C 19.3007 8.53433 13.0268 9.61493 8.27643 10.446C 3.54963 11.2729 0.284446 11.8604 -0.10329 11.9657L 0.158802 12.9307C 0.487771 12.8414 3.67613 12.266 8.44876 11.431C 13.1978 10.6002 19.4692 9.52002 25.9188 8.42494C 38.8179 6.23479 52.4162 3.98716 55.9614 3.55749L 55.8411 2.56476ZM -0.10329 11.9657C -0.125679 11.9719 -0.170516 11.987 -0.200331 11.9996C -0.214082 12.0059 -0.245746 12.0226 -0.264293 12.0337C -0.293081 12.0532 -0.364575 12.1163 -0.403687 12.1637C -0.460486 12.2638 -0.494578 12.5329 -0.446378 12.6844C -0.382422 12.7815 -0.24608 12.8948 -0.190141 12.9221C -0.108749 12.9558 -0.0360342 12.9593 -0.0307212 12.9597C -0.0147692 12.9607 0.0102839 12.9614 0.0229671 12.9614C 0.0416404 12.9611 0.0691363 12.9598 0.0900132 12.9583C 0.16078 12.9531 0.286285 12.9393 0.45039 12.9189C 0.774805 12.8786 1.29281 12.808 1.97393 12.7118C 3.33497 12.5194 5.36076 12.2229 7.83907 11.8549C 12.7953 11.119 19.5666 10.0967 26.4684 9.04836C 40.2718 6.95174 54.6008 4.75055 55.9809 4.52779L 55.8216 3.54057C 54.4452 3.76273 40.1208 5.9632 26.3182 8.0597C 19.4169 9.10794 12.6472 10.13 7.6922 10.8657C 5.2149 11.2336 3.19258 11.5296 1.834 11.7216C 1.15531 11.8175 0.645617 11.887 0.327088 11.9266C 0.169721 11.9461 0.06994 11.9572 0.0181865 11.9609C 0.00843335 11.9616 0.0137054 11.9613 0.0127137 11.9614C 0.00887135 11.9614 0.0551734 11.9632 0.0447866 11.9626C 0.0533211 11.9633 0.0759659 11.966 0.0888539 11.9681C 0.108476 11.9719 0.160943 11.9864 0.192456 11.9982C 0.247264 12.025 0.382888 12.1378 0.446542 12.2342C 0.49444 12.3851 0.460462 12.6535 0.404196 12.753C 0.365615 12.7996 0.29507 12.8619 0.26765 12.8805C 0.250471 12.8908 0.220594 12.9065 0.209051 12.9119C 0.174102 12.9276 0.147935 12.9337 0.158802 12.9307L -0.10329 11.9657ZM 55.9809 4.52779C 57.3368 4.30896 66.8119 3.49467 76.001 2.64801C 80.5846 2.2257 85.0853 1.79621 88.4396 1.43087C 90.1177 1.24807 91.5158 1.08047 92.4923 0.937992C 92.9831 0.866322 93.3814 0.798595 93.6525 0.738838C 93.7933 0.70759 93.9258 0.671423 94.0143 0.639107C 94.0674 0.618947 94.1457 0.580989 94.195 0.549599C 94.2222 0.531288 94.4416 0.389167 94.4416 0.101967L 93.4416 0.101967C 93.4416 -0.0380026 93.5008 -0.138453 93.5418 -0.190785C 93.5815 -0.241365 93.6211 -0.269617 93.6371 -0.280315C 93.6686 -0.301547 93.6864 -0.305822 93.6662 -0.298352C 93.6211 -0.281027 93.5551 -0.263611 93.4368 -0.237612C 93.1898 -0.182875 92.8272 -0.12145 92.3479 -0.051525C 91.3841 0.0891845 90.0041 0.254546 88.3313 0.436746C 84.9837 0.801392 80.4912 1.23006 75.9093 1.65223C 66.7674 2.49453 57.2223 3.3145 55.8216 3.54057L 55.9809 4.52779Z"/></defs></svg>
