<svg id="develop" width="361" height="301" viewBox="0 0 361 301" version="1.1" xmlns="http://www.w3.org/2000/svg" xmlns:xlink="http://www.w3.org/1999/xlink" xmlns:figma="http://www.figma.com/figma/ns"><title>Group</title><desc>Created using Figma</desc><g id="Canvas" transform="translate(-1401 -11174)" figma:type="canvas"><g id="Group" style="mix-blend-mode:normal;" figma:type="frame"><g id="noun_581611_cc-modified" style="mix-blend-mode:normal;" figma:type="frame"><g id="Group" style="mix-blend-mode:normal;" figma:type="frame"><g id="Vector" style="mix-blend-mode:normal;" figma:type="vector"><use xlink:href="#path0_fill" transform="translate(1401 11284.2)" style="mix-blend-mode:normal;"/></g><g id="Vector" style="mix-blend-mode:normal;" figma:type="vector"><use xlink:href="#path1_fill" transform="translate(1497.85 11380.1)" style="mix-blend-mode:normal;"/></g><g id="Vector" style="mix-blend-mode:normal;" figma:type="vector"><use xlink:href="#path2_fill" transform="translate(1423.36 11174)" fill="#C4C4C4" style="mix-blend-mode:normal;"/></g></g></g><g id="Rectangle 15" style="mix-blend-mode:normal;" figma:type="rounded-rectangle"><use xlink:href="#path3_fill" transform="translate(1404.94 11310.1)" fill="#C4C4C4" style="mix-blend-mode:normal;"/></g><g id="noun_213178_cc" style="mix-blend-mode:normal;" figma:type="frame"><g id="Vector" style="mix-blend-mode:normal;" figma:type="vector"><use xlink:href="#path4_fill" transform="translate(1539.03 11303.1)" style="mix-blend-mode:normal;"/></g><g id="Vector" style="mix-blend-mode:normal;" figma:type="vector"><use xlink:href="#path5_fill" transform="matrix(0.703498 0.710684 -0.703498 0.710684 1550.54 11299.1)" style="mix-blend-mode:normal;"/></g><g id="Vector" style="mix-blend-mode:normal;" figma:type="vector"><use xlink:href="#path6_fill" transform="translate(1526.22 11212.7)" style="mix-blend-mode:normal;"/></g><g id="Vector" style="mix-blend-mode:normal;" figma:type="vector"><use xlink:href="#path7_fill" transform="matrix(0.703699 0.710485 -0.703297 0.710883 1586.46 11339.4)" style="mix-blend-mode:normal;"/></g><g id="Vector" style="mix-blend-mode:normal;" figma:type="vector"><use xlink:href="#path8_fill" transform="matrix(0.703498 0.710684 -0.703498 0.710684 1525.54 11277.8)" style="mix-blend-mode:normal;"/></g><g id="Vector" style="mix-blend-mode:normal;" figma:type="vector"><use xlink:href="#path9_fill" transform="translate(1607.08 11316.6)" style="mix-blend-mode:normal;"/></g><g id="Vector" style="mix-blend-mode:normal;" figma:type="vector"><use xlink:href="#path10_fill" transform="translate(1546.2 11255.1)" style="mix-blend-mode:normal;"/></g><g id="Vector" style="mix-blend-mode:normal;" figma:type="vector"><use xlink:href="#path11_fill" transform="translate(1635.59 11206.1)" style="mix-blend-mode:normal;"/></g></g><g id="noun_213178_cc" style="mix-blend-mode:normal;" figma:type="frame"><g id="Vector" style="mix-blend-mode:normal;" figma:type="vector"><use xlink:href="#path12_fill" transform="translate(1433.69 11381.2)" style="mix-blend-mode:normal;"/></g><g id="Vector" style="mix-blend-mode:normal;" figma:type="vector"><use xlink:href="#path13_fill" transform="matrix(0.703498 0.710684 -0.703498 0.710684 1436.59 11380.2)" style="mix-blend-mode:normal;"/></g><g id="Vector" style="mix-blend-mode:normal;" figma:type="vector"><use xlink:href="#path14_fill" transform="translate(1430.46 11358.4)" style="mix-blend-mode:normal;"/></g><g id="Vector" style="mix-blend-mode:normal;" figma:type="vector"><use xlink:href="#path15_fill" transform="matrix(0.703699 0.710485 -0.703297 0.710883 1445.63 11390.3)" style="mix-blend-mode:normal;"/></g><g id="Vector" style="mix-blend-mode:normal;" figma:type="vector"><use xlink:href="#path16_fill" transform="matrix(0.703498 0.710684 -0.703498 0.710684 1430.29 11374.8)" style="mix-blend-mode:normal;"/></g><g id="Vector" style="mix-blend-mode:normal;" figma:type="vector"><use xlink:href="#path17_fill" transform="translate(1450.82 11384.6)" style="mix-blend-mode:normal;"/></g><g id="Vector" style="mix-blend-mode:normal;" figma:type="vector"><use xlink:href="#path18_fill" transform="translate(1435.49 11369.1)" style="mix-blend-mode:normal;"/></g><g id="Vector" style="mix-blend-mode:normal;" figma:type="vector"><use xlink:href="#path19_fill" transform="translate(1458 11356.8)" style="mix-blend-mode:normal;"/></g></g></g></g><defs><path id="path0_fill" d="M 84.0475 -6.6682e-06L 8.34348 -6.6682e-06C 3.7376 -6.6682e-06 -3.02642e-07 3.777 -3.02642e-07 8.43246L -3.02642e-07 171.467C -3.02642e-07 176.123 3.7376 179.9 8.34348 179.9L 84.0475 179.9C 88.6534 179.9 92.391 176.123 92.391 171.467L 92.391 8.42801C 92.391 3.77254 88.6534 -6.6682e-06 84.0475 -6.6682e-06ZM 28.5653 13.0255L 63.8257 13.0255C 65.0377 13.0255 66.0294 14.0244 66.0294 15.2551C 66.0294 16.4859 65.0377 17.4848 63.8257 17.4848L 28.5653 17.4848C 27.3444 17.4848 26.3615 16.4859 26.3615 15.2551C 26.3615 14.0244 27.3444 13.0255 28.5653 13.0255ZM 46.1955 170.598C 42.9515 170.598 40.3158 167.931 40.3158 164.649C 40.3158 161.363 42.9515 158.696 46.1955 158.696C 49.4394 158.696 52.0751 161.363 52.0751 164.649C 52.0751 167.931 49.4438 170.598 46.1955 170.598ZM 88.2479 154.05L 4.1431 154.05L 4.1431 25.8459L 88.2479 25.8459L 88.2479 154.05Z"/><path id="path1_fill" d="M -4.03523e-07 37.6228L 67.9071 37.6228L 65.1215 67.8967C 65.0818 68.6369 63.7772 85.9344 34.2643 85.9344C 31.8269 85.9344 29.8567 87.9277 29.8567 90.3936C 29.8567 92.8596 31.8269 94.8529 34.2643 94.8529L 155.384 94.8529C 157.821 94.8529 159.791 92.8596 159.791 90.3936C 159.791 87.9277 157.821 85.9344 155.384 85.9344C 125.866 85.9344 124.566 68.6369 124.513 67.6826L 121.741 37.6228L 250.922 37.6228C 258.212 37.6228 264.144 31.6206 264.144 24.245L 264.144 4.08257e-07L -4.03523e-07 4.08257e-07L -4.03523e-07 37.6228Z"/><path id="path2_fill" d="M 325.422 0L 13.2226 0C 5.93255 0 1.91673e-06 6.00216 1.91673e-06 13.3778L 1.91673e-06 105.582L 61.2737 105.582C 68.5638 105.582 74.4963 111.584 74.4963 118.96L 74.4963 201.692L 338.645 201.692L 338.645 13.3778C 338.645 6.00216 332.712 0 325.422 0Z"/><path id="path3_fill" d="M 0 0L 84.7094 0L 84.7094 129.853L 0 129.853L 0 0Z"/><path id="path4_fill" d="M 26.0667 18.7155L 7.54039 3.11569e-06C 3.57088 4.01195 0.570815 12.5974 -1.68488e-06 16.8778C 2.61453 14.1269 5.18414 10.6443 6.61211 12.0888C 8.9796 14.4804 4.18474 20.1883 1.00688 25.0284C 5.92339 21.9447 11.7158 17.4752 13.8849 19.6665C 15.4158 21.213 12.5149 24.5897 8.89164 26.1287C 14.3378 26.0172 22.0971 22.7256 26.0667 18.7155Z"/><path id="path5_fill" d="M 26.3356 -4.36293e-06L 0 -4.36293e-06L 0 3.76222L 26.3356 3.76222L 26.3356 -4.36293e-06Z"/><path id="path6_fill" d="M 77.8089 119.725C 80.5563 116.528 82.4072 113.781 83.6724 111.476C 82.5925 109.419 80.9343 107.742 78.8962 106.649C 77.092 107.659 75.0184 109.037 72.6621 110.943C 71.1462 104.742 72.7819 97.7577 75.7184 91.5961C 84.6998 85.1622 93.934 76.0871 103.93 63.6996C 116.454 46.8804 123.914 32.7743 128.366 21.4456C 123.285 12.5293 115.966 5.1331 107.138 2.8849e-08C 95.9253 4.49784 81.958 12.0321 65.3089 24.6843C 53.0485 34.7822 44.067 44.1087 37.6982 53.1838C 31.5952 56.1484 24.6836 57.7989 18.545 56.2713C 20.4315 53.8891 21.794 51.7961 22.7952 49.9716C 21.7135 47.9146 20.0516 46.2376 18.0172 45.1486C 15.734 46.4267 13.0165 48.2965 9.85173 51.072C 4.16416 56.4528 1.27077 60.5403 -1.28508e-07 64.4842L 3.64012 68.1615C 4.56279 67.8609 5.4892 67.4941 6.43994 66.995L 27.3618 74.0396C 26.338 77.5429 25.6325 81.0614 25.2357 84.6347L 44.5854 104.184C 48.1226 103.783 51.6074 103.07 55.0735 102.036L 62.0487 123.174C 61.5527 124.134 61.1915 125.072 60.8921 126.002L 64.5322 129.679C 68.4344 128.394 72.4825 125.471 77.8089 119.725ZM 85.5289 43.2693C 81.1439 38.8395 81.1439 31.657 85.5308 27.2291C 89.9158 22.7993 97.0257 22.7974 101.409 27.2272C 105.794 31.657 105.796 38.8414 101.411 43.2712C 97.0257 47.701 89.9139 47.6991 85.5289 43.2693Z"/><path id="path7_fill" d="M 5.17304 0L 0 0L 0 1.88112L 5.17304 1.88112L 5.17304 0Z"/><path id="path8_fill" d="M 5.17306 0L 0 0L 0 1.88111L 5.17306 1.88111L 5.17306 0Z"/><path id="path9_fill" d="M 3.81605 5.56228C 4.99512 2.98722 5.36193 1.12493 5.49855 -3.34648e-06C 4.38686 0.141795 2.54715 0.518034 -1.02806e-06 1.70536C 1.52155 2.71685 2.81478 4.02518 3.81605 5.56228Z"/><path id="path10_fill" d="M 3.81792 5.55471C 4.99324 2.98533 5.36567 1.12304 5.50604 -2.07712e-06C 4.39061 0.139906 2.5509 0.510475 2.28458e-07 1.70158C 1.51968 2.71497 2.81665 4.01951 3.81792 5.55471Z"/><path id="path11_fill" d="M 19.8551 25.8016C 24.2906 13.8244 25.2975 5.18226 25.5408 2.8849e-08C 20.4109 0.245784 11.8561 1.26295 -2.96996e-06 5.74378C 8.10372 10.737 14.9086 17.6132 19.8551 25.8016Z"/><path id="path12_fill" d="M 6.56355 4.71254L 1.89866 7.84526e-07C 0.899142 1.0102 0.14373 3.172 -4.2425e-07 4.2498C 0.658334 3.55713 1.30536 2.68023 1.66492 3.04394C 2.26105 3.64616 1.05371 5.08339 0.253531 6.30211C 1.4915 5.52565 2.95002 4.40024 3.49619 4.95199C 3.88167 5.34141 3.15124 6.19166 2.2389 6.57917C 3.61023 6.55109 5.56403 5.72226 6.56355 4.71254Z"/><path id="path13_fill" d="M 6.63126 0L 0 0L 0 0.947321L 6.63126 0.947321L 6.63126 0Z"/><path id="path14_fill" d="M 19.5922 30.1466C 20.284 29.3416 20.75 28.6499 21.0686 28.0696C 20.7967 27.5516 20.3791 27.1293 19.866 26.8542C 19.4117 27.1084 18.8895 27.4554 18.2962 27.9353C 17.9145 26.3738 18.3264 24.6152 19.0658 23.0638C 21.3273 21.4437 23.6524 19.1586 26.1694 16.0395C 29.323 11.8044 31.2014 8.25253 32.3225 5.39997C 31.043 3.15486 29.2 1.29251 26.9771 7.26413e-09C 24.1538 1.13255 20.6369 3.02966 16.4447 6.21546C 13.3575 8.75811 11.096 11.1065 9.49236 13.3916C 7.95562 14.1381 6.2153 14.5537 4.6696 14.169C 5.14462 13.5692 5.48769 13.0422 5.73981 12.5828C 5.46743 12.0648 5.04896 11.6426 4.53671 11.3684C 3.96179 11.6902 3.27753 12.161 2.48065 12.8599C 1.04853 14.2147 0.319978 15.244 -3.23581e-08 16.237L 0.916578 17.163C 1.1489 17.0873 1.38217 16.9949 1.62157 16.8692L 6.88965 18.6431C 6.63188 19.5252 6.45422 20.4111 6.35432 21.3109L 11.2266 26.2334C 12.1172 26.1325 12.9947 25.953 13.8674 25.6926L 15.6238 31.0149C 15.4989 31.2568 15.4079 31.4929 15.3325 31.7271L 16.2491 32.6531C 17.2317 32.3293 18.251 31.5934 19.5922 30.1466ZM 21.5361 10.8951C 20.4319 9.77973 20.4319 7.97118 21.5365 6.85624C 22.6407 5.74083 24.4309 5.74035 25.5346 6.85576C 26.6387 7.97118 26.6392 9.78021 25.5351 10.8956C 24.4309 12.011 22.6402 12.0106 21.5361 10.8951Z"/><path id="path15_fill" d="M 1.30256 0L 0 0L 0 0.473663L 1.30256 0.473663L 1.30256 0Z"/><path id="path16_fill" d="M 1.30257 0L 0 0L 0 0.473662L 1.30257 0.473662L 1.30257 0Z"/><path id="path17_fill" d="M 0.960876 1.40057C 1.25776 0.752177 1.35013 0.283256 1.38453 -8.42639e-07C 1.10461 0.0357038 0.641369 0.13044 -2.58865e-07 0.429407C 0.383125 0.6841 0.708758 1.01354 0.960876 1.40057Z"/><path id="path18_fill" d="M 0.961347 1.39867C 1.25729 0.751701 1.35107 0.28278 1.38641 -5.23017e-07C 1.10555 0.035228 0.642312 0.128537 5.75255e-08 0.428456C 0.382654 0.683625 0.709229 1.01211 0.961347 1.39867Z"/><path id="path19_fill" d="M 4.99947 6.49681C 6.11633 3.48096 6.36987 1.30489 6.43113 7.26413e-09C 5.13944 0.061888 2.98536 0.318009 -7.47831e-07 1.44628C 2.04051 2.70355 3.75396 4.43499 4.99947 6.49681Z"/></defs></svg>
