<svg id="digital" width="136" height="164" viewBox="0 0 136 164" version="1.1" xmlns="http://www.w3.org/2000/svg" xmlns:xlink="http://www.w3.org/1999/xlink" xmlns:figma="http://www.figma.com/figma/ns"><title>New Mobile Phone</title><desc>Created using Figma</desc><g id="Canvas" transform="translate(-1506 -2327)" figma:type="canvas"><g id="New Mobile Phone" style="mix-blend-mode:normal;" figma:type="frame"><g id="Group" style="mix-blend-mode:normal;" figma:type="frame"><g id="Hand" style="mix-blend-mode:normal;" figma:type="frame"><g id="Union" style="mix-blend-mode:normal;" figma:type="vector"><use xlink:href="#path0_fill" transform="translate(1506.74 2360.35)" fill="#333D47" style="mix-blend-mode:normal;"/><use xlink:href="#path1_fill" transform="translate(1506.74 2360.35)" fill="#333D47" style="mix-blend-mode:normal;"/></g></g><g id="Group" style="mix-blend-mode:normal;" figma:type="frame"><g id="noun_526203_cc" style="mix-blend-mode:normal;" figma:type="frame"><g id="Group" style="mix-blend-mode:normal;" figma:type="frame"><g id="Vector" style="mix-blend-mode:normal;" figma:type="vector"><use xlink:href="#path2_fill" transform="matrix(0.999997 -3.41805e-09 0.000511121 1 1583.36 2327.42)" fill="#333D47" style="mix-blend-mode:normal;"/></g><g id="Vector" style="mix-blend-mode:normal;" figma:type="vector"><use xlink:href="#path3_fill" transform="matrix(0.999997 2.01773e-09 0.000511121 1 1588.59 2338.04)" fill="#333D47" style="mix-blend-mode:normal;"/></g><g id="Vector" style="mix-blend-mode:normal;" figma:type="vector"><use xlink:href="#path4_fill" transform="matrix(0.999997 2.01773e-09 0.000511121 1 1609.07 2426.41)" fill="#333D47" style="mix-blend-mode:normal;"/></g></g></g></g></g></g></g><defs><path id="path0_fill" fill-rule="evenodd" d="M 99.1486 2.54016C 100.124 2.20508 100.961 2.06795 101.687 2.06795C 102.835 2.06574 103.694 2.41962 104.333 2.79008L 104.334 2.78786C 105.035 3.20146 107.634 5.23182 107.668 8.67435C 107.668 9.5878 107.473 10.5886 107 11.6491C 104.891 16.4729 102.194 17.561 100.513 17.9724C 100.39 18.0012 100.281 18.0111 100.173 18.0111C 98.8582 17.9591 96.8053 16.6863 94.8036 15.1989C 92.852 13.6419 91.0962 12.1401 90.9782 10.6937C 90.9782 10.6439 90.9804 10.5853 90.9893 10.52C 91.2252 9.28147 92.5972 7.69235 94.2372 6.07116C 95.8918 4.48204 97.7566 3.02673 99.1486 2.54016ZM 92.0909 10.6937C 91.9729 11.0719 93.5852 12.9518 95.4801 14.322C 97.3227 15.7596 99.5903 16.9572 100.174 16.9053C 100.216 16.9053 100.236 16.9008 100.236 16.9008C 101.748 16.485 103.92 15.7773 105.983 11.2012C 106.397 10.2701 106.556 9.43076 106.556 8.67435C 106.59 5.87763 104.227 3.98551 103.781 3.74775L 104.055 3.26891L 103.778 3.74775C 103.228 3.4359 102.609 3.17602 101.685 3.1716C 101.104 3.1716 100.391 3.28218 99.5091 3.58298C 98.4665 3.9269 96.575 5.33688 95.0116 6.86074C 93.4361 8.35034 92.1298 10.1109 92.0887 10.6793C 92.0909 10.6715 92.0909 10.6937 92.0909 10.6937Z"/><path id="path1_fill" fill-rule="evenodd" d="M 0.170688 103.158C 0.192934 103.139 13.5183 90.4449 20.9031 81.8181C 27.0707 74.7373 28.4994 49.1211 28.4582 34.7229C 28.4616 32.4028 28.4271 30.3702 28.3736 28.7457C 28.3727 28.6452 28.3711 28.5462 28.3695 28.448L 28.3694 28.4472L 28.3694 28.4461C 28.3671 28.304 28.3647 28.1638 28.3647 28.0236C 28.3409 18.1144 35.1222 15.7522 39.9081 14.085C 40.6934 13.8115 41.425 13.5566 42.064 13.2902C 46.9108 11.2532 69.6806 2.05137 75.1249 0.370469C 75.9661 0.110591 76.7928 -0.00109546 77.585 8.09383e-06C 77.8623 0.00152329 78.1353 0.0159133 78.4036 0.0416628C 78.4063 0.0276495 78.4066 0.0276933 78.4066 0.0276933L 78.4082 0.0280085L 78.4145 0.029226L 78.4391 0.0339905L 78.5352 0.0527509L 78.5648 0.0585577C 79.1515 0.125182 79.7148 0.245373 80.2499 0.402743L 80.3168 0.416809L 80.573 0.470924L 80.573 1.67391C 80.2507 1.55395 79.9167 1.44789 79.5731 1.36082C 79.2541 1.29472 78.9861 1.24019 78.7738 1.19745C 78.3858 1.13739 77.9883 1.10431 77.5839 1.10476C 76.8952 1.10476 76.183 1.19987 75.4542 1.42435C 70.1435 3.05881 47.2958 12.2883 42.4957 14.3065C 41.7392 14.6276 40.9076 14.9203 40.0418 15.2251C 35.2865 16.899 29.5006 18.9357 29.4752 28.0225C 29.4752 28.149 29.4774 28.2804 29.4797 28.4159L 29.4798 28.4177C 29.4814 28.516 29.4832 28.6168 29.4841 28.7192C 29.5375 30.3492 29.5698 32.3928 29.5698 34.7218C 29.5308 49.2572 28.3681 74.6864 21.7477 82.5335C 14.9437 90.4814 3.2183 101.773 1.23107 103.679C 1.68837 104.629 3.02025 107.351 4.63919 110.345C 6.63645 114.055 9.12103 118.209 10.7689 119.743C 12.4079 121.301 16.9632 123.817 21.0456 125.874C 24.3858 127.561 27.429 128.972 28.4371 129.435C 30.5289 127.335 43.9355 113.949 51.1323 110.612C 58.595 107.169 65.3234 100.326 68.0739 88.8679L 68.1729 88.66C 68.1796 88.6534 70.8422 85.1832 73.7007 80.4623C 76.5602 75.7491 79.5878 69.7852 80.3033 64.9548C 80.4106 64.2419 80.5157 63.5304 80.6204 62.8213L 80.6206 62.8205C 81.9755 53.6489 83.2672 44.9048 88.4147 39.2315C 90.4859 36.9639 92.5998 34.9974 94.5918 33.1444C 97.8271 30.1347 100.741 27.4243 102.627 24.2095L 102.822 23.8819L 102.846 23.8412L 102.854 23.8278L 102.865 23.8086C 105.209 19.8668 109.052 13.4045 109.029 8.47309C 109.025 6.58429 108.501 4.96642 107.172 3.69025C 105.518 2.10998 103.797 1.6035 102.166 1.59797C 100.479 1.59576 98.8883 2.17191 97.7255 2.75581C 96.7033 3.26718 96.0328 3.77257 95.8827 3.88577L 95.8819 3.88635C 95.8621 3.90124 95.8507 3.90921 95.8507 3.90921L 95.8484 3.91088C 95.7476 3.98369 92.6101 6.25145 88.8097 9.71387C 84.962 13.2161 80.4513 17.9381 77.8187 22.7287C 72.3899 32.5886 66.5462 36.5663 62.8721 37.9099C 60.412 38.8035 55.6086 39.3166 51.7387 39.321C 49.7259 39.3188 48.0068 39.1861 46.9264 38.8367C 46.6337 38.7405 46.478 38.4275 46.5759 38.1378C 46.6716 37.848 46.9865 37.6921 47.2758 37.7883C 48.1014 38.0648 49.7971 38.2196 51.7398 38.2152C 55.4918 38.2218 60.3096 37.6766 62.4871 36.8727C 62.8643 36.7344 63.2749 36.5586 63.7055 36.3529C 59.9847 35.4516 49.125 32.2778 44.7622 24.5733C 44.6109 24.3046 44.7099 23.9684 44.977 23.8213C 45.244 23.6731 45.5823 23.7693 45.7325 24.037C 48.1514 28.3719 53.0038 31.2881 57.2809 33.0807C 61.2179 34.7381 64.6068 35.437 65.1156 35.542L 65.1198 35.5428C 65.1478 35.5486 65.1664 35.5525 65.1754 35.5545L 65.2657 35.4996C 65.3476 35.4499 65.4295 35.4002 65.5125 35.3477C 64.5979 34.9661 63.2771 34.2385 62.8087 32.9845C 62.7175 32.6947 62.8788 32.384 63.1714 32.2933C 63.463 32.2004 63.7756 32.3619 63.8691 32.6516C 64.0059 33.1481 64.7025 33.7121 65.4157 34.0759C 65.9242 34.3436 66.3982 34.5128 66.6241 34.5902L 66.6836 34.547C 66.7388 34.507 66.7944 34.4668 66.8499 34.4254C 65.8674 33.815 64.1027 32.4525 63.7278 30.2408C 63.6799 29.9389 63.8902 29.658 64.1929 29.6105C 64.4955 29.5651 64.7792 29.7719 64.8271 30.0749C 65.0007 31.2272 65.7718 32.1705 66.5362 32.823C 67.0458 33.2609 67.5242 33.5462 67.7868 33.6922L 67.804 33.6781C 67.9139 33.5878 68.0229 33.4982 68.134 33.4036C 67.2583 32.6737 65.3478 30.7053 65.3389 27.3844C 65.3389 27.1466 65.3478 26.9033 65.3656 26.6589C 65.3912 26.3548 65.6583 26.1259 65.9631 26.1513C 66.2713 26.1735 66.4994 26.44 66.4761 26.7452C 66.4572 26.9653 66.4494 27.1809 66.4494 27.3844C 66.4516 29.2234 67.1359 30.5693 67.8246 31.4794C 68.1673 31.9306 68.5134 32.2679 68.7693 32.4901C 68.8402 32.5525 68.8915 32.5919 68.9408 32.6298L 68.9452 32.6332L 68.9763 32.6571C 71.4653 30.3536 74.1936 27.0062 76.8406 22.1979C 77.2657 21.4282 77.7386 20.6641 78.2426 19.9066L 75.0014 19.3205C 74.9958 19.3198 74.9908 19.3171 74.986 19.3145C 74.9823 19.3124 74.9786 19.3104 74.9747 19.3094C 74.7712 19.4655 74.5598 19.63 74.3407 19.8004C 71.9902 21.6293 68.7558 24.1458 64.9228 24.3057C 64.916 24.3045 64.8861 24.3016 64.8353 24.2968L 64.8334 24.2966L 64.8309 24.2963C 64.0781 24.2246 58.9507 23.736 55.9735 21.8208C 55.7187 21.6527 55.6475 21.3099 55.8133 21.0556C 55.9824 20.8001 56.3274 20.7293 56.5833 20.8952C 57.9508 21.791 60.0626 22.3925 61.8117 22.7398C 63.4023 23.0571 64.6873 23.1775 64.9123 23.1986C 64.935 23.2007 64.9473 23.202 64.9473 23.202C 68.2408 23.0957 71.2141 20.809 73.582 18.9879C 74.5379 18.2527 75.3954 17.5932 76.1352 17.1839C 76.2565 17.1187 76.3978 17.0999 76.5324 17.1342C 76.9819 17.2459 77.4292 17.289 77.8543 17.289C 78.5853 17.289 79.2384 17.1574 79.7113 17.0258C 80.0544 16.9305 80.3027 16.8352 80.4189 16.7907C 80.4656 16.7727 80.4912 16.7629 80.4924 16.7648C 80.5048 16.7593 80.5177 16.7572 80.5307 16.7551C 80.5411 16.7534 80.5515 16.7517 80.5614 16.7482C 84.807 11.4667 90.1873 6.92145 93.0901 4.62625C 90.1622 3.81688 87.4046 3.12974 85.0738 2.58134C 84.7556 2.50647 84.4454 2.43423 84.1441 2.36464C 84.9931 2.97984 85.5432 3.51492 85.7037 3.67105L 85.7044 3.67173C 85.733 3.69956 85.7491 3.71516 85.752 3.7168C 85.9657 3.93576 85.9568 4.28742 85.7354 4.49864C 85.5128 4.71096 85.1612 4.70433 84.9476 4.48205C 84.9266 4.46039 84.1249 3.63369 82.7968 2.7923C 82.7629 2.77073 82.7287 2.74918 82.6942 2.72765L 82.6942 0.932288C 83.4859 1.10869 84.3669 1.30957 85.3191 1.5336C 87.8586 2.13112 90.9141 2.89586 94.1466 3.80411C 94.6514 3.41799 94.9911 3.16809 95.1188 3.07414C 95.1552 3.04741 95.1753 3.03227 95.1753 3.03227C 95.1753 3.03227 95.1859 3.02467 95.2031 3.01154L 95.2038 3.01105C 95.5237 2.76745 98.4881 0.510103 102.164 0.495433C 104.037 0.488794 106.093 1.11693 107.942 2.89736C 109.524 4.40685 110.145 6.38855 110.14 8.47531C 110.138 8.77364 110.125 9.07508 110.102 9.37907C 111.854 10.1757 113.472 11.0113 114.882 11.8799C 116.8 13.064 118.387 14.3558 119.383 15.6814C 120.36 16.9886 120.834 18.4106 120.527 19.9032C 120.537 19.961 120.538 20.0213 120.529 20.0824L 120.527 20.0896L 120.527 20.0912C 120.481 20.3529 119.43 26.348 113.305 26.3924C 112.957 26.3924 112.599 26.3714 112.221 26.3316C 106.667 25.7145 104.497 24.7226 103.834 24.3411C 103.779 24.434 103.723 24.5294 103.668 24.6221L 103.664 24.6296L 103.66 24.636L 103.656 24.6425L 103.583 24.7679C 101.799 27.7792 99.2488 30.305 96.4426 32.9314L 96.444 32.9357C 96.7917 34.006 99.1609 41.2994 99.1742 45.4198C 99.1698 46.2769 99.083 47.0101 98.7714 47.6039C 98.0104 49.0183 95.4189 53.3433 92.7441 57.4151C 92.4114 57.9205 92.0776 58.4225 91.7471 58.9124L 91.7471 58.9677C 91.7471 59.2026 91.745 59.5467 91.7358 59.9674L 90.9242 59.9145L 90.8988 59.9675L 88.6699 59.9674C 89.4649 58.6297 90.103 57.166 90.0714 56.1975C 90.0536 55.5971 89.9123 55.3261 89.5162 55.1248L 89.7543 54.6239L 89.5151 55.1248C 89.3126 55.0275 89.1056 54.9844 88.8709 54.9844C 87.7716 54.9479 86.1181 56.1655 84.863 57.4715C 83.9673 58.3849 83.2463 59.3006 82.8991 59.7584C 82.9412 59.8208 82.9889 59.8909 83.0416 59.9675L 82.0836 59.9145L 82.0836 60.5314C 82.058 60.7017 82.0323 60.8722 82.0066 61.0429L 82.006 61.0471C 81.9624 61.3361 81.9187 61.6259 81.8755 61.917C 82.0591 62.1692 82.4863 62.7332 83.0416 63.296C 83.7793 64.0657 84.7673 64.7514 85.4282 64.7248C 85.5306 64.7248 85.6241 64.7138 85.7176 64.6883C 85.7743 64.6994 85.989 64.5335 86.2895 64.2438C 86.2116 64.2581 86.137 64.267 86.0636 64.267C 85.0239 64.179 84.2519 63.2757 83.47 62.3609C 83.3875 62.2644 83.3049 62.1677 83.2218 62.0719L 84.6674 62.0719C 85.2944 62.741 85.9506 63.2341 86.0625 63.1622L 86.0692 63.16C 86.0669 63.1667 86.1559 63.1257 86.305 62.9975C 86.5539 62.8085 86.8677 62.4843 87.2073 62.0719L 89.5321 62.0719C 89.3145 62.3675 89.1021 62.6504 88.8965 62.9178L 88.8423 62.9858C 87.6672 64.4602 86.8727 65.457 86.0091 65.7533C 85.821 65.803 85.6352 65.8285 85.4516 65.8285L 85.4282 65.8285C 83.8538 65.7555 82.4752 64.4096 81.6541 63.4254L 81.6347 63.5578L 81.6342 63.5615C 81.5584 64.0792 81.4826 64.5979 81.4048 65.1185C 81.1267 66.9564 80.547 68.916 79.787 70.8944C 81.979 70.3028 87.4533 68.7811 88.9832 67.9583C 89.5073 67.788 90.1538 65.8804 90.3585 63.8744C 90.4351 63.2685 90.4906 62.6554 90.531 62.0719L 91.6432 62.0719C 91.6011 62.6956 91.5422 63.3571 91.4601 64.0137C 91.1496 66.1016 90.8225 68.1275 89.5029 68.9359C 87.4646 70.0032 80.6285 71.8136 79.3515 72.1518L 79.264 72.175C 75.8907 80.1917 69.9424 88.1452 69.144 89.2128L 69.1265 89.2362C 66.2958 100.937 59.3194 108.068 51.5996 111.617C 47.9278 113.299 42.2109 118.037 37.4842 122.33C 32.9696 126.423 29.3231 130.112 28.9798 130.459L 28.9772 130.462L 28.9533 130.486C 28.8454 130.596 28.7019 130.654 28.5572 130.654C 28.4793 130.654 28.3992 130.637 28.3247 130.603C 28.3221 130.601 28.2385 130.563 28.0845 130.492L 28.0786 130.489L 28.0778 130.489C 26.1455 129.6 13.4338 123.753 9.99783 120.55C 6.60478 117.32 1.07992 105.919 0.176979 104.055L 0.17635 104.054L 0.175201 104.052C 0.0962297 103.889 0.0531402 103.8 0.0505142 103.797C -0.0473971 103.577 -0.000669484 103.324 0.170688 103.158ZM 119.447 19.8346L 119.442 19.8333C 119.731 18.6739 119.411 17.5138 118.524 16.3268C 117.614 15.1024 116.18 13.9423 114.32 12.7965C 113.029 11.9996 111.559 11.2321 109.968 10.497C 109.251 15.0159 106.441 19.9243 104.396 23.39C 104.436 23.4121 104.485 23.4387 104.556 23.4741C 105.253 23.8302 107.381 24.6839 112.345 25.2324C 112.683 25.2689 113.004 25.2866 113.305 25.2866C 115.983 25.2755 117.439 23.9728 118.333 22.6181C 118.774 21.9436 119.052 21.2546 119.216 20.7426C 119.342 20.3485 119.397 20.0691 119.418 19.9612L 119.419 19.9597C 119.425 19.9284 119.429 19.9121 119.429 19.9121C 119.433 19.8855 119.439 19.8597 119.447 19.8346ZM 77.8587 18.3949C 77.4226 18.3926 76.9597 18.3528 76.4857 18.2544C 76.4214 18.2915 76.3531 18.3354 76.2849 18.3792L 76.2832 18.3803L 76.2276 18.4159L 78.9347 18.9047C 79.0949 18.6791 79.2574 18.4546 79.4231 18.2312C 78.967 18.3219 78.4395 18.3926 77.8587 18.3949ZM 90.6582 58.5227C 90.6617 58.496 90.6653 58.4697 90.6745 58.4446C 90.6635 58.4718 90.6535 58.4989 90.6435 58.5259L 90.6431 58.5268C 90.6321 58.5566 90.621 58.5867 90.6089 58.616C 90.6233 58.5939 90.6389 58.5707 90.6545 58.5486C 90.6557 58.5407 90.6568 58.5328 90.6578 58.525L 90.6582 58.5227ZM 97.7945 47.0819C 97.9603 46.7878 98.0705 46.1851 98.066 45.4187C 98.0771 42.0116 96.1745 35.7502 95.548 33.7718L 95.3224 33.9814C 93.3362 35.8255 91.2578 37.7552 89.2403 39.9735C 85.1824 44.4013 83.5879 51.1393 82.384 58.6105C 82.7923 58.0974 83.3776 57.4018 84.0686 56.6985C 85.4182 55.3504 87.0895 53.9128 88.8698 53.8763C 89.2492 53.8763 89.633 53.9527 89.9924 54.1241L 89.9924 54.1229C 90.8425 54.5078 91.2042 55.3692 91.1852 56.1964C 91.1786 56.8931 90.9827 57.6484 90.6845 58.4126C 90.7313 58.3053 90.8136 58.2213 90.9137 58.1615C 93.8612 53.7823 96.9878 48.5881 97.7945 47.0819Z"/><path id="path2_fill" fill-rule="evenodd" d="M 51.4429 110.003C 54.8636 110.003 57.6266 107.282 57.6266 103.913L 57.6266 6.08969C 57.6266 2.72093 54.8636 0 51.4429 0L 6.18367 0C 2.76292 0 0 2.72093 0 6.08969L 0 56.4934C 1.18699 54.6135 3.63818 50.7657 3.94702 50.4136L 3.94702 9.58802C 3.94702 9.06975 4.47329 8.55148 4.99956 8.55148L 52.627 8.55148C 53.1533 8.55148 53.6795 9.06975 53.6795 9.58802L 53.6795 93.9367C 53.6795 94.455 53.1533 94.9733 52.627 94.9733L 12.1601 94.9733L 9.49139 94.9733L 7.03726 94.9733L 4.99956 94.9733C 4.41838 98.5595 2.80091 106.016 0.980469 107.153C 2.07975 108.839 3.99735 110.003 6.18367 110.003L 51.4429 110.003ZM 28.8133 107.153C 25.9188 107.153 23.6821 104.82 23.6821 102.099C 23.6821 99.3786 26.0504 97.0463 28.8133 97.0463C 31.7078 97.0463 33.9444 99.3786 33.9444 102.099C 33.9444 104.82 31.7078 107.153 28.8133 107.153Z"/><path id="path3_fill" fill-rule="evenodd" d="M 46.354 0L 0.831622 0L 0.831622 36.9323C 4.7777 33.0981 13.0062 25.342 14.3518 24.9915C 15.6394 23.9984 19.3209 23.2592 21.0007 23.0138C 22.3645 23.2836 25.3846 24.3063 26.5541 26.239C 28.016 28.6549 28.1544 31.0714 27.3512 34.6611C 26.7086 37.5329 20.942 46.8438 18.139 51.1402L 13.972 55.3209L 6.18945 62.5802L 1.66833 71.5801L 0 82.2756L 9.35025 82.2756L 46.354 82.2756L 46.354 0Z"/><path id="path4_fill" d="M 3.15762 6.21926C 4.90152 6.21926 6.31524 4.82703 6.31524 3.10963C 6.31524 1.39223 4.90152 0 3.15762 0C 1.41371 0 -2.00756e-06 1.39223 -2.00756e-06 3.10963C -2.00756e-06 4.82703 1.41371 6.21926 3.15762 6.21926Z"/></defs></svg>
