<svg id="digital" width="68" height="104" viewBox="0 0 68 104" version="1.1" xmlns="http://www.w3.org/2000/svg" xmlns:xlink="http://www.w3.org/1999/xlink" xmlns:figma="http://www.figma.com/figma/ns"><title>Group</title><desc>Created using Figma</desc><g id="Canvas" transform="translate(-3473 -1472)" figma:type="canvas"><g id="Group" style="mix-blend-mode:normal;" figma:type="frame"><g id="Group" style="mix-blend-mode:normal;" figma:type="frame"><g id="noun_526203_cc" style="mix-blend-mode:normal;" figma:type="frame"><g id="Group" style="mix-blend-mode:normal;" figma:type="frame"><g id="Vector" style="mix-blend-mode:normal;" figma:type="vector"><use xlink:href="#path0_fill" transform="matrix(0.999697 -0.0246036 0.0250387 0.999686 3504.43 1472.86)" style="mix-blend-mode:normal;"/></g><g id="Vector" style="mix-blend-mode:normal;" figma:type="vector"><use xlink:href="#path1_fill" transform="matrix(0.999697 -0.0246036 0.0250387 0.999686 3508.26 1479.2)" style="mix-blend-mode:normal;"/></g><g id="Vector" style="mix-blend-mode:normal;" figma:type="vector"><use xlink:href="#path2_fill" transform="matrix(0.999697 -0.0246036 0.0250387 0.999686 3521.47 1532.35)" style="mix-blend-mode:normal;"/></g></g></g><g id="Vector" style="mix-blend-mode:normal;" figma:type="vector"><use xlink:href="#path3_fill" transform="matrix(-1 0 0 1 3528.54 1516.73)" style="mix-blend-mode:normal;"/></g></g></g></g><defs><path id="path0_fill" d="M 3.74667 66.5602L 31.1691 66.5602C 33.2417 66.5602 34.9158 64.9138 34.9158 62.8754L 34.9158 3.68472C 34.9158 1.64636 33.2417 -7.47664e-08 31.1691 -7.47664e-08L 3.74667 -7.47664e-08C 1.67404 -7.47664e-08 3.04094e-07 1.64636 3.04094e-07 3.68472L 3.04094e-07 62.8754C 3.04094e-07 64.8354 1.67404 66.5602 3.74667 66.5602ZM 17.4579 64.8354C 15.7041 64.8354 14.3489 63.4242 14.3489 61.7779C 14.3489 60.1315 15.7838 58.7203 17.4579 58.7203C 19.2116 58.7203 20.5668 60.1315 20.5668 61.7779C 20.5668 63.4242 19.2116 64.8354 17.4579 64.8354ZM 2.39149 5.80147C 2.39149 5.48788 2.71036 5.17429 3.02922 5.17429L 31.8865 5.17429C 32.2054 5.17429 32.5243 5.48788 32.5243 5.80147L 32.5243 56.8388C 32.5243 57.1524 32.2054 57.466 31.8865 57.466L 3.02922 57.466C 2.71036 57.466 2.39149 57.1524 2.39149 56.8388L 2.39149 5.80147Z"/><path id="path1_fill" d="M 27.5819 0L 0 0L 0 49.7829L 27.5819 49.7829L 27.5819 0Z"/><path id="path2_fill" d="M 1.91319 3.76312C 2.96982 3.76312 3.82639 2.92072 3.82639 1.88156C 3.82639 0.842404 2.96982 0 1.91319 0C 0.856565 0 0 0.842404 0 1.88156C 0 2.92072 0.856565 3.76312 1.91319 3.76312Z"/><path id="path3_fill" d="M 55.4636 46.7979C 55.4534 46.7894 49.3131 41.0307 45.9102 37.1171C 43.0682 33.9048 42.4099 22.284 42.4288 15.7522C 42.4273 14.6996 42.4432 13.7776 42.4678 13.0406C 42.4688 12.9287 42.4719 12.8209 42.4719 12.713C 42.4847 7.48001 38.2481 6.88652 36.1593 6.02916C 33.9259 5.10507 23.4337 0.930614 20.925 0.168065C 20.5373 0.0501714 20.1564 -0.000497538 19.7913 4.13856e-06C 17.6441 0.0115427 16.05 1.6741 16.028 1.68614C 15.9295 1.78547 15.9336 1.94501 16.0357 2.04083C 16.1382 2.13715 16.3002 2.13414 16.3987 2.0333C 16.3997 2.0323 16.7704 1.65303 17.3898 1.26674C 18.0091 0.87844 18.8613 0.500175 19.7918 0.501179C 20.1092 0.501179 20.4374 0.544324 20.7732 0.646164C 23.2204 1.38764 33.7485 5.57464 35.9604 6.4902C 38.2235 7.43586 41.9464 7.83971 41.9602 12.7125C 41.9602 12.8118 41.9571 12.9177 41.9561 13.0286C 41.9315 13.768 41.9166 14.6951 41.9166 15.7517C 41.9346 22.3457 42.4704 33.8818 45.521 37.4417C 48.6563 41.0472 54.0593 46.1698 54.975 47.0342C 54.7643 47.4652 54.1506 48.7003 53.4046 50.0583C 52.4842 51.7415 51.3393 53.6258 50.58 54.3221C 49.8248 55.0284 47.7257 56.1703 45.8446 57.1034C 44.3054 57.8684 42.9031 58.5086 42.4386 58.7188C 41.4747 57.7661 35.2969 51.6933 31.9807 50.1797C 28.5419 48.6175 25.4415 45.5131 24.174 40.3153L 24.1284 40.221C 24.1253 40.2179 22.8984 38.6437 21.5812 36.502C 20.2635 34.3639 18.8684 31.6583 18.5388 29.467C 17.8497 24.9599 17.3564 20.5703 14.8011 17.7975C 12.2964 15.098 9.65645 13.3391 8.25212 10.9827C 7.1872 9.21681 5.29118 6.15859 5.30194 3.84385C 5.30399 2.98699 5.54548 2.25304 6.15767 1.6741C 6.92008 0.957204 7.71274 0.727435 8.46438 0.724926C 9.24166 0.723923 9.97485 0.985297 10.5106 1.25018C 11.0464 1.51406 11.3725 1.77443 11.3746 1.77343C 11.3879 1.78296 12.8471 2.81742 14.619 4.40673C 16.392 5.99555 18.4706 8.13771 19.6837 10.311C 22.1852 14.7839 24.878 16.5885 26.571 17.198C 27.7046 17.6033 29.918 17.8361 31.7012 17.8381C 32.6287 17.8371 33.4209 17.7769 33.9187 17.6184C 34.0536 17.5748 34.1254 17.4328 34.0803 17.3013C 34.0362 17.1699 33.8911 17.0992 33.7578 17.1428C 33.3773 17.2682 32.5959 17.3385 31.7007 17.3365C 29.9718 17.3395 27.7518 17.0921 26.7484 16.7274C 26.5746 16.6647 26.3854 16.5849 26.187 16.4916C 27.9015 16.0828 32.9056 14.643 34.916 11.1478C 34.9857 11.0259 34.9401 10.8734 34.817 10.8066C 34.694 10.7394 34.5381 10.783 34.4689 10.9045C 33.3542 12.871 31.1183 14.194 29.1474 15.0072C 27.2252 15.8038 25.5866 16.1124 25.5097 16.1294C 25.4579 16.0983 25.4066 16.0682 25.3543 16.0356C 25.7758 15.8625 26.3844 15.5324 26.6002 14.9635C 26.6423 14.8321 26.5679 14.6911 26.4331 14.65C 26.2987 14.6078 26.1547 14.6811 26.1116 14.8125C 26.0485 15.0378 25.7276 15.2936 25.3989 15.4587C 25.1646 15.5801 24.9462 15.6568 24.8421 15.692C 24.8078 15.6674 24.7729 15.6428 24.738 15.6172C 25.1908 15.3403 26.0039 14.7222 26.1767 13.7189C 26.1988 13.5819 26.1019 13.4545 25.9624 13.4329C 25.8229 13.4123 25.6922 13.5062 25.6702 13.6436C 25.5902 14.1664 25.2349 14.5943 24.8826 14.8903C 24.6478 15.0889 24.4273 15.2184 24.3063 15.2846C 24.253 15.2415 24.2002 15.1988 24.1464 15.1537C 24.5499 14.8226 25.4302 13.9296 25.4343 12.423C 25.4343 12.3152 25.4302 12.2048 25.422 12.0939C 25.4102 11.956 25.2872 11.8521 25.1467 11.8637C 25.0046 11.8737 24.8995 11.9946 24.9103 12.1331C 24.919 12.2329 24.9226 12.3307 24.9226 12.423C 24.9216 13.2573 24.6063 13.8679 24.2889 14.2807C 24.131 14.4854 23.9715 14.6384 23.8536 14.7393C 23.8131 14.7744 23.7864 14.7935 23.7582 14.815C 22.6113 13.77 21.3541 12.2515 20.1343 10.0702C 19.9385 9.721 19.7206 9.37434 19.4883 9.03069L 20.9819 8.7648C 20.9865 8.7643 20.9901 8.76079 20.9942 8.75979C 22.0939 9.59006 23.6952 10.9471 25.6261 11.0264C 25.6743 11.0178 28.2804 10.8297 29.7498 9.89909C 29.8673 9.82284 29.9001 9.66732 29.8237 9.55193C 29.7457 9.43605 29.5868 9.40394 29.4689 9.47919C 28.8387 9.88555 27.8656 10.1585 27.0596 10.316C 26.2526 10.4745 25.6163 10.5247 25.6148 10.5257C 23.4844 10.458 21.6448 8.44122 20.4594 7.79556C 20.4035 7.76596 20.3384 7.75743 20.2764 7.77299C 20.0692 7.82366 19.8631 7.84322 19.6673 7.84322C 19.3304 7.84322 19.0294 7.78352 18.8115 7.72382C 18.5895 7.66312 18.4537 7.60242 18.4516 7.60543C 18.4413 7.60091 18.4301 7.60141 18.4198 7.5979C 15.6004 4.14486 11.695 1.38564 11.6858 1.3756C 11.675 1.37159 10.2527 0.231779 8.46541 0.224755C 7.60251 0.221745 6.655 0.506698 5.80287 1.3144C 5.07378 1.99919 4.78769 2.89819 4.79025 3.84486C 4.79948 6.12197 6.35147 8.80042 7.4369 10.611C 7.41844 10.621 7.39588 10.633 7.36307 10.6491C 7.0421 10.8106 6.06128 11.1979 3.77404 11.4468C 3.61818 11.4633 3.47052 11.4713 3.33157 11.4713C 2.09746 11.4663 1.42682 10.8754 1.0146 10.2608C 0.811564 9.95478 0.683385 9.64223 0.608015 9.40996C 0.532646 9.17768 0.512138 9.0332 0.509575 9.0332C 0.488041 8.89674 0.356784 8.80293 0.216812 8.824C 0.0778653 8.84507 -0.0185254 8.9735 0.0030087 9.11046C 0.006085 9.12099 0.451637 11.9525 3.33157 11.973C 3.49205 11.973 3.65714 11.9635 3.83096 11.9454C 6.39044 11.6655 7.39024 11.2155 7.69582 11.0424C 7.73479 11.1071 7.77478 11.1744 7.81169 11.2361C 8.63358 12.6021 9.80873 13.748 11.1018 14.9394C 10.9439 15.418 9.84923 18.7331 9.84308 20.6049C 9.84513 20.9937 9.88513 21.3263 10.0287 21.5957C 10.3794 22.2373 11.5735 24.1994 12.8061 26.0466C 12.9594 26.2758 13.1132 26.5036 13.2655 26.7258C 13.2655 26.7359 13.2655 26.7404 13.2655 26.7509C 13.2655 27.1217 13.2773 28.0919 13.3978 29.0401C 13.5408 29.9872 13.6915 30.9063 14.2996 31.273C 15.263 31.7697 18.5526 32.621 19.0176 32.7425C 20.584 36.4072 23.3552 40.0429 23.689 40.4823C 24.9934 45.7906 28.2081 49.0254 31.7653 50.6353C 33.4573 51.3983 36.0916 53.548 38.2697 55.4955C 40.4538 57.445 42.1971 59.1924 42.2007 59.1954C 42.2504 59.2455 42.3166 59.2716 42.3832 59.2716C 42.4191 59.2716 42.456 59.2641 42.4904 59.2486C 42.5063 59.236 49.2223 56.2601 50.9353 54.6878C 52.6375 53.0925 55.5042 47.1035 55.519 47.0879C 55.5641 46.9881 55.5426 46.8732 55.4636 46.7979ZM 19.6652 8.3449C 19.8662 8.3439 20.0795 8.32583 20.2979 8.28119C 20.3358 8.30276 20.3769 8.32935 20.4168 8.35443L 19.1694 8.57617C 19.0956 8.47383 19.0207 8.37199 18.9443 8.27065C 19.1545 8.31179 19.3976 8.3439 19.6652 8.3449ZM 13.769 26.5608C 13.7664 26.5447 13.7654 26.5287 13.7597 26.5136C 13.7705 26.5397 13.7792 26.5658 13.79 26.5914C 13.7833 26.5814 13.7761 26.5708 13.769 26.5608ZM 14.1837 24.7803L 14.294 25.0076C 14.3873 24.9635 14.4827 24.9439 14.5908 24.9439C 15.0974 24.9273 15.8593 25.4797 16.4377 26.0722C 16.8504 26.4865 17.1826 26.9019 17.3426 27.1096C 17.2293 27.2752 17.0268 27.5611 16.7945 27.8461C 16.4602 28.2916 15.9531 28.6969 15.8849 28.6538L 15.8819 28.6528C 15.8829 28.6558 15.8419 28.6372 15.7732 28.579C 15.2281 28.1717 14.0084 26.3782 14.0376 25.4942C 14.0458 25.2218 14.1109 25.0989 14.2935 25.0076L 14.1837 24.7803ZM 15.8844 29.155C 16.4141 29.1108 16.793 28.6147 17.1939 28.1591C 17.4093 27.8958 17.5954 27.6374 17.7184 27.4603C 17.7502 27.669 17.7825 27.8782 17.8143 28.0889C 17.7297 28.2033 17.5328 28.4591 17.277 28.7145C 16.937 29.0637 16.4817 29.3747 16.1772 29.3627C 16.13 29.3627 16.087 29.3576 16.0439 29.3461C 16.0177 29.3511 15.9188 29.2759 15.7803 29.1444C 15.8162 29.1509 15.8506 29.155 15.8844 29.155ZM 10.4789 21.3589C 10.4025 21.2255 10.3517 20.952 10.3537 20.6044C 10.3486 19.0587 11.2254 16.2182 11.514 15.3207C 12.4605 16.1861 13.4557 17.0896 14.4206 18.1341C 16.2905 20.1428 17.0252 23.1996 17.58 26.5889C 17.3918 26.3561 17.1221 26.0406 16.8037 25.7215C 16.1818 25.1099 15.4117 24.4578 14.5914 24.4412C 14.4165 24.4412 14.2396 24.4758 14.074 24.5536L 14.074 24.5531C 13.6823 24.7277 13.5157 25.1185 13.5244 25.4937C 13.5275 25.8098 13.6177 26.1524 13.7551 26.4991C 13.7336 26.4504 13.6956 26.4123 13.6495 26.3852C 12.2913 24.3986 10.8506 22.0422 10.4789 21.3589ZM 14.5391 30.8296C 14.2976 30.7523 13.9997 29.8869 13.9053 28.9769C 13.8377 28.4501 13.8059 27.9113 13.79 27.4779C 14.0658 27.8652 14.3329 28.2279 14.5791 28.5429C 15.1343 29.2287 15.5055 29.6928 15.9096 29.8292C 15.9962 29.8518 16.0818 29.8633 16.1664 29.8633C 16.17 29.8633 16.1736 29.8633 16.1772 29.8633C 16.9027 29.8302 17.5379 29.2197 17.9163 28.7732C 17.9543 29.0285 17.9922 29.2844 18.0312 29.5413C 18.1594 30.375 18.4265 31.264 18.7767 32.1615C 17.7666 31.8931 15.244 31.2028 14.5391 30.8296Z"/></defs></svg>
