<svg id="dollar" width="53" height="98" viewBox="0 0 53 98" version="1.1" xmlns="http://www.w3.org/2000/svg" xmlns:xlink="http://www.w3.org/1999/xlink" xmlns:figma="http://www.figma.com/figma/ns"><title>noun_776569_cc</title><desc>Created using Figma</desc><g id="Canvas" transform="translate(-1115 -12856)" figma:type="canvas"><g id="noun_776569_cc" style="mix-blend-mode:normal;" figma:type="frame"><g id="Vector" style="mix-blend-mode:normal;" figma:type="vector"><use xlink:href="#path0_fill" transform="translate(1115 12856)" fill="#FFFFFF" style="mix-blend-mode:normal;"/></g></g></g><defs><path id="path0_fill" d="M -7.62939e-08 32.795C -7.62939e-08 22.225 7.45 13.935 20.3 11.415L 20.3 5.885C 20.3 4.3242 20.92 2.82733 22.0237 1.72368C 23.1273 0.620025 24.6242 4.76837e-09 26.185 4.76837e-09C 27.7458 4.76837e-09 29.2427 0.620025 30.3463 1.72368C 31.45 2.82733 32.07 4.3242 32.07 5.885L 32.07 10.565C 35.7831 10.6913 39.4715 11.2211 43.07 12.145C 44.639 12.6386 45.984 13.6689 46.8692 15.0552C 47.7543 16.4415 48.1231 18.0952 47.9107 19.7262C 47.6983 21.3572 46.9184 22.8614 45.7077 23.9747C 44.4971 25.0881 42.9331 25.7396 41.29 25.815C 40.6398 25.8152 39.9931 25.7209 39.37 25.535C 35.9074 24.5053 32.3124 23.9898 28.7 24.005C 20.9 24.005 18.42 27.385 18.42 30.755C 18.42 34.755 22.62 37.245 32.83 41.085C 47.12 46.085 52.89 52.735 52.89 63.545C 52.89 74.355 45.28 83.355 31.42 85.755L 31.42 92.115C 31.42 93.6758 30.8 95.1727 29.6963 96.2763C 28.5927 97.38 27.0958 98 25.535 98C 23.9742 98 22.4773 97.38 21.3737 96.2763C 20.27 95.1727 19.65 93.6758 19.65 92.115L 19.65 86.595C 14.7904 86.3624 9.98249 85.4916 5.35 84.005C 3.67058 83.4537 2.26189 82.2875 1.40678 80.7405C 0.551674 79.1936 0.31347 77.3803 0.74 75.665L 0.889999 75.095C 1.26914 73.6287 2.12764 72.3312 3.32897 71.4089C 4.53031 70.4866 6.00551 69.9925 7.52 70.005C 8.30622 70.0069 9.08672 70.1387 9.83 70.395C 14.012 71.8451 18.4038 72.5985 22.83 72.625C 29.68 72.625 34.36 69.985 34.36 65.175C 34.36 60.615 30.52 57.725 21.63 54.725C 8.77 50.445 -7.62939e-08 44.445 -7.62939e-08 32.795Z"/></defs></svg>
