<svg id="evolve" width="2539" height="1500" viewBox="0 0 2539 1500" version="1.1" xmlns="http://www.w3.org/2000/svg" xmlns:xlink="http://www.w3.org/1999/xlink" xmlns:figma="http://www.figma.com/figma/ns"><title>Group</title><desc>Created using Figma</desc><g id="Canvas" transform="translate(3585 -5473)" figma:type="canvas"><g id="Group" style="mix-blend-mode:normal;" figma:type="frame"><g id="Vector 21" style="mix-blend-mode:normal;" figma:type="vector"><use xlink:href="#path0_stroke" transform="translate(-2499.66 5607.5)" style="mix-blend-mode:normal;"/></g><g id="Vector 20" style="mix-blend-mode:normal;" figma:type="vector"><use xlink:href="#path1_fill" transform="translate(-2529.56 5478.83)" fill="#B5B5B5" style="mix-blend-mode:normal;"/><use xlink:href="#path2_stroke" transform="translate(-2529.56 5478.83)" style="mix-blend-mode:normal;"/></g><g id="Vector 19" style="mix-blend-mode:normal;" figma:type="vector"><use xlink:href="#path3_fill" transform="translate(-2021.01 5511.5)" fill="#2D9CDB" style="mix-blend-mode:normal;"/></g><g id="Vector 16" style="mix-blend-mode:normal;" figma:type="vector"><use xlink:href="#path4_stroke" transform="translate(-3579.5 6764.98)" style="mix-blend-mode:normal;"/></g><g id="Group" style="mix-blend-mode:normal;" figma:type="frame"><g id="Vector 16" style="mix-blend-mode:normal;" figma:type="vector"><use xlink:href="#path5_fill" transform="translate(-3393.5 6884)" style="mix-blend-mode:normal;"/></g><g id="Vector 17" style="mix-blend-mode:normal;" figma:type="vector"><use xlink:href="#path6_fill" transform="translate(-3388.02 6889.88)" fill="#219653" style="mix-blend-mode:normal;"/></g><g id="Vector 17 (Stroke)" style="mix-blend-mode:normal;" figma:type="vector"><use xlink:href="#path7_fill" transform="translate(-3456 6650)" fill="#219653" style="mix-blend-mode:normal;"/></g><g id="Union" style="mix-blend-mode:normal;" figma:type="vector-operation"><use xlink:href="#path8_fill" transform="translate(-3469 6610)" fill="#219653" style="mix-blend-mode:normal;"/></g></g><g id="Ellipse 13" style="mix-blend-mode:normal;" figma:type="ellipse"><use xlink:href="#path9_fill" transform="translate(-1896 5748)" fill="#DCDCDC" style="mix-blend-mode:normal;"/><use xlink:href="#path9_fill" transform="translate(-1896 5748)" fill="url(#paint10_radial)" style="mix-blend-mode:normal;"/></g><g id="Union" style="mix-blend-mode:normal;" figma:type="vector-operation"><use xlink:href="#path10_fill" transform="translate(-3008.5 6273)" fill="#219653" style="mix-blend-mode:normal;"/></g><g id="Group" style="mix-blend-mode:normal;" figma:type="frame"><g id="Vector 22" style="mix-blend-mode:normal;" figma:type="vector"><use xlink:href="#path11_fill" transform="translate(-3025.5 6009)" fill="#2D9CDB" style="mix-blend-mode:normal;"/></g><g id="Ellipse 13" style="mix-blend-mode:normal;" figma:type="ellipse"><use xlink:href="#path9_fill" transform="translate(-2890 6187)" fill="#DCDCDC" style="mix-blend-mode:normal;"/><use xlink:href="#path9_fill" transform="translate(-2890 6187)" fill="url(#paint14_radial)" style="mix-blend-mode:normal;"/></g></g></g></g><defs><radialGradient id="paint10_radial" cx="0.5" cy="0.5" r="0.5" gradientUnits="userSpaceOnUse" gradientTransform="matrix(-3.01353e-07 101 -132.751 -2.6629e-06 112.376 12)"><stop offset="0.16" stop-color="#FFFFFF" stop-opacity="0.98"/><stop offset="0.44" stop-color="#FFFFFF" stop-opacity="0.580741"/><stop offset="0.6" stop-color="#FFFFFF" stop-opacity="0"/></radialGradient><radialGradient id="paint14_radial" cx="0.5" cy="0.5" r="0.5" gradientUnits="userSpaceOnUse" gradientTransform="matrix(-3.01353e-07 101 -132.751 -2.6629e-06 112.376 12)"><stop offset="0.16" stop-color="#FFFFFF" stop-opacity="0.98"/><stop offset="0.44" stop-color="#FFFFFF" stop-opacity="0.580741"/><stop offset="0.6" stop-color="#FFFFFF" stop-opacity="0"/></radialGradient><path id="path0_stroke" d="M 1170.38 316.842C 1169.46 314.237 1166.61 312.867 1164 313.783C 1161.4 314.699 1160.03 317.553 1160.94 320.158L 1170.38 316.842ZM 1100.98 495.618C 1099.11 497.652 1099.25 500.815 1101.28 502.683C 1103.31 504.55 1106.48 504.416 1108.34 502.382L 1100.98 495.618ZM 1254.16 333.802C 1254.05 331.043 1251.72 328.895 1248.96 329.004C 1246.2 329.113 1244.06 331.439 1244.17 334.198L 1254.16 333.802ZM 1233.66 399.5C 1232 401.709 1232.45 404.843 1234.66 406.5C 1236.87 408.157 1240 407.709 1241.66 405.5L 1233.66 399.5ZM 1324.09 394.133C 1323.61 391.414 1321.01 389.597 1318.29 390.076C 1315.58 390.554 1313.76 393.147 1314.24 395.867L 1324.09 394.133ZM 1275.78 516.342C 1274.04 518.483 1274.36 521.633 1276.5 523.377C 1278.64 525.121 1281.79 524.799 1283.54 522.658L 1275.78 516.342ZM 226.442 49.9655C 227.251 47.3254 225.767 44.529 223.127 43.7196C 220.487 42.9102 217.69 44.3943 216.881 47.0345L 226.442 49.9655ZM 198.418 126.081C 199.291 128.701 202.123 130.117 204.743 129.243C 207.362 128.37 208.778 125.539 207.905 122.919L 198.418 126.081ZM 159.05 12.3961C 160.373 9.97247 159.481 6.93491 157.058 5.61155C 154.634 4.2882 151.596 5.18018 150.273 7.60385L 159.05 12.3961ZM 105.773 89.1039C 104.45 91.5275 105.342 94.5651 107.765 95.8884C 110.189 97.2118 113.227 96.3198 114.55 93.8961L 105.773 89.1039ZM 89.1618 4.32991C 91.5531 2.949 92.3723 -0.109027 90.9913 -2.50037C 89.6104 -4.89172 86.5524 -5.71083 84.1611 -4.32991L 89.1618 4.32991ZM -1.43207 116.975C -0.34143 119.512 2.59929 120.684 5.13621 119.594C 7.67313 118.503 8.84557 115.562 7.75493 113.025L -1.43207 116.975ZM 1160.94 320.158C 1169.93 345.72 1171.88 418.418 1100.98 495.618L 1108.34 502.382C 1181.45 422.782 1180.73 346.28 1170.38 316.842L 1160.94 320.158ZM 1244.17 334.198C 1244.5 342.483 1244.33 355.607 1242.75 368.559C 1241.14 381.783 1238.18 393.47 1233.66 399.5L 1241.66 405.5C 1247.94 397.13 1251.07 382.984 1252.67 369.766C 1254.31 356.276 1254.49 342.35 1254.16 333.802L 1244.17 334.198ZM 1314.24 395.867C 1317.68 415.435 1315.17 467.991 1275.78 516.342L 1283.54 522.658C 1324.96 471.809 1327.98 416.232 1324.09 394.133L 1314.24 395.867ZM 216.881 47.0345C 213.372 58.4812 208.217 76.0852 204.197 91.5552C 202.185 99.2991 200.431 106.622 199.316 112.35C 198.754 115.241 198.328 117.892 198.12 119.949C 197.939 121.751 197.783 124.177 198.418 126.081L 207.905 122.919C 208.04 123.323 207.868 122.962 208.07 120.947C 208.244 119.187 208.6 116.991 209.132 114.259C 210.204 108.743 211.887 101.722 213.876 94.0698C 217.856 78.7481 222.951 61.3521 226.442 49.9655L 216.881 47.0345ZM 150.273 7.60385L 105.773 89.1039L 114.55 93.8961L 159.05 12.3961L 150.273 7.60385ZM 84.1611 -4.32991C 66.213 6.04065 40.1117 24.5655 20.981 45.7943C 2.12429 66.7644 -11.9163 92.5876 -1.43207 116.975L 7.75493 113.025C -0.160863 94.6124 9.79858 73.1856 28.4168 52.4807C 46.7612 32.0345 71.6098 14.4593 89.1618 4.32991L 84.1611 -4.32991Z"/><path id="path1_fill" d="M 0.0564618 83.1674C -4.94354 78.6673 323.656 -47.5326 382.056 19.6674C 455.056 103.667 533.787 285.668 716.556 360.668C 899.326 435.668 1218.56 277.501 1283.06 276.668C 1347.56 275.834 1494.56 558.167 1476.06 576.667C 1457.56 595.167 1327.56 384.168 1262.56 379.168C 1197.56 374.168 898.556 517.668 682.556 435.668C 466.556 353.668 313.556 110.167 279.556 83.1674C 245.556 56.1675 5.05646 87.6675 0.0564618 83.1674Z"/><path id="path2_stroke" d="M 382.056 19.6674L 385.83 16.3877L 385.83 16.3877L 382.056 19.6674ZM 3.40132 79.451C 4.39459 80.3449 5.03918 81.6875 4.99818 83.1774C 4.96444 84.4033 4.47831 85.2476 4.27251 85.5684C 3.87158 86.1934 3.46111 86.4654 3.60492 86.3542C 3.85802 86.1488 4.29442 85.8898 5.25045 85.3773C 7.27715 84.2845 10.3911 82.8208 14.6342 80.9756C 23.1824 77.2563 35.7023 72.2735 51.1489 66.5894C 82.0896 55.2023 124.303 41.1762 168.571 29.3607C 212.847 17.539 258.754 8.01347 297.343 5.5966C 316.576 4.38011 333.524 4.91195 347.671 7.81669C 361.694 10.6779 371.995 15.7128 378.282 22.9472L 385.83 16.3877C 377.518 6.82207 364.776 1.10072 349.67 -1.98144C 334.688 -5.02006 316.422 -5.6187 296.714 -4.38364C 257.422 -1.89739 210.541 7.80832 165.992 19.6991C 121.435 31.5961 78.7859 45.7637 47.6953 57.2047C 32.1262 62.9347 19.3384 68.0246 10.6451 71.8057C 6.26751 73.7106 2.77738 75.3541 0.511403 76.5715C -0.678905 77.2142 -1.81099 77.911 -2.51167 78.443C -2.84474 78.7005 -3.57842 79.2866 -4.14427 80.1686C -4.43253 80.618 -4.96155 81.5766 -4.99804 82.9023C -5.04178 84.4918 -4.35979 85.9196 -3.2884 86.8839L 3.40132 79.451ZM 378.282 22.9472C 414.478 64.56 452.344 130.964 504.22 196.642C 556.075 262.257 622.419 327.341 714.658 365.293L 718.455 356.042C 627.924 318.994 563.518 255.578 512.066 190.443C 460.634 125.371 422.635 58.7748 385.83 16.3877L 378.282 22.9472ZM 714.658 365.293C 807.774 403.504 934.809 382.185 1045.48 351.928C 1100.98 336.751 1152.76 319.207 1194.59 305.44C 1215.51 298.558 1233.87 292.639 1249.04 288.408C 1264.31 284.146 1275.78 281.762 1283.12 281.667L 1282.99 271.668C 1274.21 271.781 1261.59 274.522 1246.35 278.776C 1230.99 283.062 1212.41 289.05 1191.47 295.942C 1149.59 309.722 1098.05 327.188 1042.84 342.282C 932.073 372.566 808.108 392.831 718.455 356.042L 714.658 365.293ZM 1283.12 281.667C 1289.49 281.585 1297.72 285.074 1307.61 292.549C 1317.49 300.002 1328.06 310.649 1339.21 323.821C 1361.59 350.237 1385.19 385.669 1406.36 421.939C 1427.54 458.201 1446.05 494.907 1458.16 523.805C 1464.21 538.207 1468.56 550.391 1470.87 559.645C 1472.01 564.194 1472.59 567.63 1472.65 570.364C 1472.72 573.269 1472.11 573.547 1472.52 573.132L 1479.59 580.203C 1482.32 577.476 1482.73 573.38 1482.64 570.117C 1482.55 566.684 1481.8 562.158 1480.57 557.217C 1478.13 547.493 1473.53 534.591 1467.39 519.937C 1455.13 490.72 1436.32 453.426 1415 416.896C 1393.67 380.374 1369.58 344.223 1346.84 317.358C 1335.43 303.889 1324.07 292.471 1313.64 284.571C 1303.22 276.693 1292.75 271.542 1282.99 271.668L 1283.12 281.667ZM 1472.52 573.132C 1473.05 572.607 1473.54 572.969 1472.62 572.723C 1471.53 572.433 1469.75 571.547 1467.2 569.669C 1462.03 565.884 1455.53 559.474 1447.72 550.939C 1432.02 533.798 1412.07 509.082 1390.57 483.512C 1369.07 457.946 1345.95 431.458 1324.15 411.084C 1313.22 400.877 1302.37 392.006 1292.31 385.624C 1282.2 379.225 1272.24 374.898 1262.94 374.182L 1262.17 384.153C 1269.12 384.687 1277.44 388.047 1286.96 394.073C 1296.52 400.114 1306.64 408.404 1317.32 418.391C 1338.76 438.408 1361.48 464.452 1382.92 489.948C 1404.35 515.441 1424.44 540.318 1440.35 557.693C 1448.34 566.416 1455.54 573.494 1461.28 577.726C 1464.17 579.857 1467.15 581.613 1470.03 582.384C 1473.08 583.198 1476.75 583.04 1479.59 580.203L 1472.52 573.132ZM 1262.94 374.182C 1254.01 373.495 1241.59 375.352 1226.75 378.642C 1211.81 381.954 1193.82 386.866 1173.52 392.606C 1132.95 404.084 1082.85 418.956 1028.07 431.417C 918.362 456.38 790.866 471.437 684.331 430.993L 680.782 440.342C 790.247 481.898 920.251 466.205 1030.29 441.168C 1085.39 428.629 1135.73 413.689 1176.25 402.229C 1196.5 396.501 1214.21 391.662 1228.91 388.404C 1243.71 385.123 1254.86 383.59 1262.17 384.153L 1262.94 374.182ZM 684.331 430.993C 577.139 390.386 485.792 309.708 416.463 235.382C 381.822 198.252 352.875 162.859 330.386 134.967C 319.145 121.024 309.507 108.942 301.612 99.4958C 293.811 90.1635 287.383 82.9979 282.666 79.2519L 276.447 87.083C 280.23 90.0869 286.021 96.437 293.939 105.909C 301.762 115.267 311.343 127.28 322.602 141.243C 345.113 169.163 374.291 204.832 409.15 242.203C 478.82 316.877 571.974 398.949 680.782 440.342L 684.331 430.993ZM 282.666 79.2519C 277.365 75.0424 268.798 72.425 258.857 70.6757C 248.789 68.9096 236.235 67.875 222.411 67.4124C 194.826 66.4956 161.186 67.7673 128.629 69.7391C 96.0696 71.7118 64.4281 74.3874 40.6586 76.2849C 28.7773 77.2334 18.9062 77.9845 11.8423 78.359C 8.33155 78.5456 5.63581 78.6357 3.70225 78.6127C 2.77659 78.6032 2.2308 78.5781 1.80447 78.5232C 1.64649 78.5061 1.82914 78.5374 1.79802 78.5342C 1.87386 78.5553 2.0536 78.6088 2.29006 78.7165C 2.50642 78.8151 2.93832 79.0343 3.40132 79.451L -3.2884 86.8839C -2.31761 87.7576 -1.24652 88.0673 -0.874746 88.1704C -0.460769 88.2798 0.154118 88.3941 0.598858 88.4502C 1.37798 88.5417 2.47062 88.5985 3.58939 88.6121C 5.74469 88.6352 8.76184 88.5363 12.3722 88.345C 19.5505 87.9637 29.5544 87.2031 41.4543 86.2532C 65.2473 84.3538 96.7933 81.6856 129.234 79.7208C 161.677 77.7552 194.849 76.4956 222.077 77.4069C 235.659 77.8584 247.512 78.8277 257.124 80.5244C 266.862 82.238 273.248 84.5425 276.447 87.083L 282.666 79.2519Z"/><path id="path3_fill" d="M 242.009 0C 224.342 20.5 185.07 75.7807 180.509 114.747C 174.509 166 185.009 178.5 187.009 241C 182.509 229.333 170.009 203.5 106.009 168.5C 31.0087 124.5 16.5086 66 1.00863 66C -4.99133 110.5 15.3087 169.4 74.5087 221C 92.5087 237 128.009 273.9 126.009 293.5C 70.8988 337 39.7087 475 142.509 501C 126.009 444 142.509 337 180.509 337C 201.009 375.167 240.009 443.5 242.009 487.5C 243.316 516.27 274.675 552.5 291.009 567C 298.009 529.833 313.009 424.5 294.009 390C 264.009 351 288.578 369.465 237.579 347.745C 229.52 344.313 221.943 340.685 215.009 337C 222.983 341.07 227.842 343.397 237.579 347.745C 325.015 384.983 469.101 399.186 462.509 213.5C 430.675 258.333 344.509 311 263.009 299C 314.96 293.5 392.609 175.5 331.009 51.5C 274.009 132 301.009 123.922 263.009 208.922L 242.009 253.5C 252.675 223 263.009 171.078 263.009 117.138C 263.009 75.7994 249.009 25.6667 242.009 0Z"/><path id="path4_stroke" d="M 161 25.02L 160.288 20.071L 161 25.02ZM 1027.5 25.02L 1028.15 20.062L 1027.5 25.02ZM 1421.06 25.0192L 1419.9 20.1554L 1421.06 25.0192ZM 4.64238 118.377C 13.4845 96.2716 57.405 44.9829 161.712 29.969L 160.288 20.071C 53.395 35.4571 5.84883 88.435 -4.64238 114.663L 4.64238 118.377ZM 161.712 29.969C 227.19 20.5164 310.684 26.1255 386.514 34.4899C 462.321 42.8486 530.231 53.993 563.775 55.5149L 564.225 45.5251C 531.269 44.047 463.679 32.9414 387.611 24.5501C 311.566 16.1645 226.81 10.5236 160.288 20.071L 161.712 29.969ZM 563.775 55.5149C 596.568 56.9733 630.063 64.7809 663.196 71.4832C 696.334 78.1853 729.348 83.7676 760.039 80.4909L 758.961 70.549C 729.652 73.7723 698.166 68.3546 665.179 61.6817C 632.187 55.009 597.932 47.0667 564.225 45.5251L 563.775 55.5149ZM 760.039 80.4909C 775.455 78.8028 793.167 73.7934 812.398 67.5806C 831.611 61.3721 852.636 53.9029 875.233 47.1163C 920.464 33.5247 971.424 22.6764 1026.85 29.978L 1028.15 20.062C 971.03 12.6842 917.989 23.8359 872.357 37.5391C 849.523 44.3998 828.4 51.9018 809.323 58.065C 790.264 64.224 773.545 68.987 758.961 70.549L 760.039 80.4909ZM 1026.85 29.978C 1153.41 46.4849 1314.26 55.6112 1422.22 29.883L 1419.9 20.1554C 1313.86 45.4271 1154.59 36.5538 1028.15 20.062L 1026.85 29.978ZM 1422.22 29.883C 1507.49 9.55084 1538.79 6.5107 1613.6 5.01898L 1613.4 -4.97903C 1538.21 -3.47218 1505.84 -0.312508 1419.9 20.1554L 1422.22 29.883ZM 1613.6 5.01898C 1631.8 4.65518 1666.15 9.49112 1711.03 16.6453C 1755.7 23.7659 1810.25 33.0842 1868.35 41.4687C 1984.36 58.2114 2115.21 71.3463 2209.83 55.4509L 2208.17 45.5891C 2115.29 61.1931 1985.89 48.3283 1869.78 31.5713C 1811.81 23.206 1757.33 13.8995 1712.61 6.77003C 1668.1 -0.325713 1632.7 -5.36488 1613.4 -4.97903L 1613.6 5.01898Z"/><path id="path5_fill" d="M 9.17065 0C -2.99601 23.3333 -12.6293 73.8 46.1707 89C 71.1707 23.5 21.3373 23.3333 9.17065 0Z"/><path id="path6_fill" d="M 0.0239 6.12054C 0.5239 7.62054 26.7596 15.8389 34.5239 21.1206C 27.6257 14.8365 9.02393 1.12061 8.0239 0.120665C 7.02387 -0.879279 -0.4761 4.62054 0.0239 6.12054Z"/><path id="path7_fill" fill-rule="evenodd" d="M 60.1133 67.2911C 71.8675 93.5121 75.5903 122.474 64.6836 149.342C 49.1577 187.589 65.3797 225.995 76.0238 239.926L 68.0777 245.997C 56.0552 230.262 38.1437 188.134 55.4179 145.581C 65.0112 121.949 61.984 95.9108 50.9882 71.3817C 39.9344 46.6092 21.3339 24.3143 0 7.92285L 6.10151 0C 28.2676 17.1085 48.4171 41.3136 60.1133 67.2911Z"/><path id="path8_fill" d="M 0 0C 23 3.83333 69.1 19.9 69.5 53.5C 69.9 87.1 61 96.5 56.5 97C 62.9 81.4 4.50025 64 0 34L 0 0Z"/><path id="path9_fill" d="M 139 52C 139 80.7188 107.884 104 69.5 104C 31.1162 104 0 80.7188 0 52C 0 23.2812 31.1162 0 69.5 0C 107.884 0 139 23.2812 139 52Z"/><path id="path10_fill" fill-rule="evenodd" d="M 229.166 225.097C 221.127 138.175 206.22 56.5527 187 6.5L 222.5 0C 241.843 50.3735 259.985 132.155 271.768 219.022C 286.966 177.736 332.057 108.022 417.5 95.5C 409.953 145.704 370.557 241.551 273.174 229.648C 289.393 355.339 291.976 489.364 265.5 553L 210.5 563C 236.979 499.356 240.968 364.125 230.258 237.431C 184.316 302.297 59.0771 279.153 0 258.5C 108.073 189.078 193.792 205.465 229.166 225.097Z"/><path id="path11_fill" d="M 203.5 191C 205.833 135 225 20.7 283 11.5C 296.333 33.5 315.56 100.2 241.96 191L 244.285 191C 277 176.5 333.5 70 328.5 32.5C 365 89.5 385.786 165.5 270 242.5L 266 245C 291 255.5 376 207.1 388 165.5C 397 219.667 377 317.7 225 276.5C 258.5 285.58 237.1 403 135.5 401C 168.5 366.5 188 306.5 163 269.5C 127 322.5 9.5 272.5 0 176C 26.5 193.5 74.3 252.6 153.5 245C 109.5 240.833 30.5 203.2 66.5 86C 80.5 92 111.2 116.3 122 165.5C 124.5 176.5 136.9 200.4 166.5 208C 144.333 194.167 109.3 133.2 146.5 0C 162.333 22.6667 195.9 80.9 203.5 132.5L 203.5 191Z"/></defs></svg>
