<svg id="happy-days" width="314" height="272" viewBox="0 0 314 272" version="1.1" xmlns="http://www.w3.org/2000/svg" xmlns:xlink="http://www.w3.org/1999/xlink" xmlns:figma="http://www.figma.com/figma/ns"><title>Group</title><desc>Created using Figma</desc><g id="Canvas" transform="translate(-1900 -11203)" figma:type="canvas"><g id="Group" style="mix-blend-mode:normal;" figma:type="frame"><g id="noun_566382_cc" style="mix-blend-mode:normal;" figma:type="frame"><g id="Group" style="mix-blend-mode:normal;" figma:type="frame"><g id="Group" style="mix-blend-mode:normal;" figma:type="frame"><g id="Group" style="mix-blend-mode:normal;" figma:type="frame"><g id="Vector" style="mix-blend-mode:normal;" figma:type="vector"><use xlink:href="#path0_fill" transform="translate(2033.81 11217.6)" fill="#CAFF0D" style="mix-blend-mode:normal;"/></g><g id="Vector" style="mix-blend-mode:normal;" figma:type="vector"><use xlink:href="#path1_fill" transform="translate(1971.62 11217.6)" fill="#CAFF0D" style="mix-blend-mode:normal;"/></g><g id="Vector" style="mix-blend-mode:normal;" figma:type="vector"><use xlink:href="#path2_fill" transform="translate(2006.79 11203)" fill="#CAFF0D" style="mix-blend-mode:normal;"/></g><g id="Vector" style="mix-blend-mode:normal;" figma:type="vector"><use xlink:href="#path3_fill" transform="translate(1900.5 11317.5)" style="mix-blend-mode:normal;"/></g><g id="Vector" style="mix-blend-mode:normal;" figma:type="vector"><use xlink:href="#path4_fill" transform="translate(1957.02 11252.8)" fill="#CAFF0D" style="mix-blend-mode:normal;"/></g><g id="Vector" style="mix-blend-mode:normal;" figma:type="vector"><use xlink:href="#path5_fill" transform="translate(2033.74 11279.8)" fill="#CAFF0D" style="mix-blend-mode:normal;"/></g><g id="Vector" style="mix-blend-mode:normal;" figma:type="vector"><use xlink:href="#path6_fill" transform="translate(2044.95 11252.8)" fill="#CAFF0D" style="mix-blend-mode:normal;"/></g><g id="Vector" style="mix-blend-mode:normal;" figma:type="vector"><use xlink:href="#path7_fill" transform="translate(2006.79 11291)" fill="#CAFF0D" style="mix-blend-mode:normal;"/></g><g id="Vector" style="mix-blend-mode:normal;" figma:type="vector"><use xlink:href="#path8_fill" transform="translate(1971.62 11279.8)" fill="#CAFF0D" style="mix-blend-mode:normal;"/></g><g id="Vector" style="mix-blend-mode:normal;" figma:type="vector"><use xlink:href="#path9_fill" transform="translate(1983.59 11229.5)" fill="#CAFF0D" style="mix-blend-mode:normal;"/></g></g></g></g></g><g id="noun_566382_cc" style="mix-blend-mode:normal;" figma:type="frame"><g id="Group" style="mix-blend-mode:normal;" figma:type="frame"><g id="Group" style="mix-blend-mode:normal;" figma:type="frame"><g id="Group" style="mix-blend-mode:normal;" figma:type="frame"><g id="Vector" style="mix-blend-mode:normal;" figma:type="vector"><use xlink:href="#path10_fill" transform="translate(1900.5 11317.5)" fill="#D7D7D7" style="mix-blend-mode:normal;"/></g></g></g></g></g></g></g><defs><path id="path0_fill" d="M 14.6674 1.11316C 16.1628 2.61073 16.1628 5.02774 14.6674 6.5253L 6.51555 14.6888C 5.02012 16.1864 2.60657 16.1864 1.11114 14.6888C -0.370378 13.2051 -0.370378 10.7881 1.11114 9.29057L 9.28034 1.10968C 10.7584 -0.370473 13.1893 -0.370474 14.6674 1.11316Z"/><path id="path1_fill" d="M 14.6848 9.37375C 16.1663 10.8713 16.1663 13.2883 14.6709 14.7859C 13.1754 16.2695 10.748 16.2521 9.26646 14.7545L 1.11464 6.51444C -0.380789 5.01687 -0.366879 2.59987 1.12855 1.11623C 2.62398 -0.381332 5.03753 -0.367402 6.53296 1.13016L 14.6848 9.37375Z"/><path id="path2_fill" d="M 7.63711 3.82402L 7.63711 15.3831C 7.63711 17.4937 5.92606 19.2072 3.81855 19.2072C 1.71104 19.2072 -2.86557e-06 17.4937 -2.86557e-06 15.3831L -2.86557e-06 3.82402C -2.86557e-06 1.71349 1.71104 7.43988e-07 3.81855 7.43988e-07C 5.92606 7.43988e-07 7.63711 1.71349 7.63711 3.82402Z"/><path id="path3_fill" d="M 120.618 77.7325L 112.894 65.3341L 103.55 75.7926C 108.968 76.5414 114.665 77.1822 120.618 77.7325ZM 286.155 64.446L 286.155 64.432C 286.002 64.4947 285.835 64.54 285.682 64.5714C 285.821 64.54 285.943 64.5087 286.048 64.4808C 286.079 64.4773 286.124 64.4599 286.155 64.446ZM 296.585 55.6835C 293.608 58.3895 290.614 61.0051 287.623 63.5265C 287.546 63.6032 287.47 63.6798 287.38 63.739L 287.366 63.739L 287.352 63.7703C 287.338 63.7843 287.32 63.8017 287.306 63.8017C 287.306 63.8156 287.306 63.8156 287.293 63.8156C 287.293 63.8156 287.293 63.8156 287.279 63.8156C 287.279 63.8156 287.279 63.8156 287.265 63.8156C 287.265 63.8295 287.265 63.8295 287.265 63.8295L 287.251 63.8435C 287.188 63.8887 287.129 63.934 287.066 63.9828C 260.086 86.7493 232.605 103.17 208.511 113.354L 187.426 120.939C 176.572 124.119 166.845 125.742 158.599 125.742C 148.506 125.742 137.513 123.279 126.124 119.32C 114.748 115.36 102.993 109.885 91.4958 103.724C 68.5462 91.4475 46.6678 76.4161 31.3379 65.1634C 31.2301 65.1181 31.1397 65.0554 31.0493 64.9649C 31.0353 64.951 31.0353 64.951 31.018 64.951C 24.925 60.4861 19.8892 56.6168 16.2689 53.7889L 24.4207 149.811L 80.1967 149.811L 80.1967 144.719C 80.1967 142.609 81.9077 140.895 84.0152 140.895C 86.1227 140.895 87.8338 142.609 87.8338 144.719L 87.8338 149.811L 100.159 149.811L 100.159 132.641C 100.159 130.53 101.87 128.817 103.977 128.817C 106.085 128.817 107.796 130.53 107.796 132.641L 107.796 149.811L 233.057 149.811L 233.057 137.747C 233.057 135.636 234.768 133.923 236.876 133.923C 238.983 133.923 240.694 135.636 240.694 137.747L 240.694 149.811L 248.495 149.811L 248.495 142.898C 248.495 140.787 250.206 139.074 252.313 139.074C 254.421 139.074 256.132 140.787 256.132 142.898L 256.132 149.807L 264.193 149.807L 264.193 126.598C 264.193 124.474 265.887 122.774 268.012 122.774C 270.119 122.774 271.831 124.471 271.831 126.598L 271.831 149.807L 288.593 149.807L 296.585 55.6835ZM 309.181 149.811C 311.289 149.811 313 151.524 313 153.635C 313 155.745 311.289 157.459 309.181 157.459L 292.081 157.459L 20.9186 157.459L 3.81856 157.459C 1.71105 157.455 0 155.742 0 153.631C 0 151.521 1.71105 149.807 3.81856 149.807L 16.7523 149.807L 4.38195 4.15671C 4.19763 2.04618 5.75566 0.196851 7.86317 0.012267C 9.95329 -0.154903 11.8034 1.40536 11.9843 3.49848L 15.3577 43.3129C 15.5698 43.48 15.862 43.7099 16.1958 43.9711C 17.1418 44.7512 18.5607 45.8831 20.3935 47.3041C 23.9512 50.1007 29.0809 54.0327 35.3269 58.6507C 35.3408 58.6507 35.3582 58.6647 35.3721 58.6647C 37.2501 59.4761 46.1357 63.1156 60.7005 67.1033C 65.5241 68.4197 70.9598 69.778 76.9763 71.0945L 100.827 42.7173C 104.033 38.8933 108.613 36.9674 113.117 36.9848C 117.805 36.9708 122.552 39.0639 125.745 43.1318L 146.997 70.2099C 147.929 71.4009 149.348 72.0766 150.83 72.0766C 151.104 72.0766 151.379 72.0452 151.654 72C 151.668 72 151.699 71.9861 151.716 71.9861L 187.993 63.0703C 189.321 62.7499 190.664 62.5966 191.961 62.5966C 196.419 62.5966 200.558 64.4007 203.566 67.368C 205.75 69.5098 207.353 72.2925 208.07 75.4409C 208.407 75.4096 210.834 74.8001 211.168 74.7374C 208.602 71.2651 207.106 66.9849 207.106 62.3529C 207.106 56.5715 209.457 51.2987 213.245 47.506C 217.032 43.7134 222.283 41.3591 228.07 41.3591C 233.843 41.3591 239.108 43.7134 242.882 47.506C 246.669 51.2987 249.02 56.5715 249.02 62.3529C 249.02 64.1569 248.791 65.9157 248.363 67.5978C 248.624 67.5351 248.881 67.4759 249.156 67.4132C 249.201 67.3819 249.263 67.368 249.323 67.3506C 260.942 64.5052 270.791 61.618 282.987 57.4422C 282.834 57.5815 282.667 57.7174 282.514 57.8393C 282.789 57.6268 283.095 57.4248 283.415 57.289C 283.276 57.3517 283.126 57.397 282.987 57.4422C 287.856 53.3152 292.728 48.9548 297.538 44.3855L 301.005 3.49848C 301.19 1.40536 303.036 -0.154903 305.126 0.012267C 307.234 0.196851 308.792 2.04618 308.608 4.15671L 296.255 149.807L 309.181 149.807L 309.181 149.811Z"/><path id="path4_fill" d="M 15.4238 -2.12568e-07C 17.5452 -2.12568e-07 19.2423 1.71349 19.2423 3.82402C 19.2423 5.93454 17.5487 7.64804 15.4238 7.64804L 3.81856 7.64804C 1.71105 7.64804 2.8125e-06 5.93454 2.8125e-06 3.82402C 2.8125e-06 1.71349 1.71105 -2.12568e-07 3.81856 -2.12568e-07L 15.4238 -2.12568e-07Z"/><path id="path5_fill" d="M 14.7404 9.35283C 16.2358 10.8504 16.2358 13.2674 14.7404 14.765C 13.2589 16.2486 10.8314 16.2486 9.3499 14.765L 1.12157 6.52487C -0.373861 5.0273 -0.373861 2.61029 1.12157 1.11273C 2.60308 -0.37091 5.03054 -0.37091 6.51206 1.11273L 14.7404 9.35283Z"/><path id="path6_fill" d="M -2.44104e-06 3.82402C -2.44104e-06 1.7135 1.71104 1.70054e-06 3.81855 1.70054e-06L 15.4377 1.70054e-06C 17.5452 1.70054e-06 19.2562 1.7135 19.2562 3.82402C 19.2562 5.93455 17.5452 7.64804 15.4377 7.64804L 3.81855 7.64804C 1.71104 7.64804 -2.44104e-06 5.93455 -2.44104e-06 3.82402Z"/><path id="path7_fill" d="M 7.63711 3.82402L 7.63711 15.5225C 7.63711 17.633 5.92606 19.3465 3.81855 19.3465C 1.71104 19.3465 -2.86557e-06 17.633 -2.86557e-06 15.5225L -2.86557e-06 3.82402C -2.86557e-06 1.71349 1.71104 -3.2948e-06 3.81855 -3.2948e-06C 5.92606 -3.2948e-06 7.63711 1.71349 7.63711 3.82402Z"/><path id="path8_fill" d="M 14.7439 1.11273C 16.2254 2.6103 16.2254 5.0273 14.7439 6.52487L 6.51555 14.765C 5.02012 16.2486 2.60657 16.2486 1.11114 14.765C -0.37038 13.2674 -0.37038 10.8504 1.11114 9.35283L 9.33947 1.11273C 10.8349 -0.370908 13.2484 -0.370908 14.7439 1.11273Z"/><path id="path9_fill" d="M 27.0464 54.1562C 41.9837 54.1562 54.0928 42.0329 54.0928 27.0781C 54.0928 12.1233 41.9837 0 27.0464 0C 12.1091 0 0 12.1233 0 27.0781C 0 42.0329 12.1091 54.1562 27.0464 54.1562Z"/><path id="path10_fill" fill-rule="evenodd" d="M 76.9763 71.0945C 82.645 72.2664 95.8959 74.8469 103.55 75.7926C 108.968 76.5414 114.665 77.1822 120.618 77.7325C 136.959 80.2959 177.325 83.4264 208.07 75.4409C 208.282 75.4212 209.321 75.1726 210.146 74.9754L 210.148 74.975C 210.634 74.8589 211.045 74.7606 211.168 74.7374L 248.363 67.5978C 248.624 67.5351 248.881 67.4759 249.156 67.4132C 249.193 67.3871 249.243 67.3731 249.293 67.3591C 249.303 67.3563 249.313 67.3535 249.323 67.3506C 260.942 64.5052 270.791 61.618 282.987 57.4422C 282.834 57.5815 282.667 57.7174 282.514 57.8393C 282.776 57.6366 283.067 57.4434 283.371 57.3082C 283.264 57.3529 283.153 57.3887 283.046 57.4232C 283.026 57.4295 283.006 57.4359 282.987 57.4422C 287.856 53.3152 292.728 48.9548 297.538 44.3855L 296.585 55.6835C 293.608 58.3895 290.614 61.0051 287.623 63.5265C 287.546 63.6032 287.47 63.6798 287.38 63.739L 287.366 63.739L 287.352 63.7703C 287.338 63.7843 287.32 63.8017 287.306 63.8017C 287.306 63.8086 287.306 63.8121 287.305 63.8139C 287.303 63.8156 287.3 63.8156 287.293 63.8156L 287.279 63.8156L 287.265 63.8156L 287.265 63.8295L 287.251 63.8435C 287.188 63.8887 287.129 63.934 287.066 63.9828C 260.086 86.7493 232.605 103.17 208.511 113.354L 187.426 120.939C 176.572 124.119 166.845 125.742 158.599 125.742C 148.506 125.742 137.513 123.279 126.124 119.32C 114.748 115.36 102.993 109.885 91.4958 103.724C 68.5462 91.4475 46.6678 76.4161 31.3379 65.1634C 31.2301 65.1181 31.1397 65.0554 31.0493 64.9649C 31.0353 64.951 31.0353 64.951 31.018 64.951C 24.925 60.4861 19.8892 56.6168 16.2689 53.7889L 15.3577 43.3129C 15.5698 43.48 15.862 43.7099 16.1958 43.9711C 17.1418 44.7512 18.5607 45.8831 20.3935 47.3041C 23.9512 50.1007 29.0809 54.0327 35.3269 58.6507C 35.3338 58.6507 35.3417 58.6542 35.3495 58.6577C 35.3573 58.6612 35.3651 58.6647 35.3721 58.6647C 37.2501 59.4761 46.1357 63.1156 60.7005 67.1033C 65.5241 68.4197 70.9598 69.778 76.9763 71.0945ZM 151.714 71.9861L 151.716 71.9861L 151.67 71.9971C 151.673 71.9962 151.676 71.9952 151.68 71.9942L 151.682 71.9936C 151.693 71.9903 151.705 71.9867 151.714 71.9861ZM 286.155 64.432L 286.155 64.446C 286.124 64.4599 286.079 64.4773 286.048 64.4808C 285.997 64.4943 285.943 64.5085 285.884 64.5232C 285.976 64.4981 286.068 64.4679 286.155 64.432Z"/></defs></svg>
