<svg id="information-architecture" width="277" height="306" viewBox="0 0 277 306" version="1.1" xmlns="http://www.w3.org/2000/svg" xmlns:xlink="http://www.w3.org/1999/xlink" xmlns:figma="http://www.figma.com/figma/ns"><title>Info Architecture Icon</title><desc>Created using Figma</desc><g id="Canvas" transform="translate(-1009 -10358)" figma:type="canvas"><g id="Info Architecture Icon" style="mix-blend-mode:normal;" figma:type="frame"><g id="Vector 3" style="mix-blend-mode:normal;" figma:type="vector"><use xlink:href="#path0_stroke" transform="translate(1041.79 10421.3)" style="mix-blend-mode:normal;"/></g><g id="Vector 5" style="mix-blend-mode:normal;" figma:type="vector"><use xlink:href="#path1_stroke" transform="translate(1040.5 10549.7)" style="mix-blend-mode:normal;"/></g><g id="Vector 4" style="mix-blend-mode:normal;" figma:type="vector"><use xlink:href="#path2_stroke" transform="translate(1160.53 10549.7)" style="mix-blend-mode:normal;"/></g><g id="Rectangle 8" style="mix-blend-mode:normal;" figma:type="rounded-rectangle"><use xlink:href="#path3_fill" transform="translate(1009.7 10485.8)" fill="#D7D7D7" style="mix-blend-mode:normal;"/></g><g id="Rectangle 8" style="mix-blend-mode:normal;" figma:type="rounded-rectangle"><use xlink:href="#path3_fill" transform="translate(1009.7 10599.4)" fill="#D7D7D7" style="mix-blend-mode:normal;"/></g><g id="Rectangle 8" style="mix-blend-mode:normal;" figma:type="rounded-rectangle"><use xlink:href="#path3_fill" transform="translate(1127.8 10485.8)" fill="#D7D7D7" style="mix-blend-mode:normal;"/></g><g id="Rectangle 8" style="mix-blend-mode:normal;" figma:type="rounded-rectangle"><use xlink:href="#path3_fill" transform="translate(1127.8 10599.4)" fill="#D7D7D7" style="mix-blend-mode:normal;"/></g><g id="Rectangle 8" style="mix-blend-mode:normal;" figma:type="rounded-rectangle"><use xlink:href="#path3_fill" transform="translate(1221.51 10599.4)" fill="#D7D7D7" style="mix-blend-mode:normal;"/></g><g id="Rectangle 8" style="mix-blend-mode:normal;" figma:type="rounded-rectangle"><use xlink:href="#path3_fill" transform="translate(1009.7 10358)" fill="#D7D7D7" style="mix-blend-mode:normal;"/></g></g></g><defs><path id="path0_stroke" d="M 118.102 39.3797L 119.102 39.3797L 119.102 38.3797L 118.102 38.3797L 118.102 39.3797ZM 119.102 65.7352L 119.102 39.3797L 117.102 39.3797L 117.102 65.7352L 119.102 65.7352ZM -1 0L -1 39.3797L 1 39.3797L 1 0L -1 0ZM -1 39.3797L -1 65.7352L 1 65.7352L 1 39.3797L -1 39.3797ZM 118.102 38.3797L 0 38.3797L 0 40.3797L 118.102 40.3797L 118.102 38.3797Z"/><path id="path1_stroke" d="M -1 0L -1 51.5604L 1 51.5604L 1 0L -1 0ZM 31.7656 84.3423L 87.636 84.3423L 87.636 82.3423L 31.7656 82.3423L 31.7656 84.3423Z"/><path id="path2_stroke" d="M 93.0698 25.5639L 94.0698 25.5639L 94.0698 24.5639L 93.0698 24.5639L 93.0698 25.5639ZM 1 51L 1 25.5639L -1 25.5639L -1 51L 1 51ZM 1 25.5639L 1 0L -1 0L -1 25.5639L 1 25.5639ZM 93.0698 24.5639L 0 24.5639L 0 26.5639L 93.0698 26.5639L 93.0698 24.5639ZM 92.0698 25.5639L 92.0698 51L 94.0698 51L 94.0698 25.5639L 92.0698 25.5639Z"/><path id="path3_fill" d="M 0 10C 0 4.47715 4.47715 0 10 0L 54.186 0C 59.7089 0 64.186 4.47715 64.186 10L 64.186 54.557C 64.186 60.0798 59.7089 64.557 54.186 64.557L 10 64.557C 4.47715 64.557 0 60.0798 0 54.557L 0 10Z"/></defs></svg>
