<svg id="micro-interactions" width="247" height="272" viewBox="0 0 247 272" version="1.1" xmlns="http://www.w3.org/2000/svg" xmlns:xlink="http://www.w3.org/1999/xlink" xmlns:figma="http://www.figma.com/figma/ns"><title>Group</title><desc>Created using Figma</desc><g id="Canvas" transform="translate(-1024 -11203)" figma:type="canvas"><g id="Group" style="mix-blend-mode:normal;" figma:type="frame"><g id="Rectangle 24" style="mix-blend-mode:normal;" figma:type="rounded-rectangle"><use xlink:href="#path0_fill" transform="translate(1046.2 11241.5)" fill="#C4C4C4" style="mix-blend-mode:normal;"/></g><g id="Rectangle 24" style="mix-blend-mode:normal;" figma:type="rounded-rectangle"><use xlink:href="#path0_fill" transform="translate(1046.2 11318.9)" fill="#C4C4C4" style="mix-blend-mode:normal;"/></g><g id="Rectangle 24" style="mix-blend-mode:normal;" figma:type="rounded-rectangle"><use xlink:href="#path0_fill" transform="translate(1046.2 11395.3)" fill="#C4C4C4" style="mix-blend-mode:normal;"/></g><g id="Group" style="mix-blend-mode:normal;" figma:type="frame"><g id="noun_654562_cc" style="mix-blend-mode:normal;" figma:type="frame"><g id="Group" style="mix-blend-mode:normal;" figma:type="frame"><g id="Group" style="mix-blend-mode:normal;" figma:type="frame"><g id="Group" style="mix-blend-mode:normal;" figma:type="frame"><g id="Vector" style="mix-blend-mode:normal;" figma:type="vector"><use xlink:href="#path1_fill" transform="translate(1114.89 11258.3)" style="mix-blend-mode:normal;"/></g></g></g><g id="Vector" style="mix-blend-mode:normal;" figma:type="vector"><use xlink:href="#path2_fill" transform="translate(1114.61 11237.6)" fill="#6CDC34" style="mix-blend-mode:normal;"/></g></g></g><g id="Ellipse" style="mix-blend-mode:normal;" opacity="0.8" figma:type="ellipse"><use xlink:href="#path3_fill" transform="matrix(3.14073e-17 1 -1 3.67781e-17 1202.2 11234.9)" fill="#6DEF14" style="mix-blend-mode:normal;"/></g><g id="Ellipse" style="mix-blend-mode:normal;" opacity="0.8" figma:type="ellipse"><use xlink:href="#path4_fill" transform="matrix(3.14073e-17 1 1 -3.67781e-17 1196.2 11218.8)" fill="#6DEF14" style="mix-blend-mode:normal;"/></g><g id="Ellipse" style="mix-blend-mode:normal;" opacity="0.8" figma:type="ellipse"><use xlink:href="#path5_fill" transform="matrix(3.14073e-17 1 1 -3.67781e-17 1185.2 11254.8)" fill="#6DEF14" style="mix-blend-mode:normal;"/></g><g id="Ellipse" style="mix-blend-mode:normal;" opacity="0.8" figma:type="ellipse"><use xlink:href="#path6_fill" transform="matrix(3.14073e-17 1 1 -3.67781e-17 1197.2 11226)" fill="#6DEF14" style="mix-blend-mode:normal;"/></g><g id="Ellipse" style="mix-blend-mode:normal;" opacity="0.8" figma:type="ellipse"><use xlink:href="#path7_fill" transform="matrix(3.14073e-17 1 1 -3.67781e-17 1165.2 11233)" fill="#6DEF14" style="mix-blend-mode:normal;"/></g><g id="Ellipse" style="mix-blend-mode:normal;" opacity="0.8" figma:type="ellipse"><use xlink:href="#path8_fill" transform="matrix(3.14073e-17 1 1 -3.67781e-17 1184.2 11230)" fill="#6DEF14" style="mix-blend-mode:normal;"/></g><g id="Ellipse" style="mix-blend-mode:normal;" opacity="0.8" figma:type="ellipse"><use xlink:href="#path7_fill" transform="matrix(3.14073e-17 1 1 -3.67781e-17 1100.08 11268.8)" fill="#6DEF14" style="mix-blend-mode:normal;"/></g><g id="Ellipse" style="mix-blend-mode:normal;" opacity="0.8" figma:type="ellipse"><use xlink:href="#path7_fill" transform="matrix(3.14073e-17 1 1 -3.67781e-17 1202.2 11250.3)" fill="#6DEF14" style="mix-blend-mode:normal;"/></g><g id="Ellipse" style="mix-blend-mode:normal;" opacity="0.8" figma:type="ellipse"><use xlink:href="#path9_fill" transform="matrix(3.14073e-17 1 1 -3.67781e-17 1197.2 11237)" fill="#6DEF14" style="mix-blend-mode:normal;"/></g><g id="Ellipse" style="mix-blend-mode:normal;" opacity="0.8" figma:type="ellipse"><use xlink:href="#path7_fill" transform="matrix(3.14073e-17 1 1 -3.67781e-17 1223.2 11233.1)" fill="#6DEF14" style="mix-blend-mode:normal;"/></g><g id="Ellipse" style="mix-blend-mode:normal;" opacity="0.8" figma:type="ellipse"><use xlink:href="#path8_fill" transform="matrix(3.14073e-17 1 1 -3.67781e-17 1248.2 11249)" fill="#6DEF14" style="mix-blend-mode:normal;"/></g><g id="Ellipse" style="mix-blend-mode:normal;" opacity="0.8" figma:type="ellipse"><use xlink:href="#path8_fill" transform="matrix(3.14073e-17 1 1 -3.67781e-17 1234.2 11221.1)" fill="#6DEF14" style="mix-blend-mode:normal;"/></g><g id="Ellipse" style="mix-blend-mode:normal;" opacity="0.8" figma:type="ellipse"><use xlink:href="#path7_fill" transform="matrix(3.14073e-17 1 1 -3.67781e-17 1255.2 11247.3)" fill="#6DEF14" style="mix-blend-mode:normal;"/></g><g id="Ellipse" style="mix-blend-mode:normal;" opacity="0.8" figma:type="ellipse"><use xlink:href="#path10_fill" transform="matrix(3.14073e-17 1 1 -3.67781e-17 1183.2 11280.8)" fill="#6DEF14" style="mix-blend-mode:normal;"/></g><g id="Ellipse" style="mix-blend-mode:normal;" opacity="0.8" figma:type="ellipse"><use xlink:href="#path10_fill" transform="matrix(3.14073e-17 1 1 -3.67781e-17 1266.2 11254.3)" fill="#6DEF14" style="mix-blend-mode:normal;"/></g><g id="Ellipse" style="mix-blend-mode:normal;" opacity="0.8" figma:type="ellipse"><use xlink:href="#path10_fill" transform="matrix(3.14073e-17 1 1 -3.67781e-17 1206.7 11231.7)" fill="#6DEF14" style="mix-blend-mode:normal;"/></g><g id="Ellipse" style="mix-blend-mode:normal;" opacity="0.8" figma:type="ellipse"><use xlink:href="#path10_fill" transform="matrix(3.14073e-17 1 1 -3.67781e-17 1178.55 11242.8)" fill="#6DEF14" style="mix-blend-mode:normal;"/></g><g id="Ellipse" style="mix-blend-mode:normal;" opacity="0.8" figma:type="ellipse"><use xlink:href="#path10_fill" transform="matrix(3.14073e-17 1 1 -3.67781e-17 1112.89 11292.8)" fill="#6DEF14" style="mix-blend-mode:normal;"/></g><g id="Ellipse" style="mix-blend-mode:normal;" opacity="0.8" figma:type="ellipse"><use xlink:href="#path10_fill" transform="matrix(3.14073e-17 1 1 -3.67781e-17 1024.2 11276.8)" fill="#6DEF14" style="mix-blend-mode:normal;"/></g><g id="Ellipse" style="mix-blend-mode:normal;" opacity="0.8" figma:type="ellipse"><use xlink:href="#path11_fill" transform="matrix(3.14073e-17 1 1 -3.67781e-17 1033.2 11278.8)" fill="#6DEF14" style="mix-blend-mode:normal;"/></g><g id="Ellipse" style="mix-blend-mode:normal;" opacity="0.8" figma:type="ellipse"><use xlink:href="#path10_fill" transform="matrix(3.14073e-17 1 1 -3.67781e-17 1031.2 11294.8)" fill="#6DEF14" style="mix-blend-mode:normal;"/></g><g id="Ellipse" style="mix-blend-mode:normal;" opacity="0.8" figma:type="ellipse"><use xlink:href="#path10_fill" transform="matrix(3.14073e-17 1 1 -3.67781e-17 1114.61 11244.8)" fill="#6DEF14" style="mix-blend-mode:normal;"/></g><g id="Ellipse" style="mix-blend-mode:normal;" opacity="0.8" figma:type="ellipse"><use xlink:href="#path12_fill" transform="matrix(3.14073e-17 1 1 -3.67781e-17 1097.62 11250.7)" fill="#6DEF14" style="mix-blend-mode:normal;"/></g><g id="Ellipse" style="mix-blend-mode:normal;" opacity="0.8" figma:type="ellipse"><use xlink:href="#path13_fill" transform="matrix(3.14073e-17 1 -1 3.67781e-17 1255.2 11230)" fill="#6DEF14" style="mix-blend-mode:normal;"/></g><g id="Ellipse" style="mix-blend-mode:normal;" opacity="0.8" figma:type="ellipse"><use xlink:href="#path14_fill" transform="matrix(3.14073e-17 1 -1 3.67781e-17 1232.2 11203)" fill="#6DEF14" style="mix-blend-mode:normal;"/></g><g id="Ellipse" style="mix-blend-mode:normal;" opacity="0.8" figma:type="ellipse"><use xlink:href="#path15_fill" transform="matrix(3.14073e-17 1 -1 3.67781e-17 1094.55 11265.8)" fill="#6DEF14" style="mix-blend-mode:normal;"/></g><g id="Ellipse" style="mix-blend-mode:normal;" opacity="0.8" figma:type="ellipse"><use xlink:href="#path14_fill" transform="matrix(3.14073e-17 1 -1 3.67781e-17 1088.2 11289)" fill="#6DEF14" style="mix-blend-mode:normal;"/></g><g id="Ellipse" style="mix-blend-mode:normal;" opacity="0.8" figma:type="ellipse"><use xlink:href="#path16_fill" transform="matrix(3.14073e-17 1 -1 3.67781e-17 1064.78 11280.8)" fill="#6DEF14" style="mix-blend-mode:normal;"/></g><g id="Ellipse" style="mix-blend-mode:normal;" opacity="0.8" figma:type="ellipse"><use xlink:href="#path17_fill" transform="matrix(3.14073e-17 1 -1 3.67781e-17 1055.2 11290)" fill="#6DEF14" style="mix-blend-mode:normal;"/></g><g id="Ellipse" style="mix-blend-mode:normal;" opacity="0.8" figma:type="ellipse"><use xlink:href="#path18_fill" transform="matrix(3.14073e-17 1 -1 3.67781e-17 1049.2 11280.8)" fill="#6DEF14" style="mix-blend-mode:normal;"/></g><g id="Ellipse" style="mix-blend-mode:normal;" opacity="0.8" figma:type="ellipse"><use xlink:href="#path19_fill" transform="matrix(3.14073e-17 1 -1 3.67781e-17 1101.55 11277.8)" fill="#6DEF14" style="mix-blend-mode:normal;"/></g></g><g id="Subtract" style="mix-blend-mode:normal;" figma:type="vector-operation"><use xlink:href="#path20_fill" transform="translate(1124.7 11248)" fill="#FFFFFF" fill-opacity="0.8" style="mix-blend-mode:normal;"/></g><g id="Subtract" style="mix-blend-mode:normal;" opacity="0.6" figma:type="vector-operation"><use xlink:href="#path21_fill" transform="translate(1118.2 11241)" fill="#FFFFFF" style="mix-blend-mode:normal;"/></g></g></g><defs><path id="path0_fill" d="M 0 7C 0 3.13401 3.13401 0 7 0L 211 0C 214.866 0 218 3.13401 218 7L 218 54C 218 57.866 214.866 61 211 61L 7 61C 3.13401 61 0 57.866 0 54L 0 7Z"/><path id="path1_fill" d="M 129.205 170.263C 126.479 183.924 122.935 197.859 114.213 206.876C 108.216 213.16 100.311 216.439 91.3156 216.712L 43.6134 216.712C 39.7972 216.712 35.9811 216.712 32.1649 215.893C 23.1696 213.707 15.5373 207.696 11.1759 199.225L 10.3582 197.859C 5.1791 187.476 4.1593e-06 177.64 4.1593e-06 166.437C 4.1593e-06 158.787 4.1593e-06 129.824 4.1593e-06 129.004C 4.1593e-06 125.726 2.03091e-06 122.72 0.817754 119.715C 1.90809 115.07 4.90651 111.244 9.26785 108.785C 12.2663 107.146 16.0824 109.332 16.0824 112.884L 16.0824 142.939C 16.0824 144.306 17.1728 145.125 18.2631 145.125C 19.3534 145.125 20.4438 144.032 20.4438 142.939L 20.4438 21.0775C 20.4438 18.3452 20.4438 15.6128 20.4438 12.8805C 20.4438 8.78201 22.3519 4.95675 25.3503 2.49766C 28.3487 0.311795 31.6197 -0.507901 35.4359 0.311798C 38.9795 1.1315 44.9763 4.13706 44.9763 14.7931L 44.9763 77.0902C 44.9763 78.4564 46.0667 79.2761 47.157 79.2761C 48.5199 79.2761 49.3377 78.1832 49.3377 77.0902L 49.3377 60.1498C 49.3377 56.0513 52.8813 52.7725 56.97 53.5922C 61.3314 54.4119 65.4201 56.5978 68.4185 60.1498C 73.3251 65.6144 73.3251 72.7185 73.3251 80.0958L 73.3251 82.5549C 73.3251 83.9211 74.4154 84.7407 75.5057 84.7407C 76.8686 84.7407 77.6864 83.6478 77.6864 82.5549L 77.6864 71.6256C 77.6864 67.5271 81.23 63.975 85.3187 64.2483C 85.5913 64.2483 85.8639 64.2483 86.1365 64.2483C 89.4075 64.5215 92.6785 66.1609 95.1318 68.0735C 99.4931 71.8988 101.946 77.3635 102.219 83.1013L 102.219 89.1125C 102.219 90.4786 103.309 91.2983 104.4 91.2983C 105.763 91.2983 106.58 90.2054 106.58 89.1125L 106.58 83.3746C 106.58 77.9099 111.487 73.265 116.938 74.3579C 117.211 74.3579 117.211 74.3579 117.484 74.6311C 125.116 77.3635 130.568 84.7407 130.84 92.9377C 131.113 97.5827 130.84 113.43 130.84 123.813L 130.84 131.737C 131.658 144.306 131.658 157.421 129.205 170.263Z"/><path id="path2_fill" d="M 16.0824 60.3845L 16.0824 41.8046C 16.0824 39.0723 16.0824 36.34 16.0824 33.3344C 16.0824 27.8698 18.8083 22.6783 22.897 19.3995C 25.8955 17.2137 29.1665 15.8475 32.9827 15.8475C 34.3456 15.8475 35.7085 16.1207 36.7988 16.394C 40.615 17.2137 49.8828 20.7657 49.8828 35.247L 49.8828 59.838C 58.8781 54.1001 64.875 43.9905 64.875 32.5147C 64.875 14.7546 50.428 0 32.4375 0C 14.7195 0 -2.07965e-06 14.4813 -2.07965e-06 32.5147C 0.272582 44.5369 6.54201 54.9198 16.0824 60.3845Z"/><path id="path3_fill" d="M 15.7868 8.30579C 15.7868 12.893 12.2528 16.6116 7.89339 16.6116C 3.53399 16.6116 0 12.893 0 8.30579C 0 3.71863 3.53399 0 7.89339 0C 12.2528 0 15.7868 3.71863 15.7868 8.30579Z"/><path id="path4_fill" d="M 6 3C 6 4.65685 4.65685 6 3 6C 1.34315 6 0 4.65685 0 3C 0 1.34315 1.34315 0 3 0C 4.65685 0 6 1.34315 6 3Z"/><path id="path5_fill" d="M 13 6.5C 13 10.0899 10.0899 13 6.5 13C 2.91015 13 0 10.0899 0 6.5C 0 2.91015 2.91015 0 6.5 0C 10.0899 0 13 2.91015 13 6.5Z"/><path id="path6_fill" d="M 7 3.5C 7 5.433 5.433 7 3.5 7C 1.567 7 0 5.433 0 3.5C 0 1.567 1.567 0 3.5 0C 5.433 0 7 1.567 7 3.5Z"/><path id="path7_fill" d="M 9 4.5C 9 6.98528 6.98528 9 4.5 9C 2.01472 9 0 6.98528 0 4.5C 0 2.01472 2.01472 0 4.5 0C 6.98528 0 9 2.01472 9 4.5Z"/><path id="path8_fill" d="M 5 2.5C 5 3.88071 3.88071 5 2.5 5C 1.11929 5 0 3.88071 0 2.5C 0 1.11929 1.11929 0 2.5 0C 3.88071 0 5 1.11929 5 2.5Z"/><path id="path9_fill" d="M 11 5.5C 11 8.53757 8.53757 11 5.5 11C 2.46243 11 0 8.53757 0 5.5C 0 2.46243 2.46243 0 5.5 0C 8.53757 0 11 2.46243 11 5.5Z"/><path id="path10_fill" d="M 4 2C 4 3.10457 3.10457 4 2 4C 0.895431 4 0 3.10457 0 2C 0 0.895431 0.895431 0 2 0C 3.10457 0 4 0.895431 4 2Z"/><path id="path11_fill" d="M 8 4C 8 6.20914 6.20914 8 4 8C 1.79086 8 0 6.20914 0 4C 0 1.79086 1.79086 0 4 0C 6.20914 0 8 1.79086 8 4Z"/><path id="path12_fill" d="M 12 6.5C 12 10.0899 9.31371 13 6 13C 2.68629 13 0 10.0899 0 6.5C 0 2.91015 2.68629 0 6 0C 9.31371 0 12 2.91015 12 6.5Z"/><path id="path13_fill" d="M 15 8C 15 12.4183 11.6421 16 7.5 16C 3.35786 16 0 12.4183 0 8C 0 3.58172 3.35786 0 7.5 0C 11.6421 0 15 3.58172 15 8Z"/><path id="path14_fill" d="M 27 14C 27 21.732 20.9558 28 13.5 28C 6.04416 28 0 21.732 0 14C 0 6.26801 6.04416 0 13.5 0C 20.9558 0 27 6.26801 27 14Z"/><path id="path15_fill" d="M 21 10.5C 21 16.299 16.299 21 10.5 21C 4.70101 21 0 16.299 0 10.5C 0 4.70101 4.70101 0 10.5 0C 16.299 0 21 4.70101 21 10.5Z"/><path id="path16_fill" d="M 12 6C 12 9.31371 9.31371 12 6 12C 2.68629 12 0 9.31371 0 6C 0 2.68629 2.68629 0 6 0C 9.31371 0 12 2.68629 12 6Z"/><path id="path17_fill" d="M 16 8C 16 12.4183 12.4183 16 8 16C 3.58172 16 0 12.4183 0 8C 0 3.58172 3.58172 0 8 0C 12.4183 0 16 3.58172 16 8Z"/><path id="path18_fill" d="M 4 2C 4 3.10457 3.10457 4 2 4C 0.895431 4 0 3.10457 0 2C 0 0.895431 0.895431 0 2 0C 3.10457 0 4 0.895431 4 2Z"/><path id="path19_fill" d="M 14 7C 14 10.866 10.866 14 7 14C 3.13401 14 0 10.866 0 7C 0 3.13401 3.13401 0 7 0C 10.866 0 14 3.13401 14 7Z"/><path id="path20_fill" fill-rule="evenodd" d="M 41.5 32.5713C 43.0958 29.5664 44 26.1387 44 22.5C 44 10.626 34.3741 1 22.5 1C 10.6259 1 1 10.626 1 22.5C 1 26.1387 1.90417 29.5664 3.5 32.5713L 3.5 34.5576C 1.28369 31.0723 0 26.9365 0 22.5C 0 10.0732 10.0736 0 22.5 0C 34.9264 0 45 10.0732 45 22.5C 45 26.9365 43.7163 31.0723 41.5 34.5576L 41.5 32.5713Z"/><path id="path21_fill" fill-rule="evenodd" d="M 49 47.1387C 53.3496 42.3457 56 35.9824 56 29C 56 14.0879 43.9117 2 29 2C 14.0883 2 2 14.0879 2 29C 2 36.5029 5.05994 43.291 10 48.1836L 10 50.9092C 3.8739 45.5918 0 37.749 0 29C 0 12.9834 12.9838 0 29 0C 45.0162 0 58 12.9834 58 29C 58 37.2627 54.5446 44.7178 49 50L 49 47.1387Z"/></defs></svg>
