<svg id="mock-up" width="225" height="309" viewBox="0 0 225 309" version="1.1" xmlns="http://www.w3.org/2000/svg" xmlns:xlink="http://www.w3.org/1999/xlink" xmlns:figma="http://www.figma.com/figma/ns"><title>Mock-up Icon</title><desc>Created using Figma</desc><g id="Canvas" transform="translate(-1929 -10355)" figma:type="canvas"><g id="Mock-up Icon" style="mix-blend-mode:normal;" figma:type="frame"><g id="Rectangle 9" style="mix-blend-mode:normal;" figma:type="vector"><use xlink:href="#path0_fill" transform="translate(1929.21 10355)" fill="#D7D7D7" style="mix-blend-mode:normal;"/></g><g id="Group" style="mix-blend-mode:normal;" figma:type="frame"><g id="Rectangle 10" style="mix-blend-mode:normal;" figma:type="rounded-rectangle"><use xlink:href="#path1_fill" transform="translate(1951.5 10462.1)" fill="#79A637" style="mix-blend-mode:normal;"/></g><g id="Rectangle 10" style="mix-blend-mode:normal;" figma:type="rounded-rectangle"><use xlink:href="#path2_fill" transform="translate(1951.5 10535.7)" fill="#79A637" style="mix-blend-mode:normal;"/></g><g id="Vector 6" style="mix-blend-mode:normal;" figma:type="vector"><use xlink:href="#path3_stroke" transform="matrix(1 -0.000944041 0.000942188 1 1951.5 10445.4)" style="mix-blend-mode:normal;"/></g><g id="Rectangle 11" style="mix-blend-mode:normal;" figma:type="rounded-rectangle"><use xlink:href="#path4_fill" transform="translate(2018.36 10427.5)" fill="#4A96D9" style="mix-blend-mode:normal;"/></g><g id="Rectangle 11" style="mix-blend-mode:normal;" figma:type="rounded-rectangle"><use xlink:href="#path4_fill" transform="translate(2085.23 10427.5)" fill="#4A96D9" style="mix-blend-mode:normal;"/></g><g id="Rectangle 11" style="mix-blend-mode:normal;" figma:type="rounded-rectangle"><use xlink:href="#path4_fill" transform="translate(1951.5 10427.5)" fill="#4A96D9" style="mix-blend-mode:normal;"/></g><g id="Rectangle 11" style="mix-blend-mode:normal;" figma:type="rounded-rectangle"><use xlink:href="#path5_fill" transform="translate(2071.85 10510.1)" fill="#163E8C" style="mix-blend-mode:normal;"/></g><g id="Rectangle 11" style="mix-blend-mode:normal;" figma:type="rounded-rectangle"><use xlink:href="#path6_fill" transform="translate(1951.5 10623.8)" fill="#163E8C" style="mix-blend-mode:normal;"/></g><g id="Group" style="mix-blend-mode:normal;" figma:type="frame"><g id="Rectangle 11" style="mix-blend-mode:normal;" figma:type="rounded-rectangle"><use xlink:href="#path7_fill" transform="translate(2020.59 10462.1)" fill="#4A96D9" style="mix-blend-mode:normal;"/></g><g id="Rectangle 11" style="mix-blend-mode:normal;" figma:type="rounded-rectangle"><use xlink:href="#path7_fill" transform="translate(2020.59 10469.9)" fill="#4A96D9" style="mix-blend-mode:normal;"/></g><g id="Rectangle 11" style="mix-blend-mode:normal;" figma:type="rounded-rectangle"><use xlink:href="#path8_fill" transform="translate(2020.59 10477.7)" fill="#4A96D9" style="mix-blend-mode:normal;"/></g><g id="Rectangle 11" style="mix-blend-mode:normal;" figma:type="rounded-rectangle"><use xlink:href="#path8_fill" transform="translate(2020.59 10485.4)" fill="#4A96D9" style="mix-blend-mode:normal;"/></g><g id="Rectangle 11" style="mix-blend-mode:normal;" figma:type="rounded-rectangle"><use xlink:href="#path8_fill" transform="translate(2020.59 10493)" fill="#4A96D9" style="mix-blend-mode:normal;"/></g><g id="Rectangle 11" style="mix-blend-mode:normal;" figma:type="rounded-rectangle"><use xlink:href="#path8_fill" transform="translate(2020.59 10500.7)" fill="#4A96D9" style="mix-blend-mode:normal;"/></g></g><g id="Ellipse 6" style="mix-blend-mode:normal;" figma:type="ellipse"><use xlink:href="#path9_fill" transform="translate(2018.36 10363.9)" fill="#49731F" style="mix-blend-mode:normal;"/></g><g id="Polygon" style="mix-blend-mode:normal;" figma:type="regular-polygon"><use xlink:href="#path10_fill" transform="matrix(6.14241e-17 1 -1 6.10412e-17 2057.46 10557.2)" fill="#FFFFFF" style="mix-blend-mode:normal;"/></g></g></g></g><defs><path id="path0_fill" d="M 0 2C 0 0.895431 0.895431 0 2 0L 222 0C 223.105 0 224 0.895431 224 2L 224 307C 224 308.105 223.105 309 222 309L 2 309C 0.895431 309 0 308.105 0 307L 0 2Z"/><path id="path1_fill" d="M 0 0L 60.1791 0L 60.1791 59.1227L 0 59.1227L 0 0Z"/><path id="path2_fill" d="M 0 0L 180.537 0L 180.537 79.2022L 0 79.2022L 0 0Z"/><path id="path3_stroke" d="M 0 0.5L 180.537 0.5L 180.537 -0.5L 0 -0.5L 0 0.5Z"/><path id="path4_fill" d="M 0 0L 46.806 0L 46.806 11.1552L 0 11.1552L 0 0Z"/><path id="path5_fill" d="M 0 0L 60.1791 0L 60.1791 12.2708L 0 12.2708L 0 0Z"/><path id="path6_fill" d="M 0 0L 180.537 0L 180.537 17.8484L 0 17.8484L 0 0Z"/><path id="path7_fill" d="M 0 0L 111.443 0L 111.443 5.57762L 0 5.57762L 0 0Z"/><path id="path8_fill" d="M 0 0L 111.395 0L 111.395 6.03516L 0 6.03516L 0 0Z"/><path id="path9_fill" d="M 47.9204 23.9838C 47.9204 37.2296 37.1931 47.9675 23.9602 47.9675C 10.7273 47.9675 0 37.2296 0 23.9838C 0 10.7379 10.7273 0 23.9602 0C 37.1931 0 47.9204 10.7379 47.9204 23.9838Z"/><path id="path10_fill" d="M 15.6914 0L 29.2806 23.6108L 2.10225 23.6108L 15.6914 0Z"/></defs></svg>
