<svg id="print" width="80" height="76" viewBox="0 0 80 76" version="1.1" xmlns="http://www.w3.org/2000/svg" xmlns:xlink="http://www.w3.org/1999/xlink" xmlns:figma="http://www.figma.com/figma/ns"><title>noun_640861_cc</title><desc>Created using Figma</desc><g id="Canvas" transform="translate(-3468 -1755)" figma:type="canvas"><g id="noun_640861_cc" style="mix-blend-mode:normal;" figma:type="frame"><g id="Group" style="mix-blend-mode:normal;" figma:type="frame"><g id="Vector" style="mix-blend-mode:normal;" figma:type="vector"><use xlink:href="#path0_fill" transform="matrix(-1 0 0 1 3547.76 1755)" style="mix-blend-mode:normal;"/></g><g id="Group" style="mix-blend-mode:normal;" figma:type="frame"><g id="Vector" style="mix-blend-mode:normal;" figma:type="vector"><use xlink:href="#path1_fill" transform="matrix(-1 0 0 1 3524.3 1770.74)" style="mix-blend-mode:normal;"/></g><g id="Vector" style="mix-blend-mode:normal;" figma:type="vector"><use xlink:href="#path2_fill" transform="matrix(-1 0 0 1 3518.37 1771.69)" style="mix-blend-mode:normal;"/></g></g></g></g></g><defs><path id="path0_fill" d="M 29.4379 17.2144C 31.9164 14.8345 34.9926 17.2996 34.9926 17.2996C 34.9926 17.2996 37.4629 19.0817 39.8778 21.5606L 39.906 21.5499L 39.906 0L 0 0L 0 25.1203L 30.3352 25.1203L 30.3926 25.0989C 28.9662 22.5144 27.4947 19.0802 29.4379 17.2144Z"/><path id="path1_fill" d="M 55.4631 47.5796C 55.4529 47.571 49.3126 41.716 45.9098 37.7371C 43.0678 34.4712 42.4095 22.6562 42.4284 16.0153C 42.4269 14.9452 42.4428 14.0077 42.4674 13.2584C 42.4684 13.1447 42.4715 13.035 42.4715 12.9254C 42.4843 7.60495 38.2478 7.00155 36.159 6.12987C 33.9256 5.19034 23.4335 0.946159 20.9248 0.170873C 20.5372 0.0510094 20.1562 -0.000505849 19.7912 4.20769e-06C 17.6439 0.0117355 16.0499 1.70206 16.0278 1.7143C 15.9294 1.8153 15.9335 1.97749 16.0355 2.07491C 16.1381 2.17285 16.3001 2.16979 16.3985 2.06726C 16.3996 2.06624 16.7703 1.68064 17.3896 1.2879C 18.009 0.893114 18.8611 0.50853 19.7917 0.50955C 20.109 0.50955 20.4372 0.553416 20.773 0.656958C 23.2202 1.41082 33.7482 5.66776 35.9601 6.59861C 38.2232 7.56007 41.946 7.97066 41.9598 12.9248C 41.9598 13.0258 41.9568 13.1335 41.9557 13.2462C 41.9311 13.998 41.9162 14.9406 41.9162 16.0148C 41.9342 22.719 42.47 34.4477 45.5206 38.0671C 48.6559 41.7329 54.0588 46.941 54.9745 47.8199C 54.7638 48.258 54.1501 49.5138 53.4041 50.8945C 52.4838 52.6057 51.3389 54.5215 50.5796 55.2295C 49.8243 55.9476 47.7253 57.1085 45.8441 58.0572C 44.305 58.8351 42.9027 59.4859 42.4382 59.6996C 41.4743 58.731 35.2966 52.5568 31.9804 51.0179C 28.5416 49.4296 25.4412 46.2734 24.1738 40.9887L 24.1282 40.8928C 24.1251 40.8897 22.8982 39.2892 21.581 37.1117C 20.2634 34.9379 18.8683 32.1871 18.5386 29.9592C 17.8495 25.3769 17.3563 20.9139 14.8009 18.0948C 12.2963 15.3502 9.65636 13.5619 8.25204 11.1662C 7.18714 9.37077 5.29113 6.26146 5.3019 3.90806C 5.30395 3.03688 5.54543 2.29067 6.15761 1.70206C 6.92002 0.973193 7.71267 0.739586 8.46431 0.737035C 9.24158 0.736015 9.97476 1.00176 10.5105 1.27107C 11.0463 1.53936 11.3724 1.80407 11.3745 1.80305C 11.3878 1.81275 12.847 2.86448 14.6189 4.48034C 16.3919 6.09569 18.4704 8.27364 19.6835 10.4832C 22.185 15.0309 24.8778 16.8655 26.5708 17.4853C 27.7044 17.8974 29.9177 18.1341 31.701 18.1361C 32.6285 18.1351 33.4206 18.0739 33.9184 17.9127C 34.0533 17.8683 34.1251 17.724 34.0799 17.5903C 34.0359 17.4567 33.8908 17.3848 33.7575 17.4292C 33.377 17.5567 32.5956 17.6281 31.7004 17.626C 29.9716 17.6291 27.7515 17.3776 26.7482 17.0068C 26.5743 16.9431 26.3852 16.862 26.1867 16.7671C 27.9012 16.3514 32.9053 14.8875 34.9157 11.334C 34.9854 11.21 34.9398 11.055 34.8167 10.9871C 34.6937 10.9188 34.5378 10.9632 34.4686 11.0866C 33.3539 13.086 31.118 14.431 29.1471 15.2578C 27.225 16.0678 25.5863 16.3815 25.5094 16.3988C 25.4577 16.3672 25.4064 16.3366 25.3541 16.3035C 25.7755 16.1275 26.3841 15.7919 26.6 15.2135C 26.642 15.0798 26.5677 14.9365 26.4328 14.8947C 26.2985 14.8518 26.1544 14.9263 26.1114 15.0599C 26.0483 15.289 25.7273 15.5491 25.3987 15.7169C 25.1644 15.8403 24.946 15.9184 24.8419 15.9541C 24.8075 15.9291 24.7727 15.9041 24.7378 15.8781C 25.1905 15.5965 26.0037 14.9681 26.1765 13.948C 26.1985 13.8088 26.1016 13.6792 25.9622 13.6573C 25.8227 13.6364 25.692 13.7318 25.6699 13.8715C 25.5899 14.403 25.2346 14.8381 24.8824 15.139C 24.6476 15.341 24.4271 15.4726 24.3061 15.5399C 24.2528 15.496 24.2 15.4527 24.1461 15.4068C 24.5496 15.0701 25.43 14.1622 25.4341 12.6305C 25.4341 12.5209 25.43 12.4087 25.4218 12.2959C 25.41 12.1557 25.2869 12.0501 25.1464 12.0618C 25.0044 12.072 24.8993 12.195 24.9101 12.3357C 24.9188 12.4372 24.9224 12.5367 24.9224 12.6305C 24.9214 13.4788 24.606 14.0995 24.2887 14.5193C 24.1308 14.7274 23.9713 14.883 23.8534 14.9855C 23.8129 15.0212 23.7862 15.0406 23.758 15.0625C 22.6111 14 21.3539 12.4561 20.1342 10.2384C 19.9383 9.88338 19.7204 9.53093 19.4881 9.18154L 20.9817 8.91121C 20.9863 8.9107 20.9899 8.90713 20.994 8.90611C 22.0937 9.75025 23.695 11.13 25.6258 11.2105C 25.674 11.2019 28.2801 11.0106 29.7496 10.0644C 29.867 9.98692 29.8998 9.8288 29.8234 9.71149C 29.7455 9.59366 29.5865 9.56102 29.4686 9.63753C 28.8385 10.0507 27.8654 10.3281 27.0594 10.4883C 26.2524 10.6495 25.6161 10.7005 25.6145 10.7015C 23.4842 10.6327 21.6446 8.58222 20.4592 7.92578C 20.4033 7.89568 20.3382 7.88701 20.2762 7.90282C 20.069 7.95434 19.8629 7.97423 19.6671 7.97423C 19.3302 7.97423 19.0293 7.91354 18.8114 7.85284C 18.5894 7.79112 18.4535 7.72941 18.4514 7.73247C 18.4412 7.72788 18.4299 7.72839 18.4196 7.72481C 15.6002 4.21409 11.6949 1.40878 11.6857 1.39858C 11.6749 1.3945 10.2526 0.23565 8.46533 0.22851C 7.60244 0.225449 6.65494 0.515162 5.80281 1.33635C 5.07374 2.03258 4.78764 2.9466 4.79021 3.90908C 4.79944 6.22423 6.35142 8.94742 7.43683 10.7882C 7.41837 10.7984 7.39581 10.8107 7.363 10.827C 7.04204 10.9912 6.06122 11.385 3.77401 11.638C 3.61815 11.6548 3.47048 11.663 3.33154 11.663C 2.09744 11.6579 1.42681 11.057 1.01459 10.4322C 0.811556 10.1211 0.683379 9.8033 0.60801 9.56714C 0.532641 9.33098 0.512134 9.18409 0.50957 9.18409C 0.488036 9.04535 0.35678 8.94997 0.21681 8.97139C 0.0778646 8.99282 -0.0185253 9.12339 0.00300867 9.26264C 0.00608495 9.27335 0.451632 12.1521 3.33154 12.173C 3.49202 12.173 3.65711 12.1633 3.83092 12.145C 6.39038 11.8604 7.39017 11.4028 7.69575 11.2269C 7.73472 11.2927 7.77471 11.361 7.81162 11.4237C 8.6335 12.8126 9.80864 13.9776 11.1017 15.189C 10.9438 15.6756 9.84914 19.046 9.84299 20.9491C 9.84504 21.3444 9.88504 21.6825 10.0286 21.9564C 10.3793 22.6088 11.5734 24.6036 12.806 26.4816C 12.9593 26.7147 13.1131 26.9463 13.2653 27.1723C 13.2653 27.1825 13.2653 27.1871 13.2653 27.1978C 13.2653 27.5747 13.2771 28.5611 13.3976 29.5252C 13.5407 30.4881 13.6914 31.4226 14.2995 31.7954C 15.2629 32.3004 18.5524 33.1659 19.0175 33.2894C 20.5838 37.0153 23.355 40.7117 23.6888 41.1585C 24.9931 46.5554 28.2078 49.8443 31.765 51.4811C 33.457 52.2569 36.0913 54.4425 38.2693 56.4225C 40.4535 58.4046 42.1967 60.1811 42.2003 60.1842C 42.25 60.2352 42.3162 60.2617 42.3828 60.2617C 42.4187 60.2617 42.4556 60.254 42.49 60.2382C 42.5059 60.2255 49.2219 57.1998 50.9349 55.6013C 52.6371 53.9793 55.5036 47.8903 55.5185 47.8745C 55.5636 47.773 55.5421 47.6561 55.4631 47.5796ZM 19.665 8.48429C 19.866 8.48327 20.0793 8.46491 20.2977 8.41951C 20.3357 8.44144 20.3767 8.46848 20.4167 8.49398L 19.1692 8.71943C 19.0954 8.61537 19.0205 8.51183 18.9442 8.4088C 19.1544 8.45063 19.3974 8.48327 19.665 8.48429ZM 13.7688 27.0045C 13.7663 26.9881 13.7652 26.9718 13.7596 26.9565C 13.7704 26.983 13.7791 27.0096 13.7899 27.0356C 13.7832 27.0254 13.776 27.0147 13.7688 27.0045ZM 14.1836 25.1943L 14.2939 25.4253C 14.3872 25.3804 14.4825 25.3605 14.5907 25.3605C 15.0973 25.3437 15.8592 25.9053 16.4375 26.5077C 16.8502 26.929 17.1825 27.3513 17.3424 27.5625C 17.2291 27.7308 17.0266 28.0215 16.7943 28.3112C 16.4601 28.7642 15.953 29.1763 15.8848 29.1324L 15.8817 29.1314C 15.8827 29.1345 15.8417 29.1156 15.773 29.0564C 15.228 28.6422 14.0083 26.8188 14.0375 25.9201C 14.0457 25.6431 14.1108 25.5182 14.2933 25.4253L 14.1836 25.1943ZM 15.8843 29.642C 16.4139 29.5971 16.7928 29.0926 17.1938 28.6295C 17.4091 28.3617 17.5952 28.099 17.7183 27.919C 17.75 28.1312 17.7823 28.3439 17.8141 28.5581C 17.7295 28.6744 17.5327 28.9345 17.2768 29.1941C 16.9369 29.5491 16.4816 29.8654 16.177 29.8531C 16.1299 29.8531 16.0868 29.848 16.0437 29.8363C 16.0176 29.8414 15.9186 29.7649 15.7802 29.6312C 15.8161 29.6379 15.8504 29.642 15.8843 29.642ZM 10.4788 21.7157C 10.4024 21.58 10.3516 21.302 10.3537 20.9486C 10.3485 19.3771 11.2253 16.4891 11.5139 15.5766C 12.4604 16.4565 13.4556 17.3751 14.4205 18.437C 16.2904 20.4793 17.0251 23.5871 17.5798 27.033C 17.3917 26.7964 17.122 26.4755 16.8036 26.1511C 16.1817 25.5294 15.4116 24.8663 14.5912 24.8495C 14.4164 24.8495 14.2395 24.8847 14.0739 24.9637L 14.0739 24.9632C 13.6822 25.1407 13.5156 25.538 13.5243 25.9196C 13.5273 26.2409 13.6176 26.5893 13.755 26.9417C 13.7335 26.8922 13.6955 26.8535 13.6494 26.8259C 12.2912 24.8061 10.8505 22.4104 10.4788 21.7157ZM 14.5389 31.3445C 14.2974 31.266 13.9996 30.3861 13.9052 29.4609C 13.8375 28.9253 13.8057 28.3775 13.7899 27.9368C 14.0657 28.3306 14.3328 28.6994 14.5789 29.0197C 15.1342 29.7169 15.5054 30.1887 15.9094 30.3275C 15.9961 30.3504 16.0817 30.3622 16.1663 30.3622C 16.1699 30.3622 16.1735 30.3622 16.177 30.3622C 16.9025 30.3285 17.5378 29.7078 17.9162 29.2538C 17.9541 29.5134 17.992 29.7736 18.031 30.0347C 18.1592 30.8824 18.4263 31.7862 18.7765 32.6987C 17.7665 32.4258 15.2439 31.724 14.5389 31.3445Z"/><path id="path2_fill" d="M 3.92584 0.217799C 3.47619 0.0632518 3.09063 5.64403e-06 2.75634 5.64403e-06C 2.22722 -0.00101447 1.83141 0.162204 1.53711 0.333073L 1.5366 0.332051C 1.21359 0.522813 0.0158948 1.45928 6.88457e-07 3.04709C 6.88457e-07 3.46839 0.0902371 3.92999 0.30814 4.41914C 1.27973 6.64401 2.52255 7.1459 3.29726 7.33565C 3.35365 7.34891 3.4039 7.3535 3.45363 7.3535C 4.05966 7.32952 5.00561 6.74245 5.92798 6.05642C 6.82728 5.33826 7.63634 4.6456 7.69069 3.97845C 7.69069 3.9555 7.68966 3.92846 7.68556 3.89837C 7.57687 3.32711 6.94469 2.59415 6.18895 1.84641C 5.42655 1.11346 4.56724 0.442224 3.92584 0.217799ZM 7.17798 3.97845C 7.23233 4.15289 6.48941 5.01999 5.61626 5.65195C 4.7672 6.31502 3.7223 6.86741 3.45312 6.84344C 3.43415 6.84344 3.42492 6.8414 3.42492 6.8414C 2.72815 6.64962 1.72733 6.32318 0.77676 4.21257C 0.586031 3.7831 0.512713 3.39596 0.512713 3.04709C 0.496819 1.75715 1.58582 0.884443 1.79142 0.774781L 1.66478 0.553927L 1.79244 0.774781C 2.04624 0.630945 2.3313 0.511081 2.75686 0.509041C 3.025 0.509041 3.35314 0.560048 3.75972 0.698783C 4.24013 0.857411 5.11175 1.50773 5.83211 2.21059C 6.55811 2.89764 7.16003 3.70965 7.179 3.97182C 7.17798 3.96825 7.17798 3.97845 7.17798 3.97845Z"/></defs></svg>
