<svg id="print" width="170" height="163" viewBox="0 0 170 163" version="1.1" xmlns="http://www.w3.org/2000/svg" xmlns:xlink="http://www.w3.org/1999/xlink" xmlns:figma="http://www.figma.com/figma/ns"><title>Group</title><desc>Created using Figma</desc><g id="Canvas" transform="translate(-1852 -2328)" figma:type="canvas"><g id="Group" style="mix-blend-mode:normal;" figma:type="frame"><g id="noun_640861_cc" style="mix-blend-mode:normal;" figma:type="frame"><g id="Group" style="mix-blend-mode:normal;" figma:type="frame"><g id="Vector" style="mix-blend-mode:normal;" figma:type="vector"><use xlink:href="#path0_fill" transform="matrix(-1 0 0 1 2022 2328)" fill="#333D47" style="mix-blend-mode:normal;"/></g><g id="Group" style="mix-blend-mode:normal;" figma:type="frame"><g id="Vector" style="mix-blend-mode:normal;" figma:type="vector"><use xlink:href="#path1_fill" transform="matrix(-1 0 0 1 1971.52 2361.75)" fill="#333D47" style="mix-blend-mode:normal;"/></g><g id="Vector" style="mix-blend-mode:normal;" figma:type="vector"><use xlink:href="#path2_fill" transform="matrix(-1 0 0 1 1958.76 2363.8)" fill="#333D47" style="mix-blend-mode:normal;"/></g></g></g></g></g></g><defs><path id="path0_fill" d="M 63.3474 36.9204C 68.6808 31.8161 75.3006 37.1031 75.3006 37.1031C 75.3006 37.1031 80.6163 40.9253 85.8129 46.2418L 85.8736 46.2189L 85.8736 0L 0 0L 0 53.8764L 65.2782 53.8764L 65.4018 53.8305C 62.3324 48.2875 59.1659 40.922 63.3474 36.9204Z"/><path id="path1_fill" d="M 119.351 102.046C 119.329 102.027 106.116 89.4699 98.7932 80.9361C 92.6776 73.9316 91.2609 48.5916 91.3017 34.3486C 91.2984 32.0535 91.3326 30.0428 91.3856 28.4358C 91.3878 28.1919 91.3944 27.9567 91.3944 27.7215C 91.422 16.3106 82.3054 15.0165 77.8105 13.147C 73.0045 11.1319 50.4264 2.02926 45.028 0.366477C 44.1939 0.109402 43.3741 -0.00108491 42.5886 9.02438e-06C 37.9679 0.0251696 34.5377 3.65048 34.4903 3.67673C 34.2785 3.89333 34.2873 4.2412 34.5068 4.45015C 34.7275 4.66018 35.0762 4.65362 35.288 4.43374C 35.2902 4.43155 36.0879 3.60453 37.4207 2.7622C 38.7535 1.91549 40.5872 1.09066 42.5897 1.09285C 43.2726 1.09285 43.9787 1.18693 44.7014 1.409C 49.9675 3.02584 72.6228 12.1558 77.3824 14.1523C 82.2524 16.2144 90.2635 17.095 90.2933 27.7204C 90.2933 27.937 90.2867 28.1678 90.2845 28.4096C 90.2315 30.022 90.1995 32.0436 90.1995 34.3475C 90.2381 48.7262 91.3911 73.8813 97.9558 81.6439C 104.702 89.506 116.329 100.676 118.3 102.561C 117.846 103.501 116.525 106.194 114.92 109.155C 112.94 112.825 110.476 116.934 108.842 118.453C 107.217 119.993 102.7 122.483 98.6519 124.517C 95.3398 126.186 92.3223 127.582 91.3227 128.04C 89.2485 125.963 75.9547 112.72 68.8186 109.42C 61.4187 106.014 54.747 99.2442 52.0196 87.9099L 51.9214 87.7043C 51.9148 87.6977 49.2746 84.2649 46.4402 79.5949C 43.6047 74.9326 40.6026 69.033 39.8932 64.2546C 38.4103 54.4267 37.349 44.8547 31.8501 38.8085C 26.4604 32.9221 20.7795 29.0867 17.7576 23.9485C 15.466 20.0978 11.386 13.4292 11.4091 8.38176C 11.4136 6.51332 11.9332 4.91288 13.2506 3.65048C 14.8912 2.08724 16.5969 1.58622 18.2143 1.58075C 19.8869 1.57856 21.4647 2.1485 22.6176 2.7261C 23.7706 3.30151 24.4723 3.86926 24.4767 3.86708C 24.5054 3.88786 27.6454 6.14356 31.4584 9.60916C 35.2736 13.0737 39.7464 17.7448 42.3569 22.4837C 47.7399 32.2373 53.5345 36.1722 57.1776 37.5013C 59.617 38.3852 64.38 38.8928 68.2173 38.8972C 70.2131 38.895 71.9177 38.7637 72.9891 38.418C 73.2792 38.3228 73.4337 38.0133 73.3366 37.7266C 73.2417 37.44 72.9295 37.2858 72.6426 37.381C 71.824 37.6544 70.1425 37.8076 68.2161 37.8032C 64.4958 37.8098 59.7185 37.2705 57.5593 36.4752C 57.1853 36.3384 56.7782 36.1645 56.3512 35.961C 60.0407 35.0695 70.8089 31.9299 75.135 24.3084C 75.285 24.0426 75.1868 23.71 74.9221 23.5645C 74.6573 23.4179 74.3218 23.5131 74.1729 23.7778C 71.7743 28.0661 66.9628 30.9508 62.7217 32.7241C 58.5854 34.4612 55.0592 35.134 54.8937 35.1712C 54.7823 35.1034 54.672 35.0377 54.5594 34.9666C 55.4664 34.5892 56.776 33.8694 57.2405 32.6289C 57.3309 32.3423 57.171 32.0349 56.8808 31.9452C 56.5917 31.8533 56.2817 32.013 56.189 32.2996C 56.0533 32.7908 55.3626 33.3487 54.6554 33.7086C 54.1512 33.9733 53.6812 34.1407 53.4572 34.2173C 53.3833 34.1637 53.3083 34.1101 53.2333 34.0543C 54.2075 33.4504 55.9573 32.1027 56.3291 29.9148C 56.3766 29.6162 56.168 29.3383 55.868 29.2913C 55.5678 29.2464 55.2865 29.451 55.2391 29.7507C 55.0669 30.8906 54.3024 31.8238 53.5444 32.4692C 53.0391 32.9024 52.5647 33.1846 52.3043 33.329C 52.1895 33.2349 52.0759 33.1419 51.96 33.0435C 52.8283 32.3215 54.7227 30.3743 54.7315 27.0892C 54.7315 26.854 54.7227 26.6133 54.7051 26.3716C 54.6797 26.0707 54.4149 25.8443 54.1126 25.8695C 53.807 25.8913 53.5808 26.155 53.604 26.4569C 53.6227 26.6746 53.6304 26.8879 53.6304 27.0892C 53.6282 28.9084 52.9497 30.2397 52.2668 31.14C 51.9269 31.5864 51.5838 31.92 51.3301 32.1399C 51.2429 32.2165 51.1855 32.258 51.1248 32.3051C 48.6567 30.0264 45.9514 26.7151 43.3267 21.9586C 42.9052 21.1972 42.4363 20.4413 41.9365 19.692L 45.1504 19.1122C 45.1604 19.1111 45.1681 19.1034 45.1769 19.1013C 47.5435 20.9117 50.9891 23.8708 55.1442 24.0437C 55.2479 24.0251 60.856 23.6148 64.0181 21.5856C 64.2707 21.4193 64.3413 21.0802 64.1769 20.8286C 64.0092 20.5759 63.6672 20.5059 63.4135 20.67C 62.0575 21.5561 59.9634 22.1512 58.229 22.4946C 56.4924 22.8403 55.1232 22.9497 55.1199 22.9519C 50.5357 22.8042 46.577 18.4066 44.0262 16.9987C 43.9059 16.9342 43.7658 16.9156 43.6323 16.9495C 43.1866 17.06 42.743 17.1026 42.3216 17.1026C 41.5967 17.1026 40.9491 16.9725 40.4801 16.8423C 40.0024 16.7099 39.71 16.5775 39.7056 16.5841C 39.6836 16.5743 39.6593 16.5754 39.6372 16.5677C 33.5701 9.03812 25.1663 3.02146 25.1464 2.99959C 25.1232 2.99083 22.0627 0.505408 18.2165 0.490093C 16.3597 0.48353 14.3208 1.10489 12.4871 2.86613C 10.9182 4.35935 10.3025 6.31969 10.308 8.38395C 10.3279 13.3493 13.6676 19.1899 16.0033 23.1379C 15.9636 23.1598 15.915 23.186 15.8444 23.221C 15.1538 23.5733 13.0431 24.4178 8.12129 24.9604C 7.78588 24.9965 7.46813 25.014 7.16914 25.014C 4.51348 25.003 3.07035 23.7144 2.1833 22.3743C 1.74639 21.707 1.47056 21.0255 1.30838 20.519C 1.14619 20.0125 1.10206 19.6975 1.09654 19.6975C 1.0502 19.3999 0.767755 19.1953 0.466553 19.2413C 0.167557 19.2872 -0.0398645 19.5673 0.00647435 19.8659C 0.0130942 19.8889 0.971867 26.0631 7.16914 26.1079C 7.51447 26.1079 7.86973 26.0871 8.24375 26.0478C 13.7515 25.4373 15.9029 24.4561 16.5605 24.0787C 16.6443 24.2198 16.7304 24.3664 16.8098 24.5009C 18.5784 27.4797 21.1072 29.9783 23.8897 32.5764C 23.5499 33.62 21.1944 40.8487 21.1811 44.9302C 21.1855 45.778 21.2716 46.5033 21.5805 47.0908C 22.3352 48.4899 24.9048 52.7683 27.5571 56.7962C 27.887 57.2961 28.218 57.7927 28.5457 58.2774C 28.5457 58.2992 28.5457 58.3091 28.5457 58.3321C 28.5457 59.1405 28.5711 61.2561 28.8303 63.3237C 29.1382 65.389 29.4625 67.3931 30.7711 68.1928C 32.8442 69.2758 39.923 71.1322 40.9237 71.3969C 44.2943 79.3882 50.2576 87.3159 50.9759 88.2742C 53.7827 99.8492 60.7004 106.903 68.3552 110.413C 71.9961 112.077 77.6649 116.765 82.3517 121.011C 87.0518 125.262 90.803 129.073 90.8108 129.079C 90.9178 129.189 91.0601 129.245 91.2035 129.245C 91.2808 129.245 91.3602 129.229 91.4341 129.195C 91.4683 129.168 105.921 122.679 109.607 119.25C 113.27 115.771 119.438 102.712 119.47 102.678C 119.567 102.46 119.521 102.21 119.351 102.046ZM 42.3172 18.1966C 42.7496 18.1944 43.2086 18.155 43.6786 18.0576C 43.7603 18.1047 43.8485 18.1627 43.9346 18.2174L 41.2502 18.7009C 41.0914 18.4777 40.9303 18.2556 40.7659 18.0347C 41.2183 18.1244 41.7412 18.1944 42.3172 18.1966ZM 29.6291 57.9175C 29.6236 57.8825 29.6214 57.8474 29.6093 57.8146C 29.6324 57.8715 29.6512 57.9284 29.6744 57.9842C 29.66 57.9623 29.6446 57.9393 29.6291 57.9175ZM 30.5217 54.0351L 30.7589 54.5306C 30.9597 54.4344 31.1649 54.3917 31.3977 54.3917C 32.4878 54.3556 34.1273 55.56 35.3718 56.852C 36.26 57.7555 36.9749 58.6613 37.3192 59.1142C 37.0753 59.4752 36.6395 60.0988 36.1397 60.7201C 35.4204 61.6915 34.3292 62.5754 34.1825 62.4814L 34.1759 62.4792C 34.1781 62.4857 34.0898 62.4453 33.942 62.3184C 32.7691 61.4301 30.1444 57.5193 30.2073 55.5917C 30.2249 54.9977 30.365 54.7297 30.7578 54.5306L 30.5217 54.0351ZM 34.1814 63.5742C 35.3211 63.4779 36.1364 62.396 36.9992 61.4027C 37.4626 60.8284 37.8631 60.265 38.1279 59.8789C 38.1963 60.334 38.2658 60.7901 38.3342 61.2496C 38.1522 61.499 37.7285 62.0569 37.1779 62.6137C 36.4465 63.3751 35.4667 64.0534 34.8114 64.0271C 34.7099 64.0271 34.6172 64.0162 34.5245 63.991C 34.4682 64.0019 34.2553 63.8378 33.9574 63.5512C 34.0346 63.5655 34.1086 63.5742 34.1814 63.5742ZM 22.5492 46.5744C 22.3848 46.2834 22.2756 45.6872 22.28 44.9291C 22.269 41.5587 24.1556 35.3648 24.7768 33.4078C 26.8135 35.2948 28.955 37.265 31.0314 39.5426C 35.0552 43.9227 36.6362 50.5881 37.83 57.9787C 37.4251 57.4711 36.8448 56.783 36.1596 56.0873C 34.8213 54.7538 33.1641 53.3317 31.3988 53.2956C 31.0226 53.2956 30.642 53.3711 30.2856 53.5406L 30.2856 53.5395C 29.4427 53.9202 29.0841 54.7724 29.1029 55.5906C 29.1095 56.2798 29.3037 57.027 29.5993 57.7829C 29.553 57.6768 29.4714 57.5936 29.3721 57.5346C 26.4494 53.2026 23.3491 48.0644 22.5492 46.5744ZM 31.2863 67.2258C 30.7666 67.0573 30.1256 65.1703 29.9226 63.1859C 29.777 62.0372 29.7086 60.8623 29.6744 59.9172C 30.268 60.7617 30.8428 61.5526 31.3724 62.2396C 32.5672 63.735 33.366 64.7469 34.2354 65.0445C 34.4219 65.0937 34.6061 65.1189 34.7882 65.1189C 34.7959 65.1189 34.8036 65.1189 34.8114 65.1189C 36.3725 65.0466 37.7395 63.7153 38.5538 62.7417C 38.6354 63.2985 38.7171 63.8564 38.8009 64.4165C 39.0767 66.2347 39.6516 68.1731 40.4051 70.1302C 38.2316 69.5449 32.8033 68.0397 31.2863 67.2258Z"/><path id="path2_fill" d="M 8.44801 0.467122C 7.48041 0.135658 6.65073 1.2105e-05 5.93137 1.2105e-05C 4.79276 -0.00217577 3.94101 0.347884 3.30771 0.714353L 3.30661 0.712163C 2.61152 1.1213 0.034204 3.12977 1.48149e-06 6.5352C 1.48149e-06 7.43879 0.194181 8.4288 0.663086 9.47789C 2.75385 14.2496 5.42827 15.3261 7.09536 15.733C 7.21672 15.7615 7.32485 15.7713 7.43187 15.7713C 8.73598 15.7199 10.7716 14.4608 12.7564 12.9894C 14.6916 11.4492 16.4326 9.9636 16.5496 8.53273C 16.5496 8.4835 16.5474 8.42552 16.5386 8.36098C 16.3047 7.13577 14.9443 5.56378 13.318 3.96007C 11.6774 2.38808 9.82825 0.948454 8.44801 0.467122ZM 15.4463 8.53273C 15.5632 8.90685 13.9645 10.7665 12.0856 12.1219C 10.2585 13.5441 8.01 14.7288 7.43077 14.6774C 7.38994 14.6774 7.37008 14.673 7.37008 14.673C 5.87069 14.2617 3.71704 13.5616 1.67151 9.03484C 1.26108 8.11375 1.10331 7.28345 1.10331 6.5352C 1.0691 3.76863 3.41253 1.8969 3.85495 1.6617L 3.58243 1.18803L 3.85716 1.6617C 4.40329 1.35321 5.01673 1.09613 5.93248 1.09176C 6.5095 1.09176 7.21562 1.20115 8.09054 1.49871C 9.12434 1.83892 11 3.23369 12.5501 4.74114C 14.1124 6.21467 15.4077 7.95622 15.4485 8.51851C 15.4463 8.51085 15.4463 8.53273 15.4463 8.53273Z"/></defs></svg>
