<svg id="rock-solid" width="153" height="158" viewBox="0 0 153 158" version="1.1" xmlns="http://www.w3.org/2000/svg" xmlns:xlink="http://www.w3.org/1999/xlink" xmlns:figma="http://www.figma.com/figma/ns"><title>Rock Solid</title><desc>Created using Figma</desc><g id="Canvas" transform="translate(-1165 -8408)" figma:type="canvas"><g id="Rock Solid" style="mix-blend-mode:normal;" figma:type="frame"><g id="Group" style="mix-blend-mode:normal;" figma:type="frame"><g id="Group" style="mix-blend-mode:normal;" figma:type="frame"><g id="Rectangle 2" style="mix-blend-mode:normal;" figma:type="rounded-rectangle"><use xlink:href="#path0_fill" transform="translate(1212.61 8466.89)" fill="#8B4513" style="mix-blend-mode:normal;"/><use xlink:href="#path0_fill" transform="translate(1212.61 8466.89)" fill="url(#paint1_linear)" style="mix-blend-mode:normal;"/><use xlink:href="#path0_fill" transform="translate(1212.61 8466.89)" fill="url(#paint2_linear)" style="mix-blend-mode:normal;"/></g><g id="Union" style="mix-blend-mode:normal;" figma:type="vector-operation"><use xlink:href="#path1_fill" transform="translate(1203.63 8454.04)" fill="#C0C0C0" style="mix-blend-mode:normal;"/><use xlink:href="#path1_fill" transform="translate(1203.63 8454.04)" fill="url(#paint4_linear)" style="mix-blend-mode:normal;"/></g><g id="Group" style="mix-blend-mode:normal;" figma:type="frame"><g id="Rectangle 17" style="mix-blend-mode:normal;" figma:type="rounded-rectangle"><use xlink:href="#path2_fill" transform="translate(1229.82 8475.23)" fill="#B87F55" style="mix-blend-mode:normal;"/></g><g id="Ellipse 9" style="mix-blend-mode:normal;" figma:type="ellipse"><use xlink:href="#path3_fill" transform="translate(1236.73 8481.93)" fill="#D2B49E" style="mix-blend-mode:normal;"/></g></g></g><g id="Group" style="mix-blend-mode:normal;" figma:type="frame"><g id="Rectangle 18" style="mix-blend-mode:normal;" figma:type="vector"><use xlink:href="#path4_fill" transform="translate(1244.75 8475.23)" fill="#F1E9D2" style="mix-blend-mode:normal;"/></g><g id="Rectangle 18 (Stroke)" style="mix-blend-mode:normal;" figma:type="vector"><use xlink:href="#path5_fill" transform="translate(1244.75 8475.23)" style="mix-blend-mode:normal;"/></g><g id="Line (Stroke)" style="mix-blend-mode:normal;" figma:type="vector"><use xlink:href="#path6_fill" transform="matrix(6.14817e-17 1 -1 6.0984e-17 1249.99 8475.23)" style="mix-blend-mode:normal;"/></g><g id="Line (Stroke)" style="mix-blend-mode:normal;" figma:type="vector"><use xlink:href="#path7_fill" transform="matrix(-0.999998 -0.0019452 0.00196107 -0.999998 1254.33 8479.63)" style="mix-blend-mode:normal;"/></g></g></g><g id="Vector 8" style="mix-blend-mode:normal;" figma:type="vector"><use xlink:href="#path8_fill" transform="translate(1196.59 8447.48)" fill="#8B4513" style="mix-blend-mode:normal;"/><use xlink:href="#path8_fill" transform="translate(1196.59 8447.48)" fill="url(#paint12_linear)" style="mix-blend-mode:normal;"/></g><g id="Vector 7" style="mix-blend-mode:normal;" figma:type="vector"><use xlink:href="#path9_fill" transform="translate(1170.22 8487.24)" fill="#828282" style="mix-blend-mode:normal;"/><use xlink:href="#path9_fill" transform="translate(1170.22 8487.24)" fill="url(#paint14_linear)" style="mix-blend-mode:normal;"/><use xlink:href="#path9_fill" transform="translate(1170.22 8487.24)" fill="url(#paint15_linear)" style="mix-blend-mode:normal;"/></g><g id="Union" style="mix-blend-mode:normal;" figma:type="vector-operation"><use xlink:href="#path10_fill" transform="translate(1165.88 8408.5)" fill="#27AE60" style="mix-blend-mode:normal;"/><use xlink:href="#path10_fill" transform="translate(1165.88 8408.5)" fill="url(#paint17_linear)" style="mix-blend-mode:normal;"/></g></g></g><defs><linearGradient id="paint1_linear" x1="0" y1="0" x2="1" y2="0" gradientUnits="userSpaceOnUse" gradientTransform="matrix(2.95387e-15 24.9169 -48.2403 1.52572e-15 48.2403 -1.52572e-15)"><stop offset="0" stop-color="#000000" stop-opacity="0.3"/><stop offset="1" stop-color="#FFFFFF" stop-opacity="0"/></linearGradient><linearGradient id="paint2_linear" x1="0" y1="0" x2="1" y2="0" gradientUnits="userSpaceOnUse" gradientTransform="matrix(-34.2744 9.41636e-13 -3.5132e-12 -66.357 58.3946 58.0954)"><stop offset="0" stop-color="#000000" stop-opacity="0.1"/><stop offset="1" stop-color="#FFFFFF" stop-opacity="0"/></linearGradient><linearGradient id="paint4_linear" x1="0" y1="0" x2="1" y2="0" gradientUnits="userSpaceOnUse" gradientTransform="matrix(10.2256 16.3945 -84.4179 52.6529 65.0782 -29.8665)"><stop offset="0" stop-color="#000000" stop-opacity="0.2"/><stop offset="1" stop-color="#FFFFFF" stop-opacity="0"/></linearGradient><linearGradient id="paint12_linear" x1="0" y1="0" x2="1" y2="0" gradientUnits="userSpaceOnUse" gradientTransform="matrix(1.41945e-13 20.5153 -2.62347 -1.15059e-12 4.40394 5.73816e-13)"><stop offset="0" stop-color="#000000" stop-opacity="0.6"/><stop offset="1" stop-color="#FFFFFF" stop-opacity="0"/></linearGradient><linearGradient id="paint14_linear" x1="0" y1="0" x2="1" y2="0" gradientUnits="userSpaceOnUse" gradientTransform="matrix(93.0522 3.19357e-14 2.00285e-14 174.461 -19.2237 -8.47429)"><stop offset="0" stop-color="#FFFFFF"/><stop offset="1" stop-color="#FFFFFF" stop-opacity="0"/></linearGradient><linearGradient id="paint15_linear" x1="0" y1="0" x2="1" y2="0" gradientUnits="userSpaceOnUse" gradientTransform="matrix(-78.4478 3.75368e-14 -1.68851e-14 -147.079 152.276 152.296)"><stop offset="0.53" stop-color="#000000" stop-opacity="0.1"/><stop offset="1" stop-color="#FFFFFF" stop-opacity="0"/></linearGradient><linearGradient id="paint17_linear" x1="0" y1="0" x2="1" y2="0" gradientUnits="userSpaceOnUse" gradientTransform="matrix(21.4123 41.004 -57.1 29.8177 59.2569 -14.9088)"><stop offset="0.31" stop-color="#FFFFFF" stop-opacity="0"/><stop offset="0.82" stop-color="#000000" stop-opacity="0.2"/></linearGradient><path id="path0_fill" d="M 0 0L 48.2403 0L 48.2403 24.9169L 0 24.9169L 0 0Z"/><path id="path1_fill" fill-rule="evenodd" d="M 0 12.75L 9.08264 0L 57.1071 0L 66.1897 12.75L 57.1071 12.75L 57.1071 12.8545L 9.08264 12.8545L 9.08264 12.75L 0 12.75Z"/><path id="path2_fill" d="M 0 0L 9.74911 0L 9.74911 16.5864L 0 16.5864L 0 0Z"/><path id="path3_fill" d="M 1.59055 0.792048C 1.59055 1.22948 1.23449 1.5841 0.795273 1.5841C 0.356056 1.5841 0 1.22948 0 0.792048C 0 0.354612 0.356056 0 0.795273 0C 1.23449 0 1.59055 0.354612 1.59055 0.792048Z"/><path id="path4_fill" d="M 0 0L 9.89881 0L 9.89881 8.47957L 0 8.47957L 0 0Z"/><path id="path5_fill" fill-rule="evenodd" d="M 9.33744 0.559093L 0.561369 0.559093L 0.561369 7.92048L 9.33744 7.92048L 9.33744 0.559093ZM 0.561369 0L 0 0L 0 0.559093L 0 7.92048L 0 8.47957L 0.561369 8.47957L 9.33744 8.47957L 9.89881 8.47957L 9.89881 7.92048L 9.89881 0.559093L 9.89881 0L 9.33744 0L 0.561369 0Z"/><path id="path6_fill" fill-rule="evenodd" d="M 8.29321 0.280684L 0 0.280684L 0 0L 8.29321 0L 8.29321 0.280684Z"/><path id="path7_fill" fill-rule="evenodd" d="M 9.5807 0.279546L 0 0.279546L 0 0L 9.5807 0L 9.5807 0.279546Z"/><path id="path8_fill" d="M 0 0L 6.18441 0L 6.18441 48.3615L 0 48.3615L 0 0Z"/><path id="path9_fill" d="M 0 78.756C 0 78.756 15.5908 56.5482 16.3717 43.1232C 17.1525 29.6982 15.6045 24.3563 18.3832 15.1034C 21.162 5.85037 27.4493 5.55219 32.2116 5.64537C 36.9739 5.73855 38.6767 3.31582 42.8683 3.16673C 47.0598 3.01764 52.8981 3.91218 57.0896 4.21037C 61.2812 4.50855 67.7182 0.483084 73.4067 0.0358098C 79.0953 -0.411464 81.7899 3.46491 87.4784 4.21037C 93.1669 4.95583 96.61 3.76308 101.101 5.64537C 105.592 7.52766 109.634 31.0468 112.179 35.5196C 114.724 39.9923 129.394 46.105 131.639 50.7269C 133.885 55.3487 136.879 65.4869 138.825 67.4251C 140.771 69.3633 147.657 78.756 147.657 78.756L 0 78.756Z"/><path id="path10_fill" fill-rule="evenodd" d="M 19.6509 44.1016C 26.4242 44.1016 32.3971 42.5196 35.9304 40.1114C 37.4808 40.7022 39.189 41.1446 41.0027 41.3946C 49.0564 42.5069 56.1407 39.419 56.8262 34.4971C 56.9701 33.4639 56.8203 32.4307 56.4192 31.4346C 59.3806 29.8946 61.4137 26.7149 61.4137 23.0421C 61.4137 18.0919 57.7205 14.0362 53.0388 13.6856C 54.7574 7.88777 53.7111 2.50008 50.1255 0.64754C 45.8832 -1.54484 39.625 2.00691 35.8143 8.62703C 34.4664 5.20613 31.229 2.79695 27.4496 2.79695C 22.4602 2.79695 18.4155 6.99617 18.4155 12.1778C 18.4155 12.3673 18.4209 12.5548 18.4315 12.7413C 16.896 11.4893 14.9601 10.7423 12.8561 10.7423C 7.8667 10.7423 3.82202 14.9425 3.82202 20.1231C 3.82202 23.3126 5.35486 26.1309 7.69739 27.8253C 3.01721 29.4835 0 32.0929 0 35.0274C 0 40.0391 8.79797 44.1016 19.6509 44.1016Z"/></defs></svg>
