<svg id="safe" width="147" height="96" viewBox="0 0 147 96" version="1.1" xmlns="http://www.w3.org/2000/svg" xmlns:xlink="http://www.w3.org/1999/xlink" xmlns:figma="http://www.figma.com/figma/ns"><title>Group</title><desc>Created using Figma</desc><g id="Canvas" transform="translate(-1654 -8471)" figma:type="canvas"><g id="Group" style="mix-blend-mode:normal;" figma:type="frame"><g id="Rectangle 19" style="mix-blend-mode:normal;" figma:type="rounded-rectangle"><use xlink:href="#path0_fill" transform="translate(1654 8471.2)" fill="#AAAAAA" style="mix-blend-mode:normal;"/></g><g id="Rectangle 19" style="mix-blend-mode:normal;" figma:type="vector"><use xlink:href="#path1_fill" transform="translate(1662.77 8477.76)" fill="#D4D4D4" style="mix-blend-mode:normal;"/></g><g id="Rectangle 19 (Stroke)" style="mix-blend-mode:normal;" figma:type="vector"><use xlink:href="#path2_fill" transform="translate(1662.77 8477.76)" fill="#828282" style="mix-blend-mode:normal;"/><mask id="mask0_outline_out"><rect id="mask0_outline_inv" fill="white" x="-1" y="-1" width="121" height="86" transform="translate(1662.77 8477.76)"/><use xlink:href="#path2_fill" fill="black" transform="translate(1662.77 8477.76)"/></mask><g mask="url(#mask0_outline_out)"><use xlink:href="#path3_stroke_2x" transform="translate(1662.77 8477.76)" fill="#828282" style="mix-blend-mode:normal;"/></g></g><g id="Ellipse 11 (Stroke)" style="mix-blend-mode:normal;" figma:type="vector"><use xlink:href="#path4_fill" transform="translate(1679.39 8480.37)" fill="#989898" style="mix-blend-mode:normal;"/><mask id="mask1_outline_out"><rect id="mask1_outline_inv" fill="white" x="-1" y="-1" width="82" height="81" transform="translate(1679.39 8480.37)"/><use xlink:href="#path4_fill" fill="black" transform="translate(1679.39 8480.37)"/></mask><g mask="url(#mask1_outline_out)"><use xlink:href="#path5_stroke_2x" transform="translate(1679.39 8480.37)" fill="#989898" style="mix-blend-mode:normal;"/></g></g><g id="Union" style="mix-blend-mode:normal;" figma:type="vector-operation"><use xlink:href="#path6_fill" transform="translate(1715.63 8477.76)" fill="#5B5B5B" style="mix-blend-mode:normal;"/></g><g id="Ellipse 10" style="mix-blend-mode:normal;" figma:type="ellipse"><use xlink:href="#path7_fill" transform="translate(1704.77 8505.47)" fill="#828282" style="mix-blend-mode:normal;"/></g><g id="Union" style="mix-blend-mode:normal;" figma:type="vector-operation"><use xlink:href="#path8_fill" transform="translate(1672.48 8476.48)" fill="#A5A5A5" style="mix-blend-mode:normal;"/><mask id="mask2_outline_ins"><use xlink:href="#path8_fill" fill="white" transform="translate(1672.48 8476.48)"/></mask><g mask="url(#mask2_outline_ins)"><use xlink:href="#path9_stroke_2x" transform="translate(1672.48 8476.48)" fill="#6F6F6F" style="mix-blend-mode:normal;"/></g></g></g></g><defs><path id="path0_fill" d="M 0 5.4C 0 2.41766 2.41766 0 5.4 0L 138.144 0C 141.127 0 143.544 2.41766 143.544 5.4L 143.544 89.6C 143.544 92.5823 141.127 95 138.144 95L 5.4 95C 2.41766 95 0 92.5823 0 89.6L 0 5.4Z"/><path id="path1_fill" d="M 0 7.91667C 0 3.54441 3.57039 0 7.97468 0L 111.646 0C 116.05 0 119.62 3.54441 119.62 7.91667L 119.62 76.5278C 119.62 80.9 116.05 84.4444 111.646 84.4444L 7.97468 84.4444C 3.57039 84.4444 0 80.9 0 76.5278L 0 7.91667Z"/><path id="path2_fill" fill-rule="evenodd" d="M 111.646 0.131944L 7.97468 0.131944C 3.64379 0.131944 0.132911 3.61728 0.132911 7.91667L 0.132911 76.5278C 0.132911 80.8272 3.64379 84.3125 7.97468 84.3125L 111.646 84.3125C 115.976 84.3125 119.487 80.8272 119.487 76.5278L 119.487 7.91667C 119.487 3.61728 115.976 0.131944 111.646 0.131944ZM 7.97468 0C 3.57039 0 0 3.54441 0 7.91667L 0 76.5278C 0 80.9 3.57039 84.4444 7.97468 84.4444L 111.646 84.4444C 116.05 84.4444 119.62 80.9 119.62 76.5278L 119.62 7.91667C 119.62 3.54441 116.05 0 111.646 0L 7.97468 0Z"/><path id="path3_stroke_2x" d="M 7.97468 0.381944L 111.646 0.381944L 111.646 -0.118056L 7.97468 -0.118056L 7.97468 0.381944ZM 0.382911 7.91667C 0.382911 3.75707 3.78014 0.381944 7.97468 0.381944L 7.97468 -0.118056C 3.50745 -0.118056 -0.117089 3.47749 -0.117089 7.91667L 0.382911 7.91667ZM 0.382911 76.5278L 0.382911 7.91667L -0.117089 7.91667L -0.117089 76.5278L 0.382911 76.5278ZM 7.97468 84.0625C 3.78014 84.0625 0.382911 80.6874 0.382911 76.5278L -0.117089 76.5278C -0.117089 80.9669 3.50745 84.5625 7.97468 84.5625L 7.97468 84.0625ZM 111.646 84.0625L 7.97468 84.0625L 7.97468 84.5625L 111.646 84.5625L 111.646 84.0625ZM 119.237 76.5278C 119.237 80.6874 115.84 84.0625 111.646 84.0625L 111.646 84.5625C 116.113 84.5625 119.737 80.9669 119.737 76.5278L 119.237 76.5278ZM 119.237 7.91667L 119.237 76.5278L 119.737 76.5278L 119.737 7.91667L 119.237 7.91667ZM 111.646 0.381944C 115.84 0.381944 119.237 3.75707 119.237 7.91667L 119.737 7.91667C 119.737 3.47749 116.113 -0.118056 111.646 -0.118056L 111.646 0.381944ZM 0.25 7.91667C 0.25 3.6842 3.70673 0.25 7.97468 0.25L 7.97468 -0.25C 3.43404 -0.25 -0.25 3.40462 -0.25 7.91667L 0.25 7.91667ZM 0.25 76.5278L 0.25 7.91667L -0.25 7.91667L -0.25 76.5278L 0.25 76.5278ZM 7.97468 84.1944C 3.70673 84.1944 0.25 80.7602 0.25 76.5278L -0.25 76.5278C -0.25 81.0398 3.43404 84.6944 7.97468 84.6944L 7.97468 84.1944ZM 111.646 84.1944L 7.97468 84.1944L 7.97468 84.6944L 111.646 84.6944L 111.646 84.1944ZM 119.37 76.5278C 119.37 80.7602 115.914 84.1944 111.646 84.1944L 111.646 84.6944C 116.186 84.6944 119.87 81.0398 119.87 76.5278L 119.37 76.5278ZM 119.37 7.91667L 119.37 76.5278L 119.87 76.5278L 119.87 7.91667L 119.37 7.91667ZM 111.646 0.25C 115.914 0.25 119.37 3.6842 119.37 7.91667L 119.87 7.91667C 119.87 3.40462 116.186 -0.25 111.646 -0.25L 111.646 0.25ZM 7.97468 0.25L 111.646 0.25L 111.646 -0.25L 7.97468 -0.25L 7.97468 0.25Z"/><path id="path4_fill" fill-rule="evenodd" d="M 40.0728 79.2986C 62.1312 79.2986 80.0127 61.5763 80.0127 39.7153C 80.0127 17.8542 62.1312 0.131944 40.0728 0.131944C 18.0144 0.131944 0.132911 17.8542 0.132911 39.7153C 0.132911 61.5763 18.0144 79.2986 40.0728 79.2986ZM 40.0728 79.4306C 62.2044 79.4306 80.1456 61.6494 80.1456 39.7153C 80.1456 17.7811 62.2044 0 40.0728 0C 17.9412 0 0 17.7811 0 39.7153C 0 61.6494 17.9412 79.4306 40.0728 79.4306Z"/><path id="path5_stroke_2x" d="M 79.9127 39.7153C 79.9127 61.5203 62.0768 79.1986 40.0728 79.1986L 40.0728 79.3986C 62.1856 79.3986 80.1127 61.6324 80.1127 39.7153L 79.9127 39.7153ZM 40.0728 0.231944C 62.0768 0.231944 79.9127 17.9103 79.9127 39.7153L 80.1127 39.7153C 80.1127 17.7981 62.1856 0.0319444 40.0728 0.0319444L 40.0728 0.231944ZM 0.232911 39.7153C 0.232911 17.9103 18.0688 0.231944 40.0728 0.231944L 40.0728 0.0319444C 17.96 0.0319444 0.0329114 17.7981 0.0329114 39.7153L 0.232911 39.7153ZM 40.0728 79.1986C 18.0688 79.1986 0.232911 61.5203 0.232911 39.7153L 0.0329114 39.7153C 0.0329114 61.6324 17.96 79.3986 40.0728 79.3986L 40.0728 79.1986ZM 80.0456 39.7153C 80.0456 61.5933 62.15 79.3306 40.0728 79.3306L 40.0728 79.5306C 62.2588 79.5306 80.2456 61.7055 80.2456 39.7153L 80.0456 39.7153ZM 40.0728 0.1C 62.15 0.1 80.0456 17.8372 80.0456 39.7153L 80.2456 39.7153C 80.2456 17.7251 62.2588 -0.1 40.0728 -0.1L 40.0728 0.1ZM 0.1 39.7153C 0.1 17.8372 17.9956 0.1 40.0728 0.1L 40.0728 -0.1C 17.8868 -0.1 -0.1 17.7251 -0.1 39.7153L 0.1 39.7153ZM 40.0728 79.3306C 17.9956 79.3306 0.1 61.5933 0.1 39.7153L -0.1 39.7153C -0.1 61.7055 17.8868 79.5306 40.0728 79.5306L 40.0728 79.3306Z"/><path id="path6_fill" fill-rule="evenodd" d="M 0.701538 -0.000244141L 6.94836 -0.000244141L 6.94836 6.99292L 85.3661 6.99292L 85.3661 18.0769L 51.6066 18.0769L 51.6066 66.2361L 85.3661 66.2361L 85.3661 77.3201L 6.24695 77.3201L 6.24695 84.4451L 0 84.4451L 0 55.8123L 6.24695 55.8123L 6.24695 66.2361L 33.132 66.2361L 33.132 18.0769L 6.94836 18.0769L 6.94836 28.6326L 0.701538 28.6326L 0.701538 -0.000244141Z"/><path id="path7_fill" d="M 29.1076 14.4479C 29.1076 22.4273 22.5916 28.8958 14.5538 28.8958C 6.51596 28.8958 0 22.4273 0 14.4479C 0 6.46855 6.51596 0 14.5538 0C 22.5916 0 29.1076 6.46855 29.1076 14.4479Z"/><path id="path8_fill" fill-rule="evenodd" d="M 68.4284 0.139343C 67.9282 -0.154603 67.2823 0.0328975 67.0211 0.547546L 48.9688 36.1091C 48.3352 35.9401 47.669 35.8503 46.9817 35.8503C 44.1227 35.8503 41.6305 37.4089 40.3198 39.7165L 2.52488 31.2018C 1.95811 31.0739 1.4011 31.4489 1.31162 32.0192L 0.0121822 40.2927C -0.0774174 40.863 0.337622 41.3893 0.916235 41.4391L 39.463 44.8034C 40.1114 48.3415 43.2311 51.0231 46.9817 51.0231C 48.0466 51.0231 49.0606 50.8073 49.9817 50.4167L 71.3054 83.9958C 71.6157 84.4841 72.2771 84.611 72.7461 84.2712L 79.5593 79.3337C 80.0281 78.9938 80.1086 78.3307 79.735 77.8884L 53.6944 47.0661C 54.2871 45.988 54.624 44.7507 54.624 43.4362C 54.624 41.7331 54.0583 40.1608 53.1035 38.8942L 76.0042 5.82684C 76.3332 5.35223 76.1877 4.69891 75.6872 4.40497L 68.4284 0.139343Z"/><path id="path9_stroke_2x" d="M 67.0211 0.547546L 67.244 0.660709L 67.244 0.660701L 67.0211 0.547546ZM 68.4284 0.139343L 68.5551 -0.0761959L 68.5551 -0.0762002L 68.4284 0.139343ZM 48.9688 36.1091L 48.9044 36.3506L 49.1001 36.4028L 49.1918 36.2222L 48.9688 36.1091ZM 40.3198 39.7165L 40.2649 39.9604L 40.4457 40.0011L 40.5372 39.84L 40.3198 39.7165ZM 2.52488 31.2018L 2.46983 31.4457L 2.46993 31.4457L 2.52488 31.2018ZM 1.31162 32.0192L 1.55859 32.058L 1.5586 32.058L 1.31162 32.0192ZM 0.0121822 40.2927L 0.259153 40.3315L 0.259155 40.3315L 0.0121822 40.2927ZM 0.916235 41.4391L 0.937972 41.1901L 0.937675 41.1901L 0.916235 41.4391ZM 39.463 44.8034L 39.7089 44.7583L 39.6745 44.5709L 39.4847 44.5544L 39.463 44.8034ZM 49.9817 50.4167L 50.1927 50.2827L 50.0791 50.1038L 49.8841 50.1865L 49.9817 50.4167ZM 71.3054 83.9958L 71.0944 84.1298L 71.0944 84.1299L 71.3054 83.9958ZM 72.7461 84.2712L 72.8928 84.4736L 72.8928 84.4736L 72.7461 84.2712ZM 79.5593 79.3337L 79.706 79.5361L 79.706 79.5361L 79.5593 79.3337ZM 79.735 77.8884L 79.9259 77.7271L 79.9259 77.727L 79.735 77.8884ZM 53.6944 47.0661L 53.4754 46.9457L 53.3926 47.0962L 53.5035 47.2274L 53.6944 47.0661ZM 53.1035 38.8942L 52.898 38.7519L 52.7951 38.9004L 52.9039 39.0447L 53.1035 38.8942ZM 76.0042 5.82684L 75.7988 5.68442L 75.7987 5.68451L 76.0042 5.82684ZM 75.6872 4.40497L 75.5606 4.62051L 75.5606 4.62054L 75.6872 4.40497ZM 67.244 0.660701C 67.4395 0.275666 67.9247 0.133326 68.3018 0.354886L 68.5551 -0.0762002C 67.9317 -0.442531 67.1252 -0.209871 66.7982 0.434391L 67.244 0.660701ZM 49.1918 36.2222L 67.244 0.660709L 66.7982 0.434383L 48.7459 35.9959L 49.1918 36.2222ZM 46.9817 36.1003C 47.6523 36.0997 48.2862 36.1853 48.9044 36.3506L 49.0333 35.8675C 48.3842 35.695 47.6858 35.6008 46.9817 35.6003L 46.9817 36.1003ZM 40.5372 39.84C 41.8049 37.6079 44.2156 36.1003 46.9817 36.1003L 46.9817 35.6003C 44.0297 35.6003 41.456 37.2098 40.1024 39.593L 40.5372 39.84ZM 2.46993 31.4457L 40.2649 39.9604L 40.3747 39.4726L 2.57982 30.958L 2.46993 31.4457ZM 1.5586 32.058C 1.62538 31.6324 2.04228 31.3492 2.46983 31.4457L 2.57992 30.958C 1.87393 30.7986 1.17682 31.2655 1.06464 31.9805L 1.5586 32.058ZM 0.259155 40.3315L 1.55859 32.058L 1.06465 31.9804L -0.23479 40.2539L 0.259155 40.3315ZM 0.937675 41.1901C 0.50194 41.1526 0.19229 40.7571 0.259153 40.3315L -0.234788 40.2539C -0.347124 40.9689 0.173303 41.6261 0.894795 41.6882L 0.937675 41.1901ZM 39.4847 44.5544L 0.937972 41.1901L 0.894498 41.6882L 39.4412 45.0525L 39.4847 44.5544ZM 46.9817 50.7731C 43.3526 50.7731 40.3357 48.1786 39.7089 44.7583L 39.2171 44.8485C 39.8871 48.5044 43.1095 51.2731 46.9817 51.2731L 46.9817 50.7731ZM 49.8841 50.1865C 48.9855 50.5689 48.0204 50.7745 46.9817 50.7731L 46.9817 51.2731C 48.0728 51.2718 49.1358 51.0457 50.0793 50.6468L 49.8841 50.1865ZM 71.5164 83.8618L 50.1927 50.2827L 49.7706 50.5507L 71.0944 84.1298L 71.5164 83.8618ZM 72.5994 84.0687C 72.2472 84.324 71.7495 84.2285 71.5164 83.8617L 71.0944 84.1299C 71.4819 84.7396 72.307 84.8981 72.8928 84.4736L 72.5994 84.0687ZM 79.4126 79.1312L 72.5994 84.0687L 72.8928 84.4736L 79.706 79.5361L 79.4126 79.1312ZM 79.544 78.0497C 79.8239 78.3811 79.7636 78.8768 79.4126 79.1313L 79.706 79.5361C 80.2925 79.1109 80.3934 78.2804 79.9259 77.7271L 79.544 78.0497ZM 53.5035 47.2274L 79.544 78.0497L 79.9259 77.727L 53.8854 46.9048L 53.5035 47.2274ZM 54.374 43.4362C 54.3762 44.7175 54.0553 45.8943 53.4754 46.9457L 53.9135 47.1865C 54.5189 46.0817 54.8718 44.7838 54.874 43.4362L 54.374 43.4362ZM 52.9039 39.0447C 53.8384 40.2797 54.3777 41.7761 54.374 43.4362L 54.874 43.4362C 54.8703 41.6901 54.2782 40.0419 53.3031 38.7437L 52.9039 39.0447ZM 75.7987 5.68451L 52.898 38.7519L 53.309 39.0366L 76.2098 5.96918L 75.7987 5.68451ZM 75.5606 4.62054C 75.9367 4.84143 76.0442 5.33036 75.7988 5.68442L 76.2097 5.96926C 76.6223 5.37411 76.4387 4.55639 75.8138 4.1894L 75.5606 4.62054ZM 68.3018 0.354881L 75.5606 4.62051L 75.8139 4.18943L 68.5551 -0.0761959L 68.3018 0.354881Z"/></defs></svg>
