<svg id="strategy" width="200" height="188" viewBox="0 0 200 188" version="1.1" xmlns="http://www.w3.org/2000/svg" xmlns:xlink="http://www.w3.org/1999/xlink" xmlns:figma="http://www.figma.com/figma/ns"><title>Group</title><desc>Created using Figma</desc><g id="Canvas" transform="translate(-1104 -2303)" figma:type="canvas"><g id="Group" style="mix-blend-mode:normal;" figma:type="frame"><g id="Group" style="mix-blend-mode:normal;" figma:type="frame"><g id="Group" style="mix-blend-mode:normal;" figma:type="frame"><g id="Union" style="mix-blend-mode:normal;" figma:type="vector"><use xlink:href="#path0_fill" transform="translate(1104 2362.3)" fill="#333D47" style="mix-blend-mode:normal;"/><use xlink:href="#path1_fill" transform="translate(1104 2362.3)" fill="#333D47" style="mix-blend-mode:normal;"/><use xlink:href="#path2_fill" transform="translate(1104 2362.3)" fill="#333D47" style="mix-blend-mode:normal;"/><use xlink:href="#path3_fill" transform="translate(1104 2362.3)" fill="#333D47" style="mix-blend-mode:normal;"/><use xlink:href="#path4_fill" transform="translate(1104 2362.3)" fill="#333D47" style="mix-blend-mode:normal;"/><use xlink:href="#path5_fill" transform="translate(1104 2362.3)" fill="#333D47" style="mix-blend-mode:normal;"/><use xlink:href="#path6_fill" transform="translate(1104 2362.3)" fill="#333D47" style="mix-blend-mode:normal;"/><use xlink:href="#path7_fill" transform="translate(1104 2362.3)" fill="#333D47" style="mix-blend-mode:normal;"/><use xlink:href="#path8_fill" transform="translate(1104 2362.3)" fill="#333D47" style="mix-blend-mode:normal;"/></g><g id="Group" style="mix-blend-mode:normal;" figma:type="frame"><g id="noun_577567_cc" style="mix-blend-mode:normal;" figma:type="frame"><g id="Group" style="mix-blend-mode:normal;" figma:type="frame"><g id="Vector" style="mix-blend-mode:normal;" figma:type="vector"><use xlink:href="#path9_fill" transform="translate(1228.52 2351.24)" fill="#333D47" style="mix-blend-mode:normal;"/></g><g id="Vector" style="mix-blend-mode:normal;" figma:type="vector"><use xlink:href="#path10_fill" transform="translate(1262.72 2354.46)" fill="#333D47" style="mix-blend-mode:normal;"/></g><g id="Vector" style="mix-blend-mode:normal;" figma:type="vector"><use xlink:href="#path11_fill" transform="translate(1262.72 2403.27)" fill="#333D47" style="mix-blend-mode:normal;"/></g><g id="Vector" style="mix-blend-mode:normal;" figma:type="vector"><use xlink:href="#path12_fill" transform="translate(1198.63 2378.27)" fill="#333D47" style="mix-blend-mode:normal;"/></g><g id="Vector" style="mix-blend-mode:normal;" figma:type="vector"><use xlink:href="#path13_fill" transform="translate(1181.96 2319.56)" fill="#333D47" style="mix-blend-mode:normal;"/><use xlink:href="#path14_fill" transform="translate(1181.96 2319.56)" fill="#333D47" style="mix-blend-mode:normal;"/></g><g id="Vector" style="mix-blend-mode:normal;" figma:type="vector"><use xlink:href="#path15_fill" transform="translate(1213.8 2303)" fill="#333D47" style="mix-blend-mode:normal;"/></g></g></g></g></g></g></g></g><defs><path id="path0_fill" fill-rule="evenodd" d="M 97.6881 2.01232C 98.6481 1.68227 99.4712 1.54719 100.185 1.54719C 100.394 1.54679 100.593 1.55836 100.782 1.57979C 101.619 1.67437 102.276 1.96101 102.788 2.2585L 102.789 2.25631C 103.457 2.65098 105.878 4.54021 106.059 7.74079C 106.065 7.84403 106.069 7.94864 106.07 8.05461C 106.07 8.95437 105.877 9.94017 105.412 10.9848C 103.337 15.7363 100.684 16.8081 99.0301 17.2134C 98.9097 17.2417 98.8024 17.2515 98.6962 17.2515C 97.4024 17.2003 95.3828 15.9465 93.4136 14.4814C 91.4936 12.9477 89.7663 11.4684 89.6502 10.0437C 89.6502 9.99464 89.6524 9.9369 89.6612 9.87264C 89.8932 8.65263 91.2429 7.08732 92.8564 5.49042C 93.137 5.2206 93.4237 4.95469 93.7131 4.69691C 93.7203 4.69052 93.7275 4.68414 93.7347 4.67776C 93.7352 4.67729 93.7357 4.67682 93.7362 4.67635C 93.7366 4.67604 93.7369 4.67574 93.7373 4.67543C 93.7485 4.66545 93.7597 4.65549 93.771 4.64554C 93.9038 4.52791 94.0371 4.41206 94.1706 4.29837C 95.105 3.50258 96.0488 2.81318 96.8881 2.3692C 97.1678 2.22129 97.4358 2.10061 97.6881 2.01232ZM 90.7449 10.0437C 90.6288 10.4162 92.2149 12.268 94.0791 13.6176C 95.8918 15.0337 98.1226 16.2134 98.6973 16.1622C 98.7378 16.1622 98.7575 16.1578 98.7575 16.1578C 100.245 15.7483 102.382 15.0511 104.411 10.5436C 104.76 9.7579 104.925 9.03851 104.965 8.38C 104.965 8.37906 104.965 8.37812 104.965 8.37718C 104.965 8.37606 104.965 8.37494 104.965 8.37381C 104.972 8.26578 104.975 8.15939 104.975 8.05461C 104.979 7.71026 104.947 7.37983 104.885 7.06476C 104.457 4.85931 102.629 3.40675 102.245 3.20182L 102.515 2.73016L 102.243 3.20182C 101.701 2.89464 101.092 2.63866 100.184 2.6343C 99.6113 2.6343 98.9108 2.74323 98.0427 3.03952C 97.3055 3.28301 96.1369 4.06897 94.9668 5.04916C 94.5089 5.43271 94.0508 5.84601 93.6182 6.26817C 92.0683 7.73545 90.7832 9.4696 90.7427 10.0295C 90.7449 10.0219 90.7449 10.0437 90.7449 10.0437Z"/><path id="path1_fill" d="M 82.1162 61.4266C 82.8854 62.3277 83.6449 63.2174 84.6677 63.3041C 84.7399 63.3041 84.8133 63.2954 84.8899 63.2812C 84.5944 63.5666 84.3831 63.73 84.3273 63.7191C 84.2353 63.7442 84.1434 63.7551 84.0427 63.7551C 83.3925 63.7812 82.4204 63.1059 81.6947 62.3477C 81.1485 61.7933 80.7281 61.2377 80.5475 60.9894C 80.5901 60.7026 80.633 60.4172 80.6759 60.1324L 80.6765 60.1283C 80.6777 60.1202 80.679 60.112 80.6802 60.1038C 80.7043 59.9438 80.7283 59.7841 80.7522 59.6245C 81.0149 60.009 81.4123 60.57 81.872 61.1419C 81.9537 61.2363 82.035 61.3315 82.1162 61.4266Z"/><path id="path2_fill" fill-rule="evenodd" d="M 82.8527 55.3592C 84.12 54.0918 85.6755 52.744 87.3375 52.5927L 87.3375 39.5829C 83.7864 43.9381 82.3182 50.2658 81.1954 57.2426C 81.5971 56.7372 82.1729 56.052 82.8527 55.3592Z"/><path id="path3_fill" fill-rule="evenodd" d="M 87.3375 53.6816C 86.2654 53.8065 84.7808 54.926 83.6342 56.1206C 82.753 57.0204 82.0437 57.9223 81.7022 58.3733C 81.9441 58.7328 82.3765 59.3537 82.8724 59.9724C 83.586 60.9397 84.6686 61.8198 84.8142 61.7261L 84.8208 61.7239C 84.8186 61.7305 84.9062 61.6902 85.0528 61.5638C 85.6278 61.1268 86.5546 59.9548 87.3375 58.6493L 87.3375 53.6816Z"/><path id="path4_fill" fill-rule="evenodd" d="M 78.6405 69.3424C 80.6534 68.7985 85.4797 67.4563 87.3375 66.6209L 87.3375 61.8178C 87.4038 61.7346 87.4714 61.6498 87.5403 61.5632L 87.549 61.5523C 87.4771 61.6426 87.4066 61.7311 87.3375 61.8178C 86.2954 63.1241 85.5584 64.0047 84.7617 64.2783C 84.5767 64.3274 84.3939 64.3524 84.2133 64.3524L 84.1903 64.3524C 82.6414 64.2805 81.2851 62.9549 80.4773 61.9854L 80.4583 62.1158L 80.4577 62.1194L 80.4577 62.1198L 80.4565 62.1276C 80.3824 62.6348 80.3082 63.143 80.2321 63.6531C 79.9585 65.4635 79.3882 67.3937 78.6405 69.3424Z"/><path id="path5_fill" fill-rule="evenodd" d="M 93.3828 4.53358C 93.264 4.49947 93.1454 4.46556 93.0269 4.43184C 93.4761 4.08273 93.8334 3.81271 94.0769 3.63111C 94.1377 3.64871 94.1985 3.66636 94.2594 3.68405C 94.3219 3.70221 94.3844 3.72042 94.4469 3.73869C 94.3928 3.77828 94.3527 3.80853 94.3275 3.82755L 94.3272 3.82777L 94.3269 3.82801L 94.3264 3.82835C 94.3068 3.84316 94.2966 3.85091 94.296 3.85064L 94.2938 3.85228L 94.2937 3.85236C 94.2618 3.87541 93.9339 4.11273 93.3828 4.53358Z"/><path id="path6_fill" fill-rule="evenodd" d="M 92.8507 4.94385C 93.0456 4.79225 93.2235 4.65524 93.3828 4.53358L 93.3983 4.53803C 93.2743 4.50242 93.1505 4.46702 93.0269 4.43184C 93.0222 4.43551 92.9809 4.56066 92.9394 4.6863L 92.9392 4.68674L 92.9391 4.68701L 92.9389 4.68763C 92.8972 4.81384 92.8555 4.94013 92.8507 4.94385ZM 107.302 9.38584C 107.179 10.2889 106.949 11.245 106.643 12.2249C 106.875 11.4238 107.052 10.6339 107.155 9.86866C 107.155 9.86983 107.192 9.7489 107.229 9.62779L 107.229 9.62725C 107.266 9.50596 107.302 9.38467 107.302 9.38584ZM 100.782 1.57979C 100.593 1.55836 100.394 1.54679 100.185 1.54719C 99.4712 1.54719 98.6481 1.68227 97.6881 2.01232C 97.4358 2.10061 97.1678 2.22129 96.8881 2.3692C 97.9251 1.93206 99.1873 1.5723 100.509 1.57403C 100.6 1.57434 100.691 1.57622 100.782 1.57979ZM 94.4469 3.73869C 94.3844 3.72042 94.3219 3.70221 94.2594 3.68405C 94.2347 3.60755 94.1853 3.55031 94.0769 3.63111C 94.1377 3.64871 94.1985 3.66636 94.2594 3.68405C 94.2731 3.72648 94.2792 3.77484 94.2834 3.80886L 94.2834 3.80897C 94.287 3.8372 94.2893 3.85553 94.2937 3.85236L 94.2938 3.85228L 94.296 3.85064C 94.2966 3.85091 94.3068 3.84316 94.3264 3.82835L 94.3269 3.82801L 94.3272 3.82777L 94.3275 3.82755C 94.3527 3.80853 94.3928 3.77828 94.4469 3.73869Z"/><path id="path7_fill" fill-rule="evenodd" d="M 20.5641 80.5922C 13.2991 89.0898 0.189804 101.594 0.16792 101.612C -0.000658631 101.776 -0.0466283 102.025 0.0496949 102.242C 0.0522817 102.245 0.0947824 102.332 0.172672 102.493L 0.172805 102.494L 0.172961 102.494L 0.17349 102.495L 0.174109 102.496L 0.174139 102.496C 1.06253 104.332 6.4977 115.562 9.83567 118.744C 13.2159 121.899 25.7215 127.658 27.6224 128.534L 27.6274 128.536L 27.6357 128.54L 27.6423 128.543C 27.7853 128.609 27.8628 128.644 27.8653 128.646C 27.9386 128.68 28.0174 128.696 28.094 128.696C 28.2363 128.696 28.3776 128.64 28.4837 128.531C 28.4841 128.531 28.492 128.523 28.5071 128.507L 28.5097 128.505C 28.8475 128.162 32.4349 124.529 36.8763 120.497C 41.5262 116.269 47.1504 111.601 50.7627 109.944C 58.3572 106.449 65.2205 99.425 68.0053 87.8992L 68.0225 87.8762C 68.808 86.8246 74.6598 78.9902 77.9784 71.0936L 78.0644 71.0708C 79.1766 70.7759 84.5746 69.3446 87.1899 68.2906L 87.3375 66.6209L 87.3375 61.8178L 87.3375 58.6493L 87.3375 53.6816L 87.3375 52.5927L 87.3375 39.5829C 87.5321 39.3442 87.733 39.1114 87.9405 38.8848C 89.9253 36.6998 91.97 34.7989 93.9239 32.9825L 94.1459 32.7761L 94.8784 32.438C 97.639 29.8509 100.148 27.363 101.903 24.3968C 101.926 24.3566 101.951 24.3153 101.975 24.2733L 101.979 24.2668L 101.981 24.2633L 101.983 24.2593C 102.038 24.166 102.095 24.07 102.15 23.9764L 102.703 23.0396C 104.715 19.6258 107.479 14.7909 108.184 10.3397L 108.316 9.23854C 108.339 8.93911 108.352 8.64219 108.353 8.34833C 108.359 6.29284 107.748 4.34083 106.191 2.85395C 104.372 1.10019 102.349 0.481471 100.507 0.48801C 96.8907 0.502461 93.9743 2.72598 93.6596 2.96594L 93.659 2.96642L 93.6581 2.96711L 93.658 2.96714C 93.6417 2.97961 93.6328 2.9864 93.6316 2.98684C 93.6307 2.98785 93.6118 3.00175 93.5761 3.02808C 93.4504 3.12062 93.1162 3.36678 92.6196 3.74712L 91.5802 4.55694C 90.4691 5.4366 88.9889 6.65179 87.3492 8.11469C 84.7746 10.4116 81.8064 13.3191 79.2548 16.4973C 79.245 16.5007 79.2348 16.5024 79.2245 16.504C 79.2118 16.5061 79.199 16.5082 79.1869 16.5136C 79.1856 16.5118 79.1608 16.5213 79.1148 16.539L 79.1146 16.5391L 79.1145 16.5391C 79.0003 16.583 78.756 16.6768 78.4185 16.7707C 77.9533 16.9003 77.3107 17.03 76.5915 17.03C 76.1734 17.03 75.7334 16.9875 75.2911 16.8775C 75.1587 16.8437 75.0197 16.8622 74.9003 16.9265C 74.1725 17.3297 73.3291 17.9791 72.3887 18.7033L 72.3886 18.7033L 72.3886 18.7034C 70.059 20.4972 67.1339 22.7496 63.8939 22.8544C 63.8936 22.8542 63.8818 22.8531 63.8595 22.851C 63.6381 22.8302 62.374 22.7117 60.8092 22.3991C 59.0884 22.057 57.0108 21.4645 55.6655 20.5821C 55.4138 20.4187 55.0744 20.4885 54.9081 20.7401C 54.745 20.9906 54.815 21.3283 55.0657 21.4939C 57.9946 23.3804 63.0388 23.8616 63.7794 23.9323L 63.7818 23.9325L 63.7839 23.9327C 63.8338 23.9375 63.8631 23.9403 63.8698 23.9415C 67.6406 23.7841 70.8226 21.3052 73.1349 19.5038C 73.3504 19.3359 73.5584 19.1738 73.7586 19.0201C 73.7625 19.0211 73.7661 19.0231 73.7698 19.0251C 73.7745 19.0277 73.7794 19.0304 73.7849 19.031L 76.9736 19.6083C 76.4777 20.3545 76.0125 21.1072 75.5943 21.8653C 72.9902 26.6016 70.3062 29.8988 67.8575 32.1678C 67.8473 32.1599 67.8372 32.1521 67.827 32.1443L 67.8226 32.1409C 67.7741 32.1036 67.7236 32.0648 67.6539 32.0034C 67.4021 31.7844 67.0617 31.4522 66.7246 31.0077C 66.047 30.1113 65.3738 28.7856 65.3716 26.9741C 65.3716 26.7737 65.3793 26.5613 65.3979 26.3445C 65.4209 26.0438 65.1965 25.7813 64.8932 25.7595C 64.5933 25.7345 64.3306 25.96 64.3054 26.2595C 64.2879 26.5003 64.2792 26.7399 64.2792 26.9741C 64.2879 30.2452 66.1674 32.1842 67.0289 32.9031C 66.9196 32.9963 66.8124 33.0845 66.7043 33.1735L 66.6873 33.1874C 66.429 33.0436 65.9583 32.7626 65.457 32.3312C 64.705 31.6885 63.9464 30.7594 63.7756 29.6243C 63.7286 29.3259 63.4494 29.1222 63.1517 29.1668C 62.854 29.2137 62.6471 29.4904 62.6941 29.7877C 63.063 31.9663 64.7991 33.3083 65.7657 33.9096C 65.711 33.9504 65.6563 33.99 65.6021 34.0294C 65.5825 34.0436 65.5629 34.0577 65.5435 34.0719C 65.3212 33.9957 64.8549 33.829 64.3547 33.5654C 63.653 33.207 62.9678 32.6515 62.8332 32.1624C 62.7412 31.877 62.4336 31.718 62.1468 31.8095C 61.8589 31.8988 61.7002 32.2049 61.79 32.4903C 62.2508 33.7255 63.5501 34.4423 64.4499 34.8181C 64.3683 34.8698 64.2879 34.9187 64.2074 34.9676L 64.2073 34.9676L 64.2071 34.9677C 64.1775 34.9857 64.1479 35.0036 64.1183 35.0218C 64.1094 35.0198 64.0909 35.016 64.0632 35.0102L 64.06 35.0096L 64.0595 35.0095C 63.5589 34.9061 60.225 34.2176 56.3519 32.585C 52.1441 30.8193 47.3704 27.9468 44.9907 23.6768C 44.8429 23.4132 44.5102 23.3184 44.2475 23.4644C 43.9848 23.6093 43.8873 23.9404 44.0362 24.2051C 48.3283 31.7942 59.0118 34.9205 62.6722 35.8082C 62.2486 36.0108 61.8447 36.184 61.4736 36.3202C 59.3315 37.1121 54.5917 37.6491 50.9006 37.6426C 48.9894 37.647 47.3212 37.4945 46.509 37.2221C 46.2244 37.1274 45.9146 37.281 45.8205 37.5664C 45.7241 37.8518 45.8774 38.16 46.1653 38.2548C 47.2281 38.599 48.9194 38.7297 50.8995 38.7319C 54.7066 38.7275 59.4322 38.2221 61.8524 37.342C 65.4668 36.0185 71.2158 32.1003 76.5565 22.3882C 79.1464 17.6694 83.584 13.0181 87.3692 9.56833C 89.4723 7.6499 91.369 6.1038 92.6438 5.10541C 92.7147 5.04985 92.7837 4.99599 92.8507 4.94385C 93.0456 4.79225 93.2235 4.65524 93.3828 4.53358C 93.9339 4.11273 94.2618 3.87541 94.2937 3.85236L 94.2938 3.85228L 94.296 3.85064C 94.2966 3.85091 94.3068 3.84316 94.3264 3.82835L 94.3269 3.82801L 94.3272 3.82777L 94.3275 3.82755C 94.3527 3.80853 94.3928 3.77828 94.4469 3.73869C 94.7103 3.54609 95.3064 3.13233 96.1405 2.71452C 96.3732 2.59752 96.6233 2.48084 96.8881 2.3692C 97.9251 1.93206 99.1873 1.5723 100.509 1.57403C 100.6 1.57434 100.691 1.57622 100.782 1.57979C 102.305 1.63931 103.898 2.16644 105.434 3.63496C 106.71 4.86259 107.232 6.41123 107.26 8.21596C 107.26 8.25921 107.261 8.3026 107.261 8.34615C 107.262 8.67354 107.247 9.00779 107.215 9.34766C 107.199 9.51994 107.179 9.69365 107.155 9.86866C 107.052 10.6339 106.875 11.4238 106.643 12.2249C 105.479 16.2421 102.924 20.5435 101.197 23.4519L 101.185 23.4708L 101.174 23.4896L 101.169 23.498C 101.099 23.6166 101.03 23.7329 100.962 23.8467C 99.1066 27.0135 96.2404 29.6832 93.0575 32.6478C 91.0979 34.473 89.0183 36.4101 86.9806 38.6437C 81.9167 44.232 80.6459 52.8451 79.313 61.8793L 79.3128 61.8801L 79.3116 61.8887L 79.3096 61.9023L 79.3084 61.91L 79.2713 62.1616C 79.182 62.7668 79.0922 63.3737 79.0008 63.9816C 78.297 68.7397 75.3185 74.6142 72.5053 79.2568C 69.6932 83.9069 67.0738 87.3251 67.0672 87.3317L 66.9698 87.5365C 64.2638 98.8226 57.6446 105.563 50.303 108.955C 43.2229 112.242 30.0337 125.427 27.9758 127.496C 26.9841 127.04 23.9903 125.65 20.7042 123.988C 16.688 121.962 12.2066 119.483 10.5942 117.949C 8.97309 116.437 6.52881 112.346 4.56395 108.692C 2.97126 105.743 1.66099 103.061 1.2111 102.125C 3.1661 100.248 14.7013 89.1257 21.3949 81.297C 27.908 73.5674 29.0519 48.5192 29.0902 34.2015C 29.0902 31.9075 29.0584 29.8945 29.0059 28.2889C 29.005 28.188 29.0033 28.0891 29.0016 27.9923L 29.0016 27.992L 29.0016 27.9901L 29.0016 27.9899L 29.0016 27.9897L 29.0016 27.9896C 28.9993 27.8563 28.9971 27.7271 28.9971 27.6026C 29.0221 18.652 34.7142 16.6458 39.3924 14.997C 40.2441 14.6968 41.0623 14.4084 41.8065 14.0922C 46.5287 12.1042 69.0058 3.01298 74.2304 1.40301C 74.9474 1.18189 75.648 1.08821 76.3255 1.08821C 76.7233 1.08777 77.1144 1.12035 77.4961 1.17951C 77.705 1.22161 77.9686 1.27532 78.2824 1.34043C 79.4928 1.64748 80.5815 2.19423 81.4539 2.75047C 82.7605 3.57925 83.5487 4.39314 83.5694 4.41448L 83.5698 4.4149C 83.78 4.63385 84.1259 4.64038 84.3448 4.43124C 84.5626 4.22319 84.5714 3.87679 84.3612 3.66111C 84.3583 3.65949 84.3424 3.64399 84.314 3.61634L 84.3137 3.61604C 84.1557 3.46226 83.6145 2.93519 82.7793 2.32921C 83.0758 2.39776 83.3809 2.46891 83.6939 2.54267C 84.8255 2.80923 86.0435 3.10313 87.3492 3.43429L 87.3492 2.33695C 86.1315 2.02961 84.9956 1.76041 83.9353 1.51062C 81.9055 1.03245 80.2045 0.661381 79.0141 0.410565L 78.9483 0.396709C 78.4219 0.241697 77.8677 0.123307 77.2906 0.0576804L 77.2614 0.0519606C 77.2198 0.0437907 77.188 0.0375878 77.1669 0.0334813L 77.1427 0.0287881L 77.1365 0.0275889L 77.1348 0.0272784C 77.1347 0.0272525 77.1346 0.0272353 77.1319 0.0410387C 76.868 0.0156749 76.5994 0.00150047 76.3266 7.97257e-06C 75.5473 -0.00107905 74.734 0.108934 73.9064 0.364918C 68.5504 2.02064 46.1499 11.0846 41.3817 13.0911C 40.7531 13.3535 40.0334 13.6045 39.2609 13.874L 39.2608 13.874C 34.5525 15.5162 27.8812 17.843 27.9047 27.6037C 27.9047 27.7419 27.907 27.88 27.9093 28.02L 27.9093 28.0202L 27.9093 28.0204L 27.9093 28.021L 27.9093 28.0218C 27.9109 28.1185 27.9125 28.216 27.9134 28.315C 27.966 29.9152 27.9999 31.9173 27.9966 34.2026C 28.0371 48.3852 26.6316 73.6175 20.5641 80.5922ZM 75.2451 17.9809C 75.7114 18.0779 76.1668 18.1171 76.5959 18.1193C 77.1673 18.1171 77.6862 18.0474 78.135 17.958C 77.9719 18.1781 77.8121 18.3992 77.6544 18.6214L 74.9912 18.14C 75.0094 18.1284 75.0276 18.1166 75.0459 18.1049L 75.0474 18.1039L 75.0476 18.1038C 75.1147 18.0607 75.1819 18.0175 75.2451 17.9809ZM 82.1162 61.4266C 82.8854 62.3277 83.6449 63.2174 84.6677 63.3041C 84.7399 63.3041 84.8133 63.2954 84.8899 63.2812C 84.5944 63.5666 84.3831 63.73 84.3273 63.7191C 84.2353 63.7442 84.1434 63.7551 84.0427 63.7551C 83.3925 63.7812 82.4204 63.1059 81.6947 62.3477C 81.1485 61.7933 80.7281 61.2377 80.5475 60.9894C 80.5901 60.7026 80.633 60.4172 80.6759 60.1324L 80.6765 60.1283L 80.6802 60.1038C 80.7043 59.9438 80.7283 59.7841 80.7522 59.6245C 81.0149 60.009 81.4123 60.57 81.872 61.1419C 81.9537 61.2363 82.035 61.3315 82.1162 61.4266Z"/><path id="path8_fill" fill-rule="evenodd" d="M 93.771 4.64547L 93.771 4.64554L 93.7373 4.67543L 93.7362 4.67635L 93.7347 4.67776L 93.7131 4.69691C 93.4237 4.95469 93.137 5.2206 92.8564 5.49042C 91.2429 7.08732 89.8932 8.65263 89.6612 9.87264C 89.6524 9.9369 89.6502 9.99464 89.6502 10.0437C 89.7663 11.4684 91.4936 12.9477 93.4136 14.4814C 95.3828 15.9465 97.4024 17.2003 98.6962 17.2515C 98.8024 17.2515 98.9097 17.2417 99.0301 17.2134C 100.684 16.8081 103.337 15.7363 105.412 10.9848C 105.877 9.94017 106.07 8.95437 106.07 8.05461C 106.069 7.94864 106.065 7.84403 106.059 7.74079C 106.059 7.73084 106.058 7.72091 106.057 7.71099C 105.863 4.52849 103.455 2.64976 102.789 2.25631L 102.788 2.2585C 102.276 1.96101 101.619 1.67437 100.782 1.57979C 100.691 1.57622 100.6 1.57434 100.509 1.57403C 99.1873 1.5723 97.9251 1.93206 96.8881 2.3692C 96.2201 2.72254 95.486 3.23131 94.7431 3.82545C 94.5525 3.97787 94.3613 4.1359 94.1706 4.29837C 94.0371 4.41204 93.9038 4.52787 93.771 4.64547ZM 94.0791 13.6176C 92.2149 12.268 90.6288 10.4162 90.7449 10.0437C 90.7449 10.0437 90.7449 10.0219 90.7427 10.0295C 90.7832 9.4696 92.0683 7.73545 93.6182 6.26817C 94.0508 5.84601 94.5089 5.43271 94.9668 5.04916C 94.9823 5.03617 94.9978 5.0232 95.0133 5.01028C 96.1678 4.04823 97.3153 3.27978 98.0427 3.03952C 98.9108 2.74323 99.6113 2.6343 100.184 2.6343C 101.092 2.63866 101.701 2.89464 102.243 3.20182L 102.515 2.73016L 102.245 3.20182C 102.629 3.40675 104.457 4.85931 104.885 7.06476C 104.898 7.12735 104.909 7.19054 104.918 7.25433C 104.958 7.51166 104.978 7.77866 104.975 8.05461C 104.975 8.15939 104.972 8.26578 104.965 8.37381L 104.965 8.37718L 104.965 8.38C 104.965 8.38942 104.964 8.39883 104.963 8.40828C 104.92 9.05908 104.755 9.76915 104.411 10.5436C 102.382 15.0511 100.245 15.7483 98.7575 16.1578C 98.7575 16.1578 98.7378 16.1622 98.6973 16.1622C 98.1226 16.2134 95.8918 15.0337 94.0791 13.6176Z"/><path id="path9_fill" d="M 5.92046 0.483589L 24.8379 12.8016C 25.1315 12.9919 25.3448 13.2397 25.4803 13.515C 25.4803 13.515 25.4803 13.5201 25.4828 13.5201C 25.5882 13.5776 25.6961 13.6377 25.804 13.6953C 25.7312 13.7253 25.6585 13.7554 25.5857 13.7854C 25.8667 14.7066 25.3799 15.8029 24.2909 16.0833L 18.1331 16.9219C 17.684 17.1146 17.2348 17.3023 16.7856 17.4901C 25.8115 35.1223 19.8545 65.1352 7.99313 71.6234C 7.07975 72.1266 6.07604 71.1103 6.62808 70.2242C 16.9814 53.6007 14.2437 31.5028 7.89275 21.768L 2.97205 26.7918C 1.74 27.7906 -0.0917728 26.8544 0.00357988 25.2749L 0.0537618 24.4288L 0.738797 12.9393L 1.34604 2.784C 1.47653 0.521138 4.01592 -0.755476 5.92046 0.483589Z"/><path id="path10_fill" d="M 23.4041 4.52822L 19.2738 0.408016L 11.9065 7.75729L 4.13028 4.96538e-07L 4.21174e-06 4.1202L 7.77626 11.8775L 0.0426577 19.5947L 4.17293 23.7149L 11.9065 16.0002L 19.2336 23.3069L 23.3639 19.1867L 16.0368 11.8775L 23.4041 4.52822Z"/><path id="path11_fill" d="M 23.4041 4.52822L 19.2738 0.405509L 11.9065 7.75729L 4.13028 -1.52781e-07L 4.21174e-06 4.1202L 7.77626 11.8775L 0.0426577 19.5922L 4.17293 23.7124L 11.9065 15.9977L 19.2336 23.3044L 23.3639 19.1842L 16.0368 11.8775L 23.4041 4.52822Z"/><path id="path12_fill" fill-rule="evenodd" d="M 19.2738 0.408015L 23.4066 4.52822L 16.0393 11.8775L 23.3639 19.1867L 19.2336 23.3069L 11.9065 16.0002L 4.17293 23.7149L 0.0426559 19.5947L 7.77626 11.8775L 6.03999 10.1344C 6.97585 8.67115 8.5089 6.38229 9.23494 5.09222L 11.9065 7.75729L 19.2738 0.408015Z"/><path id="path13_fill" fill-rule="evenodd" d="M 9.41778 24.7688C 9.40618 31.5487 9.39239 44.1571 9.38593 50.9372C 9.38593 50.9372 1.35668 58.7388 0.468808 60.396L 0.0129973 22.5009C 0.0129973 11.7924 7.01891 2.97375 17.445 0.5557C 18.8928 0.217773 20.4636 0.0425539 22.1097 0.0300381L 27.3441 0L 27.3441 9.51952L 26.117 9.48448C 24.1171 9.4219 22.2026 9.41939 20.7196 9.59211C 15.3924 10.2004 11.8267 13.1416 10.1204 18.3332C 9.478 20.2856 9.42029 22.5835 9.41778 24.7688Z"/><path id="path14_fill" fill-rule="evenodd" d="M 122.012 22.929C 122.052 47.7052 122.039 72.489 122.012 97.2728L 122.022 101.205C 122.044 106.084 122.067 111.128 121.731 116.084C 121.021 126.565 111.533 135.499 101.019 135.596C 92.5026 135.679 83.9836 135.696 75.4645 135.696L 52.6527 135.679L 47.9955 135.681C 45.4561 135.681 42.9142 135.674 40.3723 135.664C 34.5407 135.634 28.7091 135.614 22.8801 135.714L 22.4736 135.716C 10.6298 135.716 3.0141 127.436 0.951468 119.739C 0.359278 117.538 0.0556551 115.428 0.045618 113.463C 0.0490029 114.363 0.0415818 112.563 0.045618 113.463C 0.177934 113.203 1.58254 108.43 1.676 107.946C 1.76946 107.461 3.23368 98.1279 3.23368 98.1279C 4.66673 89.2636 6.94098 84.1465 9.3757 82.3093L 9.37571 82.5138C 9.37629 92.5966 9.37998 102.68 9.38516 112.762C 9.38767 120.75 14.9984 126.33 23.0281 126.33L 65.4902 126.297C 76.6188 126.297 87.7525 126.317 98.8837 126.38C 102.796 126.38 106.319 124.925 108.893 122.287C 111.36 119.761 112.667 116.415 112.572 112.868C 112.424 107.473 112.459 101.994 112.494 96.6946C 112.509 94.3441 112.524 91.9912 112.524 89.6407L 112.527 67.3826L 112.524 22.8639C 112.519 16.7236 109.262 11.9501 103.814 10.0902C 101.308 9.23788 98.8494 9.28857 96.4144 9.33877C 96.2822 9.3415 96.1501 9.34422 96.0181 9.3468L 94.8036 9.36933L 94.6982 8.1603L 94.6982 0.00250179L 98.9715 0.00750775C 112.303 0.0250299 121.994 9.6647 122.012 22.929Z"/><path id="path15_fill" d="M 58.0535 24.9513C 58.0309 27.2592 57.0523 28.2605 54.7362 28.2605L 3.7175 28.2605C 0.876995 28.2605 0.0188189 27.3794 0.0188189 24.4757C -0.00627393 22.2154 -0.00627393 18.9537 0.0188189 16.6909C 0.0414024 14.6909 1.0677 13.7146 3.07262 13.6195C 5.22056 13.5469 7.41618 13.6671 9.51644 13.2616C 13.1674 12.5231 16.0305 10.428 17.9175 7.14383C 18.5624 6.02492 19.1571 4.88348 19.8271 3.76457C 21.2825 1.31147 23.453 0.0749089 26.2935 0.0273488C 27.9396 -0.0202112 29.5857 0.0523804 31.2343 0.00231722C 34.5741 -0.0677713 36.9128 1.45415 38.584 4.28773C 39.8486 6.4054 41.1384 8.6207 42.8547 10.3354C 45.5271 12.9787 48.9874 13.7872 52.7338 13.6671C 57.7448 13.5244 58.056 13.9299 58.056 18.8561C 58.0535 20.5708 58.0786 23.2617 58.0535 24.9513Z"/></defs></svg>
