<svg id="strategy" width="90" height="76" viewBox="0 0 90 76" version="1.1" xmlns="http://www.w3.org/2000/svg" xmlns:xlink="http://www.w3.org/1999/xlink" xmlns:figma="http://www.figma.com/figma/ns"><title>Group</title><desc>Created using Figma</desc><g id="Canvas" transform="translate(-3458 -1218)" figma:type="canvas"><g id="Group" style="mix-blend-mode:normal;" figma:type="frame"><g id="Group" style="mix-blend-mode:normal;" figma:type="frame"><g id="noun_577567_cc" style="mix-blend-mode:normal;" figma:type="frame"><g id="Group" style="mix-blend-mode:normal;" figma:type="frame"><g id="Vector" style="mix-blend-mode:normal;" figma:type="vector"><use xlink:href="#path0_fill" transform="translate(3515.07 1238.72)" style="mix-blend-mode:normal;"/></g><g id="Vector" style="mix-blend-mode:normal;" figma:type="vector"><use xlink:href="#path1_fill" transform="translate(3529.76 1240.11)" style="mix-blend-mode:normal;"/></g><g id="Vector" style="mix-blend-mode:normal;" figma:type="vector"><use xlink:href="#path2_fill" transform="translate(3529.76 1261.07)" style="mix-blend-mode:normal;"/></g><g id="Vector" style="mix-blend-mode:normal;" figma:type="vector"><use xlink:href="#path3_fill" transform="translate(3502.22 1250.34)" style="mix-blend-mode:normal;"/></g><g id="Vector" style="mix-blend-mode:normal;" figma:type="vector"><use xlink:href="#path4_fill" transform="translate(3495.06 1225.11)" style="mix-blend-mode:normal;"/></g><g id="Vector" style="mix-blend-mode:normal;" figma:type="vector"><use xlink:href="#path5_fill" transform="translate(3508.74 1218)" style="mix-blend-mode:normal;"/></g></g></g><g id="Vector" style="mix-blend-mode:normal;" figma:type="vector"><use xlink:href="#path6_fill" transform="matrix(-1 0 0 1 3509 1240.13)" style="mix-blend-mode:normal;"/></g></g></g></g><defs><path id="path0_fill" d="M 2.54395 0.207749L 10.6726 5.49955C 10.7987 5.58128 10.8904 5.68774 10.9486 5.80603C 10.9486 5.80603 10.9486 5.80818 10.9497 5.80818C 10.9949 5.83291 11.0413 5.85872 11.0877 5.88345C 11.0564 5.89636 11.0251 5.90926 10.9939 5.92217C 11.1146 6.3179 10.9055 6.7889 10.4375 6.90934L 7.79159 7.26958C 7.59859 7.35239 7.40559 7.43304 7.21259 7.51369C 11.0909 15.0885 8.53124 27.9819 3.43455 30.7692C 3.04209 30.9854 2.6108 30.5488 2.84801 30.1681C 7.29669 23.0267 6.12037 13.5335 3.39142 9.35146L 1.27706 11.5097C 0.747657 11.9388 -0.0394337 11.5366 0.00153823 10.858L 0.0231008 10.4946L 0.317452 5.5587L 0.578379 1.196C 0.634446 0.22388 1.72559 -0.324551 2.54395 0.207749Z"/><path id="path1_fill" d="M 10.0564 1.94531L 8.28172 0.175283L 5.1161 3.33251L 1.77473 2.13311e-07L 1.80974e-06 1.77003L 3.34137 5.10254L 0.0183295 8.41785L 1.79306 10.1879L 5.1161 6.87365L 8.26447 10.0126L 10.0392 8.24257L 6.89083 5.10254L 10.0564 1.94531Z"/><path id="path2_fill" d="M 10.0564 1.94531L 8.28172 0.174206L 5.1161 3.33251L 1.77473 -6.56342e-08L 1.80974e-06 1.77003L 3.34137 5.10254L 0.0183295 8.41678L 1.79306 10.1868L 5.1161 6.87257L 8.26447 10.0115L 10.0392 8.2415L 6.89083 5.10254L 10.0564 1.94531Z"/><path id="path3_fill" d="M 10.0575 1.94531L 8.28172 0.175282L 5.1161 3.33251L 1.77473 -7.21977e-07L 3.86626e-07 1.77003L 3.34137 5.10254L 0.0183291 8.41785L 1.79306 10.1879L 5.1161 6.87365L 8.26447 10.0126L 10.0392 8.24257L 6.89191 5.10254L 10.0575 1.94531Z"/><path id="path4_fill" d="M 52.427 41.7882C 52.4389 31.1411 52.4442 20.494 52.427 9.85022C 52.4194 4.15193 48.2554 0.0107532 42.5269 0.00322569L 40.6907 0.00107515L 40.6907 3.50565L 40.736 4.02504L 41.2578 4.01536C 42.3598 3.99386 43.4725 3.94869 44.6078 4.33474C 46.9486 5.13373 48.3481 7.18442 48.3503 9.82226L 48.3514 28.9474L 48.3503 38.5094C 48.3503 39.5192 48.3438 40.53 48.3373 41.5397C 48.3223 43.8163 48.3072 46.1702 48.3708 48.4876C 48.4117 50.0114 47.85 51.4491 46.7901 52.5341C 45.6839 53.6676 44.1701 54.2923 42.4891 54.2923C 37.7062 54.2655 32.9222 54.2569 28.1404 54.2569L 9.89491 54.2708C 6.44464 54.2708 4.03377 51.8739 4.03269 48.4424C 4.02622 35.8415 4.02514 23.2405 4.04671 10.6406C 4.04779 9.70182 4.07259 8.71465 4.34861 7.87587C 5.08179 5.6456 6.61392 4.38206 8.90296 4.12075C 9.54018 4.04655 10.3629 4.04762 11.2222 4.07451L 11.7494 4.08956L 11.7494 3.85601e-07L 9.50029 0.0129047C 8.79298 0.0182815 8.11802 0.0935551 7.4959 0.238728C 3.01594 1.27752 0.00558484 5.06598 0.00558484 9.66633L 0.0012718 33.6026C -0.000884615 38.6503 -0.00304082 43.6958 0.0196016 48.7435C 0.0239144 49.5877 0.154378 50.4942 0.408835 51.4394C 1.29512 54.7461 4.56748 58.3034 9.65663 58.3034L 9.8313 58.3023C 12.336 58.2593 14.8417 58.2679 17.3475 58.2808C 18.4397 58.2851 19.5319 58.2883 20.6231 58.2883L 22.6242 58.2873L 32.4262 58.2948C 36.0867 58.2948 39.7473 58.2873 43.4067 58.2518C 47.9244 58.2099 52.0011 54.3719 52.3062 49.8694C 52.4507 47.7402 52.441 45.5734 52.4313 43.4775L 52.427 41.7882Z"/><path id="path5_fill" d="M 24.9449 10.719C 24.9352 11.7105 24.5147 12.1406 23.5195 12.1406L 1.59737 12.1406C 0.376835 12.1406 0.00808625 11.7621 0.00808625 10.5147C -0.00269583 9.54366 -0.00269583 8.14248 0.00808625 7.17036C 0.0177901 6.31116 0.458778 5.89177 1.32027 5.85091C 2.24321 5.81972 3.18664 5.87134 4.0891 5.69713C 5.6579 5.3799 6.88813 4.47983 7.69895 3.06897C 7.97604 2.58829 8.23158 2.09793 8.51946 1.61725C 9.14482 0.563404 10.0775 0.0321807 11.298 0.011749C 12.0053 -0.0086827 12.7126 0.0225025 13.421 0.000995472C 14.8561 -0.0291144 15.861 0.624699 16.5791 1.842C 17.1225 2.75174 17.6767 3.70343 18.4142 4.44005C 19.5625 5.57562 21.0493 5.92296 22.6591 5.87134C 24.8123 5.81004 24.946 5.98425 24.946 8.10054C 24.9449 8.83716 24.9557 9.99316 24.9449 10.719Z"/><path id="path6_fill" d="M 50.4244 42.5359C 50.415 42.5281 44.8326 37.2938 41.7389 33.7367C 39.1551 30.817 38.5566 20.2545 38.5738 14.3175C 38.5724 13.3609 38.5869 12.5228 38.6093 11.8529C 38.6102 11.7512 38.613 11.6532 38.613 11.5552C 38.6247 6.79877 34.773 6.25934 32.874 5.48006C 30.8435 4.64013 21.3046 0.84586 19.0238 0.152759C 18.6714 0.0456021 18.325 -0.000452226 17.9931 3.76164e-06C 16.041 0.0104915 14.5918 1.52163 14.5717 1.53258C 14.4822 1.62286 14.486 1.76787 14.5787 1.85496C 14.6719 1.94251 14.8192 1.93977 14.9087 1.84812C 14.9097 1.84721 15.2467 1.50248 15.8098 1.15137C 16.3729 0.798437 17.1476 0.454622 17.9936 0.455534C 18.2821 0.455534 18.5805 0.49475 18.8858 0.587315C 21.1106 1.26126 30.6822 5.06693 32.6931 5.89911C 34.7506 6.75865 38.1352 7.12571 38.1478 11.5547C 38.1478 11.645 38.145 11.7412 38.1441 11.842C 38.1217 12.5141 38.1082 13.3568 38.1082 14.3171C 38.1245 20.3106 38.6116 30.796 41.3851 34.0317C 44.2355 37.3089 49.1476 41.965 49.9801 42.7506C 49.7885 43.1423 49.2306 44.265 48.5524 45.4993C 47.7156 47.0292 46.6748 48.7418 45.9844 49.3747C 45.2978 50.0168 43.3895 51.0546 41.6792 51.9027C 40.2799 52.5981 39.005 53.18 38.5827 53.371C 37.7064 52.5051 32.0899 46.9854 29.075 45.6097C 25.9486 44.1897 23.1299 41.3681 21.9776 36.6436L 21.9362 36.5579C 21.9334 36.5551 20.8179 35.1242 19.6204 33.1776C 18.4224 31.2342 17.1541 28.7751 16.8544 26.7833C 16.2279 22.6867 15.7795 18.6968 13.4563 16.1766C 11.1792 13.7229 8.77909 12.1242 7.50235 9.98248C 6.53419 8.3774 4.81043 5.5977 4.82022 3.49378C 4.82209 2.71495 5.04163 2.04784 5.5982 1.52163C 6.29134 0.870027 7.01198 0.661184 7.69533 0.658904C 8.40199 0.657992 9.06856 0.895562 9.55567 1.13632C 10.0428 1.37617 10.3392 1.61283 10.3411 1.61192C 10.3532 1.62058 11.6798 2.56083 13.2908 4.00539C 14.9027 5.44951 16.7924 7.39657 17.8953 9.37191C 20.1695 13.4375 22.6176 15.0777 24.1568 15.6317C 25.1874 16.0001 27.1997 16.2117 28.8209 16.2135C 29.6642 16.2126 30.3844 16.1579 30.837 16.0138C 30.9596 15.9741 31.0248 15.8451 30.9838 15.7256C 30.9437 15.6062 30.8118 15.5419 30.6906 15.5815C 30.3447 15.6955 29.6343 15.7594 28.8205 15.7576C 27.2487 15.7603 25.2303 15.5355 24.3181 15.204C 24.1601 15.147 23.9881 15.0745 23.8077 14.9897C 25.3664 14.618 29.9159 13.3094 31.7436 10.1325C 31.807 10.0217 31.7655 9.88307 31.6536 9.82242C 31.5418 9.76132 31.4001 9.80099 31.3371 9.91134C 30.3238 11.6988 28.291 12.9012 26.4991 13.6404C 24.7516 14.3645 23.2618 14.6449 23.1919 14.6604C 23.1448 14.6322 23.0982 14.6048 23.0507 14.5752C 23.4338 14.4179 23.9871 14.1178 24.1834 13.6007C 24.2216 13.4813 24.154 13.3531 24.0314 13.3157C 23.9093 13.2774 23.7783 13.344 23.7392 13.4635C 23.6818 13.6682 23.39 13.9008 23.0912 14.0508C 22.8782 14.1611 22.6796 14.2309 22.585 14.2628C 22.5538 14.2405 22.5221 14.2181 22.4904 14.1949C 22.902 13.9432 23.6413 13.3814 23.7984 12.4694C 23.8184 12.3449 23.7303 12.2291 23.6035 12.2095C 23.4767 12.1908 23.3579 12.2761 23.3378 12.401C 23.2651 12.8762 22.9421 13.2651 22.6218 13.5342C 22.4084 13.7147 22.2079 13.8324 22.0979 13.8926C 22.0494 13.8534 22.0014 13.8146 21.9525 13.7736C 22.3193 13.4726 23.1197 12.6609 23.1234 11.2916C 23.1234 11.1936 23.1197 11.0933 23.1122 10.9925C 23.1015 10.8671 22.9896 10.7727 22.8619 10.7832C 22.7328 10.7923 22.6372 10.9022 22.647 11.0281C 22.6549 11.1188 22.6582 11.2077 22.6582 11.2916C 22.6573 12.0499 22.3706 12.6049 22.0821 12.9801C 21.9385 13.1662 21.7935 13.3053 21.6863 13.3969C 21.6495 13.4288 21.6253 13.4462 21.5996 13.4658C 20.5569 12.5159 19.4139 11.1357 18.305 9.15303C 18.1269 8.83567 17.9288 8.52058 17.7177 8.20823L 19.0755 7.96656C 19.0797 7.9661 19.083 7.96291 19.0867 7.962C 20.0865 8.71665 21.5423 9.9501 23.2977 10.0221C 23.3416 10.0144 25.7109 9.8434 27.0468 8.99754C 27.1536 8.92823 27.1834 8.78688 27.114 8.682C 27.0431 8.57667 26.8986 8.54748 26.7914 8.61588C 26.2185 8.98523 25.3338 9.23329 24.601 9.37647C 23.8673 9.52056 23.2889 9.56616 23.2875 9.56707C 21.3507 9.50551 19.6782 7.67244 18.6005 7.08559C 18.5497 7.05869 18.4905 7.05093 18.4341 7.06507C 18.2458 7.11112 18.0584 7.12891 17.8803 7.12891C 17.5741 7.12891 17.3005 7.07464 17.1024 7.02038C 16.9005 6.96521 16.777 6.91003 16.7751 6.91277C 16.7658 6.90866 16.7556 6.90912 16.7462 6.90593C 14.183 3.76737 10.6324 1.25944 10.624 1.25032C 10.6143 1.24667 9.3212 0.21067 7.69626 0.204286C 6.91176 0.20155 6.05035 0.460551 5.27563 1.19469C 4.61279 1.81711 4.35269 2.63424 4.35502 3.49469C 4.36341 5.56441 5.77439 7.99893 6.7612 9.64459C 6.74442 9.65371 6.72391 9.66465 6.69408 9.67924C 6.40228 9.82607 5.51056 10.1781 3.43114 10.4043C 3.28944 10.4193 3.15519 10.4266 3.02887 10.4266C 1.90689 10.422 1.29719 9.88489 0.922416 9.32631C 0.737827 9.04816 0.621294 8.76408 0.552773 8.55295C 0.484251 8.34183 0.465607 8.21051 0.463276 8.21051C 0.443698 8.08648 0.324367 8.00121 0.197113 8.02036C 0.0707907 8.03951 -0.0168423 8.15625 0.00273533 8.28073C 0.00553213 8.29031 0.410602 10.8639 3.02887 10.8826C 3.17477 10.8826 3.32487 10.8739 3.48288 10.8575C 5.80982 10.6031 6.71878 10.1941 6.9966 10.0367C 7.03202 10.0956 7.06838 10.1567 7.10194 10.2127C 7.84915 11.4544 8.91753 12.4959 10.0931 13.5788C 9.94955 14.0139 8.95435 17.027 8.94876 18.7283C 8.95062 19.0817 8.98699 19.384 9.1175 19.6289C 9.43634 20.2121 10.522 21.9955 11.6425 23.6744C 11.7819 23.8828 11.9218 24.0898 12.0602 24.2918C 12.0602 24.3009 12.0602 24.305 12.0602 24.3146C 12.0602 24.6516 12.0709 25.5335 12.1805 26.3953C 12.3105 27.2562 12.4476 28.0916 13.0004 28.4249C 13.8763 28.8763 16.867 29.6501 17.2897 29.7605C 18.7138 33.0914 21.2332 36.396 21.5367 36.7954C 22.7225 41.6202 25.6452 44.5604 28.8792 46.0237C 30.4175 46.7173 32.8124 48.6712 34.7926 50.4413C 36.7783 52.2133 38.3632 53.8015 38.3664 53.8042C 38.4116 53.8498 38.4718 53.8735 38.5324 53.8735C 38.565 53.8735 38.5986 53.8667 38.6298 53.8525C 38.6442 53.8411 44.7501 51.1362 46.3075 49.7072C 47.855 48.2571 50.4612 42.8136 50.4747 42.7994C 50.5157 42.7087 50.4961 42.6043 50.4244 42.5359ZM 17.8785 7.58489C 18.0612 7.58398 18.2551 7.56757 18.4537 7.52698C 18.4882 7.54659 18.5255 7.57076 18.5618 7.59356L 17.4277 7.7951C 17.3606 7.70208 17.2925 7.60952 17.2231 7.51741C 17.4142 7.5548 17.6352 7.58398 17.8785 7.58489ZM 12.5179 24.1418C 12.5156 24.1272 12.5147 24.1126 12.5096 24.0989C 12.5193 24.1226 12.5273 24.1463 12.5371 24.1696C 12.531 24.1605 12.5245 24.1509 12.5179 24.1418ZM 12.895 22.5235L 12.9953 22.7301C 13.0801 22.6899 13.1668 22.6721 13.2652 22.6721C 13.7257 22.6571 14.4184 23.1591 14.9442 23.6977C 15.3194 24.0743 15.6215 24.4519 15.7669 24.6406C 15.6639 24.7911 15.4798 25.051 15.2686 25.31C 14.9647 25.7149 14.5037 26.0834 14.4417 26.0442L 14.4389 26.0433C 14.4398 26.046 14.4025 26.0291 14.3401 25.9762C 13.8446 25.606 12.7356 23.9758 12.7622 23.1724C 12.7697 22.9248 12.8289 22.813 12.9948 22.7301L 12.895 22.5235ZM 14.4412 26.4997C 14.9227 26.4596 15.2672 26.0086 15.6317 25.5946C 15.8275 25.3552 15.9967 25.1203 16.1086 24.9594C 16.1375 25.1491 16.1668 25.3392 16.1957 25.5307C 16.1188 25.6347 15.9398 25.8672 15.7072 26.0993C 15.3982 26.4167 14.9843 26.6994 14.7074 26.6885C 14.6645 26.6885 14.6253 26.6839 14.5862 26.6734C 14.5624 26.678 14.4724 26.6096 14.3466 26.4901C 14.3792 26.496 14.4104 26.4997 14.4412 26.4997ZM 9.52677 19.4137C 9.45731 19.2924 9.41117 19.0439 9.41303 18.7279C 9.40837 17.323 10.2055 14.7412 10.4679 13.9254C 11.3284 14.712 12.2331 15.5332 13.1104 16.4826C 14.8104 18.3083 15.4784 21.0867 15.9827 24.1673C 15.8116 23.9557 15.5665 23.6689 15.277 23.3789C 14.7116 22.8231 14.0114 22.2303 13.2656 22.2152C 13.1067 22.2152 12.9459 22.2467 12.7953 22.3174L 12.7953 22.3169C 12.4392 22.4756 12.2877 22.8308 12.2956 23.1719C 12.2984 23.4592 12.3804 23.7706 12.5054 24.0857C 12.4858 24.0415 12.4513 24.0068 12.4093 23.9822C 11.1745 22.1765 9.86471 20.0347 9.52677 19.4137ZM 13.2181 28.0218C 12.9985 27.9516 12.7277 27.165 12.6419 26.3378C 12.5804 25.859 12.5515 25.3693 12.5371 24.9753C 12.7878 25.3274 13.0307 25.657 13.2544 25.9434C 13.7593 26.5667 14.0967 26.9885 14.464 27.1125C 14.5428 27.1331 14.6207 27.1436 14.6976 27.1436C 14.7008 27.1436 14.7041 27.1436 14.7074 27.1436C 15.3669 27.1135 15.9445 26.5585 16.2885 26.1527C 16.323 26.3848 16.3575 26.6173 16.3929 26.8508C 16.5094 27.6087 16.7523 28.4167 17.0707 29.2324C 16.1524 28.9885 13.859 28.361 13.2181 28.0218Z"/></defs></svg>
