<svg id="visual-language" width="363" height="309" viewBox="0 0 363 309" version="1.1" xmlns="http://www.w3.org/2000/svg" xmlns:xlink="http://www.w3.org/1999/xlink" xmlns:figma="http://www.figma.com/figma/ns"><title>Visual Language Icon</title><desc>Created using Figma</desc><g id="Canvas" transform="translate(-1399 -10355)" figma:type="canvas"><g id="Visual Language Icon" style="mix-blend-mode:normal;" figma:type="frame"><g id="Rectangle 12" style="mix-blend-mode:normal;" figma:type="rounded-rectangle"><use xlink:href="#path0_fill" transform="translate(1399 10355)" fill="#D7D7D7" style="mix-blend-mode:normal;"/></g><mask id="mask0_alpha" mask-type="alpha"><path d="M 1428.46 10382L 1734.44 10382L 1734.44 10424.7L 1428.46 10424.7L 1428.46 10382Z" fill="#FFFFFF"/></mask><g id="Colour Pallete" style="mix-blend-mode:normal;" mask="url(#mask0_alpha)" figma:type="frame"><g id="Group" style="mix-blend-mode:normal;" figma:type="frame"><g id="Rectangle 13" style="mix-blend-mode:normal;" figma:type="rounded-rectangle"><use xlink:href="#path1_fill" transform="translate(1428.46 10382)" fill="#79A637" style="mix-blend-mode:normal;"/></g><g id="Rectangle 13" style="mix-blend-mode:normal;" figma:type="rounded-rectangle"><use xlink:href="#path1_fill" transform="translate(1511.13 10382)" fill="#49731F" style="mix-blend-mode:normal;"/></g><g id="Rectangle 13" style="mix-blend-mode:normal;" figma:type="rounded-rectangle"><use xlink:href="#path1_fill" transform="translate(1594.75 10382)" fill="#4A96D9" style="mix-blend-mode:normal;"/></g><g id="Rectangle 13" style="mix-blend-mode:normal;" figma:type="rounded-rectangle"><use xlink:href="#path1_fill" transform="translate(1677.43 10382)" fill="#163E8C" style="mix-blend-mode:normal;"/></g></g></g><g id="Text" style="mix-blend-mode:normal;" figma:type="frame"><g id="Heading" style="mix-blend-mode:normal;" figma:type="text"><use xlink:href="#path2_fill" transform="translate(1428 10460)" style="mix-blend-mode:normal;"/></g><g id="This is the style of paragraph text." style="mix-blend-mode:normal;" figma:type="text"><use xlink:href="#path3_fill" transform="translate(1428 10514.5)" style="mix-blend-mode:normal;"/></g></g><g id="Button" style="mix-blend-mode:normal;" figma:type="frame"><g id="Group" style="mix-blend-mode:normal;" figma:type="frame"><g id="Group" style="mix-blend-mode:normal;" figma:type="frame"><g id="Rectangle 13" style="mix-blend-mode:normal;" filter="url(#filter0_d)" figma:type="rounded-rectangle"><use xlink:href="#path4_fill" transform="translate(1428 10567)" fill="#163E8C" style="mix-blend-mode:normal;"/></g><g id="Rectangle 13" style="mix-blend-mode:normal;" figma:type="rounded-rectangle"><use xlink:href="#path5_fill" transform="translate(1428.5 10567.5)" fill="#163E8C" style="mix-blend-mode:normal;"/></g><g id="I Love It!" style="mix-blend-mode:normal;" figma:type="text"><use xlink:href="#path6_fill" transform="translate(1517 10578)" fill="#FFFFFF" style="mix-blend-mode:normal;"/></g></g></g></g></g></g><defs><filter id="filter0_d" filterUnits="userSpaceOnUse" x="1422" y="10564" width="318" height="82" color-interpolation-filters="sRGB"><feFlood flood-opacity="0" result="BackgroundImageFix"/><desc>type="dropShadow" x="0" y="3" size="6" spread="0" color="0,0,0,0.23" blend="normal"</desc><feColorMatrix in="SourceAlpha" type="matrix" values="0 0 0 0 0 0 0 0 0 0 0 0 0 0 0 0 0 0 255 0"/><feOffset dx="0" dy="3"/><feGaussianBlur stdDeviation="3"/><feColorMatrix type="matrix" values="0 0 0 0 0 0 0 0 0 0 0 0 0 0 0 0 0 0 0.23 0"/><feBlend mode="normal" in2="BackgroundImageFix" result="effect1_dropShadow"/><feBlend mode="normal" in="SourceGraphic" in2="effect1_dropShadow" result="shape"/></filter><path id="path0_fill" d="M 0 2C 0 0.895431 0.895431 0 2 0L 361 0C 362.105 0 363 0.895431 363 2L 363 307C 363 308.105 362.105 309 361 309L 2 309C 0.895431 309 0 308.105 0 307L 0 2Z"/><path id="path1_fill" d="M 0 2C 0 0.895431 0.895431 0 2 0L 55.0157 0C 56.1203 0 57.0157 0.895431 57.0157 2L 57.0157 40.6623C 57.0157 41.7669 56.1203 42.6623 55.0157 42.6623L 2 42.6623C 0.895431 42.6623 0 41.7669 0 40.6623L 0 2Z"/><path id="path2_fill" d="M 11.7422 11.0566C 11.2148 12.4395 10.6875 13.7754 10.1602 15.0645C 9.64453 16.3535 9.12891 17.6074 8.61328 18.8262C 8.10938 20.0449 7.59961 21.2402 7.08398 22.4121C 6.56836 23.584 6.04688 24.7383 5.51953 25.875C 6.39844 25.7461 7.28906 25.6113 8.19141 25.4707C 9.10547 25.3301 9.94922 25.2012 10.7227 25.084C 11.5078 24.9668 12.1816 24.8672 12.7441 24.7852C 13.3066 24.7031 13.6758 24.6445 13.8516 24.6094C 14.8477 22.2188 15.8027 19.7988 16.7168 17.3496C 17.6426 14.8887 18.5625 12.3809 19.4766 9.82617C 19.8164 10.166 20.1855 10.5352 20.584 10.9336C 20.9824 11.332 21.3633 11.7129 21.7266 12.0762C 22.0898 12.4395 22.4062 12.7617 22.6758 13.043C 22.9453 13.3125 23.127 13.5 23.2207 13.6055C 22.4004 15.3516 21.5977 17.0566 20.8125 18.7207C 20.0273 20.3848 19.248 22.0137 18.4746 23.6074C 19.5176 23.3496 20.3496 23.1152 20.9707 22.9043C 21.5918 22.6816 22.0605 22.5117 22.377 22.3945C 22.7051 22.2656 22.9102 22.1895 22.9922 22.166C 23.0742 22.1426 23.1035 22.1836 23.0801 22.2891C 23.0449 22.3828 22.9687 22.5527 22.8516 22.7988C 22.7344 23.0332 22.5879 23.3027 22.4121 23.6074C 22.248 23.9121 22.0605 24.2344 21.8496 24.5742C 21.6387 24.9023 21.4277 25.207 21.2168 25.4883C 21.0176 25.7695 20.8242 26.0039 20.6367 26.1914C 20.4492 26.3789 20.291 26.4785 20.1621 26.4902C 19.916 26.5371 19.6289 26.584 19.3008 26.6309C 19.0195 26.6777 18.668 26.7363 18.2461 26.8066C 17.8359 26.8652 17.3613 26.9355 16.8223 27.0176C 15.6035 29.502 14.4551 31.7578 13.377 33.7852C 12.3105 35.8008 11.3437 37.5 10.4766 38.8828C 10.043 38.5312 9.63281 38.1797 9.24609 37.8281C 8.85938 37.4883 8.47852 37.2539 8.10352 37.125C 7.88086 35.7422 7.46484 34.2422 6.85547 32.625C 6.24609 30.9961 5.50195 29.3789 4.62305 27.7734C 3.79102 29.5312 2.94141 31.2773 2.07422 33.0117C 1.20703 34.7344 0.287109 36.5098 -0.685547 38.3379C -1.18945 37.9277 -1.66992 37.5645 -2.12695 37.248C -2.5957 36.9434 -2.98828 36.6738 -3.30469 36.4395C -2.78906 35.4199 -2.22656 34.2598 -1.61719 32.959C -1.00781 31.6465 -0.380859 30.2285 0.263672 28.7051C 0.919922 27.1699 1.58203 25.5527 2.25 23.8535C 2.91797 22.1426 3.58008 20.3789 4.23633 18.5625C 4.89258 16.7461 5.53125 14.9004 6.15234 13.0254C 6.77344 11.1387 7.35352 9.25781 7.89258 7.38281C 8.23242 7.71094 8.57812 8.03906 8.92969 8.36719C 9.29297 8.68359 9.64453 9 9.98438 9.31641C 10.3359 9.62109 10.6582 9.92578 10.9512 10.2305C 11.2559 10.5234 11.5195 10.7988 11.7422 11.0566ZM 9.5625 34.2598C 10.6055 32.0801 11.6191 29.8594 12.6035 27.5977C 10.8809 27.8203 8.88281 28.0488 6.60938 28.2832C 6.92578 28.7754 7.22461 29.291 7.50586 29.8301C 7.79883 30.3691 8.06836 30.9023 8.31445 31.4297C 8.57227 31.957 8.80078 32.4668 9 32.959C 9.21094 33.4395 9.39844 33.873 9.5625 34.2598ZM 34.5762 30.8496C 33.498 31.9043 32.4785 32.7891 31.5176 33.5039C 30.5684 34.2188 29.6602 34.793 28.793 35.2266C 27.9258 35.6602 27.0937 35.9707 26.2969 36.1582C 25.5117 36.3457 24.7441 36.4395 23.9941 36.4395C 23.6777 36.4395 23.3262 36.3223 22.9395 36.0879C 22.5527 35.8535 22.1953 35.5664 21.8672 35.2266C 21.5273 34.8984 21.2461 34.5527 21.0234 34.1895C 20.8008 33.8262 20.6895 33.5156 20.6895 33.2578C 20.6895 32.2969 20.8242 31.418 21.0938 30.6211C 21.3516 29.8125 21.6973 29.0859 22.1309 28.4414C 22.5645 27.7969 23.0566 27.2285 23.6074 26.7363C 24.1699 26.2441 24.75 25.834 25.3477 25.5059C 25.957 25.1777 26.5605 24.9316 27.1582 24.7676C 27.7559 24.6035 28.3066 24.5215 28.8105 24.5215C 29.1738 24.5215 29.5312 24.627 29.8828 24.8379C 30.2461 25.0488 30.5742 25.3066 30.8672 25.6113C 31.1602 25.916 31.3945 26.2383 31.5703 26.5781C 31.7578 26.9062 31.8516 27.1934 31.8516 27.4395C 31.8516 27.8379 31.6816 28.248 31.3418 28.6699C 31.0137 29.0801 30.5449 29.502 29.9355 29.9355C 29.3262 30.3691 28.5937 30.8145 27.7383 31.2715C 26.8828 31.7168 25.9395 32.168 24.9082 32.625C 24.873 32.9062 24.8555 33.1816 24.8555 33.4512C 24.8555 33.8145 24.9316 34.0605 25.084 34.1895C 25.248 34.3184 25.5469 34.3828 25.9805 34.3828C 26.7539 34.3828 27.4805 34.2539 28.1602 33.9961C 28.8516 33.7383 29.5137 33.4043 30.1465 32.9941C 30.7793 32.584 31.3887 32.1152 31.9746 31.5879C 32.5605 31.0605 33.1406 30.5273 33.7148 29.9883L 34.5762 30.8496ZM 28.3887 26.4551C 28.1543 26.4551 27.8965 26.584 27.6152 26.8418C 27.334 27.0879 27.0527 27.416 26.7715 27.8262C 26.4902 28.2363 26.2207 28.7109 25.9629 29.25C 25.7051 29.7773 25.4824 30.3281 25.2949 30.9023C 25.7285 30.6211 26.1504 30.3223 26.5605 30.0059C 26.9824 29.6895 27.3574 29.3613 27.6855 29.0215C 28.0137 28.6699 28.2773 28.3125 28.4766 27.9492C 28.6758 27.5859 28.7754 27.2227 28.7754 26.8594C 28.7754 26.7539 28.7402 26.6602 28.6699 26.5781C 28.6113 26.4961 28.5176 26.4551 28.3887 26.4551ZM 43.6289 33.627C 43.6289 33.6973 43.6641 33.7324 43.7344 33.7324C 43.8398 33.7324 44.0156 33.6562 44.2617 33.5039C 44.5078 33.3516 44.7891 33.1582 45.1055 32.9238C 45.4219 32.6895 45.7559 32.4258 46.1074 32.1328C 46.4707 31.8398 46.8164 31.5527 47.1445 31.2715C 47.4727 30.9902 47.7656 30.7324 48.0234 30.498C 48.293 30.2637 48.498 30.082 48.6387 29.9531C 48.7441 30.0586 48.873 30.1992 49.0254 30.375C 49.1895 30.5508 49.3359 30.709 49.4648 30.8496C 49.1836 31.1074 48.8438 31.4238 48.4453 31.7988C 48.0586 32.1621 47.6367 32.543 47.1797 32.9414C 46.7344 33.3398 46.2715 33.7383 45.791 34.1367C 45.3105 34.5234 44.8418 34.8691 44.3848 35.1738C 43.9277 35.4785 43.4941 35.7246 43.084 35.9121C 42.6738 36.1113 42.3164 36.2109 42.0117 36.2109C 41.8008 36.2109 41.5664 36.1699 41.3086 36.0879C 41.0625 36.0059 40.834 35.8887 40.623 35.7363C 40.4121 35.5957 40.2363 35.4258 40.0957 35.2266C 39.9551 35.0273 39.8848 34.8047 39.8848 34.5586C 39.8848 34.4648 39.8789 34.3535 39.8672 34.2246C 39.8672 34.084 39.8789 33.9082 39.9023 33.6973C 39.9258 33.4746 39.9727 33.2109 40.043 32.9062C 40.1133 32.5898 40.2188 32.2031 40.3594 31.7461C 39.9727 32.1562 39.5156 32.584 38.9883 33.0293C 38.4727 33.4746 37.9277 33.8965 37.3535 34.2949C 36.7793 34.6934 36.1992 35.0508 35.6133 35.3672C 35.0391 35.6953 34.5059 35.9414 34.0137 36.1055C 33.9551 36.1289 33.9082 36.1406 33.873 36.1406C 33.8379 36.1406 33.8027 36.1406 33.7676 36.1406C 33.6504 36.1406 33.498 36.082 33.3105 35.9648C 33.1113 35.8477 32.918 35.6895 32.7305 35.4902C 32.543 35.3027 32.3848 35.0859 32.2559 34.8398C 32.1152 34.5938 32.0449 34.3477 32.0449 34.1016C 32.0449 34.0312 32.0801 33.7969 32.1504 33.3984C 32.2207 33 32.3906 32.4961 32.6602 31.8867C 32.918 31.2656 33.3047 30.5742 33.8203 29.8125C 34.3359 29.0391 35.0391 28.248 35.9297 27.4395C 36.3867 27.0293 36.8789 26.6426 37.4062 26.2793C 37.8516 25.9746 38.3613 25.6641 38.9355 25.3477C 39.5098 25.0312 40.1133 24.7793 40.7461 24.5918C 40.7695 24.5918 40.7871 24.5859 40.7988 24.5742C 40.8223 24.5625 40.8516 24.5684 40.8867 24.5918C 41.0273 24.6387 41.1914 24.7148 41.3789 24.8203C 41.5781 24.9141 41.7715 25.0195 41.959 25.1367C 42.1582 25.2422 42.3281 25.3535 42.4688 25.4707C 42.6211 25.5762 42.7207 25.6641 42.7676 25.7344C 42.7793 25.7578 42.7793 25.7754 42.7676 25.7871L 42.7324 25.8223C 42.2051 26.1035 41.707 26.4199 41.2383 26.7715C 40.7695 27.1113 40.3535 27.4336 39.9902 27.7383C 39.5684 28.1016 39.1758 28.459 38.8125 28.8105C 37.957 29.6543 37.3652 30.3867 37.0371 31.0078C 36.709 31.6172 36.5449 32.0566 36.5449 32.3262C 36.5449 32.5254 36.627 32.625 36.791 32.625C 36.9551 32.625 37.1602 32.5605 37.4062 32.4316C 37.6641 32.291 37.9512 32.1094 38.2676 31.8867C 38.584 31.6523 38.9297 31.3828 39.3047 31.0781C 39.6914 30.7617 40.0898 30.4336 40.5 30.0938C 40.8633 29.8008 41.2148 29.4844 41.5547 29.1445C 41.8477 28.8633 42.1523 28.541 42.4688 28.1777C 42.7852 27.8145 43.0547 27.4453 43.2773 27.0703C 43.2773 27.0586 43.2832 27.0469 43.2949 27.0352C 43.3066 27.0234 43.3242 27.0234 43.3477 27.0352C 43.4766 27.1289 43.623 27.2871 43.7871 27.5098C 43.9512 27.7207 44.1035 27.9551 44.2441 28.2129C 44.3848 28.4707 44.502 28.7227 44.5957 28.9688C 44.7012 29.2031 44.7539 29.3848 44.7539 29.5137C 44.4844 30.0645 44.2734 30.5684 44.1211 31.0254C 43.9805 31.4707 43.8691 31.8633 43.7871 32.2031C 43.7168 32.543 43.6699 32.8359 43.6465 33.082C 43.6348 33.3164 43.6289 33.498 43.6289 33.627ZM 59.1152 33.2227C 59.1152 33.5156 59.209 33.6621 59.3965 33.6621C 59.6191 33.6621 59.8828 33.5918 60.1875 33.4512C 60.5039 33.3105 60.832 33.1289 61.1719 32.9062C 61.5117 32.6719 61.8574 32.4141 62.209 32.1328C 62.5605 31.8516 62.8887 31.5762 63.1934 31.3066C 63.5098 31.0371 63.791 30.7852 64.0371 30.5508C 64.2832 30.3164 64.4766 30.1289 64.6172 29.9883C 64.7344 30.0938 64.875 30.2285 65.0391 30.3926C 65.2031 30.5566 65.3496 30.709 65.4785 30.8496C 65.1738 31.1543 64.8281 31.4941 64.4414 31.8691C 64.0547 32.2441 63.6387 32.6309 63.1934 33.0293C 62.7598 33.416 62.3027 33.7969 61.8223 34.1719C 61.3535 34.5352 60.8848 34.8633 60.416 35.1562C 59.9473 35.4375 59.4902 35.666 59.0449 35.8418C 58.5996 36.0176 58.1777 36.1055 57.7793 36.1055C 57.5684 36.1055 57.3105 36.0059 57.0059 35.8066C 56.7012 35.6191 56.4082 35.3848 56.127 35.1035C 55.8457 34.8223 55.6055 34.5293 55.4062 34.2246C 55.2188 33.9082 55.125 33.627 55.125 33.3809C 55.125 32.8418 55.1602 32.2793 55.2305 31.6934C 54.7031 32.1621 54.1934 32.6074 53.7012 33.0293C 53.209 33.4512 52.7109 33.8496 52.207 34.2246C 51.7148 34.5879 51.2051 34.9219 50.6777 35.2266C 50.1621 35.543 49.6113 35.8125 49.0254 36.0352C 48.8496 36.1055 48.6973 36.1406 48.5684 36.1406C 48.4512 36.1406 48.2988 36.082 48.1113 35.9648C 47.9238 35.8477 47.7422 35.6953 47.5664 35.5078C 47.3906 35.332 47.2383 35.1328 47.1094 34.9102C 46.9805 34.6758 46.916 34.4531 46.916 34.2422C 46.916 33.7617 47.0098 33.2285 47.1973 32.6426C 47.373 32.0449 47.6367 31.4355 47.9883 30.8145C 48.3281 30.1816 48.75 29.5547 49.2539 28.9336C 49.7461 28.3008 50.3086 27.709 50.9414 27.1582C 51.5742 26.5957 52.2715 26.0918 53.0332 25.6465C 53.7949 25.1895 54.6094 24.8262 55.4766 24.5566C 55.6406 24.5801 55.8516 24.6563 56.1094 24.7852C 56.3672 24.9023 56.6074 25.0254 56.8301 25.1543C 57.252 23.9473 57.7324 22.7402 58.2715 21.5332C 58.8223 20.3145 59.4023 19.1484 60.0117 18.0352C 60.6328 16.9102 61.2773 15.8613 61.9453 14.8887C 62.6133 13.9043 63.2812 13.0371 63.9492 12.2871C 64.6172 11.5254 65.2734 10.9102 65.918 10.4414C 66.5742 9.97266 67.1953 9.68555 67.7812 9.58008C 68.0391 9.58008 68.3086 9.66797 68.5898 9.84375C 68.8828 10.0078 69.1582 10.2129 69.416 10.459C 69.6738 10.6934 69.8906 10.9395 70.0664 11.1973C 70.2539 11.4551 70.3711 11.6719 70.418 11.8477C 70.418 12.3867 70.2832 13.0137 70.0137 13.7285C 69.7441 14.4434 69.3691 15.2168 68.8887 16.0488C 68.4199 16.8691 67.8574 17.7305 67.2012 18.6328C 66.5566 19.5352 65.8594 20.4551 65.1094 21.3926C 64.3594 22.3184 63.5684 23.2441 62.7363 24.1699C 61.916 25.0957 61.0898 25.9922 60.2578 26.8594C 59.9062 28.0547 59.625 29.1973 59.4141 30.2871C 59.2148 31.3652 59.1152 32.3438 59.1152 33.2227ZM 67.9395 11.707C 67.7402 11.707 67.4941 11.8535 67.2012 12.1465C 66.9199 12.4395 66.5977 12.8496 66.2344 13.377C 65.8828 13.8926 65.5078 14.5078 65.1094 15.2227C 64.7109 15.9375 64.3066 16.7168 63.8965 17.5605C 63.4863 18.4043 63.0762 19.3008 62.666 20.25C 62.2559 21.1992 61.8691 22.1602 61.5059 23.1328C 62.3848 22.0547 63.2168 20.9766 64.002 19.8984C 64.7988 18.8086 65.4961 17.7773 66.0938 16.8047C 66.6914 15.832 67.166 14.9414 67.5176 14.1328C 67.8691 13.3242 68.0449 12.6562 68.0449 12.1289C 68.0449 12.0586 68.0391 11.9707 68.0273 11.8652C 68.0273 11.7598 67.998 11.707 67.9395 11.707ZM 51.2578 32.625C 51.6445 32.625 52.2188 32.3555 52.9805 31.8164C 53.7422 31.2656 54.6035 30.5332 55.5645 29.6191C 55.6699 29.0801 55.7988 28.5352 55.9512 27.9844C 56.1035 27.4219 56.2734 26.8535 56.4609 26.2793C 55.7813 26.7363 55.1133 27.2578 54.457 27.8438C 53.8125 28.4297 53.2383 29.0098 52.7344 29.584C 52.2305 30.1582 51.8203 30.6973 51.5039 31.2012C 51.1992 31.6934 51.0469 32.0684 51.0469 32.3262C 51.0469 32.5254 51.1172 32.625 51.2578 32.625ZM 65.7773 36.1406C 65.6016 36.1406 65.3789 36.0762 65.1094 35.9473C 64.8398 35.8301 64.582 35.6777 64.3359 35.4902C 64.0898 35.3145 63.8789 35.1152 63.7031 34.8926C 63.5273 34.6699 63.4395 34.4531 63.4395 34.2422C 63.5566 33.7266 63.7148 33.1348 63.9141 32.4668C 64.1133 31.7988 64.3301 31.1191 64.5645 30.4277C 64.7871 29.7363 65.0273 29.0625 65.2852 28.4062C 65.5312 27.7383 65.7539 27.1465 65.9531 26.6309C 66.1641 26.1152 66.3457 25.6992 66.498 25.3828C 66.6504 25.0664 66.75 24.9082 66.7969 24.9082C 66.8672 24.9082 67.043 24.9844 67.3242 25.1367C 67.6055 25.2891 67.8984 25.4766 68.2031 25.6992C 68.5195 25.9102 68.8008 26.1387 69.0469 26.3848C 69.293 26.6191 69.416 26.8242 69.416 27C 69.416 27.0352 69.4102 27.082 69.3984 27.1406C 69.3867 27.1875 69.3691 27.252 69.3457 27.334C 69.252 27.627 69.1289 27.9727 68.9766 28.3711C 68.8359 28.7695 68.6836 29.1855 68.5195 29.6191C 68.3555 30.041 68.1914 30.4688 68.0273 30.9023C 67.8633 31.3242 67.7168 31.7227 67.5879 32.0977C 67.459 32.4727 67.3535 32.8008 67.2715 33.082C 67.1895 33.3633 67.1484 33.5684 67.1484 33.6973C 67.1484 33.7676 67.1836 33.8027 67.2539 33.8027C 67.3828 33.8027 67.5762 33.7266 67.834 33.5742C 68.0918 33.4219 68.3848 33.2227 68.7129 32.9766C 69.0527 32.7305 69.4043 32.4609 69.7676 32.168C 70.1309 31.875 70.4766 31.5879 70.8047 31.3066C 71.1445 31.0137 71.4492 30.75 71.7188 30.5156C 71.9883 30.2812 72.1934 30.1055 72.334 29.9883C 72.4395 30.0938 72.5625 30.2285 72.7031 30.3926C 72.8555 30.5566 72.9961 30.709 73.125 30.8496C 72.8672 31.1074 72.5449 31.4238 72.1582 31.7988C 71.7715 32.1621 71.3496 32.5371 70.8926 32.9238C 70.4473 33.3105 69.9785 33.6973 69.4863 34.084C 69.0059 34.4707 68.5371 34.8164 68.0801 35.1211C 67.623 35.4258 67.1953 35.6719 66.7969 35.8594C 66.3984 36.0469 66.0586 36.1406 65.7773 36.1406ZM 72.7383 19.5469C 72.7266 19.5938 72.6797 19.7109 72.5977 19.8984C 72.5273 20.0742 72.4395 20.2852 72.334 20.5312C 72.2285 20.7656 72.1055 21.0176 71.9648 21.2871C 71.8359 21.5449 71.707 21.7852 71.5781 22.0078C 71.4492 22.2305 71.3262 22.418 71.209 22.5703C 71.0918 22.7109 70.998 22.7812 70.9277 22.7812C 70.7168 22.7695 70.459 22.7051 70.1543 22.5879C 69.8613 22.4707 69.5742 22.3418 69.293 22.2012C 69.0234 22.0488 68.7891 21.9023 68.5898 21.7617C 68.4023 21.6211 68.3086 21.5215 68.3086 21.4629C 68.3086 21.2168 68.3789 20.9004 68.5195 20.5137C 68.6602 20.1152 68.8242 19.7344 69.0117 19.3711C 69.1992 18.9961 69.3867 18.6738 69.5742 18.4043C 69.7734 18.1348 69.9258 18 70.0312 18C 70.2422 18 70.5 18.0703 70.8047 18.2109C 71.1094 18.3398 71.4023 18.4922 71.6836 18.668C 71.9766 18.8438 72.2227 19.0195 72.4219 19.1953C 72.6328 19.3594 72.7383 19.4766 72.7383 19.5469ZM 77.1328 26.6836C 76.9922 27.0586 76.8516 27.4395 76.7109 27.8262C 76.5703 28.2129 76.4297 28.6113 76.2891 29.0215C 77.0273 28.1777 77.6602 27.4922 78.1875 26.9648C 78.7266 26.4258 79.1777 26.0039 79.541 25.6992C 79.916 25.3945 80.2148 25.1895 80.4375 25.084C 80.6719 24.9668 80.8535 24.9082 80.9824 24.9082C 81.1348 24.9082 81.3633 24.9844 81.668 25.1367C 81.9727 25.2891 82.2773 25.4766 82.582 25.6992C 82.8984 25.9219 83.168 26.1504 83.3906 26.3848C 83.625 26.6191 83.7422 26.8242 83.7422 27C 83.7422 27.0352 83.7363 27.082 83.7246 27.1406C 83.7129 27.1875 83.6953 27.252 83.6719 27.334C 83.5781 27.627 83.4551 27.9727 83.3027 28.3711C 83.1621 28.7695 83.0098 29.1855 82.8457 29.6191C 82.6816 30.041 82.5176 30.4688 82.3535 30.9023C 82.1895 31.3242 82.043 31.7227 81.9141 32.0977C 81.7852 32.4727 81.6797 32.8008 81.5977 33.082C 81.5156 33.3633 81.4746 33.5684 81.4746 33.6973C 81.4746 33.7676 81.5098 33.8027 81.5801 33.8027C 81.709 33.8027 81.9023 33.7266 82.1602 33.5742C 82.418 33.4219 82.7109 33.2227 83.0391 32.9766C 83.3789 32.7305 83.7305 32.4609 84.0938 32.168C 84.457 31.875 84.8027 31.5879 85.1309 31.3066C 85.4707 31.0137 85.7754 30.75 86.0449 30.5156C 86.3145 30.2812 86.5195 30.1055 86.6602 29.9883C 86.7773 30.0938 86.9062 30.2285 87.0469 30.3926C 87.1875 30.5566 87.3223 30.709 87.4512 30.8496C 87.1934 31.1074 86.8711 31.4238 86.4844 31.7988C 86.0977 32.1621 85.6758 32.5371 85.2188 32.9238C 84.7734 33.3105 84.3047 33.6973 83.8125 34.084C 83.332 34.4707 82.8633 34.8164 82.4062 35.1211C 81.9492 35.4258 81.5215 35.6719 81.123 35.8594C 80.7246 36.0469 80.3906 36.1406 80.1211 36.1406C 79.9453 36.1406 79.7227 36.0762 79.4531 35.9473C 79.1836 35.8301 78.9199 35.6777 78.6621 35.4902C 78.416 35.3145 78.2051 35.1152 78.0293 34.8926C 77.8535 34.6699 77.7656 34.4531 77.7656 34.2422C 77.8711 33.7617 78.0117 33.2168 78.1875 32.6074C 78.375 31.998 78.5742 31.377 78.7852 30.7441C 78.9961 30.0996 79.2129 29.4668 79.4355 28.8457C 79.6699 28.2129 79.8926 27.6328 80.1035 27.1055L 80.0684 27.1406C 79.8457 27.4102 79.5234 27.7676 79.1016 28.2129C 78.6914 28.6465 78.2227 29.209 77.6953 29.9004C 77.168 30.5801 76.6113 31.4063 76.0254 32.3789C 75.4395 33.3398 74.8652 34.4824 74.3027 35.8066C 74.2324 35.9707 74.168 36.0996 74.1094 36.1934C 74.0508 36.2871 73.9395 36.334 73.7754 36.334C 73.5762 36.334 73.3477 36.2754 73.0898 36.1582C 72.8438 36.0527 72.5918 35.9063 72.334 35.7188C 72.0645 35.543 71.8008 35.3438 71.543 35.1211C 71.2734 34.8984 71.0332 34.6758 70.8223 34.4531C 70.8223 34.3828 70.8574 34.1836 70.9277 33.8555C 70.9863 33.5273 71.0742 33.1172 71.1914 32.625C 71.3086 32.1211 71.4551 31.5527 71.6309 30.9199C 71.8066 30.2754 72.0059 29.6016 72.2285 28.8984C 72.4512 28.1953 72.6973 27.4805 72.9668 26.7539C 73.2246 26.0156 73.5059 25.3066 73.8105 24.627C 74.3027 24.8613 74.8477 25.1484 75.4453 25.4883C 76.0547 25.8281 76.6172 26.2266 77.1328 26.6836ZM 101.215 30.8496C 100.207 31.8809 99.1934 32.8301 98.1738 33.6973C 97.166 34.5527 96.1641 35.3555 95.168 36.1055C 94.9805 36.6445 94.7754 37.1895 94.5527 37.7402C 94.3418 38.3027 94.1191 38.8652 93.8848 39.4277C 93.5449 40.2012 93.1465 40.9395 92.6895 41.6426C 92.2441 42.3574 91.7695 43.0137 91.2656 43.6113C 90.7617 44.2207 90.2461 44.7656 89.7188 45.2461C 89.1914 45.7383 88.6816 46.1543 88.1895 46.4941C 87.709 46.834 87.2637 47.0977 86.8535 47.2852C 86.4316 47.4727 86.0742 47.5664 85.7812 47.5664C 85.582 47.5664 85.3477 47.4785 85.0781 47.3027C 84.8086 47.127 84.5566 46.9043 84.3223 46.6348C 84.0762 46.377 83.8711 46.0898 83.707 45.7734C 83.5312 45.4688 83.4434 45.1758 83.4434 44.8945C 83.4434 44.2852 83.6543 43.6875 84.0762 43.1016C 84.4863 42.5156 85.0605 41.9121 85.7988 41.291C 86.5254 40.6699 87.3809 40.0137 88.3652 39.3223C 89.3496 38.6426 90.416 37.9043 91.5645 37.1074C 91.8223 36.4395 92.1094 35.6484 92.4258 34.7344C 92.7539 33.8086 93.1406 32.6719 93.5859 31.3242C 93.1641 31.9102 92.6719 32.4902 92.1094 33.0645C 91.5469 33.627 90.9668 34.1309 90.3691 34.5762C 89.7715 35.0215 89.1738 35.3789 88.5762 35.6484C 87.9902 35.9297 87.4512 36.0703 86.959 36.0703C 86.8301 36.0703 86.666 36.0059 86.4668 35.877C 86.2559 35.7598 86.0508 35.6016 85.8516 35.4023C 85.6406 35.2031 85.4648 34.9687 85.3242 34.6992C 85.1719 34.4297 85.0957 34.1426 85.0957 33.8379C 85.0957 33.4512 85.1895 32.9883 85.377 32.4492C 85.5645 31.8984 85.8398 31.3184 86.2031 30.709C 86.5547 30.0996 86.9824 29.4785 87.4863 28.8457C 88.002 28.2129 88.5762 27.6211 89.209 27.0703C 89.8535 26.5078 90.5508 26.0098 91.3008 25.5762C 92.0625 25.1309 92.8711 24.791 93.7266 24.5566C 93.8555 24.5566 94.0371 24.6094 94.2715 24.7148C 94.5059 24.8086 94.7344 24.9199 94.957 25.0488C 95.1914 25.166 95.3906 25.2832 95.5547 25.4004C 95.7305 25.5176 95.8184 25.5938 95.8184 25.6289C 95.8184 25.6523 95.8008 25.6816 95.7656 25.7168C 95.7422 25.7285 95.7246 25.7344 95.7129 25.7344C 95.4434 25.8984 95.0977 26.127 94.6758 26.4199C 94.2539 26.7129 93.8086 27.0469 93.3398 27.4219C 92.8711 27.7852 92.4023 28.1777 91.9336 28.5996C 91.4648 29.0215 91.0371 29.4434 90.6504 29.8652C 90.2754 30.2754 89.9707 30.6738 89.7363 31.0605C 89.502 31.4355 89.3848 31.7754 89.3848 32.0801C 89.3848 32.1855 89.4082 32.2793 89.4551 32.3613C 89.5137 32.4316 89.5957 32.4668 89.7012 32.4668C 89.9941 32.4668 90.3223 32.3672 90.6855 32.168C 91.0605 31.957 91.4414 31.6875 91.8281 31.3594C 92.2148 31.0312 92.6016 30.668 92.9883 30.2695C 93.375 29.8594 93.7383 29.4609 94.0781 29.0742C 94.4297 28.6758 94.7402 28.3066 95.0098 27.9668C 95.2793 27.627 95.4902 27.3516 95.6426 27.1406C 95.666 27.1172 95.6836 27.0938 95.6953 27.0703C 95.7188 27.0469 95.748 27.0234 95.7832 27C 95.877 27.0234 96 27.1406 96.1523 27.3516C 96.3164 27.5625 96.4746 27.8086 96.627 28.0898C 96.7793 28.3594 96.9082 28.6289 97.0137 28.8984C 97.1309 29.168 97.1895 29.3613 97.1895 29.4785L 97.1895 29.5137C 97.1895 29.5254 97.1777 29.5664 97.1543 29.6367C 97.0254 30.0469 96.8613 30.6211 96.6621 31.3594C 96.4629 32.0977 96.2109 32.9473 95.9062 33.9082C 96.6563 33.3105 97.4062 32.6836 98.1562 32.0273C 98.918 31.3711 99.6738 30.668 100.424 29.918L 101.215 30.8496ZM 85.5176 45.2109C 85.752 45.2109 86.0918 45.0293 86.5371 44.666C 86.9707 44.3145 87.4336 43.8574 87.9258 43.2949C 88.418 42.7441 88.8984 42.1289 89.3672 41.4492C 89.8477 40.7812 90.2461 40.1309 90.5625 39.498C 89.8008 40.0488 89.1035 40.5645 88.4707 41.0449C 87.8379 41.5371 87.2988 42.0117 86.8535 42.4688C 86.3965 42.9258 86.0449 43.3652 85.7988 43.7871C 85.541 44.2207 85.4121 44.6484 85.4121 45.0703C 85.4121 45.1641 85.4473 45.2109 85.5176 45.2109Z"/><path id="path3_fill" d="M 7.686 3.346L 7.686 4.522L 4.634 4.522L 4.634 13.048L 3.276 13.048L 3.276 4.522L 0.224 4.522L 0.224 3.346L 7.686 3.346ZM 9.03602 13.048L 9.03602 2.408L 10.338 2.184L 10.338 5.908C 10.5807 5.81467 10.8373 5.74467 11.108 5.698C 11.388 5.642 11.6633 5.614 11.934 5.614C 12.5127 5.614 12.9933 5.698 13.376 5.866C 13.7587 6.02467 14.062 6.25333 14.286 6.552C 14.5193 6.84133 14.6827 7.19133 14.776 7.602C 14.8693 8.01267 14.916 8.46533 14.916 8.96L 14.916 13.048L 13.614 13.048L 13.614 9.24C 13.614 8.792 13.5813 8.40933 13.516 8.092C 13.46 7.77467 13.362 7.518 13.222 7.322C 13.082 7.126 12.8953 6.986 12.662 6.902C 12.4287 6.80867 12.1393 6.762 11.794 6.762C 11.654 6.762 11.5093 6.77133 11.36 6.79C 11.2107 6.80867 11.066 6.832 10.926 6.86C 10.7953 6.87867 10.674 6.902 10.562 6.93C 10.4593 6.958 10.3847 6.98133 10.338 7L 10.338 13.048L 9.03602 13.048ZM 18.3361 13.048L 17.0341 13.048L 17.0341 5.768L 18.3361 5.768L 18.3361 13.048ZM 17.6781 4.452C 17.4447 4.452 17.2441 4.37733 17.0761 4.228C 16.9174 4.06933 16.8381 3.85933 16.8381 3.598C 16.8381 3.33667 16.9174 3.13133 17.0761 2.982C 17.2441 2.82333 17.4447 2.744 17.6781 2.744C 17.9114 2.744 18.1074 2.82333 18.2661 2.982C 18.4341 3.13133 18.5181 3.33667 18.5181 3.598C 18.5181 3.85933 18.4341 4.06933 18.2661 4.228C 18.1074 4.37733 17.9114 4.452 17.6781 4.452ZM 22.2691 12.11C 22.8011 12.11 23.1931 12.04 23.4451 11.9C 23.7064 11.76 23.8371 11.536 23.8371 11.228C 23.8371 10.9107 23.7111 10.6587 23.4591 10.472C 23.2071 10.2853 22.7917 10.0753 22.2131 9.842C 21.9331 9.73 21.6624 9.618 21.4011 9.506C 21.1491 9.38467 20.9297 9.24467 20.7431 9.086C 20.5564 8.92733 20.4071 8.736 20.2951 8.512C 20.1831 8.288 20.1271 8.01267 20.1271 7.686C 20.1271 7.042 20.3651 6.53333 20.8411 6.16C 21.3171 5.77733 21.9657 5.586 22.7871 5.586C 22.9924 5.586 23.1977 5.6 23.4031 5.628C 23.6084 5.64667 23.7997 5.67467 23.9771 5.712C 24.1544 5.74 24.3084 5.77267 24.4391 5.81C 24.5791 5.84733 24.6864 5.88 24.7611 5.908L 24.5231 7.028C 24.3831 6.95333 24.1637 6.87867 23.8651 6.804C 23.5664 6.72 23.2071 6.678 22.7871 6.678C 22.4231 6.678 22.1057 6.75267 21.8351 6.902C 21.5644 7.042 21.4291 7.266 21.4291 7.574C 21.4291 7.73267 21.4571 7.87267 21.5131 7.994C 21.5784 8.11533 21.6717 8.22733 21.7931 8.33C 21.9237 8.42333 22.0824 8.512 22.2691 8.596C 22.4557 8.68 22.6797 8.76867 22.9411 8.862C 23.2864 8.99267 23.5944 9.12333 23.8651 9.254C 24.1357 9.37533 24.3644 9.52 24.5511 9.688C 24.7471 9.856 24.8964 10.0613 24.9991 10.304C 25.1017 10.5373 25.1531 10.8267 25.1531 11.172C 25.1531 11.844 24.9011 12.3527 24.3971 12.698C 23.9024 13.0433 23.1931 13.216 22.2691 13.216C 21.6251 13.216 21.1211 13.16 20.7571 13.048C 20.3931 12.9453 20.1457 12.866 20.0151 12.81L 20.2531 11.69C 20.4024 11.746 20.6404 11.83 20.9671 11.942C 21.2937 12.054 21.7277 12.11 22.2691 12.11ZM 31.3654 13.048L 30.0634 13.048L 30.0634 5.768L 31.3654 5.768L 31.3654 13.048ZM 30.7074 4.452C 30.474 4.452 30.2734 4.37733 30.1054 4.228C 29.9467 4.06933 29.8674 3.85933 29.8674 3.598C 29.8674 3.33667 29.9467 3.13133 30.1054 2.982C 30.2734 2.82333 30.474 2.744 30.7074 2.744C 30.9407 2.744 31.1367 2.82333 31.2954 2.982C 31.4634 3.13133 31.5474 3.33667 31.5474 3.598C 31.5474 3.85933 31.4634 4.06933 31.2954 4.228C 31.1367 4.37733 30.9407 4.452 30.7074 4.452ZM 35.2984 12.11C 35.8304 12.11 36.2224 12.04 36.4744 11.9C 36.7357 11.76 36.8664 11.536 36.8664 11.228C 36.8664 10.9107 36.7404 10.6587 36.4884 10.472C 36.2364 10.2853 35.821 10.0753 35.2424 9.842C 34.9624 9.73 34.6917 9.618 34.4304 9.506C 34.1784 9.38467 33.959 9.24467 33.7724 9.086C 33.5857 8.92733 33.4364 8.736 33.3244 8.512C 33.2124 8.288 33.1564 8.01267 33.1564 7.686C 33.1564 7.042 33.3944 6.53333 33.8704 6.16C 34.3464 5.77733 34.995 5.586 35.8164 5.586C 36.0217 5.586 36.227 5.6 36.4324 5.628C 36.6377 5.64667 36.829 5.67467 37.0064 5.712C 37.1837 5.74 37.3377 5.77267 37.4684 5.81C 37.6084 5.84733 37.7157 5.88 37.7904 5.908L 37.5524 7.028C 37.4124 6.95333 37.193 6.87867 36.8944 6.804C 36.5957 6.72 36.2364 6.678 35.8164 6.678C 35.4524 6.678 35.135 6.75267 34.8644 6.902C 34.5937 7.042 34.4584 7.266 34.4584 7.574C 34.4584 7.73267 34.4864 7.87267 34.5424 7.994C 34.6077 8.11533 34.701 8.22733 34.8224 8.33C 34.953 8.42333 35.1117 8.512 35.2984 8.596C 35.485 8.68 35.709 8.76867 35.9704 8.862C 36.3157 8.99267 36.6237 9.12333 36.8944 9.254C 37.165 9.37533 37.3937 9.52 37.5804 9.688C 37.7764 9.856 37.9257 10.0613 38.0284 10.304C 38.131 10.5373 38.1824 10.8267 38.1824 11.172C 38.1824 11.844 37.9304 12.3527 37.4264 12.698C 36.9317 13.0433 36.2224 13.216 35.2984 13.216C 34.6544 13.216 34.1504 13.16 33.7864 13.048C 33.4224 12.9453 33.175 12.866 33.0444 12.81L 33.2824 11.69C 33.4317 11.746 33.6697 11.83 33.9964 11.942C 34.323 12.054 34.757 12.11 35.2984 12.11ZM 44.3107 5.768L 47.0687 5.768L 47.0687 6.86L 44.3107 6.86L 44.3107 10.22C 44.3107 10.584 44.3387 10.8873 44.3947 11.13C 44.4507 11.3633 44.5347 11.55 44.6467 11.69C 44.7587 11.8207 44.8987 11.914 45.0667 11.97C 45.2347 12.026 45.4307 12.054 45.6547 12.054C 46.0467 12.054 46.3593 12.012 46.5927 11.928C 46.8353 11.8347 47.0033 11.7693 47.0967 11.732L 47.3487 12.81C 47.218 12.8753 46.9893 12.9547 46.6627 13.048C 46.336 13.1507 45.9627 13.202 45.5427 13.202C 45.048 13.202 44.6373 13.1413 44.3107 13.02C 43.9933 12.8893 43.7367 12.698 43.5407 12.446C 43.3447 12.194 43.2047 11.886 43.1207 11.522C 43.046 11.1487 43.0087 10.7193 43.0087 10.234L 43.0087 3.738L 44.3107 3.514L 44.3107 5.768ZM 48.7255 13.048L 48.7255 2.408L 50.0275 2.184L 50.0275 5.908C 50.2701 5.81467 50.5268 5.74467 50.7975 5.698C 51.0775 5.642 51.3528 5.614 51.6235 5.614C 52.2021 5.614 52.6828 5.698 53.0655 5.866C 53.4481 6.02467 53.7515 6.25333 53.9755 6.552C 54.2088 6.84133 54.3721 7.19133 54.4655 7.602C 54.5588 8.01267 54.6055 8.46533 54.6055 8.96L 54.6055 13.048L 53.3035 13.048L 53.3035 9.24C 53.3035 8.792 53.2708 8.40933 53.2055 8.092C 53.1495 7.77467 53.0515 7.518 52.9115 7.322C 52.7715 7.126 52.5848 6.986 52.3515 6.902C 52.1181 6.80867 51.8288 6.762 51.4835 6.762C 51.3435 6.762 51.1988 6.77133 51.0495 6.79C 50.9001 6.80867 50.7555 6.832 50.6155 6.86C 50.4848 6.87867 50.3635 6.902 50.2515 6.93C 50.1488 6.958 50.0741 6.98133 50.0275 7L 50.0275 13.048L 48.7255 13.048ZM 56.3175 9.422C 56.3175 8.778 56.4108 8.218 56.5975 7.742C 56.7842 7.25667 57.0315 6.85533 57.3395 6.538C 57.6475 6.22067 58.0022 5.98267 58.4035 5.824C 58.8048 5.66533 59.2155 5.586 59.6355 5.586C 60.6155 5.586 61.3668 5.894 61.8895 6.51C 62.4122 7.11667 62.6735 8.04533 62.6735 9.296C 62.6735 9.352 62.6735 9.42667 62.6735 9.52C 62.6735 9.604 62.6688 9.68333 62.6595 9.758L 57.6755 9.758C 57.7315 10.514 57.9508 11.088 58.3335 11.48C 58.7162 11.872 59.3135 12.068 60.1255 12.068C 60.5828 12.068 60.9655 12.0307 61.2735 11.956C 61.5908 11.872 61.8288 11.7927 61.9875 11.718L 62.1695 12.81C 62.0108 12.894 61.7308 12.9827 61.3295 13.076C 60.9375 13.1693 60.4895 13.216 59.9855 13.216C 59.3508 13.216 58.8002 13.1227 58.3335 12.936C 57.8762 12.74 57.4982 12.474 57.1995 12.138C 56.9008 11.802 56.6768 11.4053 56.5275 10.948C 56.3875 10.4813 56.3175 9.97267 56.3175 9.422ZM 61.3155 8.708C 61.3248 8.12 61.1755 7.63933 60.8675 7.266C 60.5688 6.88333 60.1535 6.692 59.6215 6.692C 59.3228 6.692 59.0568 6.75267 58.8235 6.874C 58.5995 6.986 58.4082 7.13533 58.2495 7.322C 58.0908 7.50867 57.9648 7.72333 57.8715 7.966C 57.7875 8.20867 57.7315 8.456 57.7035 8.708L 61.3155 8.708ZM 69.4781 12.11C 70.0101 12.11 70.4021 12.04 70.6541 11.9C 70.9154 11.76 71.0461 11.536 71.0461 11.228C 71.0461 10.9107 70.9201 10.6587 70.6681 10.472C 70.4161 10.2853 70.0007 10.0753 69.4221 9.842C 69.1421 9.73 68.8714 9.618 68.6101 9.506C 68.3581 9.38467 68.1387 9.24467 67.9521 9.086C 67.7654 8.92733 67.6161 8.736 67.5041 8.512C 67.3921 8.288 67.3361 8.01267 67.3361 7.686C 67.3361 7.042 67.5741 6.53333 68.0501 6.16C 68.5261 5.77733 69.1747 5.586 69.9961 5.586C 70.2014 5.586 70.4067 5.6 70.6121 5.628C 70.8174 5.64667 71.0087 5.67467 71.1861 5.712C 71.3634 5.74 71.5174 5.77267 71.6481 5.81C 71.7881 5.84733 71.8954 5.88 71.9701 5.908L 71.7321 7.028C 71.5921 6.95333 71.3727 6.87867 71.0741 6.804C 70.7754 6.72 70.4161 6.678 69.9961 6.678C 69.6321 6.678 69.3147 6.75267 69.0441 6.902C 68.7734 7.042 68.6381 7.266 68.6381 7.574C 68.6381 7.73267 68.6661 7.87267 68.7221 7.994C 68.7874 8.11533 68.8807 8.22733 69.0021 8.33C 69.1327 8.42333 69.2914 8.512 69.4781 8.596C 69.6647 8.68 69.8887 8.76867 70.1501 8.862C 70.4954 8.99267 70.8034 9.12333 71.0741 9.254C 71.3447 9.37533 71.5734 9.52 71.7601 9.688C 71.9561 9.856 72.1054 10.0613 72.2081 10.304C 72.3107 10.5373 72.3621 10.8267 72.3621 11.172C 72.3621 11.844 72.1101 12.3527 71.6061 12.698C 71.1114 13.0433 70.4021 13.216 69.4781 13.216C 68.8341 13.216 68.3301 13.16 67.9661 13.048C 67.6021 12.9453 67.3547 12.866 67.2241 12.81L 67.4621 11.69C 67.6114 11.746 67.8494 11.83 68.1761 11.942C 68.5027 12.054 68.9367 12.11 69.4781 12.11ZM 75.2501 5.768L 78.0081 5.768L 78.0081 6.86L 75.2501 6.86L 75.2501 10.22C 75.2501 10.584 75.2781 10.8873 75.3341 11.13C 75.3901 11.3633 75.4741 11.55 75.5861 11.69C 75.6981 11.8207 75.8381 11.914 76.0061 11.97C 76.1741 12.026 76.3701 12.054 76.5941 12.054C 76.9861 12.054 77.2988 12.012 77.5321 11.928C 77.7748 11.8347 77.9428 11.7693 78.0361 11.732L 78.2881 12.81C 78.1574 12.8753 77.9288 12.9547 77.6021 13.048C 77.2754 13.1507 76.9021 13.202 76.4821 13.202C 75.9874 13.202 75.5768 13.1413 75.2501 13.02C 74.9328 12.8893 74.6761 12.698 74.4801 12.446C 74.2841 12.194 74.1441 11.886 74.0601 11.522C 73.9854 11.1487 73.9481 10.7193 73.9481 10.234L 73.9481 3.738L 75.2501 3.514L 75.2501 5.768ZM 78.8109 14.406C 78.9136 14.4527 79.0443 14.4947 79.2029 14.532C 79.3709 14.5787 79.5343 14.602 79.6929 14.602C 80.2063 14.602 80.6076 14.4853 80.8969 14.252C 81.1863 14.028 81.4476 13.6593 81.6809 13.146C 81.0929 12.026 80.5423 10.8407 80.0289 9.59C 79.5249 8.33 79.1049 7.056 78.7689 5.768L 80.1689 5.768C 80.2716 6.188 80.3929 6.64067 80.5329 7.126C 80.6823 7.61133 80.8456 8.11067 81.0229 8.624C 81.2003 9.13733 81.3916 9.65067 81.5969 10.164C 81.8023 10.6773 82.0169 11.172 82.2409 11.648C 82.5956 10.668 82.9036 9.69733 83.1649 8.736C 83.4263 7.77467 83.6736 6.78533 83.9069 5.768L 85.2509 5.768C 84.9149 7.14 84.5416 8.46067 84.1309 9.73C 83.7203 10.99 83.2769 12.1707 82.8009 13.272C 82.6143 13.692 82.4183 14.0513 82.2129 14.35C 82.0169 14.658 81.7976 14.91 81.5549 15.106C 81.3123 15.302 81.0369 15.4467 80.7289 15.54C 80.4303 15.6333 80.0896 15.68 79.7069 15.68C 79.6043 15.68 79.4969 15.6707 79.3849 15.652C 79.2729 15.6427 79.1609 15.624 79.0489 15.596C 78.9463 15.5773 78.8483 15.554 78.7549 15.526C 78.6709 15.498 78.6103 15.4747 78.5729 15.456L 78.8109 14.406ZM 88.8079 13.188C 88.0052 13.1693 87.4359 12.9967 87.0999 12.67C 86.7639 12.3433 86.5959 11.8347 86.5959 11.144L 86.5959 2.408L 87.8979 2.184L 87.8979 10.934C 87.8979 11.1487 87.9166 11.326 87.9539 11.466C 87.9912 11.606 88.0519 11.718 88.1359 11.802C 88.2199 11.886 88.3319 11.9513 88.4719 11.998C 88.6119 12.0353 88.7846 12.068 88.9899 12.096L 88.8079 13.188ZM 90.046 9.422C 90.046 8.778 90.1394 8.218 90.326 7.742C 90.5127 7.25667 90.76 6.85533 91.068 6.538C 91.376 6.22067 91.7307 5.98267 92.132 5.824C 92.5334 5.66533 92.944 5.586 93.364 5.586C 94.344 5.586 95.0954 5.894 95.618 6.51C 96.1407 7.11667 96.402 8.04533 96.402 9.296C 96.402 9.352 96.402 9.42667 96.402 9.52C 96.402 9.604 96.3974 9.68333 96.388 9.758L 91.404 9.758C 91.46 10.514 91.6794 11.088 92.062 11.48C 92.4447 11.872 93.042 12.068 93.854 12.068C 94.3114 12.068 94.694 12.0307 95.002 11.956C 95.3194 11.872 95.5574 11.7927 95.716 11.718L 95.898 12.81C 95.7394 12.894 95.4594 12.9827 95.058 13.076C 94.666 13.1693 94.218 13.216 93.714 13.216C 93.0794 13.216 92.5287 13.1227 92.062 12.936C 91.6047 12.74 91.2267 12.474 90.928 12.138C 90.6294 11.802 90.4054 11.4053 90.256 10.948C 90.116 10.4813 90.046 9.97267 90.046 9.422ZM 95.044 8.708C 95.0534 8.12 94.904 7.63933 94.596 7.266C 94.2974 6.88333 93.882 6.692 93.35 6.692C 93.0514 6.692 92.7854 6.75267 92.552 6.874C 92.328 6.986 92.1367 7.13533 91.978 7.322C 91.8194 7.50867 91.6934 7.72333 91.6 7.966C 91.516 8.20867 91.46 8.456 91.432 8.708L 95.044 8.708ZM 107.939 9.408C 107.939 9.98667 107.855 10.5093 107.687 10.976C 107.519 11.4427 107.281 11.844 106.973 12.18C 106.674 12.516 106.315 12.7773 105.895 12.964C 105.475 13.1413 105.017 13.23 104.523 13.23C 104.028 13.23 103.571 13.1413 103.151 12.964C 102.731 12.7773 102.367 12.516 102.059 12.18C 101.76 11.844 101.527 11.4427 101.359 10.976C 101.191 10.5093 101.107 9.98667 101.107 9.408C 101.107 8.83867 101.191 8.32067 101.359 7.854C 101.527 7.378 101.76 6.972 102.059 6.636C 102.367 6.3 102.731 6.04333 103.151 5.866C 103.571 5.67933 104.028 5.586 104.523 5.586C 105.017 5.586 105.475 5.67933 105.895 5.866C 106.315 6.04333 106.674 6.3 106.973 6.636C 107.281 6.972 107.519 7.378 107.687 7.854C 107.855 8.32067 107.939 8.83867 107.939 9.408ZM 106.581 9.408C 106.581 8.58667 106.394 7.938 106.021 7.462C 105.657 6.97667 105.157 6.734 104.523 6.734C 103.888 6.734 103.384 6.97667 103.011 7.462C 102.647 7.938 102.465 8.58667 102.465 9.408C 102.465 10.2293 102.647 10.8827 103.011 11.368C 103.384 11.844 103.888 12.082 104.523 12.082C 105.157 12.082 105.657 11.844 106.021 11.368C 106.394 10.8827 106.581 10.2293 106.581 9.408ZM 112.612 2.184C 112.995 2.184 113.322 2.212 113.592 2.268C 113.872 2.324 114.068 2.37533 114.18 2.422L 113.942 3.542C 113.83 3.486 113.672 3.43467 113.466 3.388C 113.261 3.332 113.009 3.304 112.71 3.304C 112.104 3.304 111.679 3.472 111.436 3.808C 111.194 4.13467 111.072 4.578 111.072 5.138L 111.072 5.768L 113.872 5.768L 113.872 6.86L 111.072 6.86L 111.072 13.048L 109.77 13.048L 109.77 5.11C 109.77 4.17667 109.999 3.458 110.456 2.954C 110.914 2.44067 111.632 2.184 112.612 2.184ZM 123.465 9.422C 123.465 8.57267 123.255 7.91933 122.835 7.462C 122.415 7.00467 121.855 6.776 121.155 6.776C 120.763 6.776 120.455 6.79 120.231 6.818C 120.016 6.846 119.844 6.87867 119.713 6.916L 119.713 11.508C 119.872 11.6387 120.1 11.7647 120.399 11.886C 120.698 12.0073 121.024 12.068 121.379 12.068C 121.752 12.068 122.07 12.0027 122.331 11.872C 122.602 11.732 122.821 11.5453 122.989 11.312C 123.157 11.0693 123.278 10.7893 123.353 10.472C 123.428 10.1453 123.465 9.79533 123.465 9.422ZM 124.823 9.422C 124.823 9.97267 124.748 10.4813 124.599 10.948C 124.459 11.4147 124.249 11.816 123.969 12.152C 123.689 12.488 123.344 12.7493 122.933 12.936C 122.532 13.1227 122.07 13.216 121.547 13.216C 121.127 13.216 120.754 13.16 120.427 13.048C 120.11 12.936 119.872 12.8287 119.713 12.726L 119.713 15.638L 118.411 15.638L 118.411 5.992C 118.719 5.91733 119.102 5.838 119.559 5.754C 120.026 5.66067 120.562 5.614 121.169 5.614C 121.729 5.614 122.233 5.70267 122.681 5.88C 123.129 6.05733 123.512 6.30933 123.829 6.636C 124.146 6.96267 124.389 7.364 124.557 7.84C 124.734 8.30667 124.823 8.834 124.823 9.422ZM 129.119 12.11C 129.427 12.11 129.698 12.1053 129.931 12.096C 130.174 12.0773 130.374 12.0493 130.533 12.012L 130.533 9.842C 130.44 9.79533 130.286 9.758 130.071 9.73C 129.866 9.69267 129.614 9.674 129.315 9.674C 129.119 9.674 128.909 9.688 128.685 9.716C 128.47 9.744 128.27 9.80467 128.083 9.898C 127.906 9.982 127.756 10.1033 127.635 10.262C 127.514 10.4113 127.453 10.612 127.453 10.864C 127.453 11.3307 127.602 11.6573 127.901 11.844C 128.2 12.0213 128.606 12.11 129.119 12.11ZM 129.007 5.586C 129.53 5.586 129.968 5.656 130.323 5.796C 130.687 5.92667 130.976 6.118 131.191 6.37C 131.415 6.61267 131.574 6.90667 131.667 7.252C 131.76 7.588 131.807 7.96133 131.807 8.372L 131.807 12.922C 131.695 12.9407 131.536 12.9687 131.331 13.006C 131.135 13.034 130.911 13.062 130.659 13.09C 130.407 13.118 130.132 13.1413 129.833 13.16C 129.544 13.188 129.254 13.202 128.965 13.202C 128.554 13.202 128.176 13.16 127.831 13.076C 127.486 12.992 127.187 12.8613 126.935 12.684C 126.683 12.4973 126.487 12.2547 126.347 11.956C 126.207 11.6573 126.137 11.298 126.137 10.878C 126.137 10.4767 126.216 10.1313 126.375 9.842C 126.543 9.55267 126.767 9.31933 127.047 9.142C 127.327 8.96467 127.654 8.834 128.027 8.75C 128.4 8.666 128.792 8.624 129.203 8.624C 129.334 8.624 129.469 8.63333 129.609 8.652C 129.749 8.66133 129.88 8.68 130.001 8.708C 130.132 8.72667 130.244 8.74533 130.337 8.764C 130.43 8.78267 130.496 8.79667 130.533 8.806L 130.533 8.442C 130.533 8.22733 130.51 8.01733 130.463 7.812C 130.416 7.59733 130.332 7.41067 130.211 7.252C 130.09 7.084 129.922 6.95333 129.707 6.86C 129.502 6.75733 129.231 6.706 128.895 6.706C 128.466 6.706 128.088 6.73867 127.761 6.804C 127.444 6.86 127.206 6.92067 127.047 6.986L 126.893 5.908C 127.061 5.83333 127.341 5.76333 127.733 5.698C 128.125 5.62333 128.55 5.586 129.007 5.586ZM 136.658 5.614C 136.77 5.614 136.896 5.62333 137.036 5.642C 137.185 5.65133 137.33 5.67 137.47 5.698C 137.61 5.71667 137.736 5.74 137.848 5.768C 137.969 5.78667 138.058 5.80533 138.114 5.824L 137.89 6.958C 137.787 6.92067 137.614 6.87867 137.372 6.832C 137.138 6.776 136.835 6.748 136.462 6.748C 136.219 6.748 135.976 6.776 135.734 6.832C 135.5 6.87867 135.346 6.91133 135.272 6.93L 135.272 13.048L 133.97 13.048L 133.97 6.076C 134.278 5.964 134.66 5.86133 135.118 5.768C 135.575 5.66533 136.088 5.614 136.658 5.614ZM 141.834 12.11C 142.142 12.11 142.413 12.1053 142.646 12.096C 142.889 12.0773 143.089 12.0493 143.248 12.012L 143.248 9.842C 143.155 9.79533 143.001 9.758 142.786 9.73C 142.581 9.69267 142.329 9.674 142.03 9.674C 141.834 9.674 141.624 9.688 141.4 9.716C 141.185 9.744 140.985 9.80467 140.798 9.898C 140.621 9.982 140.471 10.1033 140.35 10.262C 140.229 10.4113 140.168 10.612 140.168 10.864C 140.168 11.3307 140.317 11.6573 140.616 11.844C 140.915 12.0213 141.321 12.11 141.834 12.11ZM 141.722 5.586C 142.245 5.586 142.683 5.656 143.038 5.796C 143.402 5.92667 143.691 6.118 143.906 6.37C 144.13 6.61267 144.289 6.90667 144.382 7.252C 144.475 7.588 144.522 7.96133 144.522 8.372L 144.522 12.922C 144.41 12.9407 144.251 12.9687 144.046 13.006C 143.85 13.034 143.626 13.062 143.374 13.09C 143.122 13.118 142.847 13.1413 142.548 13.16C 142.259 13.188 141.969 13.202 141.68 13.202C 141.269 13.202 140.891 13.16 140.546 13.076C 140.201 12.992 139.902 12.8613 139.65 12.684C 139.398 12.4973 139.202 12.2547 139.062 11.956C 138.922 11.6573 138.852 11.298 138.852 10.878C 138.852 10.4767 138.931 10.1313 139.09 9.842C 139.258 9.55267 139.482 9.31933 139.762 9.142C 140.042 8.96467 140.369 8.834 140.742 8.75C 141.115 8.666 141.507 8.624 141.918 8.624C 142.049 8.624 142.184 8.63333 142.324 8.652C 142.464 8.66133 142.595 8.68 142.716 8.708C 142.847 8.72667 142.959 8.74533 143.052 8.764C 143.145 8.78267 143.211 8.79667 143.248 8.806L 143.248 8.442C 143.248 8.22733 143.225 8.01733 143.178 7.812C 143.131 7.59733 143.047 7.41067 142.926 7.252C 142.805 7.084 142.637 6.95333 142.422 6.86C 142.217 6.75733 141.946 6.706 141.61 6.706C 141.181 6.706 140.803 6.73867 140.476 6.804C 140.159 6.86 139.921 6.92067 139.762 6.986L 139.608 5.908C 139.776 5.83333 140.056 5.76333 140.448 5.698C 140.84 5.62333 141.265 5.586 141.722 5.586ZM 151.248 12.32C 151.136 12.3947 150.917 12.4927 150.59 12.614C 150.273 12.726 149.9 12.782 149.47 12.782C 149.032 12.782 148.616 12.712 148.224 12.572C 147.842 12.432 147.506 12.2173 147.216 11.928C 146.927 11.6293 146.698 11.2607 146.53 10.822C 146.362 10.3833 146.278 9.86067 146.278 9.254C 146.278 8.722 146.358 8.23667 146.516 7.798C 146.675 7.35 146.904 6.96733 147.202 6.65C 147.51 6.32333 147.884 6.07133 148.322 5.894C 148.761 5.70733 149.256 5.614 149.806 5.614C 150.413 5.614 150.94 5.66067 151.388 5.754C 151.846 5.838 152.228 5.91733 152.536 5.992L 152.536 12.488C 152.536 13.608 152.247 14.42 151.668 14.924C 151.09 15.428 150.212 15.68 149.036 15.68C 148.579 15.68 148.145 15.6427 147.734 15.568C 147.333 15.4933 146.983 15.4047 146.684 15.302L 146.922 14.168C 147.184 14.2707 147.501 14.3593 147.874 14.434C 148.257 14.518 148.654 14.56 149.064 14.56C 149.839 14.56 150.394 14.406 150.73 14.098C 151.076 13.79 151.248 13.3 151.248 12.628L 151.248 12.32ZM 151.234 6.916C 151.104 6.87867 150.926 6.846 150.702 6.818C 150.488 6.78067 150.194 6.762 149.82 6.762C 149.12 6.762 148.579 6.99067 148.196 7.448C 147.823 7.90533 147.636 8.512 147.636 9.268C 147.636 9.688 147.688 10.0473 147.79 10.346C 147.902 10.6447 148.047 10.892 148.224 11.088C 148.411 11.284 148.621 11.4287 148.854 11.522C 149.097 11.6153 149.344 11.662 149.596 11.662C 149.942 11.662 150.259 11.6153 150.548 11.522C 150.838 11.4193 151.066 11.3027 151.234 11.172L 151.234 6.916ZM 157.466 5.614C 157.578 5.614 157.704 5.62333 157.844 5.642C 157.994 5.65133 158.138 5.67 158.278 5.698C 158.418 5.71667 158.544 5.74 158.656 5.768C 158.778 5.78667 158.866 5.80533 158.922 5.824L 158.698 6.958C 158.596 6.92067 158.423 6.87867 158.18 6.832C 157.947 6.776 157.644 6.748 157.27 6.748C 157.028 6.748 156.785 6.776 156.542 6.832C 156.309 6.87867 156.155 6.91133 156.08 6.93L 156.08 13.048L 154.778 13.048L 154.778 6.076C 155.086 5.964 155.469 5.86133 155.926 5.768C 156.384 5.66533 156.897 5.614 157.466 5.614ZM 162.643 12.11C 162.951 12.11 163.221 12.1053 163.455 12.096C 163.697 12.0773 163.898 12.0493 164.057 12.012L 164.057 9.842C 163.963 9.79533 163.809 9.758 163.595 9.73C 163.389 9.69267 163.137 9.674 162.839 9.674C 162.643 9.674 162.433 9.688 162.209 9.716C 161.994 9.744 161.793 9.80467 161.607 9.898C 161.429 9.982 161.28 10.1033 161.159 10.262C 161.037 10.4113 160.977 10.612 160.977 10.864C 160.977 11.3307 161.126 11.6573 161.425 11.844C 161.723 12.0213 162.129 12.11 162.643 12.11ZM 162.531 5.586C 163.053 5.586 163.492 5.656 163.847 5.796C 164.211 5.92667 164.5 6.118 164.715 6.37C 164.939 6.61267 165.097 6.90667 165.191 7.252C 165.284 7.588 165.331 7.96133 165.331 8.372L 165.331 12.922C 165.219 12.9407 165.06 12.9687 164.855 13.006C 164.659 13.034 164.435 13.062 164.183 13.09C 163.931 13.118 163.655 13.1413 163.357 13.16C 163.067 13.188 162.778 13.202 162.489 13.202C 162.078 13.202 161.7 13.16 161.355 13.076C 161.009 12.992 160.711 12.8613 160.459 12.684C 160.207 12.4973 160.011 12.2547 159.871 11.956C 159.731 11.6573 159.661 11.298 159.661 10.878C 159.661 10.4767 159.74 10.1313 159.899 9.842C 160.067 9.55267 160.291 9.31933 160.571 9.142C 160.851 8.96467 161.177 8.834 161.551 8.75C 161.924 8.666 162.316 8.624 162.727 8.624C 162.857 8.624 162.993 8.63333 163.133 8.652C 163.273 8.66133 163.403 8.68 163.525 8.708C 163.655 8.72667 163.767 8.74533 163.861 8.764C 163.954 8.78267 164.019 8.79667 164.057 8.806L 164.057 8.442C 164.057 8.22733 164.033 8.01733 163.987 7.812C 163.94 7.59733 163.856 7.41067 163.735 7.252C 163.613 7.084 163.445 6.95333 163.231 6.86C 163.025 6.75733 162.755 6.706 162.419 6.706C 161.989 6.706 161.611 6.73867 161.285 6.804C 160.967 6.86 160.729 6.92067 160.571 6.986L 160.417 5.908C 160.585 5.83333 160.865 5.76333 161.257 5.698C 161.649 5.62333 162.073 5.586 162.531 5.586ZM 172.547 9.422C 172.547 8.57267 172.337 7.91933 171.917 7.462C 171.497 7.00467 170.937 6.776 170.237 6.776C 169.845 6.776 169.537 6.79 169.313 6.818C 169.098 6.846 168.926 6.87867 168.795 6.916L 168.795 11.508C 168.954 11.6387 169.182 11.7647 169.481 11.886C 169.78 12.0073 170.106 12.068 170.461 12.068C 170.834 12.068 171.152 12.0027 171.413 11.872C 171.684 11.732 171.903 11.5453 172.071 11.312C 172.239 11.0693 172.36 10.7893 172.435 10.472C 172.51 10.1453 172.547 9.79533 172.547 9.422ZM 173.905 9.422C 173.905 9.97267 173.83 10.4813 173.681 10.948C 173.541 11.4147 173.331 11.816 173.051 12.152C 172.771 12.488 172.426 12.7493 172.015 12.936C 171.614 13.1227 171.152 13.216 170.629 13.216C 170.209 13.216 169.836 13.16 169.509 13.048C 169.192 12.936 168.954 12.8287 168.795 12.726L 168.795 15.638L 167.493 15.638L 167.493 5.992C 167.801 5.91733 168.184 5.838 168.641 5.754C 169.108 5.66067 169.644 5.614 170.251 5.614C 170.811 5.614 171.315 5.70267 171.763 5.88C 172.211 6.05733 172.594 6.30933 172.911 6.636C 173.228 6.96267 173.471 7.364 173.639 7.84C 173.816 8.30667 173.905 8.834 173.905 9.422ZM 175.737 13.048L 175.737 2.408L 177.039 2.184L 177.039 5.908C 177.282 5.81467 177.539 5.74467 177.809 5.698C 178.089 5.642 178.365 5.614 178.635 5.614C 179.214 5.614 179.695 5.698 180.077 5.866C 180.46 6.02467 180.763 6.25333 180.987 6.552C 181.221 6.84133 181.384 7.19133 181.477 7.602C 181.571 8.01267 181.617 8.46533 181.617 8.96L 181.617 13.048L 180.315 13.048L 180.315 9.24C 180.315 8.792 180.283 8.40933 180.217 8.092C 180.161 7.77467 180.063 7.518 179.923 7.322C 179.783 7.126 179.597 6.986 179.363 6.902C 179.13 6.80867 178.841 6.762 178.495 6.762C 178.355 6.762 178.211 6.77133 178.061 6.79C 177.912 6.80867 177.767 6.832 177.627 6.86C 177.497 6.87867 177.375 6.902 177.263 6.93C 177.161 6.958 177.086 6.98133 177.039 7L 177.039 13.048L 175.737 13.048ZM 188.193 5.768L 190.951 5.768L 190.951 6.86L 188.193 6.86L 188.193 10.22C 188.193 10.584 188.221 10.8873 188.277 11.13C 188.333 11.3633 188.417 11.55 188.529 11.69C 188.641 11.8207 188.781 11.914 188.949 11.97C 189.117 12.026 189.313 12.054 189.537 12.054C 189.929 12.054 190.242 12.012 190.475 11.928C 190.718 11.8347 190.886 11.7693 190.979 11.732L 191.231 12.81C 191.101 12.8753 190.872 12.9547 190.545 13.048C 190.219 13.1507 189.845 13.202 189.425 13.202C 188.931 13.202 188.52 13.1413 188.193 13.02C 187.876 12.8893 187.619 12.698 187.423 12.446C 187.227 12.194 187.087 11.886 187.003 11.522C 186.929 11.1487 186.891 10.7193 186.891 10.234L 186.891 3.738L 188.193 3.514L 188.193 5.768ZM 192.066 9.422C 192.066 8.778 192.159 8.218 192.346 7.742C 192.532 7.25667 192.78 6.85533 193.088 6.538C 193.396 6.22067 193.75 5.98267 194.152 5.824C 194.553 5.66533 194.964 5.586 195.384 5.586C 196.364 5.586 197.115 5.894 197.638 6.51C 198.16 7.11667 198.422 8.04533 198.422 9.296C 198.422 9.352 198.422 9.42667 198.422 9.52C 198.422 9.604 198.417 9.68333 198.408 9.758L 193.424 9.758C 193.48 10.514 193.699 11.088 194.082 11.48C 194.464 11.872 195.062 12.068 195.874 12.068C 196.331 12.068 196.714 12.0307 197.022 11.956C 197.339 11.872 197.577 11.7927 197.736 11.718L 197.918 12.81C 197.759 12.894 197.479 12.9827 197.078 13.076C 196.686 13.1693 196.238 13.216 195.734 13.216C 195.099 13.216 194.548 13.1227 194.082 12.936C 193.624 12.74 193.246 12.474 192.948 12.138C 192.649 11.802 192.425 11.4053 192.276 10.948C 192.136 10.4813 192.066 9.97267 192.066 9.422ZM 197.064 8.708C 197.073 8.12 196.924 7.63933 196.616 7.266C 196.317 6.88333 195.902 6.692 195.37 6.692C 195.071 6.692 194.805 6.75267 194.572 6.874C 194.348 6.986 194.156 7.13533 193.998 7.322C 193.839 7.50867 193.713 7.72333 193.62 7.966C 193.536 8.20867 193.48 8.456 193.452 8.708L 197.064 8.708ZM 204.646 13.048C 204.543 12.8427 204.417 12.614 204.268 12.362C 204.119 12.11 203.955 11.8533 203.778 11.592C 203.601 11.3213 203.419 11.0553 203.232 10.794C 203.045 10.5327 202.863 10.2853 202.686 10.052C 202.509 10.2853 202.327 10.5373 202.14 10.808C 201.953 11.0693 201.771 11.3353 201.594 11.606C 201.426 11.8673 201.267 12.124 201.118 12.376C 200.969 12.628 200.843 12.852 200.74 13.048L 199.396 13.048C 199.723 12.4133 200.11 11.7693 200.558 11.116C 201.015 10.4533 201.468 9.82333 201.916 9.226L 199.508 5.768L 200.978 5.768L 202.714 8.316L 204.464 5.768L 205.85 5.768L 203.498 9.142C 203.946 9.74867 204.403 10.3927 204.87 11.074C 205.346 11.746 205.747 12.404 206.074 13.048L 204.646 13.048ZM 208.66 5.768L 211.418 5.768L 211.418 6.86L 208.66 6.86L 208.66 10.22C 208.66 10.584 208.688 10.8873 208.744 11.13C 208.8 11.3633 208.884 11.55 208.996 11.69C 209.108 11.8207 209.248 11.914 209.416 11.97C 209.584 12.026 209.78 12.054 210.004 12.054C 210.396 12.054 210.709 12.012 210.942 11.928C 211.185 11.8347 211.353 11.7693 211.446 11.732L 211.698 12.81C 211.568 12.8753 211.339 12.9547 211.012 13.048C 210.686 13.1507 210.312 13.202 209.892 13.202C 209.398 13.202 208.987 13.1413 208.66 13.02C 208.343 12.8893 208.086 12.698 207.89 12.446C 207.694 12.194 207.554 11.886 207.47 11.522C 207.396 11.1487 207.358 10.7193 207.358 10.234L 207.358 3.738L 208.66 3.514L 208.66 5.768ZM 214.765 12.292C 214.765 12.544 214.681 12.7633 214.513 12.95C 214.345 13.1367 214.117 13.23 213.827 13.23C 213.538 13.23 213.309 13.1367 213.141 12.95C 212.973 12.7633 212.889 12.544 212.889 12.292C 212.889 12.04 212.973 11.8207 213.141 11.634C 213.309 11.4473 213.538 11.354 213.827 11.354C 214.117 11.354 214.345 11.4473 214.513 11.634C 214.681 11.8207 214.765 12.04 214.765 12.292Z"/><path id="path4_fill" d="M 0 2C 0 0.895431 0.895431 0 2 0L 304 0C 305.105 0 306 0.895431 306 2L 306 68C 306 69.1046 305.105 70 304 70L 2 70C 0.895431 70 0 69.1046 0 68L 0 2Z"/><path id="path5_fill" d="M 0 2C 0 0.895431 0.895431 0 2 0L 304 0C 305.105 0 306 0.895431 306 2L 306 68C 306 69.1046 305.105 70 304 70L 2 70C 0.895431 70 0 69.1046 0 68L 0 2Z"/><path id="path6_fill" d="M 19.8281 10.8457C 19.8867 10.9746 19.9395 11.1445 19.9863 11.3555C 20.0332 11.5547 20.0566 11.8008 20.0566 12.0938C 20.0566 12.8203 19.9512 13.6348 19.7402 14.5371C 19.5293 15.4277 19.2363 16.3828 18.8613 17.4023C 18.4863 18.4102 18.0293 19.459 17.4902 20.5488C 16.9512 21.6387 16.3594 22.7402 15.7148 23.8535C 15.0703 24.9668 14.373 26.0742 13.623 27.1758C 12.873 28.2656 12.0938 29.3203 11.2852 30.3398C 11.7891 30.9492 12.3223 31.5176 12.8848 32.0449C 13.459 32.5723 14.0625 33.041 14.6953 33.4512C 14.3086 33.7441 13.9453 33.9727 13.6055 34.1367C 13.1484 33.9375 12.6211 33.627 12.0234 33.2051C 11.4375 32.7832 10.8281 32.2676 10.1953 31.6582C 8.82422 33.2637 7.44727 34.6523 6.06445 35.8242C 4.69336 36.9961 3.33398 37.8691 1.98633 38.4434C 1.82227 38.5137 1.61719 38.5723 1.37109 38.6191C 1.125 38.6777 0.796875 38.707 0.386719 38.707C 0.0585937 38.707 -0.28125 38.584 -0.632812 38.3379C -0.984375 38.0918 -1.31836 37.7988 -1.63477 37.459C -1.96289 37.1191 -2.25 36.7734 -2.49609 36.4219C -2.75391 36.082 -2.95312 35.8125 -3.09375 35.6133C -3.24609 35.3906 -3.36914 35.1152 -3.46289 34.7871C -3.55664 34.459 -3.60352 34.0488 -3.60352 33.5566C -3.60352 32.959 -3.53906 32.3496 -3.41016 31.7285C -3.28125 31.1074 -3.04687 30.3984 -2.70703 29.6016C -2.56641 29.543 -2.31445 29.4609 -1.95117 29.3555C -1.59961 29.2383 -1.20703 29.1211 -0.773438 29.0039C -0.351562 28.8867 0.0703125 28.7754 0.492188 28.6699C 0.914062 28.5645 1.26562 28.4883 1.54688 28.4414C 1.19531 28.9688 0.867187 29.4785 0.5625 29.9707C 0.257813 30.4512 0 30.9375 -0.210938 31.4297C -0.433594 31.9102 -0.609375 32.4082 -0.738281 32.9238C -0.867187 33.4277 -0.931641 33.9609 -0.931641 34.5234C -0.931641 34.7578 -0.884766 34.9805 -0.791016 35.1914C -0.708984 35.4141 -0.550781 35.5254 -0.316406 35.5254C 0.046875 35.5254 0.503906 35.3438 1.05469 34.9805C 1.60547 34.6172 2.21484 34.1133 2.88281 33.4688C 3.5625 32.8242 4.2832 32.0625 5.04492 31.1836C 5.80664 30.3047 6.58594 29.3555 7.38281 28.3359C 6.9375 27.7031 6.52734 27.0352 6.15234 26.332C 5.77734 25.6172 5.44922 24.8789 5.16797 24.1172C 4.89844 23.3438 4.68164 22.5527 4.51758 21.7441C 4.36523 20.9355 4.28906 20.1094 4.28906 19.2656C 4.28906 18.0234 4.48242 16.875 4.86914 15.8203C 5.26758 14.7656 5.78906 13.8105 6.43359 12.9551C 7.08984 12.0879 7.83398 11.3262 8.66602 10.6699C 9.50977 10.0137 10.377 9.46289 11.2676 9.01758C 12.1582 8.57226 13.0371 8.23828 13.9043 8.01562C 14.7832 7.78125 15.5859 7.66406 16.3125 7.66406C 16.7109 7.66406 17.0098 7.74024 17.209 7.89258C 17.4082 8.02149 17.6426 8.2207 17.9121 8.49023C 18.1816 8.74805 18.4453 9.02344 18.7031 9.31641C 18.9727 9.60937 19.207 9.89648 19.4062 10.1777C 19.6172 10.4473 19.7578 10.6699 19.8281 10.8457ZM 7.38281 21.1641C 7.38281 21.9492 7.50586 22.793 7.75195 23.6953C 7.99805 24.5977 8.34375 25.5117 8.78906 26.4375C 9.49219 25.4648 10.1777 24.4688 10.8457 23.4492C 11.5254 22.418 12.1641 21.3926 12.7617 20.373C 13.3711 19.3535 13.9277 18.3516 14.4316 17.3672C 14.9473 16.3828 15.3867 15.4512 15.75 14.5723C 16.125 13.6816 16.4121 12.8613 16.6113 12.1113C 16.8223 11.3496 16.9277 10.6875 16.9277 10.125C 16.9277 9.97266 16.8984 9.87891 16.8398 9.84375C 16.7813 9.80859 16.6992 9.79102 16.5938 9.79102C 16.4297 9.79102 16.084 9.89062 15.5566 10.0898C 15.041 10.2773 14.4434 10.5762 13.7637 10.9863C 13.084 11.3848 12.3691 11.8945 11.6191 12.5156C 10.8691 13.125 10.1777 13.8516 9.54492 14.6953C 8.92383 15.5391 8.4082 16.5 7.99805 17.5781C 7.58789 18.6562 7.38281 19.8516 7.38281 21.1641ZM 23.3438 36.2812C 23.9531 35.2383 24.5977 34.0547 25.2773 32.7305C 25.957 31.3945 26.6484 29.9648 27.3516 28.4414C 28.0547 26.9062 28.7578 25.2891 29.4609 23.5898C 30.1641 21.8906 30.8437 20.1504 31.5 18.3691C 32.1563 16.5762 32.7773 14.7539 33.3633 12.9023C 33.9492 11.0508 34.4766 9.21094 34.9453 7.38281C 35.2852 7.71094 35.6367 8.03906 36 8.36719C 36.375 8.68359 36.7383 9 37.0898 9.31641C 37.4414 9.62109 37.7695 9.92578 38.0742 10.2305C 38.3906 10.5234 38.6543 10.7988 38.8652 11.0566C 38.4316 12.3223 37.9277 13.6582 37.3535 15.0645C 36.7793 16.459 36.1699 17.8828 35.5254 19.3359C 34.8809 20.7773 34.2129 22.2129 33.5215 23.6426C 32.8418 25.0723 32.168 26.4434 31.5 27.7559C 30.8437 29.0684 30.2168 30.2988 29.6191 31.4473C 29.0215 32.584 28.4883 33.5859 28.0195 34.4531C 28.7227 34.4531 29.5547 34.459 30.5156 34.4707C 31.4766 34.4707 32.5195 34.4766 33.6445 34.4883C 34.7695 34.5 35.9531 34.5176 37.1953 34.541C 38.4375 34.5645 39.6914 34.5938 40.957 34.6289C 40.7695 34.8867 40.5527 35.168 40.3066 35.4727C 40.0605 35.7773 39.7969 36.0879 39.5156 36.4043C 39.2461 36.7324 38.9648 37.0488 38.6719 37.3535C 38.3906 37.6699 38.1094 37.9629 37.8281 38.2324C 36.7734 38.1738 35.7539 38.0977 34.7695 38.0039C 33.7969 37.9102 32.8535 37.7988 31.9395 37.6699C 31.0254 37.5527 30.1289 37.4297 29.25 37.3008C 28.3828 37.1719 27.5215 37.043 26.666 36.9141C 26.5371 37.1484 26.4316 37.3184 26.3496 37.4238C 26.2793 37.5293 26.25 37.5703 26.2617 37.5469L 23.3438 36.2812ZM 45.5625 33.3809C 45.5625 33.7324 45.6914 33.9082 45.9492 33.9082C 46.2188 33.9082 46.5762 33.6973 47.0215 33.2754C 47.4668 32.8418 47.9297 32.2969 48.4102 31.6406C 48.3867 31.5117 48.3691 31.4004 48.3574 31.3066C 48.3574 31.2012 48.3574 31.1074 48.3574 31.0254C 48.3574 30.791 48.3809 30.5156 48.4277 30.1992C 48.4863 29.8711 48.6211 29.502 48.832 29.0918C 48.9727 28.7754 49.1426 28.4648 49.3418 28.1602C 49.5059 27.8906 49.7051 27.6035 49.9395 27.2988C 50.1738 26.9824 50.4316 26.6895 50.7129 26.4199L 50.8184 26.3145C 50.9355 26.4551 51.0879 26.6484 51.2754 26.8945C 51.4746 27.1289 51.668 27.375 51.8555 27.6328C 52.0547 27.8789 52.2246 28.1074 52.3652 28.3184C 52.5176 28.5293 52.6113 28.6758 52.6465 28.7578C 52.6465 29.2617 52.5527 29.7656 52.3652 30.2695C 52.1895 30.7734 51.9492 31.2715 51.6445 31.7637C 52.3477 31.7168 52.998 31.541 53.5957 31.2363C 54.2051 30.9199 54.8379 30.4102 55.4941 29.707C 55.5996 29.8125 55.7344 29.959 55.8984 30.1465C 56.0742 30.3223 56.2148 30.4746 56.3203 30.6035C 55.8281 31.1191 55.3418 31.5469 54.8613 31.8867C 54.3926 32.2266 53.918 32.4961 53.4375 32.6953C 52.9688 32.8945 52.4883 33.041 51.9961 33.1348C 51.5039 33.2168 51 33.2578 50.4844 33.2578C 50.0859 33.6797 49.6582 34.0664 49.2012 34.418C 48.7441 34.7695 48.2754 35.0742 47.7949 35.332C 47.3262 35.5898 46.8574 35.7891 46.3887 35.9297C 45.9199 36.0703 45.4746 36.1406 45.0527 36.1406C 44.7012 36.1406 44.3379 36.0352 43.9629 35.8242C 43.5879 35.6133 43.248 35.3555 42.9434 35.0508C 42.6387 34.7344 42.3867 34.4004 42.1875 34.0488C 41.9883 33.6973 41.8887 33.3867 41.8887 33.1172C 41.8887 32.2266 42.0117 31.3418 42.2578 30.4629C 42.4922 29.584 42.8672 28.7637 43.3828 28.002C 43.8867 27.2285 44.5312 26.5488 45.3164 25.9629C 46.1133 25.377 47.0566 24.9316 48.1465 24.627C 48.1816 24.6035 48.2402 24.5859 48.3223 24.5742C 48.416 24.5625 48.4922 24.5566 48.5508 24.5566C 48.7148 24.5566 48.8848 24.6211 49.0605 24.75C 49.248 24.8672 49.418 25.002 49.5703 25.1543C 49.7344 25.3066 49.8691 25.459 49.9746 25.6113C 50.0801 25.752 50.1328 25.8457 50.1328 25.8926C 50.1094 25.9512 50.0215 26.0273 49.8691 26.1211C 49.7168 26.2031 49.5117 26.3496 49.2539 26.5605C 48.9961 26.7715 48.6914 27.0762 48.3398 27.4746C 47.9883 27.8613 47.6016 28.377 47.1797 29.0215C 46.5469 29.9707 46.1191 30.832 45.8965 31.6055C 45.6738 32.3672 45.5625 32.959 45.5625 33.3809ZM 63.457 33.3457C 62.9648 33.3457 62.5371 33.2637 62.1738 33.0996C 61.7871 33.5098 61.3828 33.8965 60.9609 34.2598C 60.5391 34.6113 60.123 34.9219 59.7129 35.1914C 59.3027 35.4727 58.8984 35.6953 58.5 35.8594C 58.1016 36.0234 57.7266 36.1172 57.375 36.1406C 57.1992 36.1406 56.9414 36.0645 56.6016 35.9121C 56.2734 35.7598 55.9512 35.5605 55.6348 35.3145C 55.3066 35.0801 55.0254 34.8105 54.791 34.5059C 54.5449 34.1895 54.4219 33.873 54.4219 33.5566C 54.4219 32.7832 54.498 32.0098 54.6504 31.2363C 54.8027 30.4512 54.9961 29.6777 55.2305 28.916C 55.4531 28.1543 55.7051 27.4102 55.9863 26.6836C 56.2559 25.9453 56.5137 25.2363 56.7598 24.5566C 57.3574 24.8262 57.9375 25.125 58.5 25.4531C 59.0742 25.7813 59.6074 26.168 60.0996 26.6133C 59.9238 26.9648 59.748 27.3691 59.5723 27.8262C 59.3965 28.2832 59.2266 28.7578 59.0625 29.25C 58.8984 29.7422 58.7461 30.2344 58.6055 30.7266C 58.4648 31.2188 58.3418 31.6758 58.2363 32.0977C 58.1309 32.5195 58.0488 32.8945 57.9902 33.2227C 57.9316 33.5391 57.9023 33.7676 57.9023 33.9082C 57.9023 34.002 57.9199 34.0898 57.9551 34.1719C 58.002 34.2422 58.0723 34.2773 58.166 34.2773C 58.3535 34.2773 58.5586 34.2188 58.7812 34.1016C 59.0156 33.9844 59.2617 33.832 59.5195 33.6445C 59.7773 33.4453 60.0352 33.2168 60.293 32.959C 60.5625 32.6895 60.8203 32.4082 61.0664 32.1152C 60.8555 31.752 60.75 31.3887 60.75 31.0254C 60.75 30.7793 60.7852 30.4863 60.8555 30.1465C 60.9375 29.7949 61.043 29.4316 61.1719 29.0566C 61.3008 28.6816 61.4414 28.3066 61.5938 27.9316C 61.7578 27.5449 61.9219 27.1875 62.0859 26.8594C 62.2617 26.5313 62.4258 26.2441 62.5781 25.998C 62.7422 25.752 62.8887 25.5703 63.0176 25.4531C 63.2871 25.5586 63.5684 25.7051 63.8613 25.8926C 64.1543 26.0684 64.4238 26.2617 64.6699 26.4727C 64.916 26.6719 65.1152 26.8711 65.2676 27.0703C 65.4316 27.2578 65.5254 27.416 65.5488 27.5449C 65.5488 27.791 65.4902 28.0781 65.373 28.4062C 65.2559 28.7344 65.0918 29.0918 64.8809 29.4785C 64.6816 29.8535 64.4355 30.252 64.1426 30.6738C 63.8613 31.084 63.5508 31.5 63.2109 31.9219C 63.2812 31.9453 63.3516 31.9688 63.4219 31.9922C 63.5039 32.0039 63.5977 32.0098 63.7031 32.0098C 64.1719 32.0098 64.5879 31.9629 64.9512 31.8691C 65.3145 31.7754 65.6602 31.6406 65.9883 31.4648C 66.3164 31.2773 66.6387 31.0488 66.9551 30.7793C 67.2715 30.5098 67.6172 30.1992 67.9922 29.8477C 68.0977 29.9531 68.2324 30.0938 68.3965 30.2695C 68.5723 30.4336 68.7129 30.5801 68.8184 30.709C 68.3262 31.2012 67.8574 31.6172 67.4121 31.957C 66.9785 32.2852 66.5449 32.5547 66.1113 32.7656C 65.6895 32.9648 65.2617 33.1113 64.8281 33.2051C 64.3945 33.2988 63.9375 33.3457 63.457 33.3457ZM 79.998 30.8496C 78.9199 31.9043 77.9004 32.7891 76.9395 33.5039C 75.9902 34.2188 75.082 34.793 74.2148 35.2266C 73.3477 35.6602 72.5156 35.9707 71.7188 36.1582C 70.9336 36.3457 70.166 36.4395 69.416 36.4395C 69.0996 36.4395 68.748 36.3223 68.3613 36.0879C 67.9746 35.8535 67.6172 35.5664 67.2891 35.2266C 66.9492 34.8984 66.668 34.5527 66.4453 34.1895C 66.2227 33.8262 66.1113 33.5156 66.1113 33.2578C 66.1113 32.2969 66.2461 31.418 66.5156 30.6211C 66.7734 29.8125 67.1191 29.0859 67.5527 28.4414C 67.9863 27.7969 68.4785 27.2285 69.0293 26.7363C 69.5918 26.2441 70.1719 25.834 70.7695 25.5059C 71.3789 25.1777 71.9824 24.9316 72.5801 24.7676C 73.1777 24.6035 73.7285 24.5215 74.2324 24.5215C 74.5957 24.5215 74.9531 24.627 75.3047 24.8379C 75.668 25.0488 75.9961 25.3066 76.2891 25.6113C 76.582 25.916 76.8164 26.2383 76.9922 26.5781C 77.1797 26.9062 77.2734 27.1934 77.2734 27.4395C 77.2734 27.8379 77.1035 28.248 76.7637 28.6699C 76.4355 29.0801 75.9668 29.502 75.3574 29.9355C 74.748 30.3691 74.0156 30.8145 73.1602 31.2715C 72.3047 31.7168 71.3613 32.168 70.3301 32.625C 70.2949 32.9062 70.2773 33.1816 70.2773 33.4512C 70.2773 33.8145 70.3535 34.0605 70.5059 34.1895C 70.6699 34.3184 70.9687 34.3828 71.4023 34.3828C 72.1758 34.3828 72.9023 34.2539 73.582 33.9961C 74.2734 33.7383 74.9355 33.4043 75.5684 32.9941C 76.2012 32.584 76.8105 32.1152 77.3965 31.5879C 77.9824 31.0605 78.5625 30.5273 79.1367 29.9883L 79.998 30.8496ZM 73.8105 26.4551C 73.5762 26.4551 73.3184 26.584 73.0371 26.8418C 72.7559 27.0879 72.4746 27.416 72.1934 27.8262C 71.9121 28.2363 71.6426 28.7109 71.3848 29.25C 71.127 29.7773 70.9043 30.3281 70.7168 30.9023C 71.1504 30.6211 71.5723 30.3223 71.9824 30.0059C 72.4043 29.6895 72.7793 29.3613 73.1074 29.0215C 73.4355 28.6699 73.6992 28.3125 73.8984 27.9492C 74.0977 27.5859 74.1973 27.2227 74.1973 26.8594C 74.1973 26.7539 74.1621 26.6602 74.0918 26.5781C 74.0332 26.4961 73.9395 26.4551 73.8105 26.4551ZM 107.93 10.8457C 107.988 10.9746 108.041 11.1445 108.088 11.3555C 108.135 11.5547 108.158 11.8008 108.158 12.0938C 108.158 12.8203 108.053 13.6348 107.842 14.5371C 107.631 15.4277 107.338 16.3828 106.963 17.4023C 106.588 18.4102 106.131 19.459 105.592 20.5488C 105.053 21.6387 104.461 22.7402 103.816 23.8535C 103.172 24.9668 102.475 26.0742 101.725 27.1758C 100.975 28.2656 100.195 29.3203 99.3867 30.3398C 99.8906 30.9492 100.424 31.5176 100.986 32.0449C 101.561 32.5723 102.164 33.041 102.797 33.4512C 102.41 33.7441 102.047 33.9727 101.707 34.1367C 101.25 33.9375 100.723 33.627 100.125 33.2051C 99.5391 32.7832 98.9297 32.2676 98.2969 31.6582C 96.9258 33.2637 95.5488 34.6523 94.166 35.8242C 92.7949 36.9961 91.4355 37.8691 90.0879 38.4434C 89.9238 38.5137 89.7188 38.5723 89.4727 38.6191C 89.2266 38.6777 88.8984 38.707 88.4883 38.707C 88.1602 38.707 87.8203 38.584 87.4688 38.3379C 87.1172 38.0918 86.7832 37.7988 86.4668 37.459C 86.1387 37.1191 85.8516 36.7734 85.6055 36.4219C 85.3477 36.082 85.1484 35.8125 85.0078 35.6133C 84.8555 35.3906 84.7324 35.1152 84.6387 34.7871C 84.5449 34.459 84.498 34.0488 84.498 33.5566C 84.498 32.959 84.5625 32.3496 84.6914 31.7285C 84.8203 31.1074 85.0547 30.3984 85.3945 29.6016C 85.5352 29.543 85.7871 29.4609 86.1504 29.3555C 86.502 29.2383 86.8945 29.1211 87.3281 29.0039C 87.75 28.8867 88.1719 28.7754 88.5938 28.6699C 89.0156 28.5645 89.3672 28.4883 89.6484 28.4414C 89.2969 28.9688 88.9687 29.4785 88.6641 29.9707C 88.3594 30.4512 88.1016 30.9375 87.8906 31.4297C 87.668 31.9102 87.4922 32.4082 87.3633 32.9238C 87.2344 33.4277 87.1699 33.9609 87.1699 34.5234C 87.1699 34.7578 87.2168 34.9805 87.3105 35.1914C 87.3926 35.4141 87.5508 35.5254 87.7852 35.5254C 88.1484 35.5254 88.6055 35.3438 89.1562 34.9805C 89.707 34.6172 90.3164 34.1133 90.9844 33.4688C 91.6641 32.8242 92.3848 32.0625 93.1465 31.1836C 93.9082 30.3047 94.6875 29.3555 95.4844 28.3359C 95.0391 27.7031 94.6289 27.0352 94.2539 26.332C 93.8789 25.6172 93.5508 24.8789 93.2695 24.1172C 93 23.3438 92.7832 22.5527 92.6191 21.7441C 92.4668 20.9355 92.3906 20.1094 92.3906 19.2656C 92.3906 18.0234 92.584 16.875 92.9707 15.8203C 93.3691 14.7656 93.8906 13.8105 94.5352 12.9551C 95.1914 12.0879 95.9355 11.3262 96.7676 10.6699C 97.6113 10.0137 98.4785 9.46289 99.3691 9.01758C 100.26 8.57226 101.139 8.23828 102.006 8.01562C 102.885 7.78125 103.688 7.66406 104.414 7.66406C 104.813 7.66406 105.111 7.74024 105.311 7.89258C 105.51 8.02149 105.744 8.2207 106.014 8.49023C 106.283 8.74805 106.547 9.02344 106.805 9.31641C 107.074 9.60937 107.309 9.89648 107.508 10.1777C 107.719 10.4473 107.859 10.6699 107.93 10.8457ZM 95.4844 21.1641C 95.4844 21.9492 95.6074 22.793 95.8535 23.6953C 96.0996 24.5977 96.4453 25.5117 96.8906 26.4375C 97.5938 25.4648 98.2793 24.4688 98.9473 23.4492C 99.627 22.418 100.266 21.3926 100.863 20.373C 101.473 19.3535 102.029 18.3516 102.533 17.3672C 103.049 16.3828 103.488 15.4512 103.852 14.5723C 104.227 13.6816 104.514 12.8613 104.713 12.1113C 104.924 11.3496 105.029 10.6875 105.029 10.125C 105.029 9.97266 105 9.87891 104.941 9.84375C 104.883 9.80859 104.801 9.79102 104.695 9.79102C 104.531 9.79102 104.186 9.89062 103.658 10.0898C 103.143 10.2773 102.545 10.5762 101.865 10.9863C 101.186 11.3848 100.471 11.8945 99.7207 12.5156C 98.9707 13.125 98.2793 13.8516 97.6465 14.6953C 97.0254 15.5391 96.5098 16.5 96.0996 17.5781C 95.6895 18.6562 95.4844 19.8516 95.4844 21.1641ZM 107.596 36.1406C 107.396 36.1406 107.133 36.0469 106.805 35.8594C 106.488 35.6836 106.178 35.4609 105.873 35.1914C 105.568 34.9336 105.305 34.6641 105.082 34.3828C 104.859 34.1016 104.748 33.8613 104.748 33.6621C 104.748 33.3105 104.848 32.7539 105.047 31.9922C 105.234 31.2305 105.486 30.3633 105.803 29.3906C 106.119 28.4062 106.477 27.3574 106.875 26.2441C 107.285 25.1309 107.695 24.041 108.105 22.9746L 105.627 22.9746L 105.609 22.9746C 105.598 22.9746 105.592 22.9629 105.592 22.9395C 105.592 22.8691 105.621 22.7695 105.68 22.6406C 105.727 22.5 105.791 22.3594 105.873 22.2188C 105.943 22.0664 106.031 21.9316 106.137 21.8145C 106.23 21.6855 106.324 21.6035 106.418 21.5684L 108.703 21.4629C 109.031 20.666 109.342 19.9336 109.635 19.2656C 109.939 18.5859 110.209 18.0059 110.443 17.5254C 110.502 17.3965 110.561 17.2617 110.619 17.1211C 110.689 16.9688 110.783 16.8223 110.9 16.6816C 111.029 16.5293 111.193 16.377 111.393 16.2246C 111.604 16.0605 111.885 15.8965 112.236 15.7324C 112.494 15.6035 112.805 15.4629 113.168 15.3105C 113.543 15.1582 113.906 15.0176 114.258 14.8887C 114.621 14.7598 114.949 14.6543 115.242 14.5723C 115.535 14.4785 115.746 14.4316 115.875 14.4316C 115.992 14.4316 116.051 14.4551 116.051 14.502L 116.051 14.5371C 116.051 14.5488 116.039 14.5781 116.016 14.625C 115.945 14.7422 115.816 15 115.629 15.3984C 115.441 15.7852 115.207 16.2773 114.926 16.875C 114.656 17.4609 114.352 18.1348 114.012 18.8965C 113.684 19.6465 113.344 20.4434 112.992 21.2871L 117.211 21.1289C 117.328 21.1289 117.363 21.1992 117.316 21.3398C 117.27 21.4805 117.182 21.6445 117.053 21.832C 116.924 22.0195 116.771 22.2129 116.596 22.4121C 116.432 22.6113 116.291 22.7637 116.174 22.8691C 116.15 22.8926 116.104 22.916 116.033 22.9395C 115.963 22.9629 115.875 22.9746 115.77 22.9746L 112.289 22.9746C 111.867 23.9941 111.463 25.0254 111.076 26.0684C 110.689 27.1113 110.344 28.1016 110.039 29.0391C 109.734 29.9766 109.488 30.8379 109.301 31.623C 109.125 32.4082 109.037 33.0527 109.037 33.5566C 109.037 33.627 109.072 33.6621 109.143 33.6621C 109.271 33.6621 109.465 33.5918 109.723 33.4512C 109.98 33.2988 110.268 33.1055 110.584 32.8711C 110.912 32.6367 111.258 32.3789 111.621 32.0977C 111.984 31.8164 112.33 31.541 112.658 31.2715C 112.986 30.9902 113.279 30.7383 113.537 30.5156C 113.807 30.2812 114.012 30.1055 114.152 29.9883C 114.258 30.0938 114.381 30.2285 114.521 30.3926C 114.674 30.5566 114.814 30.709 114.943 30.8496C 114.686 31.1074 114.363 31.4238 113.977 31.7988C 113.59 32.1621 113.168 32.5371 112.711 32.9238C 112.266 33.3105 111.797 33.6973 111.305 34.084C 110.824 34.4707 110.35 34.8164 109.881 35.1211C 109.424 35.4258 108.996 35.6719 108.598 35.8594C 108.199 36.0469 107.865 36.1406 107.596 36.1406ZM 128.566 13.1133C 127.969 14.6133 127.348 16.1191 126.703 17.6309C 126.059 19.1309 125.414 20.5957 124.77 22.0254C 124.125 23.4434 123.492 24.7969 122.871 26.0859C 122.25 27.375 121.676 28.5469 121.148 29.6016C 120.645 29.4492 120.17 29.2266 119.725 28.9336C 119.279 28.6406 118.928 28.3301 118.67 28.002C 119.033 27.0996 119.402 26.0918 119.777 24.9785C 120.164 23.8535 120.574 22.5527 121.008 21.0762C 121.453 19.5996 121.934 17.9063 122.449 15.9961C 122.977 14.0859 123.574 11.8887 124.242 9.4043C 124.699 9.5918 125.168 9.86133 125.648 10.2129C 126.141 10.5645 126.592 10.9277 127.002 11.3027C 127.412 11.6777 127.758 12.0352 128.039 12.375C 128.332 12.7031 128.508 12.9492 128.566 13.1133ZM 120.498 32.9062C 120.498 33 120.416 33.2168 120.252 33.5566C 120.088 33.8848 119.895 34.2363 119.672 34.6113C 119.461 34.9746 119.244 35.3027 119.021 35.5957C 118.811 35.8887 118.658 36.0352 118.564 36.0352C 118.506 36.0352 118.389 36 118.213 35.9297C 118.037 35.8711 117.838 35.7891 117.615 35.6836C 117.393 35.5898 117.158 35.4785 116.912 35.3496C 116.666 35.2207 116.443 35.0977 116.244 34.9805C 116.045 34.8633 115.875 34.7578 115.734 34.6641C 115.605 34.5703 115.541 34.5 115.541 34.4531C 115.541 34.2422 115.617 33.9434 115.77 33.5566C 115.934 33.1582 116.121 32.7715 116.332 32.3965C 116.543 32.0215 116.742 31.6934 116.93 31.4121C 117.129 31.1309 117.264 30.9902 117.334 30.9902C 117.451 30.9902 117.609 31.0312 117.809 31.1133C 118.02 31.1953 118.242 31.3008 118.477 31.4297C 118.711 31.5469 118.945 31.6875 119.18 31.8516C 119.426 32.0039 119.643 32.1504 119.83 32.291C 120.029 32.4316 120.188 32.5605 120.305 32.6777C 120.434 32.7832 120.498 32.8594 120.498 32.9062Z"/></defs></svg>
